<svg xmlns="http://www.w3.org/2000/svg" viewBox="0 0 900 900"><defs><radialGradient id="uuid-3f13d803-e3a9-48b2-98c9-f65376d4a7bf" cx="726.16" cy="24.68" fx="726.16" fy="24.68" r="541.95" gradientTransform="scale(1 -1) rotate(45 1149.195 -545.068)" gradientUnits="userSpaceOnUse"><stop offset=".25" stop-color="#fff"/><stop offset=".64" stop-color="#fff" stop-opacity=".72"/><stop offset=".73" stop-color="#fff" stop-opacity=".5"/><stop offset=".82" stop-color="#fff" stop-opacity=".29"/><stop offset=".9" stop-color="#fff" stop-opacity=".13"/><stop offset=".96" stop-color="#fff" stop-opacity=".03"/><stop offset="1" stop-color="#fff" stop-opacity="0"/></radialGradient><radialGradient id="uuid-203f1b8d-f280-45d6-b365-38cb440500f8" cx="721.74" cy="14.9" fx="721.74" fy="14.9" r="449.08" gradientTransform="scale(1 -1) rotate(45 1149.195 -545.068)" gradientUnits="userSpaceOnUse"><stop offset="0" stop-color="#797a7a"/><stop offset=".81" stop-color="#a6a7a7"/><stop offset=".84" stop-color="#a8a9aa"/><stop offset=".94" stop-color="#d5d6d6"/><stop offset="1" stop-color="#f3f3f3"/></radialGradient><radialGradient id="uuid-662882e5-a1dc-40a7-af78-a8ccc3ce9199" cx="593.37" cy="141.25" fx="593.37" fy="141.25" r="621.39" gradientTransform="scale(1 -1) rotate(45 1149.195 -545.068)" gradientUnits="userSpaceOnUse"><stop offset=".51" stop-color="#121212"/><stop offset=".56" stop-color="#171717"/><stop offset=".62" stop-color="#262626"/><stop offset=".69" stop-color="#404040"/><stop offset=".77" stop-color="#646464"/><stop offset=".85" stop-color="#929292"/><stop offset=".93" stop-color="#c9c9c9"/><stop offset="1" stop-color="#fff"/></radialGradient><style>.uuid-421e3dad-639a-41b1-93f1-8b79951c86bf,.uuid-cd1c811d-3c06-42a4-afda-d20039bfb4f8{stroke-width:0;fill:#fff}.uuid-3cc35ccc-8538-4800-91c4-6c517824cdea{opacity:.5}.uuid-421e3dad-639a-41b1-93f1-8b79951c86bf,.uuid-6a2233c2-8f18-41a6-aa4e-c8defc4449b1{opacity:.52}</style></defs><g style="isolation:isolate"><g id="uuid-1f64f2bb-eed2-4cce-b85b-53ada551265e" data-name="Capa 2"><path d="M824.79 57.52c-211.99-211.97-555.68-211.97-767.66.02-211.99 211.99-211.99 555.67 0 767.66s555.67 211.99 767.67 0c211.98-211.99 211.99-555.69 0-767.68z" fill="url(#uuid-3f13d803-e3a9-48b2-98c9-f65376d4a7bf)" opacity=".6" stroke-width="0"/><path d="M768.52 133.82c-175.37-175.37-459.73-175.37-635.09 0-175.39 175.37-175.37 459.72 0 635.09 175.37 175.39 459.71 175.37 635.09 0 175.37-175.38 175.37-459.71 0-635.09z" fill="#a8a9aa" opacity=".52" stroke-width="0"/><path d="M768.52 133.82c-175.37-175.37-459.73-175.37-635.09 0-175.39 175.37-175.37 459.72 0 635.09 175.37 175.39 459.71 175.37 635.09 0 175.37-175.38 175.37-459.71 0-635.09z" fill="url(#uuid-203f1b8d-f280-45d6-b365-38cb440500f8)" stroke-width="0"/><path class="uuid-421e3dad-639a-41b1-93f1-8b79951c86bf" d="M133.43 768.91h-.02c-4.57-8.12-5.49-18.18 3.78-22.62 9.37-4.48 8.44 2.33 15.84 4.59 13.55 4.14 6.55-10.64 15.87-16.87 5.5 3.86 8.87 8.92 8.55 15.74 3.13-2.16 5.57-5.61 7.23-8.38 7.01-11.58 12.02-23.01 23.73-31.79 21.32-15.99 2.75 11.18.91 19.09 8.16-4.1 17.02-4.42 24.31-.72 10.76 5.5 7.66 7.21 19.75 2.55 8.46-3.27 15.02-6.06 20.47 4.69 3.78 7.46-.4 15.5 4.59 23.32 7.63-6.92 15.15-19.9 25.51-20.93 12.44-1.24 19.16 11.76 10.26 22.06 5.05 6.4 13.68 13.92 19.93 4.79.02.02 2.21 2.17 2.13 2.14-14.45 16.13 15.48 10.97 17.1 15.39 1.38 3.79-6.24 7.73-6.62 10.66-.6 4.46 2.67 3.46 3.68 7.3 2.25 8.65 4.41 13.92 11.16 19.69 1.2-.47 2.64-1.24 3.72-1.91-9.56-25.54 14.48-28.23 29.37-36.94 2.64-1.56 3.64 1.21 6.29-1.66 4.44-4.78 4.14-13.33 7.81-18.77 5.71-8.47 10.46-9.5 19.41-5.53 5.1 2.25 9.31 7.29 14.15 7.81 8.3.9 9.36-5.99 15.65-9.37 11.64-6.27 19.32-1.62 28.13 7.81-9.45 10.15-19.61 19.86-29.5 29.62 4.84-3.87 9.6-.58 12.96 4.08-4.32 4.8-10.21 9.01-13.98 14.22-6.12 8.47-5.82 6.28 1.22 11.62 3.82 2.88 17.09 4.21 12.9 12.02-2.53 4.69-8.18 3.84-11.7.81-4.74 5.92-9.89.58-15.88 3.03-6.38 2.6-5.69 10.72-8.21 13.24-9.91 9.9-31.43 10.5-12.57 24.63 9.47-5.41 14.61-11.56 24.79-13.91 9.32-2.15 19.41-3.39 28.07-10.47 9.83-8.02 9.07-24.47 20.67-30.09 4.55-2.19 7.71-4.07 12.94.83 6.59 6.18-.05 7.6-6.29 14.71 17.1 15.95-11.65 18.49-2.96 29.16-4.39 7.59-12.78 2.33-19.22 5.71-9.45 4.94-9.79 18.86-13.53 29.89-119.82 3.94-240.92-39.79-332.38-131.26z"/><path class="uuid-421e3dad-639a-41b1-93f1-8b79951c86bf" d="M464.26 900.22l5.7-27.87c-9.06.38-15.57 15.5-19.85 22.62 2.11 1.32 5.04 4.31 6.48 5.4h-.07c-1.77-1.01-3.37-.97-5.07-1.5 0 .44-.11.98-.27 1.57-2.43 0-4.87-.04-7.3-.08a99.18 99.18 0 00-3.79-2.25c-.57.74-1.25 1.45-2.01 2.12-8.67-.25-17.33-.75-25.98-1.49 1.86-2.57 3.83-5.19 4.84-7.89.78-2.04 3.16-3.53 3.58-5.71.46-2.38-4.09-4.7-3.66-6.5 2.89-12.26 14.62-12.14 23.29-17.71 5.79-3.72 10.37-11.71 15.84-16.15 7.04-5.72 10.18-5.97 12.88-15.25 4.21 1.94 8.4 5.19 11.37 8.34 5.23-7.12 8.49-10.11 15.23-15.05 2.25-1.64 6.17-6.26 8.31-6.83 5.9-1.62 10.69 4.15 15.95.34 9.06 4.77 11.87-2.38 19.82-4.28 6.63-1.59 11.93 4.28 16.85 1.94-12.88-12.73-18.57-17.64-7.73-36.36 7.59-13.12 10.22-11.76 21.23-6.19 10.42-4.4 13.94 9.05 25.32-.02 1.37 2.27 4.95 5.43 6.19 7.67 9.08-11.23 26.57-13.06 35.02-26.39 6.09 2.68 14.97 7.94 20.59 12.53-7.66 13.01-10.1 18.24-6.8 33.24 3.75-2.37 7.67-4.84 10.43-8.36-12.78-4.6.94-22.1 4.42-29.4 6.59-13.87 5.98-12.98-3.88-21.33 3.13-6.15 16.12-19.03 15.92-26.05-.19-6.9-7.71-7.04-8.26-14.45-1.06-13.94 12.19-12.28-.1-22.68-7.85-6.65-18.98-5.18-25.71-10.57 9.5-12.38-16.16-18.86-23.74-22.77-9.88-5.12-21.86-15.04-26.89-23.84-3.71-6.45-4.85-16.09-4.81-22.64.04-4.19 1.66-7.23 1.1-10.54-.18-1.11-4.56-4.52-5.24-6.92-.57-2.02 1.73-6.52 1.46-9.45-.34-3.58-3.06-5.55-3.42-9.26-1.85-18.86 12.69-46.36 22.72-61.67-4.14 10.49-2.39 30.9-3.76 43.2-1.16 10.36-.48 14.25 13.34 18.24 23.53 6.78 33.89-21.71 54.35-19.35 28.52 3.29 7.32 48.52 32.32 50.18 7.89.52 8.96-6.66 13.02-10.05 7.94-6.57 19.79-9.57 28.34-1-.28.59-.55 1.17-.81 1.76 12.6 1.58 18.38-27.21 34.86-27.83-9.59 16.58-4.58 18.5 9.34 26.37-1.21 5.05-4.25 9.28-7.35 13.41 8.9-6.72 14.73-2.32 14.65 7.7-.08 10.32-10.34 19.64-13.44 28.91 8.25 4.82 12.56-8.41 19.85-1.51-7.08 21.47-27.16 47.53-42.16 64.93.37 1.46 2.52 5.99 3.41 7.25 20.6-1.91 41.57 14.07 38.25 35.1a451.632 451.632 0 01-29.91 33.03c-84.31 84.31-193.8 128.06-304.26 131.31z"/><g class="uuid-3cc35ccc-8538-4800-91c4-6c517824cdea"><path class="uuid-cd1c811d-3c06-42a4-afda-d20039bfb4f8" d="M721.33 376.5c-1 3.37 3.11 12.08 4.6 16.67 2.57 7.9 5.61 27.7.33 23.43-11.33-9.17-7.39-32.44-12.94-46.52-3.66-9.31-14.53-18.85-20.02-23.91-7.88-7.28-13.99-16.24-19.94-25.08-8.73-12.99-21.95-31.37-37.86-34.47-3.35-.65-12.42-1.73-10.92 3.32 1.59 5.29 10.21 12.23 13.95 17.91 2.76 4.19 5.11 7.9 4.03 10.59-.65 1.6-4.07-.34-4.84.72-.89 1.24-.1 2.93-.05 5.2.08 3.52 1.55 5.84-1.39 5.93-3.8.11-14.97-11.87-14.13-6.41 1.46 9.34 12.04 17.95 16.64 26.85 1.59 3.07 3.35 10.4 2.49 12.44-1.15 2.74-3.65-1.08-6.09.41-3.69 2.23-1.45 13.76-2.81 18.76-2.4 8.82-7.9 6.87-13.59 10.12-1.86 1.07-2.67 3.18-5 2.22-2.46-1-3.3-4.35-5.72-5.24-2.59-.97-3.74 1.26-7.07-.57-2.33-1.28-6.92-4.14-9.07-6.26-3.15-3.12-2.69-3.16-3.39-7.07-1.03-5.72-1.22-7.05-4.96-13.26-6.39-10.54-4.04-13.54-5.21-22.31-.4-2.97-1.35-11.15-4.44-12.75 1.07 4.87-.89 9.91-7.84 3.37-1.8-1.7-2.19-5.21-3.9-7.26-2.1-2.55-4.73-4.39-7.39-5.44-1.42 3.86 1.49 8.16-5.12 5.85-2.49-.86-7.18-3.94-9.87-5.77-4.32-2.93-4.55-3.97-9.58-5.63-5.47-1.78-10.98-3.55-16.29-5.38.54 1.69 1.08 3.42 1.58 5.08-13.4-.51-20.32-15.71-30.37-21.64-5.88-3.48-16.14-2.36-18.11.09-1.44 1.76-.25 3.17-3.02 4.08-2.57.85-7.34-.62-10.09.29-5.71 1.91-4.56 7.77 1.78 10.61 8.9 3.99 14.28 3.86 22.13 3.63 2.21-.07 8.61-.68 11.04 1.35 1.84 1.53.9 4.63 1.9 6.15 2.59 3.94 9.76 5.09 11.16 10.19-5.93 1.22-4.92 3.48-3.82 6.67-1.98.79-3.89 1.78-5.15 3.23-.83-3.05-2.71-6.6-4.1-9.77-10.01-1.35-4.15 6.77-12.69 5.74-.29-1-1.57-2.13-1.74-3.23-7.51-1.07-5.41 2.6-8.42 5.72-1.61 1.69-2.49 1.03-5.07 1.62-3.42.79-2.68.25-4.82 3.13-3.57 4.87-11.51 5.18-15.87 9.06-4.32 3.83-11.34 10.63-18.1 7.79-.23-.08-1.31-2.01-1.9-2.37-1.12-.68-2.75.14-3.78-.61-3.56-2.63-.38-2.82 2.01-4.1 1.83-.99 5.19-2.3 6.77-3.58 2.01-1.65 1.73-4.59 2.84-6.6 1.6-2.84 5.08-7.53-1.29-8.47-2.46-.36-4.13 2.05-6.8.93-2.25-.93-3.41-3.99-3.44-5.63-4.07-1.31-6.1-.47-7.74-4.62-.91-2.3.23-4.41-2.4-6.42-5.81 1.31-10.34 3.22-12.44 7.53-6.38-3.93-18.67 16.58-23.3 17.1-5.36.58-5.37-6.46-8.22-9.16-.63-.59-.83-2.11-1.55-2.4-1.98-.76-5.09 1.67-6.54.88-2.12-1.15-.57-2.61-1.42-4.37-1.8-3.67-7.09-4.23-9.11-7.38-2.64-4.08 8.68-11.55-5.19-9.58-7.08 1-13.23.95-20.29-.33-7.3-1.33-4.89-4.67-9.25-7.84-2.25-1.62-6.86-1.83-9.83-2.79-3.48-1.11-6.34-3.02-9.89-4.11.38-1.42 6.98-8.65 10.21-8.86 1.28-.1 3.85 1.66 4.8 2.12 8.1-3.79 1.38-3.81.77-7.46-.62-3.72 4.8-5.79 8.08-8.42-2.41-1.38-6.24-2.45-8.27-4.05-2.91-2.26-3.7-4.35-8.58-5.81-5.55-1.67-11.42-.75-18.08-.55-6.97.22-6.66.54-13.2 3.07-6.64 2.57-5.08-.07-10.8.61-6.44.78-13.74 8.71-21.48 10.84-2.44.67-4.08-.06-6.2.68-4.8 1.66-10.26 7.5-15.29 8.53-6.23 1.31-3.69-3.55-8.41-3.63-3.99 4-15.84 19.9-21.18 15.16-2.18-1.91 1.87-10.25 5.36-13.9 3.96-4.14 8.26-5.49 12.86-5.24 8.08-8.21-8.46-2.89-9.04-7.66-.51-4.07 11.97-17.35 17.24-22.2 8.53-7.88 15.32-4.57 22.9-12.63 2.89-3.09 9.23-8.45 10.51-11.31 1.77-3.94-1.61-9.3-5.96-10.68-3.55-1.14-13.02.09-15.32-1.67-1.81-1.4 2.08-7.68 6.62-9.77 5.6-2.57 5.64.61 10.63-.18 8.37-1.31 14.73-8.74 22.51-10.78 11.11-2.93 21.06 3.83 31.84 3.51 6.83-.22 13.06-5.14 20.64-4.35 5.53.58 11.27 4.98 11.43 7.67 9.56-4.96 18.16-11.33 28.25-15.26 5.42 2.52 5.98 8.04 7.43 11.47 1.65 3.89.8 6.68-.28 10.64-.51 1.87-2.3 4.38.86 5.67 5.46-1.94 17.76-7.77 25.27-6.08 2.75.61 3.76 2.02 5.55 3.27 1.48 1.04 4.24 5.63 4.46 5.75 4.13 2.15 6.58-1 12.11-.12 8.07 1.3 10.52 5.29 17.42 1.62-4.22-4.32-7.89-8.37-11.07-12.67-4.28-5.79 3.18-8.31 13.01-9.41.56.31.93.7 1.39 1.04 3.49-1.44-10.88-11.56-12.49-14.76-3.6-7.21 2.39-10 12.38-12.46-6.77-5.99-11.53-17.1-6.48-21.02 8.86-6.92 25.35-5.63 36.92-3.67 2.18.37 4.11 2.31 6.4 2.27 3.25-.07 2.92-2.75 4.67-3.63 4.14-2.05 12.89-2.7 19.02-3.33 6.44-.65 11.41-2.03 17.92-2.59 2.82-.25 11.17-1.24 15.29.36 5.2 2.03 6.27 4.78 9.32 8.09 8.31 9.06 19.9 8.72 31.18 9.74 2.71 3.3 5.02 8.44 8.55 11.72 4.03 3.72.72.63 6.22 3.87 9.87 5.85 14.02 10.9 24.22 16.56 12.84 7.14 23.36 16.75 14.18 18-10.36 1.39-5.41 2.64 6.55 13.9 3.46 3.24 6.01 6.71 8.95 9.52 5.39 5.18 11.78 9.04 15.68 15.31 4.45 7.14 2.54 11.22 3.33 15.95 1.24 7.55 5.09 11.78 9.25 20.13 2.78 5.61.23 4.99-.1 6.87-.35 2.14-.3 3.02.7 7.49 18.32 11.76 31.53 31.24 43.69 48.38 9.15 12.91 26.62 27.26 25.81 44.88-2.75-3.23-7.15-10.53-8.22-6.93z"/></g><g class="uuid-3cc35ccc-8538-4800-91c4-6c517824cdea"><path class="uuid-cd1c811d-3c06-42a4-afda-d20039bfb4f8" d="M721.33 376.5c-1 3.37 3.11 12.08 4.6 16.67 2.57 7.9 5.61 27.7.33 23.43-11.33-9.17-7.39-32.44-12.94-46.52-3.66-9.31-14.53-18.85-20.02-23.91-7.88-7.28-13.99-16.24-19.94-25.08-8.73-12.99-21.95-31.37-37.86-34.47-3.35-.65-12.42-1.73-10.92 3.32 1.59 5.29 10.21 12.23 13.95 17.91 2.76 4.19 5.11 7.9 4.03 10.59-.65 1.6-4.07-.34-4.84.72-.89 1.24-.1 2.93-.05 5.2.08 3.52 1.55 5.84-1.39 5.93-3.8.11-14.97-11.87-14.13-6.41 1.46 9.34 12.04 17.95 16.64 26.85 1.59 3.07 3.35 10.4 2.49 12.44-1.15 2.74-3.65-1.08-6.09.41-3.69 2.23-1.45 13.76-2.81 18.76-2.4 8.82-7.9 6.87-13.59 10.12-1.86 1.07-2.67 3.18-5 2.22-2.46-1-3.3-4.35-5.72-5.24-2.59-.97-3.74 1.26-7.07-.57-2.33-1.28-6.92-4.14-9.07-6.26-3.15-3.12-2.69-3.16-3.39-7.07-1.03-5.72-1.22-7.05-4.96-13.26-6.39-10.54-4.04-13.54-5.21-22.31-.4-2.97-1.35-11.15-4.44-12.75 1.07 4.87-.89 9.91-7.84 3.37-1.8-1.7-2.19-5.21-3.9-7.26-2.1-2.55-4.73-4.39-7.39-5.44-1.42 3.86 1.49 8.16-5.12 5.85-2.49-.86-7.18-3.94-9.87-5.77-4.32-2.93-4.55-3.97-9.58-5.63-5.47-1.78-10.98-3.55-16.29-5.38.54 1.69 1.08 3.42 1.58 5.08-13.4-.51-20.32-15.71-30.37-21.64-5.88-3.48-16.14-2.36-18.11.09-1.44 1.76-.25 3.17-3.02 4.08-2.57.85-7.34-.62-10.09.29-5.71 1.91-4.56 7.77 1.78 10.61 8.9 3.99 14.28 3.86 22.13 3.63 2.21-.07 8.61-.68 11.04 1.35 1.84 1.53.9 4.63 1.9 6.15 2.59 3.94 9.76 5.09 11.16 10.19-5.93 1.22-4.92 3.48-3.82 6.67-1.98.79-3.89 1.78-5.15 3.23-.83-3.05-2.71-6.6-4.1-9.77-10.01-1.35-4.15 6.77-12.69 5.74-.29-1-1.57-2.13-1.74-3.23-7.51-1.07-5.41 2.6-8.42 5.72-1.61 1.69-2.49 1.03-5.07 1.62-3.42.79-2.68.25-4.82 3.13-3.57 4.87-11.51 5.18-15.87 9.06-4.32 3.83-11.34 10.63-18.1 7.79-.23-.08-1.31-2.01-1.9-2.37-1.12-.68-2.75.14-3.78-.61-3.56-2.63-.38-2.82 2.01-4.1 1.83-.99 5.19-2.3 6.77-3.58 2.01-1.65 1.73-4.59 2.84-6.6 1.6-2.84 5.08-7.53-1.29-8.47-2.46-.36-4.13 2.05-6.8.93-2.25-.93-3.41-3.99-3.44-5.63-4.07-1.31-6.1-.47-7.74-4.62-.91-2.3.23-4.41-2.4-6.42-5.81 1.31-10.34 3.22-12.44 7.53-6.38-3.93-18.67 16.58-23.3 17.1-5.36.58-5.37-6.46-8.22-9.16-.63-.59-.83-2.11-1.55-2.4-1.98-.76-5.09 1.67-6.54.88-2.12-1.15-.57-2.61-1.42-4.37-1.8-3.67-7.09-4.23-9.11-7.38-2.64-4.08 8.68-11.55-5.19-9.58-7.08 1-13.23.95-20.29-.33-7.3-1.33-4.89-4.67-9.25-7.84-2.25-1.62-6.86-1.83-9.83-2.79-3.48-1.11-6.34-3.02-9.89-4.11.38-1.42 6.98-8.65 10.21-8.86 1.28-.1 3.85 1.66 4.8 2.12 8.1-3.79 1.38-3.81.77-7.46-.62-3.72 4.8-5.79 8.08-8.42-2.41-1.38-6.24-2.45-8.27-4.05-2.91-2.26-3.7-4.35-8.58-5.81-5.55-1.67-11.42-.75-18.08-.55-6.97.22-6.66.54-13.2 3.07-6.64 2.57-5.08-.07-10.8.61-6.44.78-13.74 8.71-21.48 10.84-2.44.67-4.08-.06-6.2.68-4.8 1.66-10.26 7.5-15.29 8.53-6.23 1.31-3.69-3.55-8.41-3.63-3.99 4-15.84 19.9-21.18 15.16-2.18-1.91 1.87-10.25 5.36-13.9 3.96-4.14 8.26-5.49 12.86-5.24 8.08-8.21-8.46-2.89-9.04-7.66-.51-4.07 11.97-17.35 17.24-22.2 8.53-7.88 15.32-4.57 22.9-12.63 2.89-3.09 9.23-8.45 10.51-11.31 1.77-3.94-1.61-9.3-5.96-10.68-3.55-1.14-13.02.09-15.32-1.67-1.81-1.4 2.08-7.68 6.62-9.77 5.6-2.57 5.64.61 10.63-.18 8.37-1.31 14.73-8.74 22.51-10.78 11.11-2.93 21.06 3.83 31.84 3.51 6.83-.22 13.06-5.14 20.64-4.35 5.53.58 11.27 4.98 11.43 7.67 9.56-4.96 18.16-11.33 28.25-15.26 5.42 2.52 5.98 8.04 7.43 11.47 1.65 3.89.8 6.68-.28 10.64-.51 1.87-2.3 4.38.86 5.67 5.46-1.94 17.76-7.77 25.27-6.08 2.75.61 3.76 2.02 5.55 3.27 1.48 1.04 4.24 5.63 4.46 5.75 4.13 2.15 6.58-1 12.11-.12 8.07 1.3 10.52 5.29 17.42 1.62-4.22-4.32-7.89-8.37-11.07-12.67-4.28-5.79 3.18-8.31 13.01-9.41.56.31.93.7 1.39 1.04 3.49-1.44-10.88-11.56-12.49-14.76-3.6-7.21 2.39-10 12.38-12.46-6.77-5.99-11.53-17.1-6.48-21.02 8.86-6.92 25.35-5.63 36.92-3.67 2.18.37 4.11 2.31 6.4 2.27 3.25-.07 2.92-2.75 4.67-3.63 4.14-2.05 12.89-2.7 19.02-3.33 6.44-.65 11.41-2.03 17.92-2.59 2.82-.25 11.17-1.24 15.29.36 5.2 2.03 6.27 4.78 9.32 8.09 8.31 9.06 19.9 8.72 31.18 9.74 2.71 3.3 5.02 8.44 8.55 11.72 4.03 3.72.72.63 6.22 3.87 9.87 5.85 14.02 10.9 24.22 16.56 12.84 7.14 23.36 16.75 14.18 18-10.36 1.39-5.41 2.64 6.55 13.9 3.46 3.24 6.01 6.71 8.95 9.52 5.39 5.18 11.78 9.04 15.68 15.31 4.45 7.14 2.54 11.22 3.33 15.95 1.24 7.55 5.09 11.78 9.25 20.13 2.78 5.61.23 4.99-.1 6.87-.35 2.14-.3 3.02.7 7.49 18.32 11.76 31.53 31.24 43.69 48.38 9.15 12.91 26.62 27.26 25.81 44.88-2.75-3.23-7.15-10.53-8.22-6.93z"/></g><g class="uuid-3cc35ccc-8538-4800-91c4-6c517824cdea"><path class="uuid-cd1c811d-3c06-42a4-afda-d20039bfb4f8" d="M328.02 564.05c-.55-2.12-5.51-5.4-7.76-7.36-3.9-3.36-11.83-12.88-7.67-12.3 8.93 1.24 14.28 14.82 21.72 20.5 4.91 3.75 13.71 5.33 18.23 6.26 6.49 1.33 12.6 4.12 18.57 6.9 8.78 4.08 21.65 9.59 31.05 6.15 1.98-.73 7.14-3.06 4.71-5.25-2.52-2.29-9.29-3.22-13.09-5.03-2.81-1.34-5.23-2.54-5.51-4.32-.17-1.05 2.26-1.12 2.32-1.93.08-.94-.88-1.59-1.62-2.78-1.17-1.85-2.7-2.59-1.17-3.58 1.98-1.27 11.74 1.51 9.53-1.13-3.76-4.49-12.11-5.67-17.38-8.9-1.84-1.1-5.1-4.42-5.3-5.79-.27-1.82 2.27-.59 3.09-2.16 1.24-2.36-3.63-7.75-4.51-10.82-1.55-5.43 1.98-6.17 3.96-9.7.64-1.18.4-2.55 1.94-2.78 1.62-.26 3.14 1.25 4.71.96 1.69-.33 1.57-1.88 3.92-1.98 1.63-.07 4.98-.02 6.8.43 2.66.64 2.43.8 4.04 2.65 2.38 2.69 2.9 3.34 6.87 5.43 6.76 3.55 6.47 5.88 9.89 10.15 1.16 1.44 4.28 5.47 6.41 5.34-2.11-2.25-2.69-5.53 3.08-4.3 1.51.33 2.82 2.05 4.38 2.6 1.92.67 3.91.81 5.64.52-.47-2.51-3.4-3.85.84-4.74 1.59-.33 5.07-.2 7.08-.11 3.22.18 3.67.67 6.85-.07 3.47-.81 6.95-1.64 10.35-2.36-.82-.7-1.67-1.47-2.46-2.18 7.26-4.01 15.77 1.83 22.99 1.76 4.22-.04 9.3-3.9 9.56-5.83.19-1.4-.88-1.76.3-3.13 1.09-1.28 4.07-2.01 5.25-3.38 2.42-2.84-.06-5.56-4.33-5.05-5.99.75-8.8 2.53-12.88 5.15-1.15.74-4.34 3.11-6.27 2.81-1.47-.22-1.95-2.16-2.98-2.64-2.63-1.26-6.79.43-9.15-1.84 2.74-2.53 1.49-3.41-.11-4.75.79-1.06 1.48-2.19 1.69-3.36 1.42 1.35 3.55 2.63 5.3 3.86 5.71-2.48.03-4.91 4.87-7.1.47.43 1.52.63 1.96 1.17 4.31-1.85 2.03-3.11 2.61-5.74.33-1.4 1-1.33 2.18-2.46 1.55-1.52 1.35-.99 1.54-3.2.34-3.72 4.44-6.43 5.52-9.87 1.05-3.41 2.6-9.24 7.08-9.91.16-.03 1.34.64 1.76.65.82 0 1.42-.96 2.2-.89 2.73.26 1.1 1.38.25 2.82-.64 1.1-2.01 2.88-2.43 4.05-.54 1.51.55 2.99.59 4.41.07 2.01-.27 5.61 3.4 4.06 1.42-.59 1.53-2.41 3.3-2.68 1.48-.22 3.08 1.03 3.62 1.91 2.57-.61 3.37-1.71 5.57-.04 1.21.93 1.28 2.41 3.32 2.63 2.66-2.54 4.45-5.01 4.18-7.95 4.63.04 4.59-14.76 6.87-16.51 2.65-2.03 4.91 1.71 7.28 2.22.53.12 1.12.86 1.59.79 1.29-.23 2.15-2.51 3.19-2.57 1.48-.06 1.14 1.21 2.15 1.87 2.12 1.37 5.12-.02 7.18 1 2.7 1.31-.91 8.87 5.81 3.39 3.43-2.79 6.69-4.72 10.85-6.3 4.29-1.64 4.08.9 7.39 1.19 1.71.14 4.23-1.21 6.1-1.67 2.21-.52 4.34-.42 6.55-.98.26.89-.93 6.82-2.57 7.95-.64.45-2.56.36-3.22.41-3.07 4.6.48 2.45 1.98 4.17 1.53 1.78-.7 4.62-1.58 7.05 1.71-.04 4.08-.68 5.68-.49 2.25.26 3.34 1.11 6.39.32 3.47-.88 6.3-3.25 9.74-5.48 3.62-2.34 3.35-2.39 6-5.84 2.7-3.48 2.72-1.59 5.53-3.78 3.15-2.46 4.49-9 7.92-12.59 1.07-1.14 2.18-1.28 3.05-2.35 2.01-2.41 3.04-7.25 5.36-9.41 2.88-2.68 3.09.7 5.61-.77.84-3.38 2.04-15.58 6.38-14.79 1.76.33 2.28 6.04 1.6 9.08-.78 3.47-2.61 5.54-5.12 6.87-1.66 6.94 5.4-1.17 7.23 1.18 1.56 1.97-.79 12.99-2.03 17.25-2 6.89-6.65 7.32-8.09 14-.54 2.57-2.18 7.42-1.95 9.34.32 2.66 3.82 4.41 6.57 3.77 2.24-.55 6.86-4.24 8.64-4.02 1.42.16 1.37 4.73-.37 7.28-2.15 3.16-3.2 1.48-5.57 3.49-4.01 3.37-5.02 9.34-8.48 12.9-4.94 5.12-12.37 4.7-17.96 8.33-3.55 2.29-5.28 6.87-9.55 8.89-3.12 1.46-7.54.97-8.51-.41-3.48 5.68-5.99 11.79-10.08 17.1-3.67.4-5.74-2.34-7.59-3.69-2.11-1.54-2.57-3.29-3.26-5.73-.33-1.15-.18-3.05-2.26-2.72-2.27 2.76-6.91 9.79-11.44 11.28-1.65.56-2.63.14-3.99.05-1.11-.08-4.04-1.62-4.2-1.62-2.88.17-3.16 2.64-6.37 3.93-4.69 1.89-7.25.56-9.73 4.71 3.61.92 6.83 1.92 9.9 3.16 4.12 1.69.97 5.41-3.89 9.14-.39.02-.7-.07-1.07-.09-1.38 1.87 9.46 2.63 11.34 3.82 4.21 2.66 1.93 6.06-2.56 10.54 5.49 1.02 11.55 5.37 10.15 9.07-2.49 6.48-11.62 11.06-18.36 13.72-1.29.51-2.92.09-4.13.85-1.69 1.07-.66 2.39-1.31 3.41-1.53 2.41-5.96 5.54-9.01 7.85-3.19 2.41-5.4 4.73-8.65 7.1-1.43 1.03-5.52 4.23-8.22 4.7-3.4.59-4.86-.52-7.52-1.31-7.3-2.13-13.33 1.74-19.62 4.81-2.5-.89-5.38-2.88-8.28-3.47-3.33-.7-.59-.11-4.53-.07-7.11.05-10.9-1.28-18.12-1.03-9.07.33-17.71-1.41-13.26-5 5.05-4.05 2.03-3.13-7.91-5.26-2.86-.62-5.31-1.63-7.77-2.19-4.5-1.01-9.12-1.01-13.19-3.08-4.65-2.36-4.94-5.12-6.87-7.39-3.06-3.59-6.46-4.6-11.33-7.7-3.26-2.07-1.71-2.56-2.15-3.65-.5-1.25-.8-1.7-2.76-3.76-13.45-.37-26.67-6.47-38.59-11.65-8.96-3.9-22.8-5.92-28-15.5 2.49.82 7.15 3.28 6.57 1.04z"/></g><g class="uuid-6a2233c2-8f18-41a6-aa4e-c8defc4449b1"><path class="uuid-cd1c811d-3c06-42a4-afda-d20039bfb4f8" d="M278.1 184.31c1.94 1.98 5.57-.13 7.54-.65 3.43-.92 12.04-1.96 11.65 4.3-.59 9.73-16.44 1.3-21 2.9-4.25 1.49-7.61 9.03-9.7 12.71-3.15 5.54-5.64 6.94-11.96 9.76-7.84 3.48-17.62 9.22-18.74 18.54-.35 2.92-1.27 10.39 1.83 11.93 3.26 1.6 7.54-2.57 10.91-3.16 2.5-.44 4.64-.87 6.31 1.49.98 1.4-.09 3.75.58 5.01.78 1.48 1.79 1.56 3.18 2.6 2.16 1.63 3.55 1.26 3.7 4.19.2 3.74-7.63 7.7-3.72 10.56 4.33 3.2 12-3.63 16.25-4.03 1.93-.19 6.2.73 7.54 2.36 1.8 2.21-.38 3.32.75 6.37 1.68 4.6 8.82 6.48 12.15 9.54 5.85 5.38 5.19 10.4 7.86 17.35.89 2.28 2.37 3.77 1.93 5.92-.46 2.28-2.65 2.08-3.1 4.28-.48 2.39 1.13 4.33.02 7.16-.75 1.98-2.6 5.71-4.06 7.12-2.13 2.07-2.18 1.58-4.95.72-4.03-1.26-4.95-1.6-9.44-.67-7.65 1.56-9.72-2.39-15.84-5.88-2.08-1.19-7.73-4.77-9.14-2.84 3.42 1.81 6.8 6.52 1.45 9.2-1.38.72-3.86-.99-5.5-.67-2.03.38-3.69 1.6-4.84 3.33 2.42 3.69 5.94 3.72 3.19 8.22-1.03 1.69-4.05 3.89-5.86 5.04-2.92 1.85-3.69 1.33-5.99 4.46-2.52 3.41-5.18 6.74-7.95 9.7 1.3.78 2.65 1.6 3.94 2.39-3.41 11-17.61 4.05-24.54 6.69-4.52 1.74-7.94 9.26-7.25 12.7.51 2.51 1.93 2.91 1.27 5.57-.61 2.46-3.72 4.35-4.46 6.94-1.53 5.41 2.67 9.95 7.59 8.12 6.91-2.57 9.28-6.65 12.32-12.68.86-1.69 2.95-6.98 5.26-7.27 1.73-.23 3.51 2.9 4.94 3.27 3.69.99 6.97-4 11.11-1.51-1.07 5.82.84 6.62 3.55 7.95-.08 2.25-.04 4.55.57 6.64-2.56-1.46-5.85-2.5-8.65-3.74-4.77 7.08 3.44 8.49-1 14.51-.85-.52-2.24-.4-3.1-1.11-4.05 5.05-.55 6.24.29 11.06.44 2.57-.46 2.74-1.32 5.19-1.15 3.27-1.2 2.26-.22 6.2 1.66 6.65-2.62 12.95-2.5 19.41.12 6.4.36 17.46-6.59 19.85-.25.09-2.39-.83-3.08-.74-1.29.16-1.95 2.03-3.23 2.05-4.47.09-2.17-2.26-1.29-5.02.68-2.11 2.15-5.61 2.35-7.8.26-2.82-1.94-5.23-2.56-7.77-.87-3.58-1.74-10-6.44-6.66-1.82 1.28-1.37 4.54-3.87 5.22-2.11.56-4.8-1.58-5.83-3.11-3.54 1.24-4.46 3.2-8.01.15-1.97-1.69-2.4-4.32-5.33-4.87-3.19 4.4-5.42 8.54-4.65 13.88-6.84-.7-6.35 25.72-10.18 28.24-4.43 2.9-7.62-4.51-11.2-6.3-.8-.4-1.61-1.94-2.34-1.98-2.01-.11-3.7 3.53-5.26 3.15-2.27-.54-1.52-2.61-2.9-4.23-2.94-3.37-7.59-2.52-10.39-5.41-3.6-3.76 3.01-14.27-7.48-9.21-5.36 2.6-10.45 3.54-16.54 2.86-6.31-.68-5.18-4.64-9.39-7.86-2.16-1.66-5.84-1.74-8.36-2.77-2.96-1.2-5.57-3.37-8.51-4.7.02-1.56 3.53-9.3 5.89-9.57.94-.1 3.26 1.77 4.09 2.25 5.18-4.42.09-4.24-1.26-8.19-1.39-4.08 2-6.55 3.58-9.66-2.09-1.34-5.06-2.34-6.91-4.01-2.63-2.37-3.7-4.6-7.42-6.23-4.22-1.84-8.02-1.04-12.54-1.35-4.74-.33-4.43.05-8.51 1.92-4.14 1.87-3.51-.75-7.34-1.03-4.28-.31-8.32 6.56-13.47 6.7-1.62.04-2.82-1.19-4.22-1.06-3.16.32-6.53 4.59-9.94 3.83-4.21-.94-2.68-4.97-5.86-6.87-2.5 2.51-10.39 13.12-13.89 5.93-1.42-2.92 1.25-9.15 3.45-11.23 2.5-2.38 5.22-1.95 8.29.09 4.98-5.15-5.65-6.34-6.27-11.37-.53-4.28 6.45-13 9.27-16.3 4.56-5.34 9.29 0 12.79-6.72 1.34-2.56 4.32-6.91 4.59-9.71.36-3.86-2.74-10.22-5.6-12.59-2.32-1.94-7.74-2.88-9.38-5.33-1.31-1.94-.12-7.56 2.12-8.72 2.76-1.44 3.4 1.94 6.13 2.07 4.6.25 6.6-6.62 10.5-8.02 6.52-2.37 12.57 6.51 18.87 5.92 3.8-.36 5.7-5.54 10.07-5.09 3.19.33 7.74 4.55 8.75 7.48 4.08-6.22 5.19-14.24 9.27-20.28 3.66 1.71 6.09 7.45 8.17 10.8 2.36 3.81 3.05 6.96 4.04 11.41.47 2.09.5 5.18 2.71 5.86 2.12-3.27 5.97-12.52 10.38-12.98 1.61-.18 2.72.96 4.16 1.69 1.18.62 4.57 4.46 4.73 4.49 2.99.86 2.73-3.26 5.73-4.44 4.39-1.69 7.46 1.26 8.69-5.34-3.98-2.5-7.56-5.16-11.01-8.33-4.63-4.26-2.46-9.55 1.06-14.66.38.1.72.33 1.07.48.73-2.89-9.98-7.45-12.14-10.16-4.81-6.04-3.56-10.97-.9-17.28-5.4-3.49-11.89-12.39-12.18-19.11-.28-6.8 5.75-14.68 10.99-18.11.88-.56 2.43.5 3.12-.57.98-1.5-.45-4.01-.35-5.65.23-3.92 2.43-8.63 3.79-12.26 1.41-3.79 2.01-7.63 3.3-11.57.57-1.71 2.02-7.11 3.76-7.91 2.2-1 3.83.95 6.2 2.17 7.78 4 8.24-4.85 11.04-10.43 2.2 1.12 5.35 4.01 7.66 4.42 2.64.45.47.09 3.03-.96 4.6-1.9 7.9-.77 12.11-3.88 5.3-3.93 11.38-5.16 11.32 2.95-.07 9.16 1.13 6.58 8.28 4.94 2.07-.47 4.16-.14 5.91-.63 3.18-.92 5.57-3.77 9.19-3.13 4.12.75 6.4 4.91 9.1 7.11 4.32 3.51 6.74 2.58 11.43 3.43 3.15.58 2.85 2.56 3.96 3.9 1.24 1.51 1.75 1.98 4.3 3.4 4.61-9.01 15.45-15.12 23.36-20.84 5.01-3.62 11.38-17.92 18.99-12.64-1.03 2.09-3.91 4.71-1.83 6.8z"/></g><g class="uuid-6a2233c2-8f18-41a6-aa4e-c8defc4449b1"><path class="uuid-cd1c811d-3c06-42a4-afda-d20039bfb4f8" d="M563.86 675.08c-.09.74.97 1.17 1.41 1.52.76.61 2.42 2.29 1 3.26-2.22 1.48-3.02-3.37-4.12-4.08-1.03-.68-3.23-.16-4.38 0-1.73.23-2.44-.09-4.11-.97-2.05-1.14-4.94-2.32-7.15-1-.7.41-2.46 1.45-2.28 2.39.17.97 1.8 1.21 2.5 1.84.51.47.96.86.72 1.62-.15.45-.84.62-1 .97-.19.4-.04.65-.04 1.13 0 .72.32.97-.3 1.49-.78.67-2.94-.38-2.92.94.03 1.47 2.79 2.01 3.59 2.87.36.4.86 1.46.73 2.04-.18.75-.79.47-1.25 1.22-.73 1.12.05 3-.06 4.21-.2 2.17-1.4 2.85-2.46 4.6-.34.56-.43 1.13-.96 1.4-.57.27-.9-.22-1.45.04-.6.29-.75.96-1.55 1.19-.55.17-1.67.39-2.22.3-.81-.12-.71-.22-.99-.96-.39-1.08-.47-1.34-1.42-2.15-1.61-1.41-1.1-2.5-1.35-4.42-.09-.65-.25-2.47-.91-2.46.18 1.04-.29 2.57-1.76 1.85-.38-.19-.43-1-.77-1.31-.42-.37-.96-.54-1.52-.48-.4 1.13.18 1.89-1.25 2.06-.54.05-1.52-.23-2.08-.44-.89-.33-.9-.59-1.97-.56-1.17.02-2.32 0-3.43-.12.05.43.09.85.12 1.26-2.95 1.08-3.79-3.15-5.53-4.21-1.13-.7-3.32-.19-3.96.53-.45.52-.31.91-1 1.2-.64.29-1.56-.09-2.25.19-1.43.56-1.73 2.23-.51 3 1.7 1.07 2.99.9 4.81.57.51-.09 2.01-.52 2.46-.07.33.34-.05 1.25.11 1.62.4.97 2.02.85 2.18 2.16-1.45.75-1.31 1.29-1.14 2.1-.5.36-1 .75-1.35 1.24-.11-.81-.43-1.7-.63-2.51-2.32.14-1.27 2.16-3.31 2.19-.03-.27-.29-.55-.28-.86-1.77-.03-1.45.93-2.35 1.9-.49.52-.68.36-1.36.58-.89.3-.68.12-1.38.99-1.17 1.46-3.25 1.57-4.64 2.68-1.36 1.1-3.73 2.99-5.41 1.87-.05-.05-.19-.66-.34-.8-.25-.24-.77-.08-.99-.35-.76-.96.14-.86.88-1.13.57-.19 1.58-.45 2.09-.77.66-.42.81-1.3 1.27-1.86.62-.78 1.87-2.04.37-2.5-.58-.18-1.21.46-1.77.02-.47-.37-.46-1.3-.3-1.78-.86-.56-1.44-.43-1.37-1.71.05-.71.54-1.24.18-1.98-1.48.04-2.75.25-3.79 1.29-.99-1.59-6.65 2.9-7.83 2.49-1.37-.47-.3-2.41-.49-3.49-.05-.23.14-.65.03-.83-.31-.45-1.38-.21-1.56-.62-.25-.58.32-.75.44-1.32.23-1.21-.72-2.08-.56-3.16.23-1.41 3.61-1.72.76-3.16-1.45-.74-2.5-1.68-3.37-3.12-.9-1.48.15-1.91.16-3.36 0-.74-.6-1.55-.79-2.27-.23-.84-.19-1.77-.39-2.62.34-.26 2.6-.79 3.05-.33.18.19.17 1.01.19 1.26 1.82.4.94-.67 1.58-1.63.65-.98 1.76-.65 2.7-.82-.06-.68-.34-1.49-.28-2.18.07-.96.38-1.56.12-2.64-.3-1.24-1.1-1.92-1.8-2.96-.72-1.07-.74-.94-1.83-1.52-1.1-.59-.42-.89-1-1.77-.65-.98-2.81-.71-3.7-1.8-.27-.36-.21-.82-.47-1.1-.6-.65-2.08-.67-2.49-1.52-.5-1.08.64-1.42.52-2.42-.96-.12-4.59-.09-3.6-2.03.4-.79 2.19-1.26 3.02-1.13.93.16 1.3.81 1.36 1.81 1.95.23.44-2.28 1.43-3.25.85-.82 3.9-.75 5.08-.68 1.91.1 1.53 2.01 3.58 1.66.79-.13 2.23-.22 2.88-.63.89-.54 1.76-2.29 1.8-3.3.03-.84-.67-2.16-.4-2.93.19-.61 1.62-1.27 2.25-.99.78.36.14 1.07.57 1.69.72 1.03 2.53.33 3.49.94 1.6 1.03.68 3.81 1.85 5.08.72.77 2.16.31 2.78 1.34.46.75.3 2.43-.17 3.13 2.03-.14 3.96-1.24 5.95-1.35.24 1.08-.61 2.57-.98 3.57-.44 1.15-1 1.83-1.81 2.78-.39.45-1.04.97-.83 1.56 1.07-.09 3.72-.79 4.55.09.31.33.25.75.33 1.19.05.36-.2 1.73-.19 1.77.32.79 1.17.05 1.91.52 1.1.65.97 1.82 2.63 1-.12-1.28-.15-2.5-.03-3.78.16-1.73 1.67-2.12 3.36-2.21.05.1.05.21.08.3.75-.31-.05-3.41.18-4.32.52-2.07 1.8-2.6 3.62-3.06-.14-1.77.71-4.66 2.11-5.84 1.43-1.19 4.15-1.19 5.77-.63.27.11.3.61.64.59.49-.04.79-.77 1.17-1.02.89-.6 2.28-.9 3.28-1.21 1.07-.32 2.01-.82 3.08-1.21.47-.16 1.88-.74 2.35-.5.58.32.43.99.55 1.71.43 2.36 2.42.99 4.1.66.12.67.02 1.84.31 2.41.34.65.06.12.71.49 1.18.69 1.48 1.59 2.86 2.01 1.73.49 3.02 1.6 1.24 2.94-2.01 1.51-1.24 1.34.3 2.62.45.37.72.89 1.12 1.17.73.55 1.74.59 2.21 1.48.52 1.01 0 2.22-.02 3.16-.05 1.52.56 1.89 1.15 3.05.4.78-.09 1.04-.19 1.52-.12.52-.13.7-.02 1.48 2.73-.47 5.85.86 8.41 1.62 1.62.49 5.79-.49 5.91 2.03-.63.12-1.67-.07-1.8.74z"/></g><g class="uuid-6a2233c2-8f18-41a6-aa4e-c8defc4449b1"><path class="uuid-cd1c811d-3c06-42a4-afda-d20039bfb4f8" d="M662.22 750.36c-.04.26.34.44.51.57.28.2.88.83.37 1.17-.81.55-1.1-1.22-1.51-1.48-.37-.26-1.17-.07-1.59 0-.64.08-.89-.04-1.51-.36-.75-.42-1.79-.85-2.6-.37-.26.15-.91.53-.83.86.06.35.66.45.91.68.18.16.34.31.26.58-.05.16-.31.21-.37.34-.06.16 0 .23 0 .41 0 .28.12.36-.1.55-.29.24-1.07-.14-1.07.34.02.53 1.02.74 1.31 1.05.13.14.31.52.26.73-.06.29-.29.18-.45.45-.26.41.02 1.1-.02 1.53-.07.79-.51 1.04-.9 1.69-.12.2-.16.41-.36.5-.19.11-.32-.09-.52.02-.22.11-.27.36-.57.44-.2.05-.6.14-.81.11-.29-.04-.26-.08-.35-.35-.15-.39-.18-.48-.52-.78-.59-.51-.4-.92-.5-1.62-.03-.23-.09-.89-.33-.89.08.37-.1.93-.64.67-.14-.07-.16-.36-.28-.48a.77.77 0 00-.54-.18c-.16.41.06.7-.47.75-.2.02-.56-.08-.75-.16-.33-.11-.33-.2-.73-.2-.41.02-.84 0-1.24-.05.02.16.03.32.05.46-1.08.4-1.39-1.14-2.02-1.54-.41-.24-1.21-.06-1.44.21-.17.18-.12.31-.37.44-.23.09-.57-.04-.82.05-.52.22-.63.82-.18 1.1.62.4 1.08.34 1.75.21.19-.03.73-.18.89-.03.12.12-.02.47.05.61.13.35.74.3.79.78-.53.27-.48.48-.42.77-.2.12-.37.27-.49.45-.05-.3-.16-.62-.23-.92-.85.05-.46.79-1.2.81-.02-.1-.11-.21-.11-.32-.64-.02-.52.34-.86.7-.18.18-.24.12-.49.19-.33.11-.26.05-.5.37-.43.54-1.19.58-1.69.97-.5.4-1.36 1.1-1.98.68-.02 0-.08-.24-.12-.29-.09-.09-.29-.04-.35-.13-.29-.34.04-.3.3-.4.22-.09.58-.18.76-.3.25-.14.3-.45.47-.67.23-.28.69-.75.13-.91-.2-.07-.44.16-.64 0-.18-.12-.16-.47-.12-.65-.31-.2-.51-.16-.5-.63.02-.26.2-.45.07-.71-.54.02-1 .09-1.38.47-.36-.57-2.43 1.05-2.86.9-.49-.16-.1-.88-.17-1.26-.02-.09.05-.25 0-.32-.11-.16-.51-.06-.57-.22-.09-.22.12-.27.16-.49.09-.43-.25-.75-.19-1.14.08-.52 1.32-.63.28-1.17-.54-.26-.91-.61-1.24-1.13-.32-.54.06-.68.06-1.22 0-.27-.22-.56-.3-.84-.07-.3-.05-.64-.13-.94.12-.09.95-.29 1.12-.12.06.07.05.37.06.47.66.14.34-.25.57-.59.24-.37.65-.25.98-.3-.02-.26-.12-.54-.1-.79.03-.36.14-.58.04-.97-.09-.45-.4-.7-.65-1.07-.26-.4-.27-.36-.67-.56-.4-.23-.16-.33-.36-.65-.25-.37-1.03-.26-1.35-.66-.1-.13-.08-.31-.17-.41-.22-.22-.76-.23-.91-.54-.17-.38.23-.52.19-.88-.35-.05-1.68-.02-1.31-.74.14-.29.8-.47 1.1-.41.33.05.47.29.49.66.71.08.16-.84.52-1.2.31-.3 1.42-.26 1.85-.24.7.04.57.74 1.31.6.29-.04.81-.07 1.04-.22.33-.2.65-.83.66-1.21.02-.3-.23-.79-.15-1.06.09-.23.59-.47.83-.37.26.15.05.4.19.61.26.37.93.12 1.28.34.59.39.24 1.4.67 1.87.27.27.79.11 1.03.48.16.27.11.9-.06 1.15.73-.05 1.44-.46 2.16-.5.09.4-.21.93-.37 1.31-.15.42-.36.65-.65 1.01-.14.16-.38.34-.31.56.4-.02 1.36-.27 1.66.05.12.11.09.26.12.43.02.13-.08.63-.07.65.11.29.43 0 .7.19.4.23.36.66.95.36-.05-.47-.05-.9 0-1.37.05-.63.61-.79 1.21-.81.02.04.02.07.03.12.28-.14-.02-1.26.07-1.59.18-.74.65-.94 1.31-1.12-.04-.63.26-1.69.77-2.12.54-.44 1.52-.43 2.12-.22.09.02.1.22.23.2.18-.02.3-.27.43-.37.33-.23.83-.33 1.2-.44.39-.12.74-.3 1.13-.44.17-.05.69-.27.85-.18.21.11.15.36.19.61.16.86.88.36 1.5.25.05.25 0 .67.11.86.12.25.02.05.26.2.43.24.54.57 1.05.72.62.18 1.1.59.44 1.08-.73.54-.44.48.11.95.16.13.26.33.41.42.26.21.63.22.8.55.19.37 0 .81-.02 1.15-.02.56.21.7.44 1.1.14.29-.04.4-.07.55-.05.19-.06.26-.02.54 1-.18 2.14.32 3.07.59.58.2 2.11-.18 2.15.74-.24.05-.61-.02-.65.27z"/></g><g class="uuid-6a2233c2-8f18-41a6-aa4e-c8defc4449b1"><path class="uuid-cd1c811d-3c06-42a4-afda-d20039bfb4f8" d="M743.95 493.77c-.04.27.37.42.52.56.27.22.87.83.36 1.17-.81.55-1.1-1.21-1.49-1.48-.39-.26-1.18-.05-1.61 0-.62.09-.88-.02-1.49-.36-.75-.4-1.8-.83-2.6-.37-.26.15-.9.54-.84.88.08.35.66.44.92.67.19.16.34.31.26.59-.05.16-.3.22-.36.35-.07.16-.02.23-.02.41 0 .26.12.36-.1.54-.3.25-1.07-.14-1.06.36 0 .54 1.01.72 1.3 1.04.13.13.32.53.27.74-.07.27-.29.18-.47.44-.26.43.03 1.1 0 1.55-.09.79-.52 1.04-.9 1.67-.13.21-.16.43-.36.52-.21.09-.33-.08-.53 0-.22.11-.27.36-.57.45-.19.05-.61.14-.8.1-.3-.05-.26-.07-.36-.34-.16-.4-.17-.5-.51-.8-.6-.51-.4-.9-.51-1.62-.02-.23-.09-.89-.33-.89.06.38-.1.93-.65.67-.12-.05-.14-.35-.26-.47a.75.75 0 00-.57-.19c-.15.42.07.7-.44.75-.21.02-.56-.09-.76-.16-.33-.12-.33-.22-.72-.22-.42.02-.84 0-1.25-.02.03.13.04.3.05.45-1.07.4-1.38-1.15-2.01-1.54-.4-.26-1.21-.08-1.45.19-.16.19-.11.33-.37.44-.23.1-.56-.04-.82.07-.52.21-.62.81-.18 1.1.62.38 1.09.33 1.75.19.19-.03.73-.18.89-.02.12.12-.02.45.04.59.16.36.75.31.79.79-.52.26-.47.47-.42.77-.18.12-.35.26-.48.44-.05-.3-.16-.61-.23-.9-.86.04-.47.78-1.21.79 0-.09-.11-.19-.09-.32-.65 0-.54.34-.87.7-.17.18-.23.12-.48.21-.33.11-.26.04-.51.35-.44.54-1.2.58-1.69.98-.51.4-1.37 1.09-1.98.68-.02-.02-.08-.23-.12-.29-.09-.1-.28-.03-.36-.14-.27-.34.05-.3.32-.4.2-.09.58-.18.75-.29.26-.15.3-.47.47-.67.23-.29.68-.75.15-.92-.23-.07-.46.16-.66 0-.16-.13-.16-.47-.1-.65-.32-.21-.52-.16-.5-.61 0-.26.19-.46.06-.73-.54.02-1.01.09-1.38.48-.36-.59-2.42 1.05-2.85.9-.49-.18-.11-.88-.19-1.28 0-.08.06-.24.02-.3-.12-.16-.5-.08-.57-.23-.09-.21.11-.28.16-.48.09-.44-.26-.75-.2-1.15.09-.5 1.31-.63.28-1.17-.54-.26-.91-.6-1.24-1.12-.32-.55.05-.7.05-1.24 0-.27-.21-.56-.28-.82-.09-.31-.08-.64-.14-.96.12-.09.94-.29 1.1-.11.06.07.06.36.08.45.67.14.33-.25.57-.59.24-.35.64-.24.98-.3-.02-.26-.12-.55-.09-.79.02-.36.13-.57.04-.96-.11-.45-.4-.71-.65-1.08-.26-.4-.27-.34-.67-.56-.4-.21-.16-.32-.37-.64-.23-.36-1.03-.26-1.35-.66-.09-.12-.07-.3-.16-.4-.23-.23-.77-.24-.91-.56-.18-.38.23-.5.19-.88-.36-.05-1.67-.02-1.32-.74.16-.29.81-.45 1.11-.41.33.05.47.3.49.66.71.09.16-.82.52-1.18.31-.3 1.42-.27 1.85-.26.71.04.57.74 1.31.61.29-.05.82-.08 1.06-.23.33-.2.65-.83.66-1.2 0-.3-.24-.78-.16-1.07.09-.22.61-.47.83-.36.29.12.05.38.2.61.26.37.93.12 1.27.34.58.37.26 1.38.68 1.85.26.29.79.11 1.02.5.17.27.11.89-.06 1.14.74-.04 1.44-.45 2.16-.5.09.4-.22.93-.36 1.31-.16.42-.37.67-.65 1.01-.14.16-.39.36-.3.58.39-.02 1.35-.29 1.66.03.11.12.09.29.12.44.02.14-.08.63-.07.66.11.27.43 0 .7.17.4.25.35.66.96.37-.05-.47-.05-.92 0-1.38.06-.63.6-.78 1.22-.81.02.05.02.09.02.11.26-.11-.02-1.23.07-1.57.19-.74.65-.95 1.32-1.13-.05-.63.26-1.68.77-2.11.52-.44 1.51-.44 2.1-.23.1.04.11.22.24.22.18-.02.3-.29.42-.38.33-.22.83-.32 1.2-.44.39-.12.73-.3 1.12-.44.16-.05.68-.27.85-.18.21.11.16.36.21.62.16.86.88.37 1.49.24.04.25 0 .68.12.88.12.23.02.04.26.18.43.25.54.59 1.04.72.64.19 1.1.59.46 1.08-.73.55-.46.48.11.96.16.13.26.31.4.42.26.19.64.21.8.54.19.37 0 .81 0 1.15-.02.56.21.7.42 1.12.14.28-.03.39-.07.55-.04.19-.04.25 0 .54 1-.18 2.14.3 3.07.59.59.16 2.1-.19 2.15.73-.23.05-.61-.02-.65.27z"/></g><g class="uuid-6a2233c2-8f18-41a6-aa4e-c8defc4449b1"><path class="uuid-cd1c811d-3c06-42a4-afda-d20039bfb4f8" d="M644.25 473.43c.27.05.46-.32.61-.47.23-.25.91-.79 1.21-.23.46.85-1.32.96-1.63 1.35-.28.35-.17 1.16-.15 1.59.02.63-.12.88-.51 1.45-.48.69-1.01 1.69-.61 2.56.1.26.43.95.77.92.37-.04.51-.61.76-.85.18-.16.35-.32.61-.19.16.05.19.32.31.4.15.09.24.03.4.05.27.02.37-.09.54.16.21.3-.24 1.05.24 1.1.53.04.82-.95 1.17-1.2.15-.12.57-.27.76-.2.27.09.15.3.4.5.39.3 1.09.09 1.53.16.77.16.99.62 1.57 1.07.21.13.4.19.47.4.09.22-.12.31-.03.53.08.23.32.3.38.61.03.2.07.61.02.81-.07.29-.1.25-.38.33-.41.11-.51.12-.84.44-.56.53-.95.3-1.65.33-.24.02-.9 0-.93.25.38-.03.92.19.61.69-.09.14-.37.12-.51.23-.14.14-.22.33-.23.54.4.19.7 0 .71.52 0 .2-.15.54-.24.75-.16.3-.25.3-.28.68-.03.43-.09.85-.16 1.24.16 0 .31-.02.46 0 .29 1.1-1.27 1.26-1.73 1.85-.29.38-.19 1.2.05 1.45.17.18.31.15.41.41.06.23-.1.56-.03.82.16.54.75.7 1.08.29.44-.58.43-1.05.38-1.73-.02-.19-.12-.74.06-.89.13-.11.44.07.58.02.37-.12.38-.71.86-.71.22.54.42.52.73.47.1.19.23.39.39.54-.3.02-.63.09-.93.14-.02.86.73.54.68 1.28-.1 0-.22.09-.33.07-.08.65.28.56.6.92.17.19.11.26.17.52.06.33.02.25.3.54.48.47.45 1.23.8 1.78.34.54.95 1.46.49 2.03-.03 0-.26.05-.3.09-.11.08-.06.27-.17.34-.37.25-.3-.07-.37-.36-.05-.22-.12-.59-.21-.78-.12-.26-.44-.36-.63-.54-.26-.26-.66-.75-.89-.22-.09.19.12.45-.06.65-.15.15-.49.11-.65.04-.23.29-.22.51-.67.42-.26-.02-.44-.23-.72-.12-.03.53-.02 1 .33 1.41-.61.3.81 2.52.61 2.95-.23.47-.88.02-1.28.04-.09.02-.25-.08-.31-.04-.17.09-.13.49-.28.54-.21.07-.26-.15-.47-.2-.42-.14-.78.18-1.16.08-.51-.13-.5-1.37-1.11-.38-.33.5-.71.84-1.26 1.1-.57.27-.68-.12-1.21-.18-.28-.02-.59.16-.86.21-.31.05-.65 0-.96.05-.08-.14-.2-.97 0-1.13.07-.05.37-.02.46-.02.22-.64-.21-.36-.53-.63-.33-.28-.18-.66-.2-1-.25-.02-.55.07-.8.02-.35-.05-.54-.19-.95-.14-.46.07-.74.33-1.14.55-.41.22-.37.23-.62.61-.25.37-.34.11-.68.29-.38.2-.37.99-.79 1.28-.13.09-.3.05-.4.13-.26.19-.32.73-.64.84-.41.13-.49-.27-.86-.27-.09.34-.2 1.67-.87 1.23-.27-.18-.37-.83-.3-1.14.09-.33.35-.44.72-.43.15-.7-.81-.23-1.13-.63-.27-.34-.13-1.44-.06-1.87.11-.7.79-.48.72-1.24-.02-.28 0-.81-.12-1.06-.17-.34-.75-.72-1.13-.78-.3-.05-.8.16-1.07.04-.22-.1-.4-.63-.28-.85.16-.26.39-.02.63-.14.4-.23.22-.92.47-1.24.43-.54 1.41-.1 1.91-.48.31-.23.19-.77.6-.96.28-.14.89-.03 1.13.16.02-.73-.31-1.47-.28-2.21.4-.04.91.32 1.26.5.4.2.62.44.95.76.15.16.31.41.54.34 0-.38-.16-1.37.19-1.64.13-.09.28-.05.44-.07.13-.02.62.14.64.14.3-.1.06-.43.26-.68.28-.37.7-.29.46-.91-.47 0-.92-.05-1.38-.13-.61-.11-.71-.67-.68-1.31h.12c-.09-.29-1.24-.11-1.56-.23-.73-.26-.88-.75-.98-1.42-.64 0-1.66-.42-2.04-.99-.37-.56-.27-1.55-.02-2.11.05-.09.23-.08.23-.2 0-.19-.24-.32-.32-.47-.19-.36-.25-.86-.32-1.24-.08-.4-.23-.75-.33-1.15-.03-.18-.19-.71-.09-.86.13-.21.37-.12.64-.16.87-.07.45-.83.39-1.45.25-.03.66.05.88-.05.24-.09.05-.02.21-.23.3-.4.63-.47.83-.96.23-.61.69-1.04 1.11-.34.47.78.44.49.96-.03.16-.15.34-.22.47-.35.21-.25.27-.62.61-.75.39-.16.8.09 1.15.13.54.07.7-.13 1.14-.31.3-.12.37.07.54.12.19.06.26.08.55.06-.09-1.01.52-2.11.88-2.99.24-.57.03-2.12.96-2.07 0 .23-.09.6.19.68z"/></g><path class="uuid-421e3dad-639a-41b1-93f1-8b79951c86bf" d="M338.17 625.23c.28 10.59-15.09 38.83 3.58 41.66-2.29 6.22-10.87 9.64-11.8 16.74-.51 3.87 5.43 13.12 7.28 16.31 3.35 5.78 7.68 1.6 4.74 9.37-1.15 3.04-8.56 6.73-10.93 9.56 3.09 4 7.49 12.86-1.61 12.52-4.81-.18-11.13-9.91-13.33-13.45l-3.92 2.36c1.49 8.23-15.28 15.12-20.19 6.27 4.24-7.96 12.94-12.17 17.8-19.59 4.62-7.01 2.86-7.27 1.64-14.16.03.15-3.13-11.04-2.53-10.32-3.18-3.7-4.04-6.25-8.46-.63-4.11 5.2.64 7.53.4 13.78-.36 8.9-13.4 24.58-23.92 22.2.19-.64.38-1.26.6-1.87-9.11 7.89-21.44-2.07-12.57-14.37 1.69-2.34 4.58-.45 7.19-2.39 3.88-2.85 12.32-9.97 13.54-14.66 1.02-3.94-.78-13.81-1.7-15.97-.71-1.69-.13-3.65-1.55-6.34-1.06-1.98-5.94-2.94-7.31-5.67-1.91-3.76.09-16.78 8.5-16.02 6.89.6 2.52 10.38 11.27 12.39 6.26 1.44 6.9-8.92 12.64-1.66.91-8.42 5.5-13.65 6.64-21.56.84-5.9-3.54-10.34-.46-15.9 10.33 7.71 10.57 21.85 24.46 11.41z"/><g class="uuid-6a2233c2-8f18-41a6-aa4e-c8defc4449b1"><path class="uuid-cd1c811d-3c06-42a4-afda-d20039bfb4f8" d="M692.51 170.83c.09.85.23 1.67.39 2.49-.55-.3-1.15-.65-1.78-1.1.2-.72.68-1.19 1.39-1.39zm47.78 105.69c-2.21-6.53-7.86-3.74-1.2-11.35 5.55-6.31 9.93-4.04 14.33 2.32 1.31-6.97 4.61-17.91 1.86-25.1-2.11-5.49-8.54-9.46-11.29-14.73-7.6-14.62 2.63-20.98 17.14-17.83-5.26-6.04-10.7-13.33-18.89-14.53-8.22-1.22-15.18 4.28-23.33 1.87-12-3.51-23.41-10.92-26.02-23.84 7.73 4.06 9-4.95 14.65-6.86 5.75-1.94 14.02 0 18.74 4.97 3.03 3.2 2.96 13.33 10.1 13.84 7.29.51 10.64-9.96 10.04-15.51 10.27-1.73 12.95 10.05 18.89 15.63 4.5-4 9.65-12.39 15.11-15.11 11.46-5.7 17.98 5.26 25.56 13.56 11.37 12.46 21.4 25.14 30.14 39.43 2.43 3.96 5.25 7.7 8.26 11.34 59.14 107.22 71.12 233.5 35.97 348.45-5.63-3.46-14.29-3.62-19.08-10.15.58-3.18 1.26-9.96-.07-13.92-1.17-3.48-5.82-7.86-6.46-11.19-1.94-10.12 8.37-26.24 1.65-36.16-3.27-4.82-6.97-2.97-9.37-9.27-3.18-8.31 1.3-14.37-8.01-12.56-2.15.41-3.96 5-5.89 6.04-3.72 1.98-8.08 1.07-9.7 1.69-5.14 1.98-9.91 8.4-16.51 2.64-1.01 1.22-3.01 2.23-3.93 3.53-2.67-3.98-15.42-18.22-13.52-22.54-9.34-7.26 13.51-25.07 17.17-34.71-5.38-6.78-12.7-2.97-18.39-4.44 8.73-9.98 46.07-41.35 12.41-45.95-7.41-1.01-7.52.93-13.38 5.93-5.86 5.01-11.01 7.45-16.81 11.31-10.39 6.93-16.74 19.69-26.05 30.14 2.53 4.35 9.49 31.32-1.8 20.61-1.09 2.14-3.71 3.27-4.54 5.91-1.45-1.45-4.53-2.06-6-3.76-1.81 2.53-5.57 9.84-9.02 11.09-3.85 1.39-4.56-3.92-8.17-2.95-7.33 1.98-14.47 13.18-23.01 6.03 6.87-9.07 17.88-6.66 21.86-14.23.22-.41-4.33-3.36-4.24-3.66.7-2.25 6.77-7.61 6.61-6.79.81-3.95 2.37-4.77-2.27-8.26 5.37-7.47 16.25-7.61 21.16-15.11 4.56-7 .3-7.32.54-14.49.55.34 1.07.72 1.59 1.12 7.58-4.84 1.35-11.24 2.53-17.3.79-3.94 2.42-7.57 6.94-10.49 2.28-1.48 7.7.58 9.42-1.71 11.69-15.67-21.13-10.32-25.73-13.36 6.89-9.95 16.54-1.24 19.83-9.37 1.89-4.66-5.41-24.13 10.22-15.21 1.55-4.71-.74-15.67-4.47-19.84-4.49-5-1.69-4.15-9.97-2.35-9 1.98-28.14 17.93-36.69 15.95-5.54-1.29-5.52-8.3-8.23-9.48-6.6-2.86-12.35 3.6-19.26 5.47-11.44 3.06-13.88-1.98-22.04-10.64 6.67-6.92 11.12 1.13 17.98.47 7.03-.7 14.08-8.15 19.7-11.93 8.65-5.84 19.43-20.05 29.8-21.36 8.87-1.12 8.51 5.97 14.16-3.06 3.9-6.2.66-13.22-1.03-18.25z"/></g><g class="uuid-6a2233c2-8f18-41a6-aa4e-c8defc4449b1"><path class="uuid-cd1c811d-3c06-42a4-afda-d20039bfb4f8" d="M245.2 146.45c-9.47-6.97-24.78-19.34-36.63-7.91-6.7 6.45-1.97 10.57-4.56 16.89-4.88 11.93.74 4.77-8.29 11.83-10.83 8.47-24.2 11.49-32.38 24.02-7.04 10.76-11.6 27.14-15.77 38.97-3.4 9.59-9.83 23.67-2.77 33.21 4.24 5.72 4.64 6.2 12.22 6.32 11.22.2 9.94-4.83 11.75-11.97 3.55-13.88-8.06-26.25 2.31-39.39 2.26-2.86 8.07-4.21 10.49-6.26 10.7-9.01 13.31-15.6 27.29-10.36 2.27 3.31 5.5 13.92 7.98 15.61 9.19 6.26 6.91-2.43 14.97-.51 13.54 3.2 18.16 16.15 34.44 11.89-4.37 4.97-9.38 9.55-13.83 14.44 6.14 5.06 13.39 9.87 18.25 16.44-7.6 2.49-15.78-6.74-24.61-3.66-3.43 1.2-8.72 9.24-11.21 11.94 8.24 10.7 35.76 25.03 13.79 39.61-1.77-2.84-6.55-4.78-8.27-7.6-4.15 4.07-8.58 8.3-12.85 12.25-10.44-8.67-25.16-2.99-37.75-5.4-20.95-4.01-29.51-3.31-46.38 17.34 10.97 7.85.87 10.61 2.25 16.67 1.25 5.48 9.38 17.44 7.63 22.17-2.1 5.68-20.43 5.48-26.39 14.94-8.24 13.09.06 9.28.68 20.49.84 15.66-30.69 35.48-18.01 48.2 19.56 19.64 16.46-26.11 35.68-23.57 8.18 1.07 4.25 14.86 17.97 11.06 10.57-2.93 9.14-16.51 13.78-24.03 3.84-6.25 13.24-14.62 19.9-17.44 8.37-3.55 16.72 1.8 24.29-1.15 16.64-6.48 14.97-27.05 36.92-20.2 6.68 2.07 19.76 9.97 16.28 18.74-2.85 7.22-17.67.59-22.76 9.94 12.29 20.03-33.07 15.84-35.44 27.82-2.3 11.58 12.75 13.86 9 23.6-3.98 10.34-18.71 10.43-24.03 2.23 1.98 11.27-4.55 28.34 5.3 37.82 7.48 7.19 15.28.79 21.73 8.43-5.29 7.63-29.68 15.81-27.58 28.76 2.03 12.57 6.13 1.8 11.4 5.83 1.66 1.27 8.08 7.64 10.29 8.65 10.31 4.64 18.48 6.24 33.18.38 9.07-3.6 24.76-18.49 33.78-11.24-6.11 11.06-20.46 12.1-28.5 22.73 8.73 2.52 19.41-1.8 26.56-1.44-4.62 4.98-8.93 10.32-11.21 16.75 15.21 8 33.46-.59 48.15 7.77 11.18 6.35 22.05 19.87 31.1 29.75-7.18 7.48-6.15-2-12.84-3.78-2.17-.58-5.96-4.21-8.6-5.18-2.73-.99-6.18 3.29-8.61 2.32-8.68-3.52-14.71-10.95-25.07-10.79-11.83.17-16.15 9.1-25.92 11.94-9.6 2.78-21.22-5.39-27.57 4.32 1.61 2.6 1.89 4.63 3.96 7.05-6.79 3.26-9.61-2.44-16.35 2.38-2.24 1.62-.04 11.09-5.53 14.92-7.36-3.22-15.37-10.86-20.18-17.35-5.81-7.85-6.83-19.11-14.13-25.5-18.03 16.57-38.78 32.25-17.9 52.58-1.66 3.17-6.23 7.46-9.37 8.9-5.43-8.5-18.61-14.02-17.21-.35.78 7.73 18.54 9.89 4.56 18.18-4.56-7.08-11.52-7.81-17.41-1.48-7-5.4-13.5-12.86-20.24-19.03-15.63 14.35-22.62 19.67-17.68 38.56 1.78 6.8 7.25 6.69 6.02 15.31-.74 5.07-9.74 7.71-10.64 14.37-.4 2.91.52 7.19 1.7 11.79-137.25-176.2-124.9-431.15 37.1-593.15a451.565 451.565 0 0165.92-54.49c4.93-1.51 9.92-2.11 14.98-1.08 13.41 2.71 28.68 18.72 38.44 29.42-15.02 12.7 8.6 29.8-7.56 38.77z"/><path class="uuid-cd1c811d-3c06-42a4-afda-d20039bfb4f8" d="M245.2 146.45c-9.47-6.97-24.78-19.34-36.63-7.91-6.7 6.45-1.97 10.57-4.56 16.89-4.88 11.93.74 4.77-8.29 11.83-10.83 8.47-24.2 11.49-32.38 24.02-7.04 10.76-11.6 27.14-15.77 38.97-3.4 9.59-9.83 23.67-2.77 33.21 4.24 5.72 4.64 6.2 12.22 6.32 11.22.2 9.94-4.83 11.75-11.97 3.55-13.88-8.06-26.25 2.31-39.39 2.26-2.86 8.07-4.21 10.49-6.26 10.7-9.01 13.31-15.6 27.29-10.36 2.27 3.31 5.5 13.92 7.98 15.61 9.19 6.26 6.91-2.43 14.97-.51 13.54 3.2 18.16 16.15 34.44 11.89-4.37 4.97-9.38 9.55-13.83 14.44 6.14 5.06 13.39 9.87 18.25 16.44-7.6 2.49-15.78-6.74-24.61-3.66-3.43 1.2-8.72 9.24-11.21 11.94 8.24 10.7 35.76 25.03 13.79 39.61-1.77-2.84-6.55-4.78-8.27-7.6-4.15 4.07-8.58 8.3-12.85 12.25-10.44-8.67-25.16-2.99-37.75-5.4-20.95-4.01-29.51-3.31-46.38 17.34 10.97 7.85.87 10.61 2.25 16.67 1.25 5.48 9.38 17.44 7.63 22.17-2.1 5.68-20.43 5.48-26.39 14.94-8.24 13.09.06 9.28.68 20.49.84 15.66-30.69 35.48-18.01 48.2 19.56 19.64 16.46-26.11 35.68-23.57 8.18 1.07 4.25 14.86 17.97 11.06 10.57-2.93 9.14-16.51 13.78-24.03 3.84-6.25 13.24-14.62 19.9-17.44 8.37-3.55 16.72 1.8 24.29-1.15 16.64-6.48 14.97-27.05 36.92-20.2 6.68 2.07 19.76 9.97 16.28 18.74-2.85 7.22-17.67.59-22.76 9.94 12.29 20.03-33.07 15.84-35.44 27.82-2.3 11.58 12.75 13.86 9 23.6-3.98 10.34-18.71 10.43-24.03 2.23 1.98 11.27-4.55 28.34 5.3 37.82 7.48 7.19 15.28.79 21.73 8.43-5.29 7.63-29.68 15.81-27.58 28.76 2.03 12.57 6.13 1.8 11.4 5.83 1.66 1.27 8.08 7.64 10.29 8.65 10.31 4.64 18.48 6.24 33.18.38 9.07-3.6 24.76-18.49 33.78-11.24-6.11 11.06-20.46 12.1-28.5 22.73 8.73 2.52 19.41-1.8 26.56-1.44-4.62 4.98-8.93 10.32-11.21 16.75 15.21 8 33.46-.59 48.15 7.77 11.18 6.35 22.05 19.87 31.1 29.75-7.18 7.48-6.15-2-12.84-3.78-2.17-.58-5.96-4.21-8.6-5.18-2.73-.99-6.18 3.29-8.61 2.32-8.68-3.52-14.71-10.95-25.07-10.79-11.83.17-16.15 9.1-25.92 11.94-9.6 2.78-21.22-5.39-27.57 4.32 1.61 2.6 1.89 4.63 3.96 7.05-6.79 3.26-9.61-2.44-16.35 2.38-2.24 1.62-.04 11.09-5.53 14.92-7.36-3.22-15.37-10.86-20.18-17.35-5.81-7.85-6.83-19.11-14.13-25.5-18.03 16.57-38.78 32.25-17.9 52.58-1.66 3.17-6.23 7.46-9.37 8.9-5.43-8.5-18.61-14.02-17.21-.35.78 7.73 18.54 9.89 4.56 18.18-4.56-7.08-11.52-7.81-17.41-1.48-7-5.4-13.5-12.86-20.24-19.03-15.63 14.35-22.62 19.67-17.68 38.56 1.78 6.8 7.25 6.69 6.02 15.31-.74 5.07-9.74 7.71-10.64 14.37-.4 2.91.52 7.19 1.7 11.79-137.25-176.2-124.9-431.15 37.1-593.15a451.565 451.565 0 0165.92-54.49c4.93-1.51 9.92-2.11 14.98-1.08 13.41 2.71 28.68 18.72 38.44 29.42-15.02 12.7 8.6 29.8-7.56 38.77z"/></g><path d="M577.82 194.54c-11.92 10.3-22.8 19.83-6.07 32.2-2.77 5.11-6.49 6.91-11.4 7.05l-16.48-2.36c-1.7.97-6.57.34-9.43 3.86-11.16-5.57-3.49-15.33 3.19-21.51-1.52-2.37-3.46-4.01-5.75-5.29-1.66 2.71-6.37 4.63-8.02 7.32-4.15-3.97-8.47-8.07-12.68-12.03-10.43 8.2-19.63 19.39-29.63 28.46-14.9-10.28-1.06-15.85 3.68-24.33-10.59 1.94-22.42-12.15-14.96-22.41 7.86-10.81 16.27 3.02 28.18 3.71-10.75-3.45-29.54-14.68-20.5-25.91 8.13-10.13 21.26 2.73 34.15 1.17 15.16-1.85 19.9-3.55 35.2 4.21 10.51 5.34 24.3 14.66 30.52 25.84z" opacity=".52" fill="#fff" stroke-width="0"/><g opacity=".52"><path class="uuid-cd1c811d-3c06-42a4-afda-d20039bfb4f8" d="M376.55 203c.89.81 1.5 1.62 1.97 2.43-1.63.69-3.29 1.07-4.94.93.89-1.49 1.91-2.11 2.98-3.35z"/><path class="uuid-cd1c811d-3c06-42a4-afda-d20039bfb4f8" d="M741.11 108.59c-4.89-1.06-9.49.15-14.9-1.81-6.31-2.27-12.32-9.61-17.97-13.12-11.31-7-29.97-24.96-41.79-10.43-9.28-5.57-15.24-17.45-25.22-21.59-6.5-2.68-14.2 1.17-20.41-1.28-4.42-1.73-7.32-6.85-10.89-9.87-8.43-7.12-17.13-8.24-27.3-1.8-7.41 4.7-11.68 15.94-.29 17.07-12.08.96-7.25 9.08-.83 14.62-9.76 1.01-12.62 7.37-9.01 14.24 5.26 10.04 16.08 9.48 24.68 13.43-7.52-.62-14.84-1.35-18.82 6.38 7.67 8.68 12.84 18.22 17.7 28.45 6.36 13.38 2.53 8.9-5.29 19.96 6.87 6.6 22.32 20.38 9.38 27.86-7.27-5.6-11.25-13.24-17.45-20-2.93-3.2-6.84-5.9-9.4-9.41-2.89-3.96-3.19-8.18-5.47-11.82-5.71-9.15-9.89-5.68-18.11-10.12-8.88-4.8-9.35-11.49-21.08-12.21-19.35-1.16-18.54.64-20.63-18.17-1.12-10.04-8.85-22.52-18.61-9.65-7.22 9.51 8.39 21.6-8.3 19.62-4.68-.54-3.85-6.71-10.43-5.43-4.93.96-8.76 10.04-8.37 14.01-20.68-5.25-8.72 23.92-12.28 30-4.69 8-12.95 4.35-18.99 8.02-11.84 7.19-6.47 17.45-8.66 27.2-2.01 8.89-17.24 22.61-25.5 27.34-5.89 3.37-11.78 5.78-16.47-.77-3-4.15.98-8.94-1.88-13.87 6.28-2.7 12.25-10.5 16.6-15.1-4.5-7.38-15.75-3.35-21.78-.3-3.38-3.11-37.01 19.86-21.43-5.25-5.65-10.78-10.28.16-16.39 3.81-7.43 4.42-13.63 4.21-20.16 10.8-16.32-3.2-6.72-19.72-.09-27.9 3.05-3.78 10.32-7.27 9.9-12.6-.41-5.31-8.6-9.35-13.29-7.84 3.08-12.73 37.96-34.33 11.27-37.58-13.91-1.69-31.9 18.88-28.03-1.78 1.83-9.8 6.44-13.65.6-20.57-2.15-2.53-12.83-9.59-16.24-10.52-5.47-1.46-13.3 4.33-14.38-3.2-.71-4.93 6.41-8.12 6.48-12.68-8.34-1.38-14.38 6.79-21.96 6.67-8.21-.11-10.4-9.64-16.89-12.62C393.17-30.54 596.7-13.9 741.11 108.59z"/></g><path d="M769.05 133.29c-175.66-175.68-460.49-175.68-636.16-.02-175.68 175.68-175.66 460.52 0 636.18 175.66 175.66 460.49 175.66 636.16-.02 175.67-175.66 175.67-460.48 0-636.15z" style="mix-blend-mode:multiply" fill="url(#uuid-662882e5-a1dc-40a7-af78-a8ccc3ce9199)" stroke-width="0"/></g></g></svg>