<svg xmlns="http://www.w3.org/2000/svg" viewBox="0 0 900 900"><defs><radialGradient id="uuid-d4a64bb5-a10e-482a-9226-3a3ba0bcd42a" cx="434.16" cy="316.84" fx="434.16" fy="316.84" r="541.29" gradientTransform="rotate(-135 470.235 374.753)" gradientUnits="userSpaceOnUse"><stop offset=".25" stop-color="#fff"/><stop offset=".64" stop-color="#fff" stop-opacity=".72"/><stop offset=".73" stop-color="#fff" stop-opacity=".5"/><stop offset=".82" stop-color="#fff" stop-opacity=".29"/><stop offset=".9" stop-color="#fff" stop-opacity=".13"/><stop offset=".96" stop-color="#fff" stop-opacity=".03"/><stop offset="1" stop-color="#fff" stop-opacity="0"/></radialGradient><radialGradient id="uuid-cb5baa61-343f-4d23-8bbd-ed4a530e6a54" cx="429.74" cy="307.08" fx="429.74" fy="307.08" r="448.54" gradientTransform="rotate(-135 470.235 374.753)" gradientUnits="userSpaceOnUse"><stop offset="0" stop-color="#797a7a"/><stop offset=".81" stop-color="#a6a7a7"/><stop offset=".84" stop-color="#a8a9aa"/><stop offset=".94" stop-color="#d5d6d6"/><stop offset="1" stop-color="#f3f3f3"/></radialGradient><radialGradient id="uuid-2b5a0b38-3ee8-42da-a7a8-bfa5d0c5c8a3" cx="301.53" cy="433.28" fx="301.53" fy="433.28" r="620.64" gradientTransform="rotate(-135 470.235 374.753)" gradientUnits="userSpaceOnUse"><stop offset=".55" stop-color="#121212"/><stop offset=".6" stop-color="#171717"/><stop offset=".66" stop-color="#272727"/><stop offset=".72" stop-color="#424242"/><stop offset=".79" stop-color="#686868"/><stop offset=".87" stop-color="#989898"/><stop offset=".95" stop-color="#d1d1d1"/><stop offset="1" stop-color="#fff"/></radialGradient><style>.uuid-81960956-3a0d-45b1-b6e5-7652dac038e5,.uuid-b930d4d0-f3e6-47c9-8709-9a6da6257fc4{stroke-width:0;fill:#fff}.uuid-75f2c30b-8861-4af9-973c-65341d1be2b0{opacity:.5}.uuid-463f5084-6be2-4fe2-a258-bf8916025d9f,.uuid-b930d4d0-f3e6-47c9-8709-9a6da6257fc4{opacity:.52}</style></defs><g style="isolation:isolate"><g id="uuid-91920a74-31d7-4e08-a391-fdb5dba786f9" data-name="Capa 2"><path d="M77.65 57.87c211.72-211.71 555-211.71 766.72.02 211.73 211.73 211.74 555 0 766.73-211.73 211.73-555 211.73-766.74 0-211.72-211.73-211.72-555.01 0-766.74z" fill="url(#uuid-d4a64bb5-a10e-482a-9226-3a3ba0bcd42a)" opacity=".6" stroke-width="0"/><path d="M133.86 134.08c175.16-175.16 459.17-175.16 634.32 0 175.17 175.16 175.16 459.16 0 634.31-175.16 175.18-459.16 175.16-634.33 0-175.15-175.17-175.15-459.15 0-634.31z" fill="#a8a9aa" opacity=".52" stroke-width="0"/><path d="M133.86 134.08c175.16-175.16 459.17-175.16 634.32 0 175.17 175.16 175.16 459.16 0 634.31-175.16 175.18-459.16 175.16-634.33 0-175.15-175.17-175.15-459.15 0-634.31z" fill="url(#uuid-cb5baa61-343f-4d23-8bbd-ed4a530e6a54)" stroke-width="0"/><path class="uuid-b930d4d0-f3e6-47c9-8709-9a6da6257fc4" d="M768.19 768.39c4.56-8.11 5.47-18.16-3.77-22.59-9.36-4.47-8.43 2.33-15.83 4.58-13.53 4.13-6.53-10.62-15.85-16.85-5.47 3.86-8.85 8.91-8.54 15.72-3.11-2.16-5.55-5.61-7.22-8.37-7-11.57-12.01-22.98-23.7-31.75-21.28-15.97-2.75 11.17-.9 19.07-8.15-4.1-17-4.42-24.28-.71-10.75 5.49-7.65 7.2-19.72 2.55-8.47-3.27-15.02-6.06-20.46 4.68-3.77 7.45.4 15.48-4.57 23.3-7.62-6.91-15.14-19.88-25.48-20.9-12.42-1.24-19.13 11.75-10.25 22.04-5.05 6.39-13.66 13.91-19.9 4.78 0 .02-2.2 2.17-2.13 2.14 14.43 16.11-15.46 10.96-17.08 15.38-1.37 3.79 6.24 7.72 6.62 10.65.6 4.46-2.68 3.45-3.67 7.29-2.26 8.64-4.41 13.9-11.15 19.67-1.19-.47-2.65-1.23-3.72-1.9 9.55-25.51-14.46-28.2-29.32-36.89-2.65-1.56-3.65 1.2-6.29-1.65-4.43-4.78-4.13-13.31-7.8-18.75-5.7-8.46-10.44-9.49-19.37-5.52-5.09 2.25-9.3 7.28-14.13 7.8-8.28.9-9.36-5.98-15.63-9.36-11.62-6.27-19.3-1.61-28.09 7.8 9.44 10.13 19.58 19.83 29.46 29.59-4.83-3.87-9.59-.58-12.94 4.08 4.3 4.79 10.2 9 13.95 14.2 6.12 8.46 5.82 6.27-1.21 11.6-3.82 2.88-17.06 4.21-12.87 12.01 2.52 4.68 8.16 3.84 11.68.81 4.74 5.91 9.87.57 15.86 3.03 6.38 2.59 5.69 10.71 8.2 13.22 9.9 9.89 31.39 10.49 12.56 24.6-9.47-5.4-14.59-11.55-24.77-13.89-9.3-2.14-19.37-3.39-28.03-10.46-9.81-8.01-9.06-24.44-20.66-30.05-4.53-2.19-7.7-4.07-12.91.83-6.58 6.17.05 7.59 6.27 14.69-17.08 15.93 11.63 18.47 2.97 29.12 4.39 7.58 12.77 2.33 19.2 5.71 9.43 4.94 9.78 18.84 13.51 29.85 119.69 3.94 240.63-39.74 331.99-131.1z"/><path class="uuid-b930d4d0-f3e6-47c9-8709-9a6da6257fc4" d="M437.75 899.55l-5.7-27.84c9.05.38 15.56 15.48 19.82 22.59-2.1 1.32-5.02 4.3-6.48 5.4h.09c1.75-1.01 3.35-.97 5.06-1.5 0 .43.1.98.25 1.57 2.44 0 4.87-.04 7.31-.08 1.25-.78 2.5-1.54 3.77-2.24.57.74 1.25 1.44 2.01 2.12 8.66-.25 17.32-.75 25.95-1.49-1.86-2.56-3.82-5.19-4.85-7.88-.76-2.03-3.15-3.53-3.56-5.71-.46-2.38 4.08-4.69 3.65-6.49-2.88-12.25-14.59-12.12-23.26-17.69-5.79-3.72-10.37-11.69-15.83-16.13-7.04-5.72-10.16-5.96-12.86-15.23-4.21 1.93-8.39 5.19-11.35 8.33-5.23-7.11-8.48-10.1-15.22-15.03-2.23-1.64-6.16-6.25-8.29-6.83-5.89-1.61-10.68 4.15-15.94.34-9.04 4.76-11.84-2.38-19.79-4.28-6.62-1.59-11.9 4.28-16.82 1.94 12.87-12.72 18.54-17.62 7.73-36.32-7.58-13.11-10.21-11.74-21.21-6.18-10.4-4.39-13.93 9.04-25.29-.02-1.38 2.27-4.95 5.43-6.18 7.66-9.09-11.21-26.53-13.05-34.98-26.36-6.08 2.68-14.95 7.93-20.56 12.52 7.65 12.99 10.08 18.22 6.79 33.2-3.74-2.37-7.67-4.83-10.42-8.35 12.77-4.6-.93-22.07-4.4-29.36-6.58-13.85-5.98-12.97 3.86-21.3-3.12-6.14-16.09-19.01-15.9-26.01.18-6.9 7.69-7.04 8.25-14.44 1.05-13.92-12.18-12.27.11-22.65 7.84-6.65 18.95-5.17 25.67-10.56-9.49-12.36 16.14-18.84 23.71-22.74 9.86-5.11 21.84-15.03 26.86-23.81 3.7-6.44 4.85-16.07 4.79-22.61-.04-4.19-1.66-7.22-1.09-10.53.18-1.11 4.55-4.51 5.23-6.91.58-2.02-1.72-6.51-1.44-9.43.33-3.57 3.04-5.54 3.41-9.25 1.85-18.84-12.68-46.3-22.69-61.59 4.13 10.48 2.38 30.86 3.75 43.14 1.16 10.35.5 14.23-13.33 18.22-23.5 6.77-33.85-21.68-54.29-19.33-28.47 3.28-7.31 48.46-32.27 50.12-7.89.52-8.95-6.66-13.01-10.04-7.93-6.56-19.76-9.56-28.3-.99.27.59.54 1.17.79 1.76-12.57 1.58-18.34-27.18-34.81-27.79 9.58 16.56 4.57 18.47-9.32 26.34 1.2 5.04 4.23 9.26 7.33 13.4-8.9-6.72-14.71-2.31-14.64 7.69.09 10.3 10.33 19.62 13.43 28.88-8.24 4.81-12.55-8.4-19.82-1.51 7.07 21.45 27.12 47.47 42.1 64.86-.38 1.46-2.52 5.99-3.42 7.25-20.56-1.91-41.51 14.05-38.21 35.06a452.92 452.92 0 0029.88 32.99c84.21 84.21 193.56 127.91 303.89 131.16z"/><g class="uuid-75f2c30b-8861-4af9-973c-65341d1be2b0"><path class="uuid-81960956-3a0d-45b1-b6e5-7652dac038e5" d="M180.99 376.46c1 3.36-3.11 12.07-4.6 16.65-2.56 7.89-5.6 27.67-.33 23.4 11.31-9.15 7.38-32.4 12.92-46.47 3.66-9.3 14.52-18.82 19.99-23.89 7.87-7.27 13.98-16.22 19.93-25.05 8.72-12.98 21.93-31.33 37.8-34.43 3.36-.65 12.41-1.73 10.9 3.32-1.58 5.28-10.18 12.21-13.92 17.89-2.76 4.19-5.11 7.89-4.03 10.58.64 1.6 4.07-.34 4.84.72.88 1.23.11 2.93.05 5.19-.08 3.52-1.55 5.83 1.39 5.92 3.79.11 14.95-11.86 14.1-6.4-1.44 9.33-12.01 17.93-16.61 26.82-1.58 3.07-3.35 10.38-2.48 12.42 1.15 2.73 3.63-1.08 6.08.41 3.68 2.23 1.44 13.75 2.81 18.74 2.39 8.81 7.87 6.86 13.56 10.11 1.87 1.06 2.67 3.18 4.99 2.21 2.47-.99 3.31-4.35 5.72-5.23 2.59-.97 3.73 1.26 7.07-.57 2.32-1.27 6.91-4.14 9.05-6.25 3.14-3.11 2.68-3.16 3.39-7.06 1.02-5.72 1.21-7.04 4.95-13.24 6.38-10.53 4.03-13.53 5.2-22.29.4-2.97 1.35-11.14 4.43-12.74-1.06 4.87.88 9.89 7.82 3.37 1.82-1.7 2.2-5.2 3.9-7.25 2.1-2.55 4.73-4.39 7.38-5.43 1.41 3.85-1.5 8.15 5.1 5.84 2.48-.86 7.18-3.94 9.86-5.76 4.33-2.93 4.54-3.97 9.56-5.62 5.47-1.78 10.97-3.54 16.28-5.37-.55 1.68-1.09 3.42-1.58 5.07 13.39-.51 20.29-15.69 30.33-21.61 5.87-3.47 16.12-2.35 18.09.09 1.43 1.76.25 3.17 3.02 4.08 2.57.85 7.32-.62 10.06.29 5.71 1.91 4.57 7.76-1.76 10.6-8.9 3.98-14.27 3.86-22.12 3.63-2.2-.07-8.59-.68-11.02 1.35-1.84 1.53-.89 4.63-1.89 6.14-2.59 3.94-9.75 5.09-11.15 10.18 5.92 1.22 4.92 3.47 3.82 6.66 1.99.79 3.88 1.78 5.15 3.22.84-3.04 2.71-6.59 4.11-9.75 9.99-1.35 4.14 6.76 12.67 5.73.28-.99 1.57-2.13 1.75-3.22 7.49-1.07 5.39 2.59 8.4 5.72 1.61 1.68 2.48 1.02 5.06 1.61 3.42.79 2.68.25 4.81 3.13 3.57 4.86 11.51 5.17 15.86 9.05 4.32 3.83 11.33 10.61 18.08 7.78.24-.08 1.31-2.01 1.91-2.37 1.1-.68 2.74.14 3.77-.61 3.56-2.62.37-2.82-2.01-4.1-1.82-.99-5.19-2.3-6.76-3.57-2-1.65-1.72-4.58-2.84-6.59-1.6-2.83-5.06-7.52 1.3-8.46 2.46-.36 4.13 2.05 6.79.93 2.25-.93 3.4-3.98 3.43-5.62 4.07-1.31 6.09-.47 7.73-4.61.9-2.3-.23-4.4 2.4-6.41 5.8 1.31 10.33 3.21 12.42 7.52 6.36-3.93 18.64 16.56 23.27 17.08 5.36.57 5.36-6.45 8.19-9.15.64-.59.85-2.11 1.57-2.4 1.97-.76 5.08 1.67 6.53.88 2.12-1.15.57-2.61 1.41-4.36 1.8-3.66 7.09-4.22 9.12-7.37 2.63-4.08-8.68-11.53 5.17-9.57 7.08 1 13.21.95 20.27-.33 7.31-1.33 4.88-4.67 9.25-7.83 2.24-1.61 6.86-1.83 9.81-2.79 3.49-1.11 6.35-3.02 9.88-4.11-.38-1.42-6.97-8.64-10.2-8.84-1.27-.1-3.83 1.65-4.79 2.12-8.08-3.79-1.37-3.8-.76-7.45.63-3.72-4.8-5.78-8.07-8.41 2.41-1.38 6.23-2.45 8.27-4.05 2.9-2.26 3.69-4.34 8.56-5.8 5.53-1.67 11.4-.75 18.04-.55 6.97.22 6.65.54 13.19 3.07 6.63 2.57 5.07-.07 10.79.61 6.43.78 13.71 8.7 21.46 10.82 2.42.67 4.07-.06 6.18.68 4.79 1.65 10.24 7.49 15.27 8.52 6.21 1.31 3.69-3.54 8.39-3.63 3.99 4 15.83 19.88 21.16 15.14 2.17-1.91-1.88-10.24-5.36-13.88-3.97-4.14-8.25-5.48-12.84-5.23-8.08-8.2 8.45-2.89 9.02-7.65.5-4.06-11.95-17.33-17.22-22.18-8.51-7.87-15.3-4.57-22.87-12.61-2.9-3.09-9.23-8.44-10.51-11.3-1.75-3.94 1.61-9.29 5.96-10.67 3.55-1.13 13.01.09 15.31-1.67 1.8-1.4-2.07-7.67-6.61-9.75-5.6-2.57-5.65.61-10.62-.18-8.36-1.31-14.73-8.73-22.48-10.76-11.1-2.93-21.05 3.83-31.81 3.5-6.82-.22-13.05-5.13-20.62-4.34-5.53.57-11.25 4.97-11.42 7.66-9.55-4.95-18.15-11.31-28.22-15.24-5.41 2.52-5.97 8.03-7.42 11.45-1.64 3.88-.79 6.67.29 10.63.5 1.87 2.3 4.37-.85 5.66-5.44-1.94-17.73-7.76-25.24-6.07-2.73.61-3.77 2.02-5.54 3.27-1.49 1.04-4.24 5.62-4.46 5.75-4.12 2.14-6.57-1-12.08-.12-8.08 1.3-10.51 5.28-17.41 1.61 4.22-4.31 7.88-8.36 11.06-12.66 4.28-5.78-3.17-8.3-12.99-9.4-.56.31-.92.7-1.4 1.04-3.48-1.44 10.88-11.55 12.49-14.75 3.59-7.2-2.38-9.99-12.36-12.45 6.76-5.98 11.51-17.08 6.47-21-8.84-6.91-25.31-5.62-36.86-3.66-2.19.36-4.12 2.31-6.41 2.27-3.24-.07-2.91-2.75-4.65-3.63-4.14-2.05-12.87-2.69-19-3.32-6.43-.65-11.41-2.03-17.9-2.59-2.82-.25-11.16-1.24-15.27.36-5.2 2.03-6.27 4.78-9.31 8.08-8.3 9.05-19.89 8.71-31.15 9.73-2.7 3.29-5.02 8.43-8.54 11.71-4.03 3.72-.73.63-6.2 3.87-9.87 5.84-14 10.89-24.2 16.54-12.82 7.13-23.33 16.73-14.17 17.98 10.35 1.39 5.41 2.64-6.54 13.88-3.46 3.24-5.99 6.7-8.93 9.5-5.37 5.17-11.76 9.03-15.66 15.29-4.46 7.13-2.55 11.21-3.34 15.93-1.23 7.54-5.09 11.76-9.24 20.1-2.79 5.6-.23 4.98.09 6.86.36 2.14.32 3.01-.69 7.49-18.29 11.75-31.47 31.2-43.63 48.32-9.15 12.89-26.6 27.23-25.78 44.83 2.75-3.23 7.14-10.51 8.21-6.92z"/></g><g class="uuid-75f2c30b-8861-4af9-973c-65341d1be2b0"><path class="uuid-81960956-3a0d-45b1-b6e5-7652dac038e5" d="M180.99 376.46c1 3.36-3.11 12.07-4.6 16.65-2.56 7.89-5.6 27.67-.33 23.4 11.31-9.15 7.38-32.4 12.92-46.47 3.66-9.3 14.52-18.82 19.99-23.89 7.87-7.27 13.98-16.22 19.93-25.05 8.72-12.98 21.93-31.33 37.8-34.43 3.36-.65 12.41-1.73 10.9 3.32-1.58 5.28-10.18 12.21-13.92 17.89-2.76 4.19-5.11 7.89-4.03 10.58.64 1.6 4.07-.34 4.84.72.88 1.23.11 2.93.05 5.19-.08 3.52-1.55 5.83 1.39 5.92 3.79.11 14.95-11.86 14.1-6.4-1.44 9.33-12.01 17.93-16.61 26.82-1.58 3.07-3.35 10.38-2.48 12.42 1.15 2.73 3.63-1.08 6.08.41 3.68 2.23 1.44 13.75 2.81 18.74 2.39 8.81 7.87 6.86 13.56 10.11 1.87 1.06 2.67 3.18 4.99 2.21 2.47-.99 3.31-4.35 5.72-5.23 2.59-.97 3.73 1.26 7.07-.57 2.32-1.27 6.91-4.14 9.05-6.25 3.14-3.11 2.68-3.16 3.39-7.06 1.02-5.72 1.21-7.04 4.95-13.24 6.38-10.53 4.03-13.53 5.2-22.29.4-2.97 1.35-11.14 4.43-12.74-1.06 4.87.88 9.89 7.82 3.37 1.82-1.7 2.2-5.2 3.9-7.25 2.1-2.55 4.73-4.39 7.38-5.43 1.41 3.85-1.5 8.15 5.1 5.84 2.48-.86 7.18-3.94 9.86-5.76 4.33-2.93 4.54-3.97 9.56-5.62 5.47-1.78 10.97-3.54 16.28-5.37-.55 1.68-1.09 3.42-1.58 5.07 13.39-.51 20.29-15.69 30.33-21.61 5.87-3.47 16.12-2.35 18.09.09 1.43 1.76.25 3.17 3.02 4.08 2.57.85 7.32-.62 10.06.29 5.71 1.91 4.57 7.76-1.76 10.6-8.9 3.98-14.27 3.86-22.12 3.63-2.2-.07-8.59-.68-11.02 1.35-1.84 1.53-.89 4.63-1.89 6.14-2.59 3.94-9.75 5.09-11.15 10.18 5.92 1.22 4.92 3.47 3.82 6.66 1.99.79 3.88 1.78 5.15 3.22.84-3.04 2.71-6.59 4.11-9.75 9.99-1.35 4.14 6.76 12.67 5.73.28-.99 1.57-2.13 1.75-3.22 7.49-1.07 5.39 2.59 8.4 5.72 1.61 1.68 2.48 1.02 5.06 1.61 3.42.79 2.68.25 4.81 3.13 3.57 4.86 11.51 5.17 15.86 9.05 4.32 3.83 11.33 10.61 18.08 7.78.24-.08 1.31-2.01 1.91-2.37 1.1-.68 2.74.14 3.77-.61 3.56-2.62.37-2.82-2.01-4.1-1.82-.99-5.19-2.3-6.76-3.57-2-1.65-1.72-4.58-2.84-6.59-1.6-2.83-5.06-7.52 1.3-8.46 2.46-.36 4.13 2.05 6.79.93 2.25-.93 3.4-3.98 3.43-5.62 4.07-1.31 6.09-.47 7.73-4.61.9-2.3-.23-4.4 2.4-6.41 5.8 1.31 10.33 3.21 12.42 7.52 6.36-3.93 18.64 16.56 23.27 17.08 5.36.57 5.36-6.45 8.19-9.15.64-.59.85-2.11 1.57-2.4 1.97-.76 5.08 1.67 6.53.88 2.12-1.15.57-2.61 1.41-4.36 1.8-3.66 7.09-4.22 9.12-7.37 2.63-4.08-8.68-11.53 5.17-9.57 7.08 1 13.21.95 20.27-.33 7.31-1.33 4.88-4.67 9.25-7.83 2.24-1.61 6.86-1.83 9.81-2.79 3.49-1.11 6.35-3.02 9.88-4.11-.38-1.42-6.97-8.64-10.2-8.84-1.27-.1-3.83 1.65-4.79 2.12-8.08-3.79-1.37-3.8-.76-7.45.63-3.72-4.8-5.78-8.07-8.41 2.41-1.38 6.23-2.45 8.27-4.05 2.9-2.26 3.69-4.34 8.56-5.8 5.53-1.67 11.4-.75 18.04-.55 6.97.22 6.65.54 13.19 3.07 6.63 2.57 5.07-.07 10.79.61 6.43.78 13.71 8.7 21.46 10.82 2.42.67 4.07-.06 6.18.68 4.79 1.65 10.24 7.49 15.27 8.52 6.21 1.31 3.69-3.54 8.39-3.63 3.99 4 15.83 19.88 21.16 15.14 2.17-1.91-1.88-10.24-5.36-13.88-3.97-4.14-8.25-5.48-12.84-5.23-8.08-8.2 8.45-2.89 9.02-7.65.5-4.06-11.95-17.33-17.22-22.18-8.51-7.87-15.3-4.57-22.87-12.61-2.9-3.09-9.23-8.44-10.51-11.3-1.75-3.94 1.61-9.29 5.96-10.67 3.55-1.13 13.01.09 15.31-1.67 1.8-1.4-2.07-7.67-6.61-9.75-5.6-2.57-5.65.61-10.62-.18-8.36-1.31-14.73-8.73-22.48-10.76-11.1-2.93-21.05 3.83-31.81 3.5-6.82-.22-13.05-5.13-20.62-4.34-5.53.57-11.25 4.97-11.42 7.66-9.55-4.95-18.15-11.31-28.22-15.24-5.41 2.52-5.97 8.03-7.42 11.45-1.64 3.88-.79 6.67.29 10.63.5 1.87 2.3 4.37-.85 5.66-5.44-1.94-17.73-7.76-25.24-6.07-2.73.61-3.77 2.02-5.54 3.27-1.49 1.04-4.24 5.62-4.46 5.75-4.12 2.14-6.57-1-12.08-.12-8.08 1.3-10.51 5.28-17.41 1.61 4.22-4.31 7.88-8.36 11.06-12.66 4.28-5.78-3.17-8.3-12.99-9.4-.56.31-.92.7-1.4 1.04-3.48-1.44 10.88-11.55 12.49-14.75 3.59-7.2-2.38-9.99-12.36-12.45 6.76-5.98 11.51-17.08 6.47-21-8.84-6.91-25.31-5.62-36.86-3.66-2.19.36-4.12 2.31-6.41 2.27-3.24-.07-2.91-2.75-4.65-3.63-4.14-2.05-12.87-2.69-19-3.32-6.43-.65-11.41-2.03-17.9-2.59-2.82-.25-11.16-1.24-15.27.36-5.2 2.03-6.27 4.78-9.31 8.08-8.3 9.05-19.89 8.71-31.15 9.73-2.7 3.29-5.02 8.43-8.54 11.71-4.03 3.72-.73.63-6.2 3.87-9.87 5.84-14 10.89-24.2 16.54-12.82 7.13-23.33 16.73-14.17 17.98 10.35 1.39 5.41 2.64-6.54 13.88-3.46 3.24-5.99 6.7-8.93 9.5-5.37 5.17-11.76 9.03-15.66 15.29-4.46 7.13-2.55 11.21-3.34 15.93-1.23 7.54-5.09 11.76-9.24 20.1-2.79 5.6-.23 4.98.09 6.86.36 2.14.32 3.01-.69 7.49-18.29 11.75-31.47 31.2-43.63 48.32-9.15 12.89-26.6 27.23-25.78 44.83 2.75-3.23 7.14-10.51 8.21-6.92z"/></g><g class="uuid-75f2c30b-8861-4af9-973c-65341d1be2b0"><path class="uuid-81960956-3a0d-45b1-b6e5-7652dac038e5" d="M573.81 563.78c.56-2.11 5.51-5.4 7.76-7.35 3.88-3.35 11.81-12.86 7.66-12.28-8.93 1.24-14.28 14.8-21.7 20.48-4.91 3.74-13.7 5.32-18.21 6.25-6.48 1.33-12.59 4.12-18.56 6.9-8.76 4.08-21.62 9.57-31.01 6.14-1.99-.73-7.13-3.05-4.71-5.24 2.52-2.28 9.29-3.21 13.08-5.02 2.8-1.34 5.23-2.54 5.51-4.31.17-1.05-2.27-1.12-2.33-1.93-.07-.94.88-1.58 1.63-2.77 1.16-1.85 2.69-2.59 1.16-3.57-1.98-1.27-11.72 1.51-9.52-1.13 3.75-4.49 12.09-5.66 17.36-8.89 1.82-1.1 5.09-4.42 5.3-5.79.26-1.82-2.27-.59-3.09-2.16-1.24-2.35 3.63-7.74 4.5-10.81 1.54-5.43-1.98-6.16-3.96-9.68-.64-1.18-.39-2.55-1.93-2.78-1.64-.26-3.14 1.25-4.7.96-1.68-.33-1.58-1.88-3.92-1.97-1.64-.07-4.99-.02-6.8.43-2.65.64-2.41.8-4.03 2.65-2.38 2.69-2.9 3.34-6.86 5.42-6.74 3.54-6.45 5.87-9.88 10.13-1.15 1.44-4.27 5.46-6.41 5.33 2.1-2.24 2.69-5.52-3.07-4.29-1.51.33-2.83 2.05-4.38 2.6-1.93.67-3.91.81-5.65.52.49-2.51 3.4-3.84-.83-4.74-1.59-.33-5.06-.2-7.07-.11-3.22.18-3.67.67-6.86-.07-3.46-.81-6.93-1.64-10.33-2.36.82-.7 1.66-1.47 2.45-2.18-7.25-4.01-15.76 1.82-22.96 1.75-4.22-.04-9.28-3.9-9.55-5.82-.19-1.4.89-1.75-.3-3.12-1.09-1.27-4.07-2.01-5.23-3.38-2.42-2.83.05-5.55 4.31-5.04 5.99.75 8.8 2.52 12.86 5.15 1.15.74 4.34 3.11 6.28 2.8 1.45-.22 1.94-2.16 2.96-2.64 2.62-1.26 6.79.43 9.16-1.83-2.74-2.53-1.5-3.41.1-4.74-.79-1.06-1.48-2.19-1.69-3.35-1.41 1.34-3.54 2.62-5.28 3.86-5.72-2.48-.04-4.9-4.88-7.09-.47.43-1.52.63-1.96 1.16-4.3-1.85-2.03-3.11-2.62-5.73-.32-1.4-.99-1.33-2.17-2.46-1.56-1.52-1.35-.99-1.55-3.2-.33-3.71-4.44-6.42-5.51-9.85-1.06-3.4-2.6-9.23-7.08-9.9-.15-.03-1.34.64-1.76.65-.81 0-1.41-.95-2.2-.89-2.72.26-1.09 1.38-.24 2.82.64 1.09 2.01 2.87 2.44 4.05.54 1.51-.55 2.98-.61 4.4-.06 2.01.29 5.6-3.39 4.05-1.42-.59-1.53-2.41-3.3-2.67-1.48-.22-3.07 1.03-3.61 1.9-2.58-.61-3.37-1.71-5.56-.04-1.23.93-1.29 2.41-3.32 2.62-2.66-2.54-4.45-5.01-4.18-7.94-4.62.04-4.58-14.74-6.86-16.49-2.66-2.03-4.9 1.71-7.26 2.21-.54.12-1.13.86-1.59.78-1.29-.23-2.15-2.51-3.18-2.56-1.49-.06-1.14 1.2-2.15 1.86-2.12 1.37-5.1-.02-7.18 1-2.69 1.31.91 8.86-5.79 3.39-3.42-2.79-6.69-4.71-10.83-6.29-4.29-1.64-4.08.9-7.39 1.19-1.7.14-4.22-1.21-6.08-1.67-2.21-.52-4.34-.42-6.55-.98-.26.89.93 6.81 2.56 7.94.66.45 2.57.36 3.22.41 3.07 4.6-.49 2.45-1.97 4.17-1.53 1.78.69 4.61 1.58 7.04-1.71-.04-4.08-.68-5.67-.49-2.25.26-3.33 1.11-6.39.32-3.46-.88-6.27-3.25-9.71-5.47-3.63-2.34-3.35-2.39-6.01-5.83-2.69-3.47-2.71-1.58-5.51-3.77-3.15-2.46-4.49-8.98-7.9-12.58-1.07-1.14-2.18-1.27-3.06-2.35-2.01-2.41-3.03-7.24-5.35-9.4-2.88-2.68-3.1.7-5.61-.77-.83-3.38-2.03-15.56-6.36-14.77-1.76.33-2.28 6.03-1.6 9.07.78 3.46 2.62 5.54 5.12 6.86 1.65 6.93-5.39-1.16-7.21 1.18-1.57 1.96.79 12.98 2.01 17.23 2.01 6.88 6.66 7.31 8.09 13.99.54 2.57 2.18 7.41 1.95 9.33-.32 2.66-3.82 4.4-6.56 3.77-2.24-.55-6.86-4.23-8.63-4.01-1.4.16-1.35 4.72.38 7.27 2.14 3.16 3.18 1.48 5.57 3.49 4.01 3.36 5.01 9.33 8.46 12.88 4.93 5.11 12.36 4.7 17.95 8.32 3.54 2.28 5.27 6.86 9.53 8.88 3.11 1.46 7.54.97 8.49-.41 3.48 5.68 6 11.78 10.07 17.08 3.66.4 5.73-2.34 7.58-3.69 2.12-1.54 2.55-3.28 3.25-5.72.33-1.15.19-3.05 2.27-2.72 2.26 2.76 6.9 9.78 11.42 11.27 1.64.56 2.63.14 3.98.05 1.11-.08 4.03-1.62 4.18-1.62 2.88.17 3.17 2.63 6.38 3.93 4.67 1.89 7.24.56 9.71 4.71-3.6.92-6.83 1.92-9.89 3.16-4.11 1.69-.97 5.4 3.89 9.12.39.02.7-.07 1.06-.09 1.38 1.87-9.44 2.62-11.31 3.81-4.21 2.66-1.93 6.05 2.56 10.53-5.49 1.02-11.55 5.37-10.13 9.06 2.48 6.47 11.59 11.05 18.34 13.71 1.28.5 2.92.09 4.12.85 1.69 1.06.66 2.39 1.3 3.41 1.55 2.41 5.96 5.54 9.01 7.84 3.19 2.41 5.39 4.72 8.64 7.09 1.42 1.03 5.52 4.22 8.21 4.69 3.4.59 4.85-.52 7.51-1.3 7.28-2.13 13.3 1.74 19.6 4.81 2.48-.89 5.35-2.87 8.26-3.46 3.32-.7.58-.11 4.52-.07 7.09.05 10.89-1.28 18.09-1.02 9.07.33 17.7-1.41 13.26-4.99-5.04-4.05-2.03-3.13 7.9-5.25 2.86-.62 5.3-1.63 7.76-2.19 4.5-1.01 9.11-1.01 13.18-3.07 4.64-2.36 4.93-5.12 6.86-7.38 3.06-3.59 6.44-4.6 11.31-7.69 3.27-2.07 1.72-2.55 2.15-3.65.49-1.25.79-1.7 2.76-3.75 13.43-.37 26.63-6.46 38.54-11.64 8.95-3.9 22.78-5.91 27.98-15.48-2.49.82-7.15 3.28-6.57 1.04z"/></g><g class="uuid-463f5084-6be2-4fe2-a258-bf8916025d9f"><path class="uuid-81960956-3a0d-45b1-b6e5-7652dac038e5" d="M623.68 184.5c-1.94 1.97-5.56-.13-7.53-.65-3.42-.92-12.01-1.96-11.63 4.29.59 9.71 16.42 1.3 20.98 2.9 4.24 1.49 7.59 9.02 9.68 12.7 3.14 5.54 5.64 6.93 11.95 9.75 7.81 3.48 17.6 9.21 18.71 18.52.35 2.91 1.27 10.37-1.82 11.92-3.25 1.6-7.52-2.56-10.89-3.15-2.49-.43-4.64-.87-6.3 1.49-.99 1.4.09 3.75-.6 5.01-.76 1.48-1.79 1.56-3.17 2.6-2.17 1.63-3.54 1.26-3.7 4.19-.21 3.73 7.61 7.69 3.7 10.54-4.32 3.19-11.99-3.63-16.22-4.02-1.93-.19-6.19.73-7.53 2.35-1.79 2.2.37 3.32-.75 6.36-1.67 4.6-8.81 6.48-12.12 9.53-5.85 5.37-5.19 10.39-7.86 17.32-.88 2.28-2.36 3.77-1.93 5.91.47 2.27 2.66 2.08 3.11 4.27.48 2.38-1.12 4.32-.02 7.15.75 1.97 2.59 5.71 4.05 7.11 2.13 2.07 2.18 1.58 4.95.71 4.03-1.26 4.95-1.6 9.42-.67 7.64 1.56 9.71-2.38 15.83-5.87 2.07-1.19 7.71-4.76 9.12-2.83-3.42 1.81-6.79 6.51-1.45 9.19 1.39.71 3.85-.99 5.49-.67 2.03.38 3.69 1.6 4.81 3.32-2.41 3.68-5.92 3.72-3.18 8.21 1.02 1.69 4.05 3.88 5.86 5.03 2.91 1.85 3.67 1.33 5.98 4.46 2.52 3.41 5.16 6.73 7.95 9.69-1.3.78-2.65 1.6-3.94 2.39 3.39 10.99 17.59 4.05 24.51 6.69 4.53 1.74 7.92 9.25 7.23 12.68-.5 2.51-1.92 2.9-1.27 5.57.61 2.46 3.73 4.34 4.46 6.93 1.54 5.4-2.67 9.94-7.58 8.11-6.9-2.57-9.26-6.65-12.31-12.67-.87-1.69-2.95-6.97-5.25-7.26-1.73-.23-3.52 2.9-4.94 3.27-3.7.99-6.98-4-11.11-1.51 1.08 5.82-.83 6.61-3.55 7.94.09 2.24.05 4.54-.56 6.63 2.55-1.46 5.83-2.5 8.64-3.74 4.77 7.07-3.44 8.48.99 14.49.85-.52 2.24-.4 3.1-1.11 4.05 5.05.55 6.24-.29 11.04-.43 2.57.47 2.73 1.34 5.18 1.14 3.27 1.18 2.26.2 6.2-1.64 6.65 2.63 12.93 2.51 19.38-.12 6.39-.36 17.44 6.58 19.82.24.09 2.38-.83 3.07-.74 1.29.16 1.95 2.03 3.23 2.05 4.46.09 2.17-2.26 1.29-5.02-.68-2.11-2.14-5.6-2.34-7.79-.26-2.82 1.93-5.23 2.55-7.76.88-3.58 1.75-9.99 6.44-6.65 1.8 1.28 1.35 4.53 3.86 5.21 2.1.56 4.79-1.58 5.82-3.11 3.53 1.24 4.46 3.2 8 .15 1.96-1.68 2.4-4.32 5.31-4.87 3.2 4.4 5.42 8.53 4.65 13.86 6.83-.7 6.34 25.69 10.17 28.2 4.43 2.9 7.6-4.5 11.19-6.29.8-.4 1.61-1.93 2.33-1.97 2.01-.11 3.7 3.53 5.26 3.14 2.27-.54 1.51-2.61 2.9-4.22 2.93-3.37 7.58-2.52 10.36-5.4 3.61-3.76-3-14.26 7.48-9.19 5.36 2.6 10.44 3.53 16.52 2.86 6.31-.68 5.18-4.64 9.38-7.85 2.16-1.65 5.82-1.74 8.35-2.76 2.97-1.2 5.57-3.36 8.5-4.69-.02-1.56-3.53-9.29-5.88-9.56-.94-.1-3.26 1.76-4.08 2.24-5.18-4.42-.11-4.23 1.25-8.18 1.39-4.08-2-6.54-3.58-9.64 2.1-1.34 5.06-2.34 6.91-4.01 2.61-2.37 3.69-4.6 7.41-6.22 4.22-1.83 8.01-1.04 12.52-1.34 4.75-.33 4.43.05 8.5 1.92 4.13 1.87 3.51-.75 7.34-1.03 4.29-.31 8.31 6.55 13.45 6.69 1.61.04 2.83-1.19 4.22-1.06 3.16.32 6.52 4.58 9.92 3.83 4.2-.94 2.69-4.96 5.85-6.86 2.49 2.51 10.39 13.11 13.87 5.92 1.41-2.91-1.25-9.14-3.45-11.22-2.5-2.38-5.22-1.95-8.29.09-4.95-5.14 5.65-6.34 6.27-11.35.54-4.28-6.44-12.98-9.26-16.28-4.55-5.33-9.27 0-12.77-6.71-1.35-2.55-4.33-6.9-4.59-9.7-.36-3.85 2.73-10.2 5.59-12.58 2.32-1.94 7.73-2.87 9.37-5.33 1.3-1.94.12-7.55-2.12-8.71-2.75-1.44-3.4 1.94-6.12 2.07-4.6.25-6.6-6.61-10.49-8.01-6.52-2.37-12.56 6.5-18.85 5.91-3.8-.36-5.69-5.54-10.06-5.09-3.18.33-7.73 4.54-8.73 7.47-4.08-6.21-5.18-14.22-9.26-20.26-3.65 1.71-6.08 7.44-8.16 10.79-2.37 3.8-3.05 6.95-4.04 11.4-.47 2.09-.5 5.17-2.69 5.85-2.13-3.27-5.97-12.5-10.37-12.97-1.61-.18-2.72.96-4.15 1.69-1.18.62-4.57 4.45-4.73 4.49-2.99.86-2.73-3.25-5.72-4.43-4.38-1.69-7.45 1.26-8.67-5.33 3.97-2.5 7.55-5.16 10.98-8.32 4.64-4.26 2.46-9.54-1.05-14.64-.39.1-.71.33-1.07.48-.73-2.89 9.97-7.44 12.12-10.15 4.81-6.03 3.56-10.96.9-17.26 5.4-3.49 11.88-12.38 12.17-19.09.29-6.79-5.74-14.66-10.97-18.09-.87-.56-2.42.5-3.11-.57-.98-1.5.45-4.01.35-5.65-.23-3.91-2.43-8.62-3.79-12.25-1.41-3.79-2-7.62-3.31-11.56-.57-1.71-2.01-7.1-3.75-7.9-2.2-.99-3.82.95-6.2 2.17-7.76 3.99-8.24-4.84-11.02-10.41-2.21 1.12-5.35 4.01-7.66 4.42-2.64.45-.47.09-3.02-.95-4.61-1.9-7.9-.77-12.11-3.87-5.3-3.92-11.36-5.16-11.3 2.94.07 9.15-1.13 6.57-8.27 4.94-2.07-.47-4.15-.14-5.89-.63-3.19-.92-5.57-3.77-9.19-3.12-4.11.75-6.4 4.9-9.1 7.1-4.3 3.5-6.72 2.58-11.41 3.42-3.14.57-2.84 2.55-3.94 3.9-1.23 1.51-1.74 1.97-4.29 3.39-4.61-9-15.43-15.1-23.33-20.82-4.99-3.61-11.37-17.9-18.96-12.63 1.04 2.09 3.91 4.71 1.82 6.79z"/></g><g class="uuid-463f5084-6be2-4fe2-a258-bf8916025d9f"><path class="uuid-81960956-3a0d-45b1-b6e5-7652dac038e5" d="M338.25 674.67c.11.74-.96 1.17-1.4 1.51-.76.61-2.41 2.29-.99 3.26 2.21 1.48 3.01-3.37 4.12-4.08 1.02-.68 3.22-.16 4.37 0 1.72.23 2.45-.09 4.11-.97 2.05-1.14 4.93-2.31 7.13-1 .7.41 2.47 1.45 2.29 2.38-.19.97-1.8 1.2-2.49 1.84-.51.47-.96.86-.72 1.62.14.45.83.62.99.97.19.4.04.64.04 1.13 0 .72-.32.97.29 1.49.78.67 2.94-.38 2.92.94-.04 1.47-2.79 2.01-3.58 2.87-.37.4-.87 1.46-.74 2.03.18.75.78.47 1.26 1.22.71 1.12-.05 3 .05 4.21.19 2.17 1.4 2.85 2.45 4.6.35.56.43 1.13.96 1.4.58.27.91-.22 1.46.04.6.29.75.96 1.55 1.19.55.17 1.68.39 2.22.3.8-.12.7-.22.97-.95.4-1.08.47-1.34 1.43-2.15 1.61-1.41 1.09-2.5 1.35-4.42.09-.65.26-2.47.91-2.46-.18 1.04.28 2.56 1.75 1.85.38-.19.43-1 .76-1.31.43-.37.97-.54 1.53-.48.4 1.13-.18 1.89 1.25 2.06.54.05 1.52-.23 2.07-.44.89-.33.9-.59 1.96-.56 1.16.02 2.32 0 3.42-.12-.05.43-.09.85-.13 1.26 2.95 1.08 3.8-3.14 5.53-4.21 1.13-.7 3.32-.19 3.96.53.46.52.31.91.99 1.2.64.29 1.56-.09 2.24.19 1.43.56 1.72 2.23.51 3-1.71 1.06-2.99.9-4.81.57-.5-.09-2-.52-2.45-.07-.33.34.05 1.25-.11 1.61-.4.97-2.03.85-2.17 2.16 1.45.75 1.3 1.29 1.15 2.1.48.36.99.75 1.34 1.23.11-.81.43-1.7.63-2.51 2.33.14 1.27 2.16 3.32 2.19.02-.27.28-.55.27-.86 1.76-.03 1.44.93 2.35 1.9.49.52.68.36 1.36.57.89.3.68.12 1.37.99 1.17 1.46 3.25 1.57 4.63 2.68 1.37 1.09 3.74 2.98 5.41 1.86.05-.05.2-.66.34-.8.25-.24.76-.08.98-.35.76-.96-.12-.85-.87-1.13-.57-.19-1.58-.45-2.09-.77-.65-.42-.81-1.3-1.26-1.86-.63-.78-1.88-2.04-.37-2.5.57-.18 1.21.46 1.77.02.47-.37.46-1.3.3-1.78.86-.56 1.44-.43 1.37-1.71-.05-.71-.55-1.24-.18-1.97 1.48.04 2.75.25 3.78 1.29.99-1.59 6.64 2.9 7.83 2.48 1.36-.47.29-2.41.48-3.49.05-.23-.14-.65-.03-.83.3-.45 1.38-.21 1.56-.62.26-.58-.32-.75-.43-1.32-.25-1.21.71-2.08.54-3.16-.23-1.41-3.6-1.72-.75-3.15 1.44-.74 2.5-1.68 3.37-3.11.89-1.48-.15-1.9-.15-3.35 0-.74.58-1.55.78-2.27.23-.84.19-1.77.39-2.62-.33-.26-2.6-.79-3.05-.33-.18.19-.16 1.01-.19 1.26-1.82.4-.94-.67-1.58-1.63-.65-.98-1.75-.65-2.69-.82.05-.68.33-1.49.27-2.17-.09-.96-.38-1.56-.12-2.64.3-1.23 1.1-1.92 1.79-2.96.71-1.06.75-.94 1.82-1.51 1.09-.59.43-.89.99-1.77.64-.98 2.8-.71 3.69-1.8.28-.36.22-.82.47-1.09.6-.64 2.08-.67 2.48-1.52.49-1.08-.64-1.42-.52-2.41.96-.12 4.57-.09 3.6-2.03-.4-.79-2.19-1.26-3.01-1.13-.94.16-1.3.81-1.36 1.81-1.95.23-.43-2.27-1.43-3.25-.84-.82-3.9-.75-5.07-.68-1.93.1-1.54 2.01-3.58 1.65-.78-.13-2.23-.22-2.88-.63-.89-.54-1.76-2.28-1.79-3.29-.05-.84.65-2.16.4-2.93-.2-.61-1.62-1.27-2.24-.99-.78.36-.15 1.06-.57 1.68-.72 1.02-2.54.33-3.49.94-1.6 1.02-.68 3.8-1.85 5.08-.71.77-2.17.31-2.79 1.34-.46.75-.3 2.43.17 3.13-2.02-.14-3.94-1.23-5.93-1.35-.24 1.08.6 2.57.99 3.56.43 1.15 1 1.82 1.8 2.78.38.45 1.05.97.83 1.56-1.07-.09-3.72-.78-4.54.09-.31.33-.25.75-.33 1.19-.06.36.21 1.72.19 1.77-.31.79-1.16.05-1.92.52-1.09.65-.97 1.82-2.61.99.12-1.28.14-2.5.02-3.77-.16-1.72-1.66-2.12-3.35-2.21-.05.1-.05.21-.09.3-.75-.31.05-3.41-.17-4.31-.52-2.07-1.79-2.6-3.62-3.06.15-1.77-.71-4.65-2.12-5.83-1.44-1.19-4.14-1.19-5.75-.63-.27.11-.3.61-.64.59-.5-.04-.8-.77-1.18-1.02-.89-.6-2.28-.9-3.28-1.21-1.07-.32-2-.82-3.07-1.2-.47-.16-1.88-.74-2.35-.5-.57.32-.43.99-.55 1.71-.43 2.35-2.42.99-4.09.66-.13.67-.02 1.83-.32 2.41-.33.64-.06.12-.71.49-1.18.69-1.48 1.59-2.86 2-1.73.49-3.01 1.6-1.24 2.94 2 1.51 1.24 1.34-.3 2.62-.44.36-.72.89-1.11 1.17-.73.55-1.76.59-2.21 1.48-.52 1.01 0 2.21.04 3.16.05 1.51-.56 1.89-1.16 3.04-.4.78.08 1.04.19 1.52.12.52.13.7.02 1.48-2.72-.47-5.85.86-8.4 1.61-1.62.49-5.79-.49-5.9 2.03.63.12 1.67-.07 1.78.74z"/></g><g class="uuid-463f5084-6be2-4fe2-a258-bf8916025d9f"><path class="uuid-81960956-3a0d-45b1-b6e5-7652dac038e5" d="M240.03 749.86c.04.26-.34.44-.5.57-.28.2-.89.83-.37 1.17.82.55 1.1-1.22 1.51-1.48.38-.26 1.17-.07 1.59 0 .63.08.89-.04 1.5-.36.75-.42 1.79-.85 2.6-.36.26.15.89.53.83.86-.06.35-.65.45-.92.68-.17.16-.34.31-.25.58.05.16.3.21.36.34.06.16 0 .23 0 .41 0 .28-.12.36.11.55.29.24 1.07-.14 1.07.34-.02.53-1.02.74-1.31 1.05-.12.14-.32.52-.27.73.07.29.29.18.46.45.26.41-.02 1.09.02 1.53.08.79.5 1.04.89 1.69.13.2.16.41.36.5.2.11.33-.09.53.02.21.11.27.36.56.43.2.05.61.14.82.11.29-.04.26-.08.36-.35.14-.39.17-.48.51-.78.59-.5.4-.92.5-1.62.03-.23.09-.89.33-.89-.07.36.1.92.63.67.15-.07.16-.36.29-.48.15-.13.35-.19.55-.18.15.41-.06.7.47.75.19.02.55-.08.75-.16.33-.11.33-.2.72-.2.42.02.85 0 1.25-.05-.02.16-.04.32-.05.46 1.08.4 1.38-1.14 2.01-1.54.42-.24 1.22-.06 1.44.21.17.18.12.31.36.43.24.09.57-.04.82.05.51.22.63.82.17 1.09-.61.4-1.08.34-1.74.21-.19-.03-.73-.18-.89-.03-.12.12 0 .47-.04.61-.14.35-.74.3-.79.78.52.27.47.48.41.77.19.12.36.27.49.45.04-.3.16-.62.23-.92.84.05.46.79 1.2.81 0-.1.1-.21.1-.32.64-.02.53.34.85.7.19.18.25.12.5.19.33.11.25.05.5.36.43.54 1.19.57 1.7.97.5.4 1.36 1.09 1.96.68.02 0 .08-.24.13-.29.09-.09.27-.04.35-.13.28-.34-.04-.3-.32-.4-.21-.09-.57-.18-.75-.3-.24-.14-.3-.45-.47-.67-.23-.28-.68-.75-.14-.91.21-.07.44.16.65 0 .17-.12.16-.47.11-.64.31-.2.51-.16.49-.63 0-.26-.19-.45-.06-.71.54.02 1.01.09 1.37.47.36-.57 2.43 1.05 2.86.9.5-.16.11-.88.18-1.26.02-.09-.05-.25 0-.32.11-.16.5-.06.57-.22.09-.22-.12-.27-.16-.49-.1-.43.26-.75.19-1.13-.08-.52-1.31-.63-.27-1.16.53-.26.9-.61 1.23-1.13.32-.54-.05-.68-.05-1.22 0-.27.22-.56.29-.84.08-.3.06-.64.15-.94-.13-.09-.95-.29-1.13-.12-.06.07-.05.37-.06.47-.67.14-.34-.25-.57-.59-.23-.36-.64-.25-.98-.3.02-.26.12-.54.1-.79-.03-.36-.15-.57-.04-.97.1-.45.4-.7.64-1.06.27-.4.28-.36.68-.56.4-.23.16-.33.36-.64.24-.37 1.03-.26 1.36-.66.09-.13.07-.31.17-.41.21-.22.75-.23.89-.54.18-.38-.23-.52-.19-.88.34-.05 1.67-.02 1.31-.74-.15-.29-.8-.47-1.09-.41-.34.05-.48.29-.5.66-.71.08-.16-.84-.52-1.2-.3-.3-1.42-.26-1.84-.24-.7.04-.57.74-1.31.6-.29-.04-.8-.07-1.04-.22-.33-.2-.64-.83-.66-1.2-.02-.3.23-.79.15-1.06-.08-.23-.59-.47-.82-.37-.27.15-.05.4-.21.61-.26.37-.92.12-1.27.34-.58.39-.24 1.4-.68 1.86-.26.27-.79.11-1.02.48-.16.27-.11.9.07 1.15-.74-.05-1.44-.46-2.17-.5-.09.4.21.93.36 1.3.16.42.36.65.66 1.01.14.16.37.34.3.56-.4-.02-1.36-.27-1.65.05-.12.11-.09.26-.12.43-.03.13.06.63.05.64-.11.29-.42 0-.69.19-.4.23-.35.66-.95.36.04-.47.05-.9 0-1.37-.06-.63-.61-.78-1.23-.81 0 .04-.02.07-.02.12-.28-.14.02-1.26-.07-1.59-.19-.74-.65-.94-1.31-1.12.05-.63-.26-1.68-.78-2.12-.52-.43-1.5-.43-2.1-.22-.1.02-.11.22-.23.2-.18-.02-.3-.27-.43-.36-.32-.23-.83-.33-1.2-.44-.38-.12-.73-.3-1.11-.43-.18-.05-.69-.27-.85-.18-.23.11-.16.36-.21.61-.15.86-.87.36-1.5.25-.04.25 0 .67-.11.86-.12.25-.02.05-.26.19-.43.24-.54.57-1.04.72-.63.18-1.1.59-.45 1.08.73.54.45.48-.11.95-.16.13-.26.33-.41.42-.27.21-.63.22-.8.55-.19.36 0 .81.02 1.15 0 .56-.21.7-.43 1.1-.15.29.02.4.07.55.05.19.05.26 0 .54-.99-.18-2.13.32-3.07.59-.59.19-2.1-.18-2.15.74.23.05.62-.02.65.27z"/></g><g class="uuid-463f5084-6be2-4fe2-a258-bf8916025d9f"><path class="uuid-81960956-3a0d-45b1-b6e5-7652dac038e5" d="M158.39 493.59c.03.27-.36.42-.51.56-.28.22-.89.83-.37 1.17.81.55 1.1-1.21 1.51-1.48.37-.26 1.18-.05 1.59 0 .63.09.89-.02 1.5-.36.75-.4 1.8-.83 2.6-.36.25.15.89.54.83.88-.07.35-.65.43-.91.67-.19.16-.35.31-.26.59.05.16.3.22.36.35.08.16.02.23.02.41 0 .26-.12.36.1.54.3.25 1.08-.14 1.07.36 0 .54-1.02.72-1.3 1.04-.14.13-.33.53-.28.74.07.27.28.18.47.43.26.43-.02 1.09.02 1.55.08.78.51 1.04.89 1.67.13.21.16.43.36.52.21.09.33-.08.53 0 .21.11.26.36.56.45.21.05.61.14.81.1.3-.05.26-.07.36-.34.16-.4.18-.5.52-.8.59-.5.4-.9.5-1.61.03-.23.09-.89.33-.89-.06.38.11.93.64.67.13-.05.16-.35.27-.47.16-.15.35-.2.57-.19.14.42-.07.7.45.75.19.02.55-.09.75-.16.33-.12.33-.22.71-.22.43.02.85 0 1.25-.02-.02.13-.03.3-.05.45 1.08.4 1.39-1.15 2.02-1.54.4-.26 1.21-.08 1.44.19.16.19.12.33.37.43.23.1.57-.04.81.07.52.21.63.81.19 1.09-.61.38-1.09.33-1.75.19-.19-.03-.73-.18-.89-.02-.12.12.02.45-.04.59-.15.36-.75.31-.79.79.52.26.47.47.41.77.18.12.36.26.5.43.03-.3.15-.61.22-.9.85.04.47.78 1.21.79.02-.09.1-.19.09-.32.65 0 .54.34.86.7.18.18.25.12.5.21.33.11.25.04.5.35.43.54 1.19.57 1.69.98.5.4 1.36 1.09 1.96.68.02-.02.09-.23.13-.29.09-.1.28-.03.36-.14.26-.34-.05-.3-.33-.4-.2-.09-.58-.18-.76-.29-.24-.15-.3-.47-.46-.67-.23-.29-.69-.75-.14-.92.22-.07.44.16.65 0 .16-.13.16-.47.1-.65.31-.21.53-.16.5-.61-.02-.26-.19-.46-.07-.73.55.02 1.02.09 1.38.48.36-.59 2.42 1.05 2.86.9.5-.18.11-.88.18-1.27.02-.08-.05-.24-.02-.3.12-.16.5-.08.57-.23.09-.21-.12-.28-.16-.48-.09-.43.26-.75.19-1.15-.08-.5-1.3-.63-.27-1.16.54-.26.91-.6 1.23-1.12.33-.55-.05-.7-.05-1.23 0-.27.23-.56.28-.82.1-.31.09-.64.15-.95-.11-.09-.94-.29-1.11-.11-.06.07-.06.36-.07.45-.66.14-.34-.25-.57-.59-.24-.35-.64-.24-.98-.3.02-.26.11-.55.09-.79-.03-.36-.14-.57-.04-.96.11-.45.4-.71.65-1.08.26-.4.27-.34.67-.56.4-.21.16-.32.36-.64.23-.36 1.02-.26 1.35-.66.09-.12.07-.3.17-.4.22-.23.76-.24.9-.56.19-.38-.23-.5-.19-.88.36-.05 1.67-.02 1.32-.74-.15-.29-.81-.45-1.1-.41-.33.05-.47.3-.5.66-.7.09-.16-.82-.51-1.18-.31-.3-1.42-.27-1.85-.26-.71.04-.57.74-1.31.61-.29-.05-.82-.08-1.05-.23-.33-.2-.64-.83-.66-1.2-.02-.3.25-.78.16-1.06-.08-.22-.6-.47-.82-.36-.28.12-.05.38-.21.61-.26.37-.92.12-1.27.34-.58.37-.25 1.38-.68 1.85-.26.29-.79.11-1.01.5-.17.27-.12.89.05 1.13-.73-.04-1.44-.45-2.16-.5-.09.4.22.93.36 1.3.16.42.36.67.66 1.01.13.16.37.36.3.57-.4-.02-1.35-.29-1.66.03-.12.12-.09.29-.12.43-.02.14.08.63.07.66-.12.27-.42 0-.71.17-.4.25-.34.66-.95.37.05-.47.05-.92.02-1.38-.06-.63-.61-.78-1.23-.81-.02.05-.02.09-.02.11-.27-.11 0-1.23-.07-1.57-.19-.74-.66-.95-1.31-1.13.05-.63-.26-1.68-.78-2.1-.51-.43-1.5-.43-2.09-.23-.1.04-.11.22-.23.22-.19-.02-.3-.29-.43-.38-.32-.22-.82-.32-1.2-.43-.37-.12-.71-.3-1.11-.44-.16-.05-.68-.27-.85-.18-.22.11-.16.36-.21.62-.16.86-.89.36-1.49.24-.05.25 0 .68-.12.88-.12.23-.02.04-.26.18-.43.25-.54.59-1.04.72-.63.19-1.09.59-.45 1.08.72.55.45.48-.12.96-.16.13-.26.31-.4.42-.26.19-.64.21-.8.54-.19.37 0 .81 0 1.15.02.56-.21.7-.42 1.12-.15.28.03.39.07.55.04.19.05.25 0 .54-.98-.18-2.13.3-3.05.59-.6.16-2.11-.19-2.16.73.23.05.61-.02.66.27z"/></g><g class="uuid-463f5084-6be2-4fe2-a258-bf8916025d9f"><path class="uuid-81960956-3a0d-45b1-b6e5-7652dac038e5" d="M257.97 473.27c-.26.05-.46-.32-.6-.47-.25-.25-.92-.79-1.21-.23-.46.85 1.33.95 1.63 1.34.28.35.18 1.16.15 1.58-.02.63.12.88.51 1.45.48.69 1.01 1.69.61 2.55-.12.26-.43.95-.78.92-.36-.04-.5-.61-.76-.85-.19-.16-.35-.32-.61-.19-.16.05-.19.32-.32.4-.14.09-.23.03-.4.05-.27.02-.36-.09-.54.16-.22.3.24 1.05-.24 1.09-.54.04-.83-.95-1.16-1.2-.15-.12-.57-.27-.76-.2-.27.09-.15.3-.4.5-.39.3-1.09.09-1.53.16-.77.16-.99.62-1.58 1.07-.19.13-.4.19-.47.4-.09.22.12.31.03.53-.08.23-.32.3-.37.61-.05.2-.08.61-.04.81.08.29.11.25.39.33.4.11.5.12.84.44.57.53.94.3 1.65.33.24.02.9 0 .92.25-.38-.03-.92.19-.61.69.09.14.37.12.5.23.15.14.23.33.23.54-.4.19-.7 0-.7.52 0 .2.14.54.24.75.14.3.24.3.26.68.04.43.09.85.17 1.24-.15 0-.31-.02-.46 0-.29 1.09 1.27 1.26 1.72 1.85.3.38.19 1.2-.05 1.45-.17.18-.32.15-.41.41-.07.23.09.56.03.82-.16.54-.75.7-1.08.29-.45-.57-.43-1.05-.37-1.72.02-.19.12-.74-.07-.89-.14-.11-.45.07-.58.02-.36-.12-.39-.71-.87-.71-.22.54-.41.52-.71.47-.12.19-.24.39-.4.54.3.02.63.09.93.14.02.86-.74.54-.68 1.28.1 0 .23.09.33.07.07.64-.28.56-.61.92-.17.19-.1.26-.16.52-.07.33-.02.25-.3.54-.49.47-.46 1.23-.8 1.78-.35.54-.95 1.46-.48 2.03.02 0 .25.05.3.09.11.08.06.27.17.34.37.25.3-.07.36-.36.06-.22.12-.59.22-.78.12-.26.44-.36.62-.54.26-.26.68-.75.89-.22.09.19-.12.45.06.64.15.15.49.11.65.04.24.29.22.5.67.42.26-.02.43-.23.71-.12.04.53 0 .99-.34 1.41.62.3-.8 2.52-.61 2.94.23.47.89.02 1.28.04.09.02.25-.08.31-.04.17.09.12.49.28.54.22.07.26-.15.47-.2.42-.14.78.18 1.16.08.5-.13.5-1.37 1.12-.38.31.5.71.84 1.25 1.09.57.27.68-.12 1.21-.18.27-.02.59.16.85.21.32.05.65 0 .96.05.08-.14.19-.97 0-1.13-.07-.05-.36-.02-.46-.02-.21-.64.22-.36.54-.63.33-.28.17-.66.19-1 .26-.02.57.07.81.02.34-.05.55-.19.95-.14.45.07.73.33 1.13.55.43.22.38.23.62.61.26.36.34.11.68.29.37.19.36.99.79 1.27.13.09.3.05.41.13.24.19.3.73.63.84.41.13.5-.27.86-.27.09.34.2 1.67.86 1.23.29-.18.38-.83.3-1.13-.09-.33-.34-.43-.71-.43-.16-.7.81-.23 1.13-.63.27-.34.14-1.44.06-1.87-.1-.7-.78-.48-.73-1.24.02-.28 0-.81.12-1.06.18-.34.77-.72 1.14-.78.3-.05.81.16 1.07.04.21-.1.4-.63.28-.85-.16-.26-.39-.02-.63-.14-.4-.23-.22-.92-.47-1.24-.42-.54-1.4-.1-1.91-.48-.3-.23-.18-.77-.58-.95-.29-.14-.89-.03-1.13.16-.02-.73.31-1.47.28-2.21-.4-.04-.91.32-1.26.5-.4.2-.63.43-.95.76-.14.16-.31.41-.54.34 0-.38.16-1.37-.19-1.64-.13-.09-.28-.05-.44-.07-.13-.02-.62.14-.64.14-.3-.1-.06-.43-.26-.68-.28-.37-.7-.29-.46-.91.47 0 .91-.05 1.37-.13.61-.11.71-.67.68-1.3h-.12c.09-.29 1.24-.11 1.57-.23.72-.26.88-.75.98-1.42.64 0 1.65-.42 2.04-.99.37-.56.28-1.55.02-2.1-.05-.09-.23-.08-.24-.2 0-.19.25-.32.33-.47.18-.36.24-.86.31-1.24.09-.4.23-.75.33-1.15.04-.18.2-.71.1-.86-.14-.21-.38-.12-.64-.16-.88-.07-.45-.83-.4-1.44-.25-.03-.67.05-.88-.05-.25-.09-.05-.02-.21-.23-.3-.4-.63-.47-.83-.95-.24-.61-.69-1.04-1.11-.34-.47.78-.43.49-.96-.03-.15-.15-.34-.22-.47-.35-.22-.25-.27-.62-.62-.75-.38-.16-.79.09-1.13.13-.55.07-.71-.13-1.15-.31-.3-.12-.37.07-.54.12-.18.06-.25.08-.54.06.08-1.01-.52-2.1-.89-2.99-.23-.57-.02-2.12-.95-2.07-.02.23.08.6-.21.68z"/></g><path class="uuid-b930d4d0-f3e6-47c9-8709-9a6da6257fc4" d="M563.68 624.89c-.28 10.58 15.07 38.79-3.59 41.61 2.29 6.21 10.86 9.63 11.8 16.72.5 3.87-5.44 13.11-7.28 16.29-3.35 5.77-7.68 1.6-4.74 9.36 1.16 3.04 8.56 6.72 10.93 9.55-3.08 3.99-7.49 12.84 1.61 12.5 4.8-.18 11.1-9.89 13.31-13.43l3.92 2.35c-1.49 8.22 15.26 15.1 20.16 6.27-4.24-7.95-12.93-12.15-17.79-19.57-4.6-7-2.85-7.26-1.63-14.14-.03.15 3.14-11.03 2.53-10.31 3.17-3.7 4.03-6.24 8.44-.63 4.12 5.19-.64 7.52-.39 13.76.36 8.89 13.39 24.55 23.89 22.17-.18-.64-.38-1.26-.59-1.87 9.1 7.88 21.41-2.07 12.55-14.35-1.68-2.34-4.57-.45-7.18-2.39-3.88-2.85-12.3-9.96-13.52-14.64-1.02-3.94.78-13.79 1.7-15.95.7-1.68.12-3.65 1.55-6.34 1.04-1.98 5.92-2.93 7.29-5.66 1.9-3.76-.09-16.76-8.49-16-6.87.6-2.52 10.37-11.24 12.38-6.25 1.44-6.89-8.91-12.63-1.65-.92-8.41-5.5-13.64-6.63-21.53-.84-5.89 3.53-10.33.45-15.88-10.3 7.7-10.55 21.82-24.42 11.39z"/><g class="uuid-463f5084-6be2-4fe2-a258-bf8916025d9f"><path class="uuid-81960956-3a0d-45b1-b6e5-7652dac038e5" d="M209.77 171.04c-.09.85-.23 1.67-.39 2.48.56-.3 1.16-.65 1.79-1.09-.2-.72-.67-1.19-1.4-1.39zM162.05 276.6c2.2-6.52 7.84-3.73 1.19-11.34-5.53-6.3-9.92-4.04-14.3 2.32-1.32-6.96-4.6-17.89-1.86-25.07 2.1-5.48 8.52-9.45 11.27-14.72 7.59-14.6-2.62-20.96-17.12-17.81 5.26-6.03 10.69-13.31 18.86-14.51 8.21-1.22 15.15 4.27 23.3 1.87 12-3.51 23.4-10.91 25.99-23.82-7.71 4.05-8.97-4.95-14.63-6.85-5.75-1.93-14 0-18.72 4.96-3.03 3.19-2.95 13.31-10.09 13.82-7.28.51-10.62-9.95-10.02-15.49-10.25-1.72-12.94 10.04-18.87 15.61-4.5-3.99-9.64-12.38-15.08-15.09-11.46-5.69-17.96 5.26-25.52 13.54-11.38 12.44-21.38 25.1-30.12 39.39-2.41 3.95-5.23 7.69-8.24 11.33-59.08 107.1-71.04 233.22-35.94 348.03 5.61-3.45 14.27-3.61 19.05-10.13-.56-3.18-1.25-9.95.09-13.9 1.16-3.47 5.8-7.85 6.44-11.17 1.95-10.11-8.36-26.21-1.65-36.12 3.28-4.81 6.97-2.97 9.37-9.26 3.18-8.3-1.29-14.35 8-12.55 2.15.41 3.96 4.99 5.89 6.03 3.72 1.97 8.06 1.07 9.68 1.68 5.14 1.98 9.91 8.39 16.5 2.64 1 1.22 3.01 2.23 3.92 3.53 2.66-3.98 15.41-18.19 13.5-22.51 9.34-7.25-13.5-25.04-17.15-34.66 5.37-6.77 12.67-2.97 18.36-4.43-8.71-9.97-46.01-41.3-12.39-45.89 7.41-1.01 7.5.93 13.36 5.92 5.86 5 11 7.44 16.8 11.3 10.37 6.92 16.7 19.67 26.01 30.11-2.52 4.34-9.47 31.29 1.81 20.59 1.09 2.14 3.7 3.27 4.53 5.9 1.44-1.45 4.53-2.06 5.99-3.75 1.81 2.53 5.56 9.82 9.01 11.08 3.84 1.39 4.56-3.91 8.17-2.94 7.32 1.97 14.45 13.16 22.99 6.02-6.86-9.05-17.87-6.65-21.84-14.21-.21-.41 4.33-3.35 4.22-3.66-.68-2.25-6.74-7.6-6.58-6.78-.82-3.94-2.38-4.76 2.26-8.25-5.36-7.46-16.24-7.6-21.14-15.1-4.56-6.99-.29-7.31-.54-14.47-.54.34-1.06.71-1.58 1.12-7.58-4.83-1.36-11.23-2.55-17.28-.78-3.94-2.41-7.56-6.93-10.48-2.27-1.48-7.7.57-9.41-1.71-11.67-15.65 21.11-10.3 25.7-13.34-6.89-9.94-16.52-1.24-19.81-9.36-1.89-4.65 5.4-24.1-10.19-15.2-1.56-4.71.72-15.65 4.46-19.82 4.47-4.99 1.7-4.15 9.96-2.35 8.98 1.97 28.09 17.91 36.63 15.93 5.54-1.29 5.51-8.29 8.23-9.47 6.59-2.86 12.33 3.6 19.24 5.46 11.42 3.06 13.85-1.97 22.01-10.63-6.65-6.91-11.1 1.13-17.95.47-7.04-.7-14.06-8.14-19.69-11.91-8.64-5.83-19.41-20.03-29.76-21.33-8.87-1.12-8.49 5.96-14.14-3.06-3.88-6.2-.66-13.2 1.03-18.23z"/></g><g class="uuid-463f5084-6be2-4fe2-a258-bf8916025d9f"><path class="uuid-81960956-3a0d-45b1-b6e5-7652dac038e5" d="M656.54 146.69c9.46-6.96 24.75-19.31 36.58-7.9 6.69 6.44 1.98 10.56 4.56 16.87 4.88 11.91-.74 4.76 8.28 11.82 10.81 8.46 24.16 11.48 32.34 23.99 7.03 10.75 11.59 27.11 15.76 38.92 3.39 9.57 9.81 23.65 2.76 33.17-4.24 5.71-4.64 6.2-12.2 6.31-11.22.19-9.94-4.82-11.76-11.95-3.54-13.86 8.06-26.22-2.3-39.35-2.26-2.86-8.06-4.21-10.48-6.25-10.68-9-13.29-15.58-27.25-10.35-2.27 3.31-5.48 13.91-7.97 15.59-9.17 6.25-6.9-2.42-14.96-.5-13.53 3.2-18.13 16.13-34.4 11.87 4.36 4.96 9.36 9.54 13.81 14.42-6.14 5.05-13.37 9.86-18.23 16.42 7.59 2.48 15.76-6.73 24.58-3.66 3.42 1.2 8.7 9.22 11.2 11.93-8.24 10.68-35.73 25-13.78 39.56 1.76-2.83 6.55-4.78 8.26-7.59 4.15 4.06 8.57 8.29 12.83 12.23 10.43-8.66 25.14-2.98 37.72-5.39 20.91-4.01 29.46-3.31 46.33 17.32-10.96 7.84-.88 10.6-2.26 16.65-1.25 5.47-9.36 17.42-7.63 22.15 2.09 5.68 20.41 5.47 26.36 14.92 8.24 13.08-.05 9.26-.66 20.46-.85 15.64 30.64 35.43 17.99 48.14-19.55 19.62-16.46-26.08-35.64-23.54-8.17 1.06-4.25 14.84-17.95 11.05-10.55-2.93-9.12-16.49-13.74-24-3.84-6.24-13.23-14.6-19.88-17.42-8.36-3.54-16.7 1.79-24.26-1.15-16.62-6.47-14.95-27.02-36.88-20.17-6.66 2.07-19.73 9.96-16.26 18.72 2.86 7.21 17.66.59 22.73 9.93-12.27 20 33.04 15.83 35.41 27.78 2.29 11.57-12.74 13.85-8.99 23.57 3.98 10.33 18.68 10.41 24 2.23-1.99 11.26 4.54 28.3-5.3 37.77-7.48 7.18-15.26.79-21.72 8.42 5.3 7.62 29.66 15.8 27.57 28.72-2.03 12.56-6.13 1.79-11.39 5.82-1.65 1.27-8.07 7.63-10.28 8.63-10.29 4.64-18.46 6.23-33.15.38-9.05-3.59-24.73-18.47-33.74-11.23 6.12 11.04 20.45 12.08 28.47 22.7-8.71 2.52-19.37-1.79-26.52-1.44 4.61 4.98 8.93 10.31 11.2 16.73-15.19 7.99-33.41-.59-48.1 7.76-11.15 6.34-22.01 19.85-31.05 29.71 7.18 7.47 6.13-2 12.82-3.77 2.17-.57 5.96-4.2 8.59-5.17 2.71-.99 6.18 3.28 8.6 2.31 8.67-3.52 14.69-10.93 25.04-10.78 11.8.17 16.13 9.09 25.9 11.93 9.58 2.77 21.19-5.38 27.52 4.31-1.61 2.59-1.88 4.62-3.94 7.04 6.79 3.25 9.61-2.44 16.33 2.38 2.24 1.61.05 11.08 5.51 14.9 7.36-3.21 15.37-10.85 20.16-17.33 5.8-7.84 6.83-19.09 14.1-25.47 18.01 16.55 38.74 32.21 17.88 52.52 1.66 3.17 6.21 7.45 9.36 8.89 5.41-8.49 18.59-14 17.2-.35-.78 7.72-18.52 9.88-4.57 18.16 4.57-7.07 11.52-7.8 17.39-1.48 6.99-5.39 13.49-12.84 20.21-19 15.6 14.34 22.59 19.65 17.65 38.51-1.78 6.79-7.23 6.69-5.99 15.29.72 5.06 9.73 7.7 10.62 14.35.39 2.9-.53 7.18-1.7 11.78 137.09-175.95 124.76-430.6-37.04-592.4a450.971 450.971 0 00-65.84-54.42c-4.93-1.51-9.9-2.1-14.96-1.08-13.39 2.71-28.65 18.7-38.4 29.38 15.01 12.68-8.58 29.76 7.56 38.73z"/><path class="uuid-81960956-3a0d-45b1-b6e5-7652dac038e5" d="M656.54 146.69c9.46-6.96 24.75-19.31 36.58-7.9 6.69 6.44 1.98 10.56 4.56 16.87 4.88 11.91-.74 4.76 8.28 11.82 10.81 8.46 24.16 11.48 32.34 23.99 7.03 10.75 11.59 27.11 15.76 38.92 3.39 9.57 9.81 23.65 2.76 33.17-4.24 5.71-4.64 6.2-12.2 6.31-11.22.19-9.94-4.82-11.76-11.95-3.54-13.86 8.06-26.22-2.3-39.35-2.26-2.86-8.06-4.21-10.48-6.25-10.68-9-13.29-15.58-27.25-10.35-2.27 3.31-5.48 13.91-7.97 15.59-9.17 6.25-6.9-2.42-14.96-.5-13.53 3.2-18.13 16.13-34.4 11.87 4.36 4.96 9.36 9.54 13.81 14.42-6.14 5.05-13.37 9.86-18.23 16.42 7.59 2.48 15.76-6.73 24.58-3.66 3.42 1.2 8.7 9.22 11.2 11.93-8.24 10.68-35.73 25-13.78 39.56 1.76-2.83 6.55-4.78 8.26-7.59 4.15 4.06 8.57 8.29 12.83 12.23 10.43-8.66 25.14-2.98 37.72-5.39 20.91-4.01 29.46-3.31 46.33 17.32-10.96 7.84-.88 10.6-2.26 16.65-1.25 5.47-9.36 17.42-7.63 22.15 2.09 5.68 20.41 5.47 26.36 14.92 8.24 13.08-.05 9.26-.66 20.46-.85 15.64 30.64 35.43 17.99 48.14-19.55 19.62-16.46-26.08-35.64-23.54-8.17 1.06-4.25 14.84-17.95 11.05-10.55-2.93-9.12-16.49-13.74-24-3.84-6.24-13.23-14.6-19.88-17.42-8.36-3.54-16.7 1.79-24.26-1.15-16.62-6.47-14.95-27.02-36.88-20.17-6.66 2.07-19.73 9.96-16.26 18.72 2.86 7.21 17.66.59 22.73 9.93-12.27 20 33.04 15.83 35.41 27.78 2.29 11.57-12.74 13.85-8.99 23.57 3.98 10.33 18.68 10.41 24 2.23-1.99 11.26 4.54 28.3-5.3 37.77-7.48 7.18-15.26.79-21.72 8.42 5.3 7.62 29.66 15.8 27.57 28.72-2.03 12.56-6.13 1.79-11.39 5.82-1.65 1.27-8.07 7.63-10.28 8.63-10.29 4.64-18.46 6.23-33.15.38-9.05-3.59-24.73-18.47-33.74-11.23 6.12 11.04 20.45 12.08 28.47 22.7-8.71 2.52-19.37-1.79-26.52-1.44 4.61 4.98 8.93 10.31 11.2 16.73-15.19 7.99-33.41-.59-48.1 7.76-11.15 6.34-22.01 19.85-31.05 29.71 7.18 7.47 6.13-2 12.82-3.77 2.17-.57 5.96-4.2 8.59-5.17 2.71-.99 6.18 3.28 8.6 2.31 8.67-3.52 14.69-10.93 25.04-10.78 11.8.17 16.13 9.09 25.9 11.93 9.58 2.77 21.19-5.38 27.52 4.31-1.61 2.59-1.88 4.62-3.94 7.04 6.79 3.25 9.61-2.44 16.33 2.38 2.24 1.61.05 11.08 5.51 14.9 7.36-3.21 15.37-10.85 20.16-17.33 5.8-7.84 6.83-19.09 14.1-25.47 18.01 16.55 38.74 32.21 17.88 52.52 1.66 3.17 6.21 7.45 9.36 8.89 5.41-8.49 18.59-14 17.2-.35-.78 7.72-18.52 9.88-4.57 18.16 4.57-7.07 11.52-7.8 17.39-1.48 6.99-5.39 13.49-12.84 20.21-19 15.6 14.34 22.59 19.65 17.65 38.51-1.78 6.79-7.23 6.69-5.99 15.29.72 5.06 9.73 7.7 10.62 14.35.39 2.9-.53 7.18-1.7 11.78 137.09-175.95 124.76-430.6-37.04-592.4a450.971 450.971 0 00-65.84-54.42c-4.93-1.51-9.9-2.1-14.96-1.08-13.39 2.71-28.65 18.7-38.4 29.38 15.01 12.68-8.58 29.76 7.56 38.73z"/></g><path d="M324.31 194.72c11.91 10.29 22.78 19.81 6.07 32.16 2.76 5.1 6.48 6.9 11.39 7.04l16.45-2.35c1.71.97 6.57.34 9.42 3.86 11.14-5.57 3.49-15.31-3.19-21.48 1.51-2.37 3.46-4.01 5.75-5.28 1.66 2.71 6.37 4.62 8.02 7.31 4.15-3.97 8.45-8.06 12.65-12.01 10.43 8.19 19.62 19.37 29.6 28.43 14.89-10.27 1.06-15.83-3.67-24.3 10.58 1.94 22.38-12.14 14.94-22.38-7.84-10.79-16.25 3.02-28.14 3.7 10.73-3.45 29.5-14.66 20.48-25.88-8.12-10.12-21.22 2.73-34.11 1.16-15.14-1.85-19.88-3.54-35.17 4.2-10.49 5.33-24.27 14.64-30.49 25.81z" opacity=".52" fill="#fff" stroke-width="0"/><g opacity=".52"><path class="uuid-81960956-3a0d-45b1-b6e5-7652dac038e5" d="M525.35 203.17c-.89.81-1.51 1.62-1.97 2.42 1.64.69 3.29 1.06 4.95.92-.89-1.49-1.91-2.1-2.97-3.35z"/><path class="uuid-81960956-3a0d-45b1-b6e5-7652dac038e5" d="M161.23 108.88c4.89-1.06 9.47.15 14.89-1.81 6.3-2.27 12.3-9.6 17.95-13.1 11.29-6.99 29.94-24.93 41.74-10.42 9.26-5.56 15.22-17.43 25.19-21.56 6.5-2.68 14.19 1.16 20.38-1.28 4.42-1.72 7.31-6.84 10.88-9.85 8.43-7.11 17.11-8.23 27.26-1.8 7.4 4.69 11.66 15.92.3 17.05 12.06.96 7.24 9.07.82 14.6 9.75 1.01 12.61 7.36 9.01 14.23-5.26 10.02-16.07 9.47-24.66 13.41 7.51-.62 14.84-1.34 18.81 6.37-7.65 8.67-12.83 18.19-17.68 28.41-6.35 13.36-2.52 8.89 5.28 19.93-6.86 6.59-22.3 20.35-9.37 27.82 7.25-5.59 11.23-13.22 17.42-19.97 2.94-3.2 6.84-5.89 9.4-9.4 2.89-3.95 3.18-8.17 5.47-11.8 5.72-9.14 9.87-5.68 18.08-10.11 8.88-4.79 9.34-11.48 21.05-12.19 19.33-1.16 18.53.64 20.62-18.15 1.13-10.03 8.84-22.49 18.6-9.64 7.2 9.5-8.39 21.57 8.29 19.59 4.66-.54 3.84-6.7 10.41-5.43 4.92.95 8.75 10.02 8.35 13.99 20.66-5.24 8.72 23.89 12.27 29.96 4.68 7.99 12.92 4.35 18.96 8.01 11.82 7.18 6.47 17.43 8.65 27.17 2 8.88 17.22 22.58 25.47 27.3 5.89 3.36 11.76 5.77 16.46-.77 2.98-4.15-.98-8.93 1.86-13.85-6.27-2.69-12.23-10.48-16.57-15.08 4.5-7.37 15.73-3.35 21.77-.3 3.37-3.11 36.96 19.83 21.39-5.24 5.64-10.77 10.27.16 16.37 3.8 7.42 4.42 13.6 4.21 20.14 10.79 16.3-3.2 6.72-19.69.1-27.86-3.05-3.77-10.3-7.26-9.9-12.59.42-5.3 8.6-9.34 13.28-7.83-3.07-12.71-37.91-34.29-11.24-37.54 13.88-1.69 31.85 18.86 27.99-1.78-1.84-9.79-6.44-13.64-.59-20.55 2.13-2.53 12.81-9.57 16.21-10.51 5.46-1.46 13.29 4.33 14.37-3.2.7-4.92-6.4-8.11-6.48-12.67 8.35-1.38 14.37 6.79 21.94 6.66 8.21-.11 10.39-9.63 16.87-12.6-160.28-89.18-363.57-72.56-507.81 49.79z"/></g><path d="M133.33 133.54c175.45-175.46 459.92-175.46 635.39-.02 175.46 175.47 175.46 459.96 0 635.41s-459.94 175.45-635.39-.02c-175.46-175.45-175.46-459.92 0-635.38z" style="mix-blend-mode:multiply" fill="url(#uuid-2b5a0b38-3ee8-42da-a7a8-bfa5d0c5c8a3)" stroke-width="0"/></g></g></svg>