<svg xmlns="http://www.w3.org/2000/svg" viewBox="0 0 900 900"><defs><radialGradient id="uuid-4630b903-d74f-49a3-aa70-ccbc23217836" cx="398.03" cy="-46.5" fx="398.03" fy="-46.5" r="540.27" gradientTransform="scale(1 -1) rotate(45 908.48 -196.105)" gradientUnits="userSpaceOnUse"><stop offset=".25" stop-color="#fff"/><stop offset=".64" stop-color="#fff" stop-opacity=".72"/><stop offset=".73" stop-color="#fff" stop-opacity=".5"/><stop offset=".82" stop-color="#fff" stop-opacity=".29"/><stop offset=".9" stop-color="#fff" stop-opacity=".13"/><stop offset=".96" stop-color="#fff" stop-opacity=".03"/><stop offset="1" stop-color="#fff" stop-opacity="0"/></radialGradient><radialGradient id="uuid-be814800-3239-4da2-aea1-0f4b1229e1b0" cx="393.62" cy="-56.24" fx="393.62" fy="-56.24" r="447.7" gradientTransform="matrix(0 -1 -1 0 393.4 844.91)" gradientUnits="userSpaceOnUse"><stop offset="0" stop-color="#797a7a"/><stop offset=".81" stop-color="#a6a7a7"/><stop offset=".84" stop-color="#a8a9aa"/><stop offset=".94" stop-color="#d5d6d6"/><stop offset="1" stop-color="#f3f3f3"/></radialGradient><linearGradient id="uuid-70d52186-721a-448f-8f45-798552f487f0" x1="-142.37" y1="184.47" x2="754.55" y2="184.47" gradientTransform="matrix(-1 0 0 1 755.74 266.82)" gradientUnits="userSpaceOnUse"><stop offset="0" stop-color="#fff"/><stop offset=".26" stop-color="#edecee"/><stop offset=".31" stop-color="#bab9bb"/><stop offset=".35" stop-color="#878788"/><stop offset=".4" stop-color="#5d5d5d"/><stop offset=".45" stop-color="#3c3c3c"/><stop offset=".49" stop-color="#252425"/><stop offset=".53" stop-color="#161616"/><stop offset=".57" stop-color="#121212"/></linearGradient><style>.uuid-072baae4-57e4-4110-b6ec-3bc3c4c65e97,.uuid-fac7599e-1ff0-4225-93d8-dd2320b4484e{stroke-width:0;fill:#fff}.uuid-919a50d3-c268-42b5-a405-39ff775a0fd7{opacity:.5}.uuid-072baae4-57e4-4110-b6ec-3bc3c4c65e97,.uuid-0d9fa079-fa8e-4544-a835-6a3fa744c822{opacity:.52}</style></defs><g style="isolation:isolate"><g id="uuid-af20f1cc-1369-4bfb-a7d1-b76dc36db3e5" data-name="Capa 2"><circle cx="435.54" cy="451.29" r="541.15" transform="rotate(-45 435.545 451.301)" fill="url(#uuid-4630b903-d74f-49a3-aa70-ccbc23217836)" opacity=".6" stroke-width="0"/><path d="M449.65 3.6C202.39 3.6 1.94 204.04 1.94 451.3S202.39 899 449.65 899s447.69-200.44 447.7-447.7c0-247.25-200.45-447.7-447.7-447.7z" fill="#a8a9aa" opacity=".52" stroke-width="0"/><path d="M449.65 3.6C202.39 3.6 1.94 204.04 1.94 451.3S202.39 899 449.65 899s447.69-200.44 447.7-447.7c0-247.25-200.45-447.7-447.7-447.7z" fill="url(#uuid-be814800-3239-4da2-aea1-0f4b1229e1b0)" stroke-width="0"/><path class="uuid-072baae4-57e4-4110-b6ec-3bc3c4c65e97" d="M449.65 898.99h-.02c-8.94-2.5-16.67-8.94-13.28-18.59 3.44-9.77 7.59-4.32 14.39-7.94 12.46-6.64-2.88-12.12-.71-23.08 6.59-1.15 12.55.04 17.12 5.06.69-3.73-.04-7.87-.8-11.01-3.24-13.09-7.74-24.69-5.68-39.13 3.74-26.31 9.81 5.96 14.08 12.83 2.86-8.66 8.88-15.13 16.64-17.64 11.46-3.72 10.48-.32 15.72-12.13 3.67-8.27 6.32-14.87 17.74-11.12 7.92 2.59 10.63 11.21 19.67 13.2.5-10.25-3.36-24.71 3.22-32.73 7.9-9.65 21.82-5.21 22.8 8.32 8.07.95 19.46.18 17.43-10.66 0 0 3.07-.02 3 0 1.19 21.56 18.64-3.18 22.9-1.2 3.65 1.71 1.05 9.85 2.84 12.2 2.73 3.55 4.33.54 7.74 2.54 7.69 4.52 12.92 6.7 21.76 6.02.5-1.16.99-2.73 1.28-3.96-24.75-11.28-9.69-30.1-5.36-46.74.78-2.98 3.43-1.73 3.29-5.61-.26-6.49-6.47-12.3-7.73-18.73-1.95-10.01.67-14.06 9.77-17.57 5.19-2.01 11.7-1.42 15.49-4.46 6.48-5.22 2.38-10.83 4.43-17.66 3.77-12.61 12.48-14.74 25.34-14.31.49 13.82.17 27.83.09 41.68.67-6.15 6.35-7.19 12-6.26.33 6.42-.84 13.54.18 19.87 1.67 10.29.32 8.55 9.04 7.32 4.73-.65 15.01-9.07 17.56-.6 1.53 5.08-3.05 8.46-7.68 8.8.82 7.53-6.56 7.39-9.04 13.32-2.67 6.35 3.54 11.6 3.54 15.13 0 13.97-14.75 29.55 8.49 26.21 2.87-10.49 2.16-18.45 7.68-27.28 5.06-8.07 11.29-16.06 12.41-27.16 1.27-12.59-10.86-23.65-6.63-35.79 1.67-4.77 2.58-8.3 9.7-8.53 9.01-.29 5.34 5.39 5.94 14.78 23.31-.79 4.83 21.26 18.47 22.66 2.25 8.46-7.37 10.65-9.53 17.57-3.15 10.16 6.4 20.2 11.54 30.62-81.7 87.24-197.9 141.78-326.84 141.78z"/><path class="uuid-072baae4-57e4-4110-b6ec-3bc3c4c65e97" d="M775.43 758.35l-15.61-23.68c-6.12 6.67-.06 21.92 1.95 29.93 2.41-.55 6.59-.5 8.39-.75-.03.02-.05.02-.06.05-1.95.52-3.06 1.68-4.63 2.51.3.3.61.77.92 1.29-1.71 1.71-3.46 3.4-5.21 5.09-1.43.33-2.85.69-4.24 1.07.12.93.14 1.91.08 2.92a434.484 434.484 0 01-19.38 17.25c-.49-3.11-.95-6.35-2.13-8.97-.9-1.98-.27-4.72-1.51-6.55-1.36-2.01-6.2-.44-7.17-2.01-6.6-10.68 1.75-18.84 3.94-28.9 1.47-6.7-.94-15.56-.22-22.56.94-9.01 2.96-11.39-1.67-19.83 4.33-1.61 9.58-2.26 13.9-2.13-1.34-8.71-1.14-13.11.12-21.35.4-2.73-.05-8.75 1.04-10.68 3.03-5.28 10.46-4.6 11.49-11 9.75-3.02 6.68-10.04 10.95-16.99 3.56-5.79 11.42-5.38 13.24-10.5-18.05.1-25.52.66-31.08-20.18-3.9-14.6-1.08-15.5 10.6-19.35 4.25-10.43 16.22-3.44 17.84-17.87 2.58.64 7.33.36 9.78 1.05-1.51-14.32 9.51-27.95 6.08-43.3 6.18-2.39 16.14-4.95 23.34-5.67 3.77 14.56 5.75 19.97 18.64 28.22.97-4.31 2.01-8.82 1.45-13.25-12.27 5.77-14.9-16.23-17.61-23.83-5.14-14.43-4.94-13.38-17.77-12.32-2.12-6.53-2.05-24.78-7.13-29.57-5-4.74-10.39.47-16.02-4.36-10.56-9.09-.07-17.26-16.06-15.93-10.22.84-17.02 9.73-25.57 10.67-2.04-15.43-24.69-1.9-32.79.68-10.57 3.36-26.02 4.82-35.76 2.15-7.16-1.94-14.76-7.92-19.34-12.58-2.93-2.98-3.93-6.26-6.67-8.19-.91-.66-6.39.02-8.57-1.19-1.84-1.02-3.38-5.81-5.64-7.68-2.75-2.29-6.05-1.76-8.94-4.12-14.59-11.98-23.73-41.62-27.45-59.49 4.48 10.32 20.11 23.46 27.79 33.1 6.5 8.13 9.71 10.4 22.27 3.46 21.37-11.81 8.6-39.2 24.68-51.96 22.41-17.78 39.37 29.05 58.15 12.6 5.94-5.2 1.61-11.03 2.11-16.27.95-10.23 7.19-20.7 19.26-20.68.22.6.44 1.2.68 1.81 9.98-7.77-6.24-32.13 4.95-44.2 4.93 18.45 9.81 16.28 25.17 12.01 2.7 4.4 3.55 9.53 4.29 14.63 1.54-11.01 8.74-12.01 15.75-4.91 7.22 7.33 6.56 21.14 10.9 29.86 9.22-2.42 2.92-14.79 12.94-15.05 10.14 20.13 14.36 52.65 16.05 75.49 1.3.77 6 2.46 7.52 2.7 13.17-15.86 39.21-19.39 51.71-2.22 1.44 14.59 2.19 29.4 2.19 44.37 0 118.86-46.34 226.88-121.92 307.05z"/><g class="uuid-919a50d3-c268-42b5-a405-39ff775a0fd7"><path class="uuid-fac7599e-1ff0-4225-93d8-dd2320b4484e" d="M587.46 207.94c1.67 3.07 10.7 6.32 14.99 8.5 7.39 3.76 23.48 15.58 16.76 16.28-14.46 1.53-28.09-17.66-41.92-23.68-9.15-3.98-23.53-3.04-30.96-2.75-10.69.43-21.32-1.58-31.75-3.61-15.32-3.01-37.6-6.64-50.98 2.39-2.84 1.91-9.98 7.53-5.36 10.02 4.84 2.6 15.81 1.43 22.45 2.81 4.91 1.01 9.18 1.98 10.32 4.62.67 1.59-3.12 2.64-2.91 3.92.25 1.5 1.98 2.14 3.63 3.71 2.53 2.43 5.22 3.02 3.2 5.16-2.6 2.74-18.93 2.18-14.47 5.43 7.61 5.56 21.14 4.19 30.65 7.21 3.28 1.05 9.69 4.96 10.53 7.01 1.12 2.74-3.32 1.81-4.01 4.57-1.03 4.18 8.69 10.74 11.25 15.22 4.52 7.9-.72 10.4-2.43 16.7-.57 2.07.35 4.12-1.97 5.09-2.45 1.03-5.4-.74-7.74.33-2.5 1.14-1.74 3.52-5.37 4.59-2.53.75-7.81 1.97-10.81 1.98-4.41.02-4.12-.33-7.36-2.59-4.76-3.31-5.84-4.12-12.84-5.84-11.94-2.94-12.39-6.7-19.4-12.06-2.37-1.81-8.81-6.9-12.11-5.87 4.19 2.69 6.36 7.6-3.14 7.91-2.49.08-5.22-2.12-7.87-2.36-3.29-.32-6.45.23-9.05 1.37 1.72 3.73 6.81 4.69.52 7.73-2.37 1.14-7.85 2.28-11.03 2.89-5.12.98-6.01.4-10.72 2.79-5.1 2.59-10.24 5.24-15.27 7.69 1.57.79 3.17 1.64 4.68 2.47-9.8 9.08-25.38 3.25-36.65 6.15-6.6 1.7-13.05 9.72-12.72 12.83.25 2.26 2.07 2.41.75 5.01-1.22 2.41-5.6 4.74-6.9 7.32-2.68 5.37 2.25 8.69 8.72 6.22 9.1-3.46 12.8-7.34 18.17-13.04 1.51-1.6 5.6-6.53 8.75-6.82 2.36-.22 3.88 2.64 5.67 3 4.6.95 10.46-3.3 15.04-.69-3.31 5.05-1.02 5.92 2 7.39-.83 1.97-1.48 4.02-1.35 5.92-2.74-1.57-6.57-2.74-9.78-3.99-8.01 6.09 1.85 7.69-4.89 12.99-.9-.5-2.63-.41-3.51-1.05-6.05 4.53-1.98 5.64-1.9 9.97.05 2.32-1.03 2.48-2.43 4.71-1.85 2.97-1.73 2.07-1.2 5.6.92 5.95-4.46 11.77-4.8 17.58-.35 5.75-.5 15.47-7.26 18.25-.23.1-2.34-.49-3.02-.33-1.26.29-1.84 2.04-3.09 2.23-4.36.65-2.26-1.73-1.47-4.32.59-1.98 2.04-5.29 2.25-7.29.26-2.57-2.02-4.45-2.64-6.66-.88-3.13-1.73-8.89-6.88-5.05-1.98 1.48-1.47 4.36-4.14 5.45-2.24.93-5.2-.41-6.39-1.56-3.8 1.95-4.62 3.98-8.7 2.21-2.25-.98-2.95-3.27-6.22-2.83-3.17 5.01-5.02 9.55-3.46 14.07-7.26 1.72-1.47 24.86-4.36 28.48-3.37 4.19-8.35-.77-12.25-.67-.87.03-2.08-.9-2.79-.59-1.93.85-2.42 4.77-4 5.23-2.3.68-2.24-1.44-4.08-2.08-3.85-1.33-7.98 2.01-11.63 1.22-4.73-1.02-2.02-14.26-10.39-3.09-4.29 5.7-8.66 9.99-14.54 14.08-6.09 4.22-6.75.15-12.05 1-2.73.44-6.15 3.54-8.9 4.96-3.24 1.67-6.62 2.33-9.87 4.08-.74-1.28-1.17-11.03.95-13.45.84-.97 3.88-1.54 4.87-1.89 3.04-8.38-1.71-3.65-4.7-5.78-3.07-2.19-.71-7.47-.25-11.63-2.67.72-6.13 2.66-8.7 2.98-3.63.45-5.65-.45-10.14 1.95-5.08 2.73-8.57 7.51-13.11 12.35-4.77 5.07-4.31 5.07-7.15 11.47-2.87 6.49-3.63 3.53-7.17 8.04-3.99 5.09-3.55 15.83-7.51 22.78-1.25 2.19-2.92 2.84-3.89 4.84-2.21 4.56-1.93 12.53-4.76 16.81-3.46 5.29-5.1.09-8.48 3.37 0 5.63 2.85 25.19-4.25 25.62-2.88.17-5.9-8.56-6.01-13.59-.13-5.74 1.96-9.7 5.36-12.77-.09-11.49-8 3.91-11.77.97-3.22-2.5-3.79-20.66-3.5-27.8.45-11.56 7.58-14.01 7.24-25.04-.13-4.22.56-12.46-.56-15.39-1.53-4.02-7.69-5.42-11.73-3.33-3.3 1.71-9.11 9.26-11.98 9.62-2.26.29-3.95-6.88-2.22-11.55 2.13-5.76 4.42-3.55 7.36-7.62 4.98-6.82 4.24-16.54 8.28-23.46 5.76-9.9 17.56-12.15 24.91-19.97 4.66-4.96 5.58-12.82 11.49-17.61 4.3-3.49 11.44-4.44 13.46-2.65 3.25-10.23 4.84-20.79 9.16-30.67 5.6-2.05 9.89 1.46 13.32 2.84 3.9 1.59 5.27 4.15 7.29 7.7.97 1.68 1.47 4.72 4.62 3.4 2.46-5.22 7.03-17.99 13.52-22.1 2.36-1.5 4.08-1.23 6.22-1.61 1.79-.31 6.96.98 7.19.9 4.44-1.38 3.94-5.34 8.45-8.61 6.61-4.77 11.14-3.69 13.42-11.14-6.01-.07-11.46-.34-16.73-1.12-7.1-1.07-3.63-8.11 2.53-15.81.63-.17 1.15-.15 1.72-.25 1.44-3.47-15.82-.47-19.22-1.6-7.6-2.53-5.36-8.72-.05-17.5-8.99.55-20.18-3.93-19.39-10.26 1.38-11.11 13.9-21.83 23.44-28.59 1.81-1.29 4.53-1.28 6.12-2.92 2.24-2.33.12-4 .73-5.84 1.48-4.38 7.19-10.99 11.08-15.77 4.07-5.01 6.61-9.48 10.8-14.46 1.81-2.16 7-8.75 11.03-10.53 5.1-2.24 7.81-1.05 12.28-.86 12.24.52 20.18-7.89 28.85-15.12 4.24.42 9.5 2.42 14.3 2.23 5.46-.21.95-.06 7.11-1.64 11.09-2.84 17.56-2.2 28.76-5.4 14.07-4.02 28.28-4.66 22.69 2.68-6.32 8.29-1.95 5.69 14.42 5.19 4.72-.15 8.95.5 13.01.41 7.44-.15 14.66-1.94 21.83-.27 8.18 1.9 9.72 6.12 13.6 8.9 6.2 4.44 11.9 4.71 20.71 7.67 5.92 1.98 3.67 3.35 4.79 4.91 1.24 1.75 1.9 2.35 5.76 4.79 21.21-4.62 44.23-.2 64.91 3.32 15.55 2.64 37.98.44 49.84 13.44-4.22-.33-12.46-2.39-10.68.92z"/></g><g class="uuid-919a50d3-c268-42b5-a405-39ff775a0fd7"><path class="uuid-fac7599e-1ff0-4225-93d8-dd2320b4484e" d="M587.46 207.94c1.67 3.07 10.7 6.32 14.99 8.5 7.39 3.76 23.48 15.58 16.76 16.28-14.46 1.53-28.09-17.66-41.92-23.68-9.15-3.98-23.53-3.04-30.96-2.75-10.69.43-21.32-1.58-31.75-3.61-15.32-3.01-37.6-6.64-50.98 2.39-2.84 1.91-9.98 7.53-5.36 10.02 4.84 2.6 15.81 1.43 22.45 2.81 4.91 1.01 9.18 1.98 10.32 4.62.67 1.59-3.12 2.64-2.91 3.92.25 1.5 1.98 2.14 3.63 3.71 2.53 2.43 5.22 3.02 3.2 5.16-2.6 2.74-18.93 2.18-14.47 5.43 7.61 5.56 21.14 4.19 30.65 7.21 3.28 1.05 9.69 4.96 10.53 7.01 1.12 2.74-3.32 1.81-4.01 4.57-1.03 4.18 8.69 10.74 11.25 15.22 4.52 7.9-.72 10.4-2.43 16.7-.57 2.07.35 4.12-1.97 5.09-2.45 1.03-5.4-.74-7.74.33-2.5 1.14-1.74 3.52-5.37 4.59-2.53.75-7.81 1.97-10.81 1.98-4.41.02-4.12-.33-7.36-2.59-4.76-3.31-5.84-4.12-12.84-5.84-11.94-2.94-12.39-6.7-19.4-12.06-2.37-1.81-8.81-6.9-12.11-5.87 4.19 2.69 6.36 7.6-3.14 7.91-2.49.08-5.22-2.12-7.87-2.36-3.29-.32-6.45.23-9.05 1.37 1.72 3.73 6.81 4.69.52 7.73-2.37 1.14-7.85 2.28-11.03 2.89-5.12.98-6.01.4-10.72 2.79-5.1 2.59-10.24 5.24-15.27 7.69 1.57.79 3.17 1.64 4.68 2.47-9.8 9.08-25.38 3.25-36.65 6.15-6.6 1.7-13.05 9.72-12.72 12.83.25 2.26 2.07 2.41.75 5.01-1.22 2.41-5.6 4.74-6.9 7.32-2.68 5.37 2.25 8.69 8.72 6.22 9.1-3.46 12.8-7.34 18.17-13.04 1.51-1.6 5.6-6.53 8.75-6.82 2.36-.22 3.88 2.64 5.67 3 4.6.95 10.46-3.3 15.04-.69-3.31 5.05-1.02 5.92 2 7.39-.83 1.97-1.48 4.02-1.35 5.92-2.74-1.57-6.57-2.74-9.78-3.99-8.01 6.09 1.85 7.69-4.89 12.99-.9-.5-2.63-.41-3.51-1.05-6.05 4.53-1.98 5.64-1.9 9.97.05 2.32-1.03 2.48-2.43 4.71-1.85 2.97-1.73 2.07-1.2 5.6.92 5.95-4.46 11.77-4.8 17.58-.35 5.75-.5 15.47-7.26 18.25-.23.1-2.34-.49-3.02-.33-1.26.29-1.84 2.04-3.09 2.23-4.36.65-2.26-1.73-1.47-4.32.59-1.98 2.04-5.29 2.25-7.29.26-2.57-2.02-4.45-2.64-6.66-.88-3.13-1.73-8.89-6.88-5.05-1.98 1.48-1.47 4.36-4.14 5.45-2.24.93-5.2-.41-6.39-1.56-3.8 1.95-4.62 3.98-8.7 2.21-2.25-.98-2.95-3.27-6.22-2.83-3.17 5.01-5.02 9.55-3.46 14.07-7.26 1.72-1.47 24.86-4.36 28.48-3.37 4.19-8.35-.77-12.25-.67-.87.03-2.08-.9-2.79-.59-1.93.85-2.42 4.77-4 5.23-2.3.68-2.24-1.44-4.08-2.08-3.85-1.33-7.98 2.01-11.63 1.22-4.73-1.02-2.02-14.26-10.39-3.09-4.29 5.7-8.66 9.99-14.54 14.08-6.09 4.22-6.75.15-12.05 1-2.73.44-6.15 3.54-8.9 4.96-3.24 1.67-6.62 2.33-9.87 4.08-.74-1.28-1.17-11.03.95-13.45.84-.97 3.88-1.54 4.87-1.89 3.04-8.38-1.71-3.65-4.7-5.78-3.07-2.19-.71-7.47-.25-11.63-2.67.72-6.13 2.66-8.7 2.98-3.63.45-5.65-.45-10.14 1.95-5.08 2.73-8.57 7.51-13.11 12.35-4.77 5.07-4.31 5.07-7.15 11.47-2.87 6.49-3.63 3.53-7.17 8.04-3.99 5.09-3.55 15.83-7.51 22.78-1.25 2.19-2.92 2.84-3.89 4.84-2.21 4.56-1.93 12.53-4.76 16.81-3.46 5.29-5.1.09-8.48 3.37 0 5.63 2.85 25.19-4.25 25.62-2.88.17-5.9-8.56-6.01-13.59-.13-5.74 1.96-9.7 5.36-12.77-.09-11.49-8 3.91-11.77.97-3.22-2.5-3.79-20.66-3.5-27.8.45-11.56 7.58-14.01 7.24-25.04-.13-4.22.56-12.46-.56-15.39-1.53-4.02-7.69-5.42-11.73-3.33-3.3 1.71-9.11 9.26-11.98 9.62-2.26.29-3.95-6.88-2.22-11.55 2.13-5.76 4.42-3.55 7.36-7.62 4.98-6.82 4.24-16.54 8.28-23.46 5.76-9.9 17.56-12.15 24.91-19.97 4.66-4.96 5.58-12.82 11.49-17.61 4.3-3.49 11.44-4.44 13.46-2.65 3.25-10.23 4.84-20.79 9.16-30.67 5.6-2.05 9.89 1.46 13.32 2.84 3.9 1.59 5.27 4.15 7.29 7.7.97 1.68 1.47 4.72 4.62 3.4 2.46-5.22 7.03-17.99 13.52-22.1 2.36-1.5 4.08-1.23 6.22-1.61 1.79-.31 6.96.98 7.19.9 4.44-1.38 3.94-5.34 8.45-8.61 6.61-4.77 11.14-3.69 13.42-11.14-6.01-.07-11.46-.34-16.73-1.12-7.1-1.07-3.63-8.11 2.53-15.81.63-.17 1.15-.15 1.72-.25 1.44-3.47-15.82-.47-19.22-1.6-7.6-2.53-5.36-8.72-.05-17.5-8.99.55-20.18-3.93-19.39-10.26 1.38-11.11 13.9-21.83 23.44-28.59 1.81-1.29 4.53-1.28 6.12-2.92 2.24-2.33.12-4 .73-5.84 1.48-4.38 7.19-10.99 11.08-15.77 4.07-5.01 6.61-9.48 10.8-14.46 1.81-2.16 7-8.75 11.03-10.53 5.1-2.24 7.81-1.05 12.28-.86 12.24.52 20.18-7.89 28.85-15.12 4.24.42 9.5 2.42 14.3 2.23 5.46-.21.95-.06 7.11-1.64 11.09-2.84 17.56-2.2 28.76-5.4 14.07-4.02 28.28-4.66 22.69 2.68-6.32 8.29-1.95 5.69 14.42 5.19 4.72-.15 8.95.5 13.01.41 7.44-.15 14.66-1.94 21.83-.27 8.18 1.9 9.72 6.12 13.6 8.9 6.2 4.44 11.9 4.71 20.71 7.67 5.92 1.98 3.67 3.35 4.79 4.91 1.24 1.75 1.9 2.35 5.76 4.79 21.21-4.62 44.23-.2 64.91 3.32 15.55 2.64 37.98.44 49.84 13.44-4.22-.33-12.46-2.39-10.68.92z"/></g><g class="uuid-919a50d3-c268-42b5-a405-39ff775a0fd7"><path class="uuid-fac7599e-1ff0-4225-93d8-dd2320b4484e" d="M442.41 617.4c-1.88-1.11-7.7.08-10.66.29-5.12.36-17.41-.74-14.08-3.26 7.17-5.43 20.51.36 29.76-.86 6.11-.82 13.42-5.91 17.27-8.44 5.51-3.64 11.79-5.98 17.96-8.23 9.07-3.3 22.01-8.5 26.22-17.56.88-1.91 2.88-7.18-.37-7.01-3.39.16-8.82 4.29-12.78 5.7-2.91 1.02-5.49 1.88-6.93.85-.86-.63.81-2.4.29-3.01-.62-.71-1.74-.5-3.11-.81-2.12-.47-3.73.07-3.35-1.72.5-2.28 9.33-7.19 5.93-7.49-5.81-.52-12.53 4.53-18.53 5.98-2.07.5-6.71.47-7.82-.34-1.47-1.11 1.19-2.02.66-3.71-.79-2.54-8.02-2.9-10.82-4.46-4.91-2.74-2.93-5.74-4.04-9.63-.37-1.28-1.51-2.06-.6-3.32.97-1.33 3.11-1.33 4-2.64.96-1.43-.21-2.43 1.37-4.15 1.11-1.2 3.5-3.53 5.1-4.5 2.33-1.43 2.28-1.15 4.72-.98 3.57.22 4.4.31 8.67-1.02 7.26-2.26 8.7-.4 14.12.19 1.83.21 6.87.84 8.29-.76-3.07-.1-5.78-2-.86-5.19 1.29-.83 3.44-.54 4.92-1.26 1.84-.88 3.34-2.19 4.36-3.62-2.12-1.43-5.11-.31-2.75-3.93.88-1.36 3.43-3.71 4.91-5.05 2.39-2.15 3.05-2.13 4.77-4.9 1.88-3.02 3.75-6.05 5.64-8.96-1.08.09-2.21.15-3.27.19 2.29-7.95 12.41-9.84 17.44-14.97 2.95-3.01 3.8-9.31 2.63-10.85-.85-1.12-1.86-.62-1.99-2.41-.13-1.66 1.45-4.29 1.31-6.07-.3-3.72-3.97-3.9-6.6-.51-3.71 4.74-4.44 7.98-5.45 12.7-.29 1.33-.88 5.26-2.45 6.4-1.19.88-2.91-.14-3.96.23-2.74.97-4.49 5.09-7.76 5.16.16-3.71-1.34-3.46-3.41-3.26-.2-1.31-.5-2.6-1.18-3.57 1.95-.05 4.36-.66 6.46-1.01 2.28-5.79-3.43-3.49-1.57-8.44.64-.03 1.53-.63 2.2-.57 1.74-4.33-.76-3.62-2.2-5.88-.76-1.22-.22-1.64-.2-3.26.03-2.18.26-1.66-1.17-3.35-2.38-2.87-1.4-7.66-3.06-10.84-1.66-3.15-4.68-8.36-2-11.98.09-.12 1.4-.49 1.71-.78.58-.57.32-1.67.93-2.18 2.09-1.74 1.74.2 2.15 1.81.32 1.24.61 3.46 1.15 4.58.67 1.44 2.49 1.71 3.53 2.68 1.47 1.38 3.76 4.15 5.26.47.57-1.41-.62-2.77.44-4.2.89-1.2 2.9-1.45 3.89-1.22 1.39-2.25 1.17-3.58 3.9-3.95 1.51-.2 2.6.79 4.19-.49.08-3.67-.4-6.67-2.67-8.56 3.3-3.24-7.16-13.63-6.78-16.47.44-3.29 4.66-2.26 6.7-3.57.45-.29 1.39-.19 1.66-.57.75-1.07-.25-3.29.44-4.05 1-1.09 1.65.05 2.83-.21 2.46-.53 3.59-3.6 5.77-4.36 2.83-.97 5.63 6.9 6.49-1.7.44-4.39 1.38-8.05 3.2-12.08 1.88-4.19 3.51-2.24 6.05-4.38 1.31-1.11 2.12-3.84 3.12-5.47 1.19-1.92 2.76-3.36 3.93-5.31.81.43 4.15 5.46 3.8 7.42-.15.78-1.56 2.05-1.98 2.56 1.07 5.4 2.08 1.39 4.34 1.56 2.33.18 2.75 3.74 3.85 6.08 1.19-1.23 2.39-3.36 3.64-4.35 1.78-1.4 3.15-1.57 4.75-4.28 1.81-3.06 2.13-6.73 2.99-10.73.91-4.22.67-4.06.12-8.35-.56-4.35.78-3.04 1.22-6.56.48-3.97-3.19-9.51-3.3-14.46-.05-1.55.64-2.43.51-3.8-.29-3.12-2.98-7.26-2.86-10.43.14-3.91 2.68-1.68 3.43-4.5-1.81-2.98-9.56-12.42-5.94-14.91 1.47-1.02 5.85 2.64 7.53 5.26 1.91 2.99 2.07 5.75 1.24 8.47 3.71 6.05 2.98-4.63 5.92-4.27 2.5.29 8.6 9.72 10.73 13.59 3.45 6.28.47 9.84 4.17 15.58 1.42 2.19 3.68 6.77 5.21 7.96 2.09 1.65 5.8.42 7.28-1.98 1.2-1.95 1.86-7.81 3.27-8.92 1.09-.88 4.29 2.38 4.86 5.4.71 3.74-1.2 3.29-1.47 6.39-.45 5.21 3.05 10.12 3.12 15.07.12 7.08-5.41 12.04-6.8 18.53-.89 4.12 1.14 8.57-.46 12.99-1.16 3.23-4.64 6.01-6.29 5.71 1.56 6.46 4.08 12.55 4.95 19.16-2.3 2.87-5.7 2.39-7.95 2.74-2.57.42-4.12-.51-6.32-1.74-1.05-.58-2.28-2.02-3.53-.33.36 3.54 2.02 11.77-.1 16.02-.78 1.55-1.76 1.95-2.78 2.84-.84.72-3.98 1.71-4.1 1.81-1.91 2.15-.37 4.08-1.71 7.26-1.98 4.64-4.71 5.51-3.55 10.18 3.2-1.9 6.19-3.48 9.22-4.75 4.11-1.71 4.5 3.12 3.7 9.18-.27.29-.55.43-.83.68.36 2.29 8.53-4.81 10.7-5.3 4.84-1.09 5.62 2.91 5.62 9.25 4.59-3.15 11.94-4.37 13.55-.77 2.81 6.32-.38 16.01-3.27 22.62-.55 1.27-1.99 2.13-2.31 3.51-.43 1.95 1.22 2.15 1.48 3.32.63 2.78-.29 8.12-.81 11.89-.56 3.95-.48 7.13-1.1 11.11-.26 1.73-.91 6.87-2.48 9.09-1.98 2.81-3.79 3.05-6.22 4.38-6.64 3.64-8.15 10.63-10.43 17.22-2.37 1.13-5.81 1.76-8.27 3.38-2.84 1.88-.5.36-3.25 3.15-4.96 5.05-8.6 6.78-13.49 12.05-6.17 6.63-13.49 11.5-12.87 5.83.69-6.42-.77-3.63-9.29 1.86-2.46 1.6-4.89 2.6-7.01 3.95-3.89 2.46-7.15 5.7-11.48 7.13-4.93 1.6-7.09-.14-10.04-.37-4.7-.38-7.8 1.31-13.42 2.55-3.76.85-3.01-.58-4.09-1.06-1.22-.53-1.76-.63-4.58-.68-9.75 9.2-23.36 14.24-35.42 18.98-9.08 3.56-20.25 11.91-30.68 8.81 2.34-1.16 7.36-2.73 5.37-3.89z"/></g><g class="uuid-0d9fa079-fa8e-4544-a835-6a3fa744c822"><path class="uuid-fac7599e-1ff0-4225-93d8-dd2320b4484e" d="M139.53 384.9c2.75.02 3.82-4.02 4.84-5.79 1.78-3.06 7.11-9.85 11.25-5.17 6.45 7.26-10.67 12.51-12.76 16.84-1.95 4.05 1 11.73 2.13 15.81 1.69 6.12.91 8.86-1.56 15.3-3.07 7.98-5.93 18.93-.13 26.29 1.81 2.3 6.42 8.21 9.7 7.12 3.42-1.15 3.51-7.12 5.46-9.91 1.45-2.06 2.65-3.89 5.5-3.39 1.69.29 2.59 2.71 3.95 3.12 1.59.5 2.36-.17 4.08-.41 2.67-.37 3.37-1.6 5.55.34 2.79 2.5.05 10.8 4.84 10.07 5.29-.8 5.9-11.03 8.61-14.3 1.22-1.49 4.87-3.84 6.98-3.64 2.81.28 2.06 2.6 5.02 3.96 4.43 2.05 10.78-1.64 15.28-1.84 7.92-.33 11 3.67 17.78 6.68 2.22.98 4.32.99 5.53 2.81 1.28 1.93-.41 3.34.83 5.21 1.33 2.02 3.84 2.26 5.06 5.04.86 1.91 2.19 5.84 2.15 7.86-.04 2.97-.43 2.67-2.99 4-3.72 1.97-4.6 2.36-7.12 6.18-4.29 6.5-8.52 5.19-15.31 7.03-2.3.64-8.8 2.09-8.43 4.45 3.68-1.15 9.38-.2 7.52 5.46-.5 1.47-3.43 2.02-4.36 3.4-1.17 1.71-1.47 3.72-1.06 5.74 4.3.9 6.81-1.56 8.04 3.55.47 1.91-.1 5.6-.57 7.69-.75 3.36-1.66 3.53-1.08 7.37.64 4.18 1.11 8.4 1.22 12.44 1.47-.36 3-.74 4.46-1.09 5.36 10.15-9.55 15.28-12.57 22.03-1.96 4.41.94 12.11 3.85 14.04 2.11 1.43 3.4.7 4.82 3.03 1.32 2.17.43 5.7 1.74 8.05 2.73 4.9 8.91 5.13 11.08.38 3.05-6.69 1.83-11.24-.26-17.64-.57-1.8-2.83-7-1.42-8.83 1.07-1.37 4.53-.43 5.8-1.18 3.29-1.92 2.1-7.74 6.78-8.89 3.33 4.85 5.25 4.07 8.1 3.09 1.53 1.64 3.17 3.24 5.08 4.29-2.84.76-5.88 2.35-8.74 3.45 1.64 8.36 8.43 3.57 9.53 10.94-.96.22-1.86 1.3-2.97 1.41.71 6.42 4.01 4.77 7.99 7.59 2.12 1.49 1.6 2.26 2.73 4.59 1.49 3.12.75 2.43 4.23 4.52 5.84 3.53 7.26 10.98 11.91 15.45 4.59 4.43 12.56 12.07 9.34 18.63-.11.23-2.26 1.11-2.69 1.64-.79 1.04.06 2.81-.83 3.74-3.09 3.21-3.12-.08-4.45-2.64-1.02-1.96-2.43-5.46-3.84-7.15-1.81-2.15-5.05-2.32-7.28-3.67-3.15-1.91-8.29-5.8-9.25-.15-.36 2.19 2.25 4.16.95 6.4-1.09 1.88-4.5 2.26-6.3 1.91-1.62 3.37-.89 5.4-5.53 5.76-2.58.19-4.75-1.35-7.19.32.84 5.35 2.19 9.84 6.49 13.05-5.3 4.32 13.66 22.61 12.74 27.09-1.08 5.17-8.55 2.19-12.34 3.45-.85.29-2.5-.22-3.04.26-1.49 1.35-.12 5.09-1.49 5.92-2.01 1.23-2.91-.76-5.04-.92-4.45-.31-7.12 3.57-11.13 3.49-5.19-.11-7.94-12.17-11.76-1.2-1.96 5.6-4.89 9.85-9.65 13.68-4.92 3.96-6.93.38-12.16 1.08-2.7.34-5.34 2.88-7.84 3.93-2.95 1.25-6.31 1.56-9.31 2.69-1.08-1.12-4.08-9.05-2.6-10.89.58-.74 3.53-1.05 4.45-1.32.53-6.76-2.91-3.04-6.66-4.88-3.85-1.89-3.19-6.03-4.27-9.32-2.43.52-5.22 1.91-7.71 2.04-3.51.18-5.84-.64-9.62.83-4.27 1.68-6.39 4.93-9.79 7.89-3.57 3.13-3.08 3.17-4.64 7.36-1.6 4.23-3.01 1.94-5.91 4.45-3.24 2.8-1.23 10.49-4.77 14.21-1.12 1.16-2.84 1.15-3.73 2.22-2 2.46-1.37 7.84-4.29 9.71-3.63 2.3-5.4-1.61-8.98-.73 0 3.54 1.92 16.59-5.6 13.98-3.05-1.05-5.57-7.33-5.49-10.35.08-3.44 2.3-5.07 5.91-5.77-.13-7.15-8.46-.5-12.45-3.6-3.4-2.65-4.6-13.71-4.95-18.03-.57-6.96 6.55-6.53 4.29-13.73-.87-2.76-1.83-7.93-3.62-10.09-2.47-2.96-9.13-5.27-12.82-4.93-3.02.26-7.49 3.42-10.38 2.86-2.29-.44-5.41-5.23-4.66-7.65.93-2.96 3.77-1.02 5.79-2.85 3.41-3.09-.02-9.32 1.74-13.07 2.95-6.26 13.45-4.27 17.48-9.12 2.43-2.93.1-7.93 3.5-10.7 2.48-2.01 8.67-2.24 11.43-.88-1.5-7.26-6.37-13.68-7.76-20.83 3.79-1.37 9.54.97 13.38 1.84 4.36 1.02 7.07 2.78 10.89 5.21 1.82 1.15 4.02 3.3 6.05 2.23-.81-3.81-4.61-13.04-1.85-16.48 1.02-1.24 2.6-1.24 4.12-1.72 1.28-.4 6.36-.09 6.51-.18 2.71-1.5-.36-4.23.92-7.17 1.89-4.29 6.15-4.36 2.35-9.9-4.57 1.04-8.97 1.71-13.63 1.9-6.26.26-8.46-5.01-9.58-11.08.33-.22.74-.27 1.09-.42-1.53-2.56-12.29 1.78-15.72 1.4-7.65-.86-10.25-5.22-12.84-11.56-6.26 1.36-17.11-.36-22.05-4.88-5-4.59-6.29-14.39-5.02-20.5.22-1.02 2.06-1.36 1.79-2.6-.37-1.75-3.15-2.51-4.23-3.74-2.59-2.92-4.36-7.8-5.97-11.3-1.67-3.69-3.95-6.81-5.82-10.5-.81-1.61-3.59-6.44-2.93-8.22.85-2.25 3.36-2.03 5.91-2.84 8.29-2.66 2.39-9.25.43-15.13 2.36-.76 6.6-.94 8.51-2.29 2.19-1.54.4-.26 1.47-2.81 1.91-4.59 5.03-6.1 5.81-11.28.96-6.5 4.38-11.65 10.05-5.88 6.42 6.5 5.43 3.82 9.32-2.36 1.12-1.79 2.84-3.03 3.71-4.61 1.6-2.89 1.28-6.58 4.28-8.68 3.44-2.37 7.98-1.05 11.43-1.4 5.53-.57 6.56-2.95 10.47-5.65 2.62-1.81 3.82-.19 5.53-.03 1.94.19 2.62.16 5.43-.64-3.09-9.6.23-21.56 1.77-31.16.98-6.08-4.6-20.66 4.46-22.3.75 2.21.57 6.08 3.53 6.09z"/></g><g class="uuid-0d9fa079-fa8e-4544-a835-6a3fa744c822"><path class="uuid-fac7599e-1ff0-4225-93d8-dd2320b4484e" d="M686.94 529.41c.46.6 1.51.15 2.06.08.95-.12 3.33-.1 3 1.6-.51 2.6-4.5-.25-5.79.02-1.2.25-2.38 2.16-3.09 3.09-1.05 1.38-1.77 1.67-3.58 2.2-2.24.66-5.1 1.87-5.74 4.34-.2.78-.71 2.76.07 3.29.81.56 2.12-.41 3.05-.45.7-.05 1.29-.07 1.65.63.23.42-.15 1.02-.02 1.37.15.43.43.48.76.82.53.52.91.47.85 1.27-.08 1.02-2.34 1.81-1.39 2.72 1.05 1.01 3.39-.55 4.53-.51.53.02 1.66.43 1.96.91.4.66-.22.89-.02 1.75.28 1.29 2.15 2.06 2.93 3.02 1.39 1.67 1.02 2.99 1.5 4.97.15.66.5 1.11.31 1.67-.21.6-.79.48-.99 1.05-.22.63.15 1.22-.25 1.94-.28.5-.92 1.45-1.36 1.77-.65.48-.65.34-1.37.02-1.05-.48-1.28-.61-2.52-.52-2.13.14-2.55-1-4.09-2.15-.52-.41-1.91-1.57-2.36-1.11.86.61 1.6 2.01.06 2.55-.4.14-1.01-.4-1.47-.38-.56.03-1.05.3-1.42.72.52 1.08 1.47 1.22.57 2.34-.35.42-1.23.91-1.77 1.15-.85.4-1.04.23-1.78.99-.8.84-1.63 1.64-2.5 2.33.33.26.65.53.98.8-1.31 2.84-4.91.46-6.87.92-1.29.3-2.48 2.22-2.43 3.17.05.7.42.86.14 1.56-.24.66-1.15 1.04-1.45 1.72-.61 1.39.36 2.78 1.76 2.46 1.96-.43 2.74-1.46 3.79-2.98.3-.43 1.05-1.79 1.68-1.77.47 0 .84.9 1.22 1.06.96.4 2.04-.83 3.06 0-.5 1.54 0 1.81.67 2.28-.09.6-.18 1.22-.09 1.81-.63-.49-1.49-.88-2.21-1.33-1.54 1.74.63 2.42-.79 3.88-.21-.18-.59-.18-.8-.41-1.27 1.22-.37 1.67-.33 3 .04.71-.22.73-.53 1.36-.43.84-.4.57-.28 1.67.2 1.86-1.19 3.4-1.38 5.15-.2 1.74-.53 4.74-2.5 5.14-.06.02-.61-.32-.81-.32-.34 0-.6.48-.94.44-1.22-.14-.5-.68-.18-1.39.26-.56.79-1.45.92-2.04.18-.74-.33-1.47-.42-2.18-.1-1.02-.11-2.77-1.5-2.04-.54.29-.53 1.18-1.24 1.27-.59.07-1.23-.6-1.46-1.05-1 .21-1.32.71-2.18-.24-.47-.53-.49-1.26-1.26-1.52-1.02 1.08-1.77 2.12-1.76 3.59-1.81-.43-2.64 6.72-3.77 7.27-1.3.63-1.9-1.49-2.8-2.11-.2-.13-.38-.58-.56-.61-.55-.11-1.13.82-1.54.66-.6-.23-.32-.75-.63-1.25-.68-1.02-1.97-.97-2.62-1.84-.83-1.15 1.33-3.74-1.7-2.75-1.53.5-2.95.57-4.57.17-1.68-.4-1.23-1.43-2.26-2.47-.53-.53-1.51-.67-2.15-1.05-.77-.43-1.39-1.11-2.13-1.57.05-.42 1.29-2.39 1.93-2.37.26.02.81.6 1.03.75 1.56-1 .17-1.13-.05-2.26-.24-1.16.78-1.7 1.32-2.49-.53-.43-1.29-.81-1.73-1.33-.63-.74-.83-1.36-1.79-1.95-1.07-.64-2.12-.56-3.33-.81-1.28-.26-1.19-.15-2.37.2-1.19.37-.93-.33-1.95-.54-1.16-.23-2.49 1.47-3.88 1.34-.43-.05-.72-.43-1.11-.44-.86-.04-1.94 1-2.82.67-1.11-.4-.56-1.45-1.34-2.06-.77.57-3.29 3.16-3.97 1.08-.28-.83.67-2.43 1.34-2.91.76-.56 1.48-.34 2.24.33 1.53-1.23-1.31-1.93-1.29-3.31.02-1.17 2.22-3.28 3.1-4.07 1.42-1.28 2.5.33 3.69-1.36.47-.64 1.43-1.7 1.6-2.46.24-1.04-.37-2.87-1.05-3.6-.57-.61-1.99-1.05-2.35-1.79-.29-.56.23-2.03.88-2.26.81-.3.85.64 1.58.78 1.25.22 2.03-1.56 3.13-1.8 1.85-.4 3.16 2.21 4.89 2.28 1.04.04 1.74-1.3 2.91-1.02.85.21 1.93 1.52 2.09 2.34 1.34-1.54 1.91-3.66 3.24-5.15.93.6 1.38 2.22 1.82 3.21.5 1.12.57 1.99.69 3.23.05.59-.05 1.42.51 1.68.69-.81 2.06-3.17 3.28-3.13.44 0 .7.36 1.06.6.3.22 1.08 1.36 1.12 1.4.77.33.84-.78 1.7-1 1.26-.3 1.98.61 2.55-1.13-.98-.82-1.86-1.67-2.68-2.65-1.09-1.33-.32-2.67.82-3.92.1.03.18.11.27.17.3-.77-2.44-2.38-2.92-3.19-1.09-1.81-.56-3.1.39-4.71-1.35-1.15-2.77-3.78-2.6-5.61.17-1.84 2.08-3.75 3.61-4.5.26-.11.64.23.87-.03.32-.38.02-1.1.11-1.55.2-1.05.98-2.24 1.47-3.17.53-.98.83-1.99 1.32-3.02.22-.46.81-1.84 1.3-2.01.63-.19 1 .4 1.6.81 1.96 1.36 2.41-1.01 3.36-2.41.57.36 1.31 1.28 1.92 1.46.69.22.12.04.85-.14 1.31-.35 2.16.07 3.43-.61 1.57-.88 3.26-.99 2.95 1.2-.35 2.47.07 1.81 2.07 1.64.57-.05 1.12.11 1.61.04.88-.14 1.64-.84 2.6-.52 1.08.34 1.55 1.56 2.2 2.26 1.05 1.1 1.74.92 2.97 1.33.83.26.68.79.94 1.2.28.45.4.59 1.04 1.07 1.57-2.27 4.72-3.53 7.06-4.8 1.48-.81 3.72-4.43 5.6-2.73-.36.52-1.23 1.13-.74 1.77z"/></g><g class="uuid-0d9fa079-fa8e-4544-a835-6a3fa744c822"><path class="uuid-fac7599e-1ff0-4225-93d8-dd2320b4484e" d="M809.33 513.15c.17.22.56.07.74.04.36-.05 1.22-.04 1.1.57-.19.96-1.64-.08-2.11.02-.43.08-.87.79-1.12 1.12-.39.51-.65.62-1.3.81-.82.25-1.86.68-2.09 1.59-.08.29-.26 1.01.02 1.2.29.2.77-.15 1.12-.18.25 0 .47-.02.6.25.08.15-.05.36 0 .49.05.16.15.18.28.3.19.19.33.18.3.47-.02.36-.84.65-.5.99.4.37 1.24-.2 1.66-.19.19 0 .6.15.71.33.15.24-.09.33 0 .64.1.47.78.74 1.07 1.09.5.61.37 1.1.54 1.81.06.25.19.41.12.61-.08.22-.3.18-.37.38-.07.23.05.44-.09.71-.1.18-.33.52-.5.66-.23.16-.23.12-.5 0-.37-.18-.46-.23-.92-.19-.77.05-.92-.37-1.49-.79-.19-.15-.7-.57-.86-.4.33.22.59.72.02.92-.14.05-.36-.15-.53-.15-.2.02-.39.12-.52.27.19.4.53.45.21.85-.12.15-.46.34-.64.42-.31.15-.39.08-.66.36-.3.31-.6.6-.91.86.12.09.24.19.36.29-.48 1.04-1.78.16-2.5.34-.47.11-.91.81-.88 1.15.02.26.15.31.05.57-.09.23-.43.36-.53.63-.22.5.13 1.01.64.88.72-.15 1-.53 1.38-1.08.11-.15.38-.65.61-.65.17 0 .31.33.45.4.35.15.74-.3 1.12 0-.19.54 0 .65.25.82-.05.22-.07.45-.04.67-.23-.18-.54-.33-.81-.48-.56.63.23.88-.28 1.41-.08-.05-.23-.07-.29-.14-.47.43-.13.6-.12 1.09 0 .26-.08.26-.2.48-.15.31-.15.22-.1.61.08.68-.43 1.24-.5 1.88-.08.64-.2 1.74-.91 1.87-.03 0-.22-.11-.29-.11-.13 0-.22.16-.34.16-.46-.05-.19-.25-.06-.51.08-.2.28-.52.33-.74.06-.29-.12-.54-.15-.81-.04-.35-.05-1.01-.55-.74-.19.1-.19.43-.45.47-.21.03-.44-.22-.53-.38-.36.07-.47.24-.79-.1-.16-.19-.18-.46-.46-.54-.37.4-.64.77-.64 1.29-.67-.15-.97 2.46-1.38 2.67-.47.22-.69-.55-1.02-.78-.07-.05-.14-.2-.2-.22-.2-.04-.42.3-.57.25-.22-.09-.12-.29-.23-.47-.24-.37-.71-.34-.95-.67-.31-.43.48-1.36-.62-1-.56.18-1.08.21-1.67.05-.6-.15-.44-.52-.81-.88-.19-.21-.55-.26-.79-.4-.28-.15-.5-.4-.77-.57.02-.16.47-.87.7-.87.09 0 .29.22.37.27.57-.37.07-.41-.02-.82-.08-.42.29-.63.49-.9-.19-.16-.47-.3-.63-.5-.23-.27-.3-.5-.66-.71-.38-.25-.77-.22-1.2-.3-.47-.09-.45-.05-.88.07-.43.14-.34-.11-.71-.19-.43-.08-.91.55-1.42.5-.16-.03-.27-.16-.4-.16-.33-.02-.71.36-1.03.24-.4-.15-.21-.53-.5-.75-.27.21-1.19 1.16-1.45.4-.1-.29.25-.88.49-1.06.28-.19.54-.12.83.12.55-.45-.49-.7-.48-1.2 0-.43.81-1.2 1.12-1.49.53-.47.92.12 1.36-.5.16-.24.52-.61.57-.9.09-.36-.13-1.04-.39-1.31-.19-.22-.71-.4-.85-.65-.1-.21.09-.74.33-.84.29-.09.31.23.57.3.46.07.74-.57 1.15-.67.67-.13 1.15.82 1.77.85.39 0 .64-.48 1.07-.39.3.08.71.57.76.85.48-.55.7-1.34 1.19-1.88.33.22.5.81.66 1.18.19.41.22.72.25 1.17.02.22-.02.52.19.62.25-.3.75-1.16 1.19-1.14.16 0 .26.12.39.21.11.08.4.5.42.5.28.14.3-.27.63-.36.44-.11.7.22.92-.41-.36-.29-.68-.61-.98-.97-.4-.47-.12-.97.3-1.42.03.02.07.03.1.05.1-.29-.89-.88-1.07-1.16-.4-.65-.21-1.13.13-1.72-.48-.4-1-1.38-.94-2.03.06-.68.75-1.38 1.33-1.65.08-.05.22.08.29-.02.12-.14.02-.4.05-.56.08-.39.36-.82.53-1.16.19-.36.3-.72.49-1.09.08-.16.29-.68.47-.74.23-.07.36.15.57.3.73.49.88-.37 1.23-.89.19.14.47.48.7.53.25.08.05.02.31-.05.48-.12.79.02 1.25-.22.57-.32 1.19-.36 1.08.43-.14.91.02.67.75.6.21-.03.4.04.59 0 .33-.04.6-.29.95-.18.4.12.57.57.81.82.38.4.64.34 1.09.48.3.09.25.3.34.43.09.16.13.22.37.4.57-.83 1.72-1.29 2.57-1.74.55-.29 1.36-1.63 2.05-1-.14.19-.45.41-.28.64z"/></g><g class="uuid-0d9fa079-fa8e-4544-a835-6a3fa744c822"><path class="uuid-fac7599e-1ff0-4225-93d8-dd2320b4484e" d="M686.08 274.65c.17.22.56.05.75.02.35-.04 1.21-.02 1.09.58-.19.95-1.64-.08-2.12 0-.43.09-.86.8-1.12 1.13-.39.5-.64.6-1.31.8-.81.24-1.85.68-2.09 1.59-.07.28-.26 1 .03 1.19.3.2.77-.15 1.12-.16.25-.02.47-.02.6.23.07.15-.06.36-.02.5.06.16.16.18.29.3.19.19.33.17.3.46-.02.38-.85.66-.5.99.4.37 1.24-.19 1.66-.18.19 0 .6.15.71.33.15.24-.09.32-.02.63.11.48.78.75 1.08 1.09.51.61.37 1.1.54 1.81.06.24.19.41.12.61-.08.22-.3.17-.37.38-.07.23.06.44-.09.7-.1.19-.33.53-.5.64-.23.19-.23.13-.49 0-.38-.16-.47-.22-.92-.19-.77.05-.93-.36-1.49-.78-.19-.15-.7-.57-.87-.4.33.22.59.72.02.92-.14.05-.36-.15-.53-.14-.21 0-.39.11-.53.26.19.4.53.44.22.85-.12.16-.46.33-.65.42-.31.15-.38.08-.65.36-.3.31-.6.6-.91.87.12.08.24.18.36.27-.48 1.04-1.79.17-2.5.34-.47.11-.91.81-.88 1.16.02.25.15.3.05.57-.08.22-.43.38-.53.62-.22.51.13 1.02.64.9.71-.16 1.01-.53 1.38-1.09.11-.15.38-.64.61-.64.16 0 .31.33.44.38.36.15.74-.3 1.12 0-.18.56 0 .66.26.83-.05.22-.07.45-.04.67-.23-.19-.54-.33-.81-.49-.57.64.22.88-.29 1.42-.08-.06-.21-.06-.29-.15-.47.45-.14.61-.12 1.1 0 .26-.08.26-.2.5-.15.3-.15.2-.09.6.06.68-.44 1.24-.51 1.88-.07.64-.19 1.73-.91 1.88-.02 0-.22-.12-.29-.12-.13 0-.22.18-.35.16-.44-.05-.19-.26-.06-.52.09-.19.29-.52.34-.74.05-.27-.13-.53-.15-.79-.04-.37-.05-1.02-.54-.74-.21.1-.2.43-.45.47-.22.02-.46-.22-.54-.39-.36.08-.48.26-.79-.09-.17-.19-.18-.47-.46-.56-.37.4-.66.78-.64 1.31-.66-.16-.96 2.45-1.38 2.65-.47.23-.69-.54-1.02-.77-.08-.05-.14-.21-.2-.23-.2-.04-.41.29-.57.24-.22-.08-.12-.28-.23-.46-.24-.36-.71-.35-.95-.67-.3-.41.49-1.36-.61-1-.57.19-1.07.21-1.67.07-.61-.15-.46-.53-.83-.91-.19-.19-.55-.24-.78-.38-.28-.15-.51-.4-.77-.57.02-.15.47-.87.7-.87.1 0 .3.21.39.28.57-.37.05-.42-.03-.83-.07-.42.29-.62.48-.9-.19-.16-.46-.29-.62-.49-.23-.27-.3-.5-.65-.71-.39-.24-.78-.21-1.22-.29-.47-.1-.43-.05-.86.08s-.33-.12-.71-.19c-.43-.09-.91.53-1.42.48-.15-.02-.26-.15-.4-.16-.32 0-.7.36-1.03.25-.4-.15-.2-.53-.48-.76-.29.22-1.2 1.16-1.46.41-.1-.31.26-.88.49-1.07.29-.2.54-.12.82.12.56-.43-.48-.69-.47-1.19 0-.44.81-1.2 1.12-1.49.52-.47.91.12 1.36-.5.17-.23.51-.63.58-.9.09-.37-.14-1.05-.39-1.31-.2-.23-.73-.39-.86-.65-.1-.21.09-.74.33-.83.29-.11.31.23.58.29.44.08.74-.57 1.13-.67.67-.14 1.15.81 1.78.84.4.02.64-.47 1.06-.37.31.08.71.55.77.85.49-.55.7-1.33 1.19-1.88.33.22.49.81.66 1.18.19.4.22.72.25 1.17.02.22-.02.52.19.61.25-.29.74-1.15 1.19-1.15.16 0 .26.14.39.23.12.07.4.5.42.5.27.12.3-.28.61-.37.46-.1.72.23.93-.4-.36-.3-.67-.6-.97-.97-.41-.48-.12-.97.29-1.43.03 0 .06.04.1.06.1-.27-.89-.87-1.07-1.16-.4-.67-.21-1.13.14-1.72-.48-.41-1.01-1.37-.95-2.05.05-.67.75-1.36 1.32-1.64.09-.05.23.09.32-.02.11-.13 0-.4.03-.57.08-.38.36-.81.53-1.15.19-.36.3-.73.49-1.1.07-.15.29-.67.47-.73.23-.07.37.14.58.29.72.5.89-.36 1.23-.88.19.14.47.46.7.53.25.08.04 0 .3-.06.48-.12.78.03 1.25-.22.57-.32 1.19-.36 1.07.43-.12.91.02.67.76.6.21-.02.4.05.58.02.33-.05.6-.3.95-.19.4.13.57.57.8.82.39.4.64.34 1.08.49.3.1.25.29.34.43.1.16.14.22.38.4.57-.83 1.71-1.29 2.57-1.74.54-.3 1.36-1.62 2.04-1-.13.19-.44.41-.27.65z"/></g><g class="uuid-0d9fa079-fa8e-4544-a835-6a3fa744c822"><path class="uuid-fac7599e-1ff0-4225-93d8-dd2320b4484e" d="M601.44 330.59c.24-.14.11-.54.11-.75 0-.34.09-1.21.68-1.02.93.28-.25 1.63-.2 2.1.05.45.71.95 1.01 1.22.47.43.55.71.67 1.39.16.84.49 1.91 1.37 2.23.26.11.97.36 1.19.1.22-.28-.09-.79-.06-1.13.02-.25.02-.47.29-.57.15-.06.36.1.5.06.17-.05.19-.14.32-.25.22-.18.21-.31.5-.26.36.06.57.91.92.6.42-.35-.06-1.25 0-1.66.02-.19.2-.59.4-.67.25-.13.3.11.63.07.48-.06.84-.71 1.2-.96.64-.44 1.12-.26 1.86-.36.24-.04.42-.14.61-.05.21.1.14.31.35.4.22.1.44-.02.69.16.17.12.5.39.6.55.16.26.11.25-.05.5-.21.36-.26.43-.27.9-.02.77-.46.88-.93 1.39-.16.17-.64.64-.49.81.25-.28.79-.5.92.07.04.15-.18.35-.19.52 0 .2.07.4.22.54.41-.14.5-.49.86-.12.14.14.29.48.36.69.12.32.05.38.29.67.28.33.53.66.75.99.11-.1.22-.22.33-.32.98.57 0 1.78.08 2.52.06.48.71.98 1.05.99.26 0 .34-.12.57 0 .22.12.35.47.57.6.49.27 1.02-.04.95-.56-.09-.72-.43-1.04-.95-1.48-.15-.12-.6-.44-.58-.67.02-.18.36-.27.43-.4.19-.34-.22-.77.12-1.12.54.23.66.08.84-.16.22.06.44.11.65.1-.2.22-.37.51-.55.75.57.63.9-.14 1.38.43-.07.07-.09.21-.18.28.4.5.59.19 1.08.22.26.02.24.1.47.24.29.19.19.17.6.17.67-.02 1.19.54 1.81.68.62.14 1.71.36 1.77 1.09 0 .02-.14.21-.14.28-.02.13.15.23.12.36-.09.44-.26.16-.51.02-.19-.12-.5-.33-.7-.41-.26-.09-.55.08-.81.08-.36 0-1-.06-.79.47.09.2.42.24.42.5.02.22-.26.43-.43.5.04.37.2.5-.18.78-.2.15-.47.14-.59.4.35.41.7.72 1.24.77-.22.65 2.35 1.21 2.5 1.64.18.5-.61.64-.87.94-.05.07-.22.12-.24.18-.05.2.25.45.19.59-.12.21-.29.09-.47.19-.4.2-.43.67-.77.88-.45.26-1.32-.62-1.05.51.12.58.09 1.09-.11 1.67-.22.6-.57.4-.98.73-.22.17-.3.53-.46.74-.18.26-.46.47-.65.71-.15-.03-.82-.54-.78-.78 0-.08.23-.28.3-.34-.3-.6-.41-.11-.82-.07-.43.05-.59-.34-.85-.57-.18.17-.34.44-.55.57-.29.2-.53.26-.77.58-.28.36-.29.75-.41 1.18-.15.46-.11.43-.02.87.08.45-.15.33-.27.69-.13.4.45.96.34 1.46-.04.15-.18.25-.19.38-.04.32.29.74.15 1.05-.2.38-.55.15-.8.4.17.3 1.02 1.31.25 1.48-.31.08-.85-.33-1.02-.59-.16-.29-.06-.55.21-.8-.4-.6-.74.4-1.26.35-.42-.05-1.11-.92-1.36-1.27-.41-.57.22-.9-.36-1.39-.21-.18-.56-.57-.83-.67-.36-.12-1.05.04-1.34.26-.26.19-.47.68-.74.79-.22.09-.73-.17-.8-.41-.08-.3.26-.28.34-.54.13-.44-.49-.79-.54-1.2-.08-.68.91-1.06 1.01-1.69.05-.38-.41-.67-.26-1.09.1-.3.61-.64.91-.67-.5-.53-1.26-.82-1.75-1.36.26-.32.87-.41 1.24-.53.43-.15.74-.14 1.19-.13.22 0 .52.07.63-.13-.27-.28-1.08-.86-1.03-1.3.03-.16.16-.24.27-.36.09-.1.53-.34.54-.36.15-.26-.26-.34-.3-.66-.07-.46.29-.69-.32-.96-.33.33-.67.61-1.06.88-.51.35-.98.02-1.39-.43.02-.04.05-.06.07-.1-.26-.13-.95.8-1.26.95-.69.33-1.15.09-1.69-.3-.47.43-1.47.87-2.14.74-.65-.12-1.28-.89-1.5-1.47-.02-.1.11-.22.02-.32-.12-.13-.39-.05-.55-.09-.38-.12-.78-.44-1.1-.65-.34-.22-.7-.36-1.05-.58-.14-.1-.63-.36-.67-.54-.05-.24.18-.36.35-.55.57-.67-.28-.92-.76-1.31.16-.19.51-.42.6-.64.1-.24.02-.05-.02-.32-.08-.49.1-.78-.1-1.26-.27-.6-.24-1.22.54-1.02.89.22.67.04.67-.69 0-.21.08-.4.07-.59 0-.33-.23-.62-.08-.96.16-.37.61-.5.88-.71.45-.33.41-.6.6-1.03.13-.29.3-.21.47-.29.18-.08.24-.12.43-.33-.76-.65-1.11-1.84-1.48-2.74-.24-.57-1.47-1.51-.79-2.14.18.16.37.5.62.34z"/></g><path class="uuid-072baae4-57e4-4110-b6ec-3bc3c4c65e97" d="M492.7 653.38c7.67 7.26 16.73 38.01 31.9 26.83 2.77 6.01-.86 14.48 3.49 20.14 2.36 3.09 13.08 5.42 16.63 6.36 6.43 1.72 6.53-4.29 9.94 3.26 1.34 2.95-1.3 10.77-.96 14.45 4.99.64 14.35 3.78 7.69 9.95-3.53 3.27-14.83.86-18.89-.08l-1.09 4.43c6.85 4.74-.12 21.42-9.81 18.65-2.63-8.6.54-17.71-1.26-26.35-1.69-8.21-3.12-7.15-8.84-11.15.13.09-10-5.56-9.08-5.49-4.84-.37-7.23-1.56-6.39 5.51.78 6.59 5.76 4.87 9.99 9.45 6.03 6.53 7.89 26.78-1.2 32.5-.34-.57-.63-1.15-.91-1.74-.85 11.97-16.56 13.66-18.98-1.26-.46-2.84 2.9-3.55 3.38-6.76.72-4.76 1.65-15.72-.79-19.87-2.07-3.5-10.29-9.18-12.46-10.08-1.67-.67-2.66-2.48-5.56-3.37-2.14-.65-6.26 2.12-9.15 1.16-3.99-1.31-11.76-11.89-5.3-17.3 5.28-4.43 9.1 5.56 16.68.81 5.43-3.4-1.43-11.15 7.74-10.08-5.29-6.58-5.74-13.5-10.53-19.88-3.57-4.77-9.77-4.79-11.51-10.88 12.7-1.84 22.83 7.94 25.27-9.2z"/><g class="uuid-0d9fa079-fa8e-4544-a835-6a3fa744c822"><path class="uuid-fac7599e-1ff0-4225-93d8-dd2320b4484e" d="M422.17 83.27c.66.53 1.34 1.02 2.02 1.47-.6.19-1.28.36-2.04.49-.36-.65-.36-1.31.02-1.96zm108.18 40.81c-6.16-3.05-8.18 2.91-8.84-7.15-.55-8.36 4.15-9.85 11.73-8.46-3.99-5.85-9.39-15.88-16.38-19.01-5.36-2.39-12.69-.66-18.35-2.44-15.66-4.94-12.95-16.64-.49-24.64-7.97-.55-16.94-1.85-23.56 3.07-6.65 4.93-7.68 13.7-15.12 17.77-10.95 5.98-24.21 8.8-35.15 1.53 8.3-2.58 2.84-9.83 5.5-15.15 2.68-5.43 9.87-9.89 16.7-9.72 4.4.12 11.49 7.32 16.89 2.64 5.5-4.77.47-14.52-3.86-18.01 6.01-8.46 16.21-2.04 24.33-2.3.36-6-1.92-15.53 0-21.29 4.07-12.11 16.39-8.97 27.58-8.46 16.8.76 32.8 2.64 49.05 6.55 4.5 1.07 9.12 1.72 13.8 2.18 117.29 33.9 214.75 114.47 271.01 220.27-6.41 1.52-12.63 7.52-20.61 6.29-1.84-2.64-6.14-7.91-9.86-9.76-3.28-1.62-9.64-1.44-12.44-3.33-8.5-5.77-12.6-24.4-24.32-26.65-5.71-1.09-7.02 2.81-13.15.07-8.1-3.63-9.22-11.05-14.5-3.22-1.22 1.81.74 6.32.09 8.42-1.22 4.01-4.93 6.44-5.62 8.01-2.23 5.03-1.09 12.91-9.79 13.52.15 1.57-.55 3.69-.29 5.24-4.69-.91-23.7-1.95-25.41-6.36-11.71 1.48-8.15-27.19-12.37-36.56-8.56-.99-11.04 6.84-16.08 9.83-.89-13.19 3.33-61.62-23.65-41.13-5.94 4.51-4.64 5.94-5.26 13.62-.6 7.67-2.5 13-3.88 19.82-2.43 12.21 2.09 25.67 2.9 39.61 4.84 1.28 28.76 15.4 13.24 15.8.75 2.28-.29 4.92.97 7.37-2.04 0-4.64 1.74-6.87 1.57.5 3.07 3.01 10.87 1.46 14.18-1.72 3.7-5.98.46-7.84 3.69-3.77 6.57-.91 19.49-11.97 20.48-1.55-11.24 7.91-17.31 5.38-25.45-.14-.43-5.42.69-5.57.41-1.11-2.07-.6-10.12-.14-9.43-2.2-3.36-1.68-5.04-7.42-4.22-1.5-9.05 6.09-16.83 4.26-25.59-1.72-8.14-4.96-5.36-9.84-10.6.63-.14 1.26-.24 1.91-.32 1.94-8.76-6.97-8.88-10.4-14-2.22-3.32-3.64-7.04-2.51-12.28.57-2.65 5.85-5.02 5.44-7.85-2.81-19.28-22.17 7.62-27.55 8.72-2.15-11.87 10.78-12.53 7.39-20.59-1.96-4.61-20.83-13.18-3.53-17.91-2.22-4.43-11.56-10.53-17.14-10.84-6.69-.37-4.12-1.74-8.68 5.37-4.94 7.72-7.19 32.47-14.63 37.1-4.81 3-9.73-1.96-12.48-.88-6.67 2.64-6.17 11.25-9.74 17.43-5.9 10.22-11.17 8.39-23.04 8.04-.17-9.58 8.64-7.04 13-12.35 4.48-5.44 4.19-15.66 5.49-22.3 1.99-10.22-.44-27.83 5.97-36.06 5.46-7.05 10.2-1.78 7.81-12.15-1.63-7.11-8.84-9.78-13.59-12.13z"/></g><g class="uuid-0d9fa079-fa8e-4544-a835-6a3fa744c822"><path class="uuid-fac7599e-1ff0-4225-93d8-dd2320b4484e" d="M89.66 381.4c-11.6 1.76-31.11 3.84-31.42 20.24-.17 9.26 6.06 8.84 8.68 15.11 4.98 11.86 3.89 2.84 2.51 14.18-1.67 13.6-8.95 25.17-5.89 39.77 2.62 12.55 10.95 27.31 16.33 38.57 4.38 9.16 9.78 23.64 21.47 25.37 7.03 1.05 7.66 1.11 13.08-4.13 8.05-7.8 3.6-10.43-.14-16.74-7.29-12.29-24.2-12.8-26.15-29.4-.42-3.6 2.71-8.66 2.98-11.81 1.19-13.88-1.62-20.37 11.93-26.53 3.93.74 13.7 5.94 16.63 5.38 10.88-2.06 3.15-6.58 10.19-10.91 11.8-7.28 24.18-1.41 32.66-15.89.43 6.58.11 13.33.42 19.92 7.91-.75 16.41-2.47 24.47-1.28-3.6 7.11-15.87 6.37-19.93 14.77-1.57 3.26.36 12.64.52 16.32 13.35 1.72 42.85-7.57 37.63 18.19-3.24-.75-7.98 1.26-11.18.48-.05 5.78-.2 11.91-.43 17.7-13.47 1.24-19.84 15.62-30.42 22.79-17.59 11.94-23.13 18.45-20.46 44.92 13.26-2.19 8.09 6.87 13.34 10.16 4.74 2.99 18.9 5.68 21.01 10.24 2.53 5.49-10.54 18.28-8.07 29.15 3.41 15.04 6.59 6.49 14.92 13.97 11.63 10.45 3.38 46.63 21.27 46.67 27.65.05-6.78-30.01 8.54-41.76 6.52-5.02 13.47 7.46 20.47-4.88 5.38-9.5-5.21-18.08-7.24-26.64-1.69-7.12-.96-19.63 1.74-26.33 3.4-8.39 13.07-10.51 16.32-17.93 7.16-16.28-8.52-29.62 11.78-40.27 6.17-3.24 20.97-6.9 24.69 1.74 3.08 7.1-12.04 12.87-9.02 23.05 22.77 5.46-12.15 34.49-5.39 44.59 6.56 9.8 18.76.79 22.98 10.29 4.48 10.09-5.84 20.54-15.36 18.52 9.34 6.54 16.77 23.18 30.39 22.93 10.35-.21 11.33-10.22 21.27-9.39 1.63 9.11-9.78 32.07.82 39.73 10.29 7.42 5.59-3.07 12.15-3.93 2.06-.27 11.08-.32 13.35-1.16 10.53-4 17.42-8.63 23.67-23.13 3.84-8.93 4.41-30.49 15.87-31.73 3.48 12.1-5.9 22.93-4.06 36.11 7.91-4.38 12.4-14.94 17.7-19.74.26 6.77.98 13.59 3.9 19.7 16.37-5.08 23.18-24 39.43-28.47 12.35-3.39 29.55-1.53 42.89-.94.21 10.33-5.74 2.92-11.7 6.39-1.94 1.12-7.17 1.23-9.71 2.4-2.62 1.22-2.05 6.68-4.44 7.7-8.61 3.64-18.08 2.64-25.29 10.08-8.2 8.45-4.95 17.8-9.86 26.69-4.81 8.71-18.74 11.15-16.38 22.46 2.98.71 4.6 1.95 7.76 2.18-2.49 7.1-8.5 5.05-9.84 13.22-.44 2.71 7.78 7.85 6.6 14.4-7.45 2.92-18.49 3.19-26.45 1.99-9.63-1.43-18.29-8.64-27.93-8.01-1.04 24.38-4.61 50.07 24.44 49.69 1.07 3.39.88 9.63-.33 12.87-9.81-2.17-23.01 3.23-12.38 11.88 6.01 4.9 20.04-6.09 16.03 9.6-8.22-1.76-13.63 2.62-13.32 11.24-8.74 1.12-18.59.43-27.69.85-.88 21.14-2.08 29.82 14.73 39.65 6.06 3.53 9.83-.4 15.04 6.55 3.05 4.09-1.43 12.3 2.62 17.63 1.77 2.32 5.45 4.7 9.52 7.1C172.97 868.11 1.94 679.68 1.94 451.3c0-29.03 2.8-57.39 8.07-84.88 2.42-4.54 5.51-8.47 9.8-11.32 11.37-7.54 33.41-7.03 47.84-6.36-1.64 19.54 27.07 14.95 22.01 32.66z"/><path class="uuid-fac7599e-1ff0-4225-93d8-dd2320b4484e" d="M89.66 381.4c-11.6 1.76-31.11 3.84-31.42 20.24-.17 9.26 6.06 8.84 8.68 15.11 4.98 11.86 3.89 2.84 2.51 14.18-1.67 13.6-8.95 25.17-5.89 39.77 2.62 12.55 10.95 27.31 16.33 38.57 4.38 9.16 9.78 23.64 21.47 25.37 7.03 1.05 7.66 1.11 13.08-4.13 8.05-7.8 3.6-10.43-.14-16.74-7.29-12.29-24.2-12.8-26.15-29.4-.42-3.6 2.71-8.66 2.98-11.81 1.19-13.88-1.62-20.37 11.93-26.53 3.93.74 13.7 5.94 16.63 5.38 10.88-2.06 3.15-6.58 10.19-10.91 11.8-7.28 24.18-1.41 32.66-15.89.43 6.58.11 13.33.42 19.92 7.91-.75 16.41-2.47 24.47-1.28-3.6 7.11-15.87 6.37-19.93 14.77-1.57 3.26.36 12.64.52 16.32 13.35 1.72 42.85-7.57 37.63 18.19-3.24-.75-7.98 1.26-11.18.48-.05 5.78-.2 11.91-.43 17.7-13.47 1.24-19.84 15.62-30.42 22.79-17.59 11.94-23.13 18.45-20.46 44.92 13.26-2.19 8.09 6.87 13.34 10.16 4.74 2.99 18.9 5.68 21.01 10.24 2.53 5.49-10.54 18.28-8.07 29.15 3.41 15.04 6.59 6.49 14.92 13.97 11.63 10.45 3.38 46.63 21.27 46.67 27.65.05-6.78-30.01 8.54-41.76 6.52-5.02 13.47 7.46 20.47-4.88 5.38-9.5-5.21-18.08-7.24-26.64-1.69-7.12-.96-19.63 1.74-26.33 3.4-8.39 13.07-10.51 16.32-17.93 7.16-16.28-8.52-29.62 11.78-40.27 6.17-3.24 20.97-6.9 24.69 1.74 3.08 7.1-12.04 12.87-9.02 23.05 22.77 5.46-12.15 34.49-5.39 44.59 6.56 9.8 18.76.79 22.98 10.29 4.48 10.09-5.84 20.54-15.36 18.52 9.34 6.54 16.77 23.18 30.39 22.93 10.35-.21 11.33-10.22 21.27-9.39 1.63 9.11-9.78 32.07.82 39.73 10.29 7.42 5.59-3.07 12.15-3.93 2.06-.27 11.08-.32 13.35-1.16 10.53-4 17.42-8.63 23.67-23.13 3.84-8.93 4.41-30.49 15.87-31.73 3.48 12.1-5.9 22.93-4.06 36.11 7.91-4.38 12.4-14.94 17.7-19.74.26 6.77.98 13.59 3.9 19.7 16.37-5.08 23.18-24 39.43-28.47 12.35-3.39 29.55-1.53 42.89-.94.21 10.33-5.74 2.92-11.7 6.39-1.94 1.12-7.17 1.23-9.71 2.4-2.62 1.22-2.05 6.68-4.44 7.7-8.61 3.64-18.08 2.64-25.29 10.08-8.2 8.45-4.95 17.8-9.86 26.69-4.81 8.71-18.74 11.15-16.38 22.46 2.98.71 4.6 1.95 7.76 2.18-2.49 7.1-8.5 5.05-9.84 13.22-.44 2.71 7.78 7.85 6.6 14.4-7.45 2.92-18.49 3.19-26.45 1.99-9.63-1.43-18.29-8.64-27.93-8.01-1.04 24.38-4.61 50.07 24.44 49.69 1.07 3.39.88 9.63-.33 12.87-9.81-2.17-23.01 3.23-12.38 11.88 6.01 4.9 20.04-6.09 16.03 9.6-8.22-1.76-13.63 2.62-13.32 11.24-8.74 1.12-18.59.43-27.69.85-.88 21.14-2.08 29.82 14.73 39.65 6.06 3.53 9.83-.4 15.04 6.55 3.05 4.09-1.43 12.3 2.62 17.63 1.77 2.32 5.45 4.7 9.52 7.1C172.97 868.11 1.94 679.68 1.94 451.3c0-29.03 2.8-57.39 8.07-84.88 2.42-4.54 5.51-8.47 9.8-11.32 11.37-7.54 33.41-7.03 47.84-6.36-1.64 19.54 27.07 14.95 22.01 32.66z"/></g><path d="M358.04 180.82c-1.15 15.66-2.11 30.05 18.4 26.97 1.65 5.55.3 9.46-3.06 13.02l-13.26 9.94c-.52 1.89-4.4 4.87-3.94 9.37-11.79 3.95-13.26-8.35-12.9-17.41-2.74-.6-5.28-.38-7.79.33.74 3.08-1.23 7.76-.51 10.81-5.72.13-11.65.29-17.4.47-1.58 13.13-.16 27.51-.83 40.94-17.75 3.27-11.92-10.41-14.55-19.73-6.11 8.84-24.38 7.23-26.35-5.25-2.09-13.16 13.61-9.33 22.48-17.25-10.01 5.14-31.17 10.47-32.72-3.81-1.41-12.87 16.9-13.07 24.9-23.27 9.39-11.97 11.53-16.52 27.8-21.84 11.16-3.65 27.45-6.8 39.74-3.3z" opacity=".52" fill="#fff" stroke-width="0"/><g opacity=".52"><path class="uuid-fac7599e-1ff0-4225-93d8-dd2320b4484e" d="M222.1 328.68c1.19-.05 2.21.08 3.1.32-.66 1.64-1.57 3.08-2.83 4.15-.42-1.68-.15-2.84-.27-4.46z"/><path class="uuid-fac7599e-1ff0-4225-93d8-dd2320b4484e" d="M412.55 5.13c-4.19 2.71-6.57 6.79-11.78 9.24-6.05 2.84-15.46 1.89-21.92 3.41-12.91 3.03-38.72 3.54-36.82 22.11-10.45 2.62-23.04-1.57-32.98 2.57-6.48 2.69-9.19 10.82-15.3 13.48-4.33 1.89-9.98.33-14.63.73-10.97.92-17.89 6.26-20.52 17.96-1.91 8.54 3 19.47 11.83 12.24-7.84 9.19 1.3 11.52 9.73 10.9-6.18 7.59-3.71 14.08 3.67 16.38 10.8 3.37 18.02-4.65 26.87-7.93-5.74 4.86-11.41 9.52-8.77 17.77 11.52.71 21.89 3.78 32.54 7.57 13.91 4.94 8.05 4.5 10.33 17.79 9.49-.19 30.1-1.36 26.26 13.03-9.07 1.18-17.26-1.4-26.4-1.8-4.33-.19-8.99.67-13.26 0-4.84-.76-8.01-3.52-12.19-4.47-10.48-2.42-10.98 2.96-19.89 5.63-9.64 2.88-14.7-1.51-23.47 6.26-14.46 12.81-12.61 13.53-27.35 1.74-7.87-6.29-22.11-9.63-19.93 6.32 1.61 11.78 21.14 9.3 7.98 19.67-3.69 2.91-7.44-2.02-11.18 3.53-2.8 4.15.91 13.25 3.98 15.77-18.27 10.89 10.72 23.03 12.49 29.79 2.33 8.96-6.05 12.2-7.73 19.05-3.28 13.41 7.74 16.86 13.07 25.28 4.86 7.69 3.79 28.1 1.29 37.26-1.79 6.53-4.22 12.37-12.16 11.08-5.03-.82-5.61-7-11.1-8.46 2.53-6.33 1.24-16.03 1.07-22.35-8.38-2.02-13.47 8.74-15.59 15.15-4.57.19-12.08 40.09-18.8 11.41-11.58-3.62-7.13 7.36-8.87 14.23-2.11 8.36-6.63 12.58-6.58 21.83-13.77 9.24-18.65-9.16-19.75-19.6-.51-4.81 2.16-12.4-1.89-15.86-4.04-3.46-12.66-.53-14.9 3.84-6.81-11.15 2.56-50.97-18.55-34.44-11 8.62-9.17 35.8-21.01 18.5-5.62-8.21-5.08-14.17-14.09-14.92-3.28-.28-15.79 2.29-18.85 4.04-4.89 2.81-6.32 12.43-12.4 7.87-3.98-2.98-1.2-10.24-4.38-13.52-6.86 4.92-5.35 14.93-10.77 20.19-5.87 5.71-14.14.53-20.8 3.02C69.18 152.34 224.39 20.58 412.55 5.13z"/></g><path d="M1.18 451.3c0 247.67 200.79 448.45 448.47 448.45S898.11 698.97 898.11 451.3 697.32 2.84 449.65 2.84 1.18 203.62 1.18 451.3z" style="mix-blend-mode:multiply" fill="url(#uuid-70d52186-721a-448f-8f45-798552f487f0)" stroke-width="0"/></g></g></svg>