<svg xmlns="http://www.w3.org/2000/svg" viewBox="0 0 1022.28 1022.28"><defs><radialGradient id="uuid-670f60ed-26ff-49cf-a105-bf3cdba556a3" cx="455.64" cy="424.16" fx="455.64" fy="424.16" r="510.31" gradientTransform="rotate(-90 522.735 439.875)" gradientUnits="userSpaceOnUse"><stop offset=".25" stop-color="#fff"/><stop offset=".64" stop-color="#fff" stop-opacity=".72"/><stop offset=".73" stop-color="#fff" stop-opacity=".5"/><stop offset=".82" stop-color="#fff" stop-opacity=".29"/><stop offset=".9" stop-color="#fff" stop-opacity=".13"/><stop offset=".96" stop-color="#fff" stop-opacity=".03"/><stop offset="1" stop-color="#fff" stop-opacity="0"/></radialGradient><radialGradient id="uuid-6a44701e-7fb1-4629-b0d8-b4ec4466db96" cx="451.47" cy="414.96" fx="451.47" fy="414.96" r="422.87" gradientTransform="rotate(-90 522.735 439.875)" gradientUnits="userSpaceOnUse"><stop offset="0" stop-color="#797a7a"/><stop offset=".81" stop-color="#a6a7a7"/><stop offset=".84" stop-color="#a8a9aa"/><stop offset=".94" stop-color="#d5d6d6"/><stop offset="1" stop-color="#f3f3f3"/></radialGradient><linearGradient id="uuid-19aedb06-376e-4eba-8d56-78f17d6a32d6" x1="341.05" y1="244.32" x2="1188.21" y2="244.32" gradientTransform="translate(-266.82 266.82)" gradientUnits="userSpaceOnUse"><stop offset="0" stop-color="#fff"/><stop offset=".26" stop-color="#edecee"/><stop offset=".3" stop-color="#bab9bb"/><stop offset=".35" stop-color="#878788"/><stop offset=".4" stop-color="#5d5d5d"/><stop offset=".45" stop-color="#3c3c3c"/><stop offset=".49" stop-color="#252425"/><stop offset=".53" stop-color="#161616"/><stop offset=".56" stop-color="#121212"/></linearGradient><style>.uuid-4169ae9d-3a28-4a74-a56a-6e2bf4d1d4ad,.uuid-5cdf471e-b550-426e-b1df-a21f78a7cf1a{stroke-width:0;fill:#fff}.uuid-7a4d0756-1f50-49aa-9fb2-2d471c40c928{opacity:.5}.uuid-3319db6a-d45d-4db5-a10a-57d3e6d2b111,.uuid-5cdf471e-b550-426e-b1df-a21f78a7cf1a{opacity:.52}</style></defs><g style="isolation:isolate"><g id="uuid-a5abe28a-1dda-4fb4-9f0e-4b79ca3d7a95" data-name="Capa 2"><path d="M511.14 0c282.3 0 511.15 228.85 511.14 511.15 0 282.3-228.84 511.14-511.14 511.14S0 793.44 0 511.15C0 228.85 228.84 0 511.14 0z" fill="url(#uuid-670f60ed-26ff-49cf-a105-bf3cdba556a3)" opacity=".6" stroke-width="0"/><path d="M497.81 88.28c233.54 0 422.88 189.33 422.88 422.87S731.35 934.02 497.81 934.02 74.95 744.69 74.95 511.15 264.27 88.28 497.82 88.28z" fill="#a8a9aa" opacity=".52" stroke-width="0"/><path d="M497.81 88.28c233.54 0 422.88 189.33 422.88 422.87S731.35 934.02 497.81 934.02 74.95 744.69 74.95 511.15 264.27 88.28 497.82 88.28z" fill="url(#uuid-6a44701e-7fb1-4629-b0d8-b4ec4466db96)" stroke-width="0"/><path class="uuid-5cdf471e-b550-426e-b1df-a21f78a7cf1a" d="M497.81 934.01h.01c8.46-2.36 15.75-8.45 12.53-17.56-3.25-9.23-7.16-4.08-13.59-7.5-11.78-6.27 2.72-11.45.67-21.8-6.23-1.08-11.85.04-16.17 4.78-.64-3.52.03-7.44.76-10.4 3.05-12.37 7.31-23.32 5.36-36.96-3.53-24.85-9.28 5.63-13.3 12.12-2.69-8.18-8.39-14.29-15.73-16.66-10.82-3.51-9.9-.3-14.84-11.46-3.46-7.81-5.97-14.04-16.76-10.51-7.47 2.45-10.05 10.59-18.57 12.47-.48-9.69 3.16-23.34-3.05-30.92-7.45-9.11-20.59-4.92-21.52 7.86-7.63.89-18.38.17-16.47-10.07 0 0-2.9-.02-2.83 0-1.12 20.37-17.61-3-21.63-1.14-3.44 1.62-.99 9.3-2.69 11.52-2.58 3.35-4.09.51-7.31 2.39-7.26 4.27-12.2 6.33-20.55 5.69-.48-1.1-.94-2.58-1.21-3.74 23.38-10.65 9.16-28.43 5.05-44.15-.72-2.81-3.24-1.63-3.09-5.3.22-6.13 6.11-11.62 7.29-17.69 1.84-9.45-.64-13.28-9.23-16.6-4.9-1.9-11.05-1.34-14.63-4.22-6.12-4.93-2.25-10.23-4.18-16.68-3.57-11.91-11.78-13.92-23.94-13.51-.45 13.05-.15 26.28-.07 39.37-.64-5.81-6-6.79-11.34-5.91-.32 6.06.79 12.79-.17 18.76-1.57 9.72-.31 8.07-8.54 6.91-4.47-.62-14.18-8.57-16.59-.56-1.44 4.79 2.88 7.99 7.25 8.32-.78 7.11 6.2 6.98 8.56 12.59 2.52 6-3.35 10.95-3.35 14.29 0 13.19 13.93 27.91-8.03 24.76-2.71-9.9-2.04-17.42-7.26-25.76-4.77-7.62-10.66-15.17-11.72-25.65-1.19-11.89 10.26-22.34 6.27-33.8-1.57-4.5-2.42-7.84-9.16-8.06-8.51-.27-5.04 5.09-5.62 13.96-22.01-.75-4.55 20.08-17.44 21.4-2.13 7.99 6.96 10.06 9 16.6 2.99 9.6-6.04 19.08-10.89 28.92 77.16 82.41 186.92 133.92 308.71 133.92z"/><path class="uuid-5cdf471e-b550-426e-b1df-a21f78a7cf1a" d="M190.1 801.17l14.76-22.37c5.78 6.3.05 20.7-1.84 28.27-2.28-.52-6.22-.47-7.92-.71.02.02.03.02.05.05 1.84.49 2.89 1.59 4.38 2.37-.29.29-.59.72-.88 1.22 1.62 1.62 3.28 3.21 4.92 4.81 1.35.31 2.69.65 4.01 1.01-.11.88-.12 1.8-.07 2.76 5.94 5.61 12.04 11.04 18.29 16.3.47-2.94.91-6 2.03-8.47.84-1.87.25-4.46 1.42-6.19 1.28-1.9 5.85-.42 6.77-1.9 6.24-10.09-1.65-17.8-3.73-27.29-1.38-6.33.89-14.7.2-21.3-.87-8.51-2.8-10.75 1.57-18.73-4.09-1.52-9.04-2.14-13.12-2.01 1.27-8.23 1.08-12.38-.12-20.17-.4-2.58.05-8.27-.98-10.09-2.86-4.99-9.88-4.34-10.85-10.39-9.21-2.86-6.32-9.48-10.34-16.05-3.36-5.47-10.79-5.08-12.51-9.92 17.06.1 24.12.62 29.36-19.06 3.67-13.79 1.02-14.64-10.02-18.27-4.01-9.85-15.32-3.25-16.86-16.88-2.44.61-6.92.34-9.22 1 1.42-13.53-8.99-26.4-5.75-40.89-5.84-2.26-15.25-4.67-22.04-5.35-3.57 13.75-5.43 18.87-17.61 26.66-.92-4.07-1.9-8.33-1.38-12.51 11.59 5.45 14.09-15.33 16.65-22.5 4.85-13.63 4.66-12.64 16.77-11.63 2.01-6.17 1.95-23.41 6.74-27.93 4.72-4.47 9.83.44 15.13-4.11 9.99-8.59.07-16.3 15.18-15.04 9.65.8 16.07 9.19 24.14 10.08 1.93-14.58 23.32-1.79 30.97.64 9.98 3.17 24.58 4.55 33.77 2.04 6.77-1.83 13.95-7.48 18.27-11.88 2.77-2.81 3.7-5.91 6.3-7.74.86-.62 6.05.01 8.1-1.13 1.74-.97 3.19-5.48 5.32-7.25 2.6-2.16 5.72-1.66 8.44-3.9 13.79-11.32 22.42-39.31 25.94-56.19-4.24 9.74-18.99 22.16-26.27 31.26-6.12 7.68-9.16 9.83-21.02 3.27-20.19-11.16-8.13-37.02-23.31-49.08-21.17-16.79-37.19 27.44-54.94 11.9-5.61-4.91-1.52-10.42-1.98-15.37-.9-9.66-6.79-19.55-18.2-19.53-.2.57-.42 1.14-.64 1.71-9.42-7.34 5.89-30.35-4.67-41.74-4.66 17.43-9.28 15.37-23.78 11.35-2.56 4.16-3.35 9.01-4.04 13.82-1.45-10.4-8.27-11.35-14.88-4.63-6.82 6.93-6.19 19.96-10.3 28.21-8.7-2.28-2.76-13.97-12.21-14.22-9.58 19.01-13.57 49.73-15.16 71.31-1.22.72-5.67 2.32-7.09 2.55-12.45-14.98-37.05-18.31-48.86-2.09a429.876 429.876 0 00-2.06 41.91c0 112.27 43.77 214.3 115.15 290.02z"/><g class="uuid-7a4d0756-1f50-49aa-9fb2-2d471c40c928"><path class="uuid-4169ae9d-3a28-4a74-a56a-6e2bf4d1d4ad" d="M367.65 281.29c-1.57 2.9-10.12 5.97-14.16 8.03-6.98 3.55-22.18 14.71-15.82 15.38 13.64 1.44 26.52-16.68 39.59-22.37 8.64-3.76 22.23-2.87 29.25-2.6 10.09.41 20.13-1.49 29.98-3.41 14.47-2.84 35.51-6.27 48.15 2.25 2.67 1.8 9.43 7.12 5.06 9.47-4.56 2.46-14.93 1.35-21.2 2.65-4.63.95-8.67 1.87-9.74 4.36-.63 1.5 2.95 2.49 2.75 3.7-.23 1.41-1.88 2.02-3.43 3.51-2.4 2.3-4.92 2.86-3.02 4.88 2.45 2.59 17.87 2.06 13.66 5.13-7.19 5.26-19.97 3.95-28.95 6.81-3.1.99-9.16 4.69-9.95 6.63-1.05 2.59 3.16 1.71 3.79 4.32.97 3.95-8.21 10.15-10.62 14.38-4.28 7.46.67 9.82 2.3 15.78.53 1.95-.34 3.89 1.85 4.81 2.31.97 5.1-.7 7.31.31 2.36 1.08 1.65 3.32 5.07 4.33 2.39.71 7.37 1.86 10.21 1.87 4.17.02 3.89-.31 6.96-2.44 4.49-3.13 5.51-3.9 12.13-5.52 11.28-2.77 11.71-6.33 18.32-11.39 2.24-1.71 8.32-6.52 11.44-5.54-3.95 2.54-6 7.18 2.97 7.47 2.35.07 4.93-2.01 7.44-2.23 3.09-.3 6.08.22 8.54 1.3-1.63 3.52-6.44 4.43-.49 7.3 2.23 1.08 7.41 2.15 10.41 2.73 4.83.93 5.67.38 10.12 2.64 4.83 2.45 9.67 4.95 14.44 7.26-1.49.75-3 1.55-4.44 2.33 9.27 8.58 23.98 3.07 34.62 5.81 6.24 1.6 12.34 9.18 12.01 12.12-.22 2.13-1.95 2.28-.71 4.73 1.15 2.28 5.3 4.47 6.52 6.91 2.53 5.07-2.12 8.21-8.24 5.88-8.59-3.27-12.09-6.93-17.16-12.32-1.41-1.52-5.28-6.17-8.25-6.44-2.24-.21-3.68 2.49-5.35 2.83-4.36.89-9.89-3.12-14.22-.65 3.13 4.77.97 5.59-1.89 6.98.78 1.86 1.39 3.79 1.28 5.59 2.58-1.48 6.19-2.59 9.22-3.77 7.58 5.75-1.73 7.26 4.63 12.27.84-.48 2.47-.39 3.32-1 5.7 4.28 1.86 5.33 1.79 9.42-.05 2.2.97 2.34 2.29 4.45 1.76 2.8 1.63 1.96 1.12 5.29-.86 5.62 4.22 11.12 4.54 16.6.33 5.43.48 14.61 6.87 17.24.22.1 2.21-.46 2.85-.31 1.2.28 1.75 1.93 2.93 2.11 4.12.61 2.13-1.63 1.39-4.08-.56-1.87-1.93-4.99-2.12-6.89-.24-2.42 1.9-4.2 2.49-6.29.83-2.96 1.65-8.4 6.5-4.77 1.88 1.4 1.39 4.11 3.92 5.15 2.12.88 4.92-.39 6.03-1.47 3.59 1.84 4.37 3.76 8.22 2.09 2.14-.92 2.8-3.09 5.89-2.67 2.99 4.74 4.74 9.02 3.26 13.29 6.86 1.63 1.39 23.48 4.13 26.9 3.18 3.96 7.88-.72 11.57-.63.82.03 1.96-.85 2.64-.56 1.83.81 2.28 4.5 3.77 4.94 2.17.64 2.12-1.36 3.86-1.96 3.64-1.25 7.54 1.9 10.98 1.15 4.48-.96 1.91-13.47 9.83-2.92 4.05 5.39 8.18 9.44 13.73 13.29 5.75 3.98 6.37.14 11.38.94 2.58.42 5.8 3.35 8.4 4.69 3.07 1.58 6.26 2.2 9.33 3.85.69-1.21 1.11-10.42-.9-12.7-.8-.92-3.67-1.46-4.6-1.79-2.86-7.91 1.63-3.45 4.44-5.46 2.9-2.07.65-7.06.23-10.99 2.53.68 5.79 2.51 8.21 2.81 3.43.42 5.35-.43 9.58 1.84 4.81 2.58 8.1 7.09 12.39 11.66 4.52 4.79 4.08 4.79 6.77 10.84 2.7 6.13 3.42 3.33 6.77 7.6 3.77 4.81 3.35 14.95 7.09 21.52 1.17 2.07 2.75 2.68 3.67 4.58 2.09 4.3 1.83 11.83 4.5 15.88 3.28 5 4.82.09 8.02 3.18 0 5.32-2.69 23.79 4.01 24.2 2.73.16 5.59-8.09 5.69-12.83.12-5.42-1.84-9.16-5.07-12.06.08-10.85 7.56 3.7 11.11.92 3.04-2.37 3.58-19.52 3.31-26.26-.43-10.92-7.17-13.23-6.85-23.65.13-3.99-.53-11.77.53-14.53 1.44-3.8 7.26-5.12 11.09-3.14 3.11 1.61 8.6 8.74 11.31 9.09 2.13.28 3.73-6.49 2.09-10.91-2.01-5.44-4.17-3.35-6.96-7.2-4.7-6.44-4-15.62-7.8-22.16-5.45-9.35-16.59-11.47-23.54-18.87-4.41-4.69-5.28-12.11-10.86-16.63-4.06-3.29-10.81-4.2-12.71-2.5-3.07-9.66-4.56-19.63-8.66-28.97-5.29-1.93-9.33 1.38-12.58 2.68-3.69 1.5-4.99 3.92-6.9 7.28-.92 1.59-1.38 4.46-4.35 3.21-2.34-4.93-6.64-16.99-12.78-20.87-2.24-1.42-3.85-1.16-5.87-1.52-1.68-.29-6.57.92-6.8.85-4.18-1.3-3.71-5.04-7.97-8.13-6.24-4.51-10.53-3.48-12.68-10.52 5.68-.07 10.83-.32 15.8-1.06 6.71-1.01 3.43-7.66-2.4-14.93-.58-.16-1.07-.14-1.62-.23-1.36-3.28 14.95-.45 18.16-1.52 7.19-2.39 5.07-8.24.05-16.53 8.5.52 19.06-3.71 18.32-9.69-1.3-10.49-13.13-20.62-22.15-27.01-1.69-1.22-4.28-1.21-5.77-2.76-2.12-2.2-.12-3.78-.69-5.51-1.38-4.14-6.79-10.38-10.45-14.89-3.85-4.73-6.24-8.95-10.2-13.66-1.73-2.04-6.62-8.27-10.43-9.94-4.82-2.12-7.36-.99-11.59-.81-11.57.49-19.06-7.45-27.26-14.28-4 .4-8.98 2.28-13.49 2.11-5.18-.2-.91-.06-6.72-1.55-10.47-2.69-16.59-2.08-27.16-5.1-13.29-3.8-26.7-4.4-21.43 2.53 5.97 7.83 1.85 5.37-13.61 4.9-4.47-.14-8.46.47-12.29.39-7.03-.15-13.87-1.83-20.64-.26-7.72 1.79-9.17 5.78-12.83 8.4-5.86 4.2-11.25 4.45-19.57 7.24-5.58 1.87-3.46 3.16-4.51 4.63-1.18 1.65-1.8 2.22-5.45 4.52-20.03-4.36-41.78-.19-61.31 3.13-14.69 2.5-35.87.42-47.07 12.69 3.99-.31 11.77-2.25 10.09.86z"/></g><g class="uuid-7a4d0756-1f50-49aa-9fb2-2d471c40c928"><path class="uuid-4169ae9d-3a28-4a74-a56a-6e2bf4d1d4ad" d="M367.65 281.29c-1.57 2.9-10.12 5.97-14.16 8.03-6.98 3.55-22.18 14.71-15.82 15.38 13.64 1.44 26.52-16.68 39.59-22.37 8.64-3.76 22.23-2.87 29.25-2.6 10.09.41 20.13-1.49 29.98-3.41 14.47-2.84 35.51-6.27 48.15 2.25 2.67 1.8 9.43 7.12 5.06 9.47-4.56 2.46-14.93 1.35-21.2 2.65-4.63.95-8.67 1.87-9.74 4.36-.63 1.5 2.95 2.49 2.75 3.7-.23 1.41-1.88 2.02-3.43 3.51-2.4 2.3-4.92 2.86-3.02 4.88 2.45 2.59 17.87 2.06 13.66 5.13-7.19 5.26-19.97 3.95-28.95 6.81-3.1.99-9.16 4.69-9.95 6.63-1.05 2.59 3.16 1.71 3.79 4.32.97 3.95-8.21 10.15-10.62 14.38-4.28 7.46.67 9.82 2.3 15.78.53 1.95-.34 3.89 1.85 4.81 2.31.97 5.1-.7 7.31.31 2.36 1.08 1.65 3.32 5.07 4.33 2.39.71 7.37 1.86 10.21 1.87 4.17.02 3.89-.31 6.96-2.44 4.49-3.13 5.51-3.9 12.13-5.52 11.28-2.77 11.71-6.33 18.32-11.39 2.24-1.71 8.32-6.52 11.44-5.54-3.95 2.54-6 7.18 2.97 7.47 2.35.07 4.93-2.01 7.44-2.23 3.09-.3 6.08.22 8.54 1.3-1.63 3.52-6.44 4.43-.49 7.3 2.23 1.08 7.41 2.15 10.41 2.73 4.83.93 5.67.38 10.12 2.64 4.83 2.45 9.67 4.95 14.44 7.26-1.49.75-3 1.55-4.44 2.33 9.27 8.58 23.98 3.07 34.62 5.81 6.24 1.6 12.34 9.18 12.01 12.12-.22 2.13-1.95 2.28-.71 4.73 1.15 2.28 5.3 4.47 6.52 6.91 2.53 5.07-2.12 8.21-8.24 5.88-8.59-3.27-12.09-6.93-17.16-12.32-1.41-1.52-5.28-6.17-8.25-6.44-2.24-.21-3.68 2.49-5.35 2.83-4.36.89-9.89-3.12-14.22-.65 3.13 4.77.97 5.59-1.89 6.98.78 1.86 1.39 3.79 1.28 5.59 2.58-1.48 6.19-2.59 9.22-3.77 7.58 5.75-1.73 7.26 4.63 12.27.84-.48 2.47-.39 3.32-1 5.7 4.28 1.86 5.33 1.79 9.42-.05 2.2.97 2.34 2.29 4.45 1.76 2.8 1.63 1.96 1.12 5.29-.86 5.62 4.22 11.12 4.54 16.6.33 5.43.48 14.61 6.87 17.24.22.1 2.21-.46 2.85-.31 1.2.28 1.75 1.93 2.93 2.11 4.12.61 2.13-1.63 1.39-4.08-.56-1.87-1.93-4.99-2.12-6.89-.24-2.42 1.9-4.2 2.49-6.29.83-2.96 1.65-8.4 6.5-4.77 1.88 1.4 1.39 4.11 3.92 5.15 2.12.88 4.92-.39 6.03-1.47 3.59 1.84 4.37 3.76 8.22 2.09 2.14-.92 2.8-3.09 5.89-2.67 2.99 4.74 4.74 9.02 3.26 13.29 6.86 1.63 1.39 23.48 4.13 26.9 3.18 3.96 7.88-.72 11.57-.63.82.03 1.96-.85 2.64-.56 1.83.81 2.28 4.5 3.77 4.94 2.17.64 2.12-1.36 3.86-1.96 3.64-1.25 7.54 1.9 10.98 1.15 4.48-.96 1.91-13.47 9.83-2.92 4.05 5.39 8.18 9.44 13.73 13.29 5.75 3.98 6.37.14 11.38.94 2.58.42 5.8 3.35 8.4 4.69 3.07 1.58 6.26 2.2 9.33 3.85.69-1.21 1.11-10.42-.9-12.7-.8-.92-3.67-1.46-4.6-1.79-2.86-7.91 1.63-3.45 4.44-5.46 2.9-2.07.65-7.06.23-10.99 2.53.68 5.79 2.51 8.21 2.81 3.43.42 5.35-.43 9.58 1.84 4.81 2.58 8.1 7.09 12.39 11.66 4.52 4.79 4.08 4.79 6.77 10.84 2.7 6.13 3.42 3.33 6.77 7.6 3.77 4.81 3.35 14.95 7.09 21.52 1.17 2.07 2.75 2.68 3.67 4.58 2.09 4.3 1.83 11.83 4.5 15.88 3.28 5 4.82.09 8.02 3.18 0 5.32-2.69 23.79 4.01 24.2 2.73.16 5.59-8.09 5.69-12.83.12-5.42-1.84-9.16-5.07-12.06.08-10.85 7.56 3.7 11.11.92 3.04-2.37 3.58-19.52 3.31-26.26-.43-10.92-7.17-13.23-6.85-23.65.13-3.99-.53-11.77.53-14.53 1.44-3.8 7.26-5.12 11.09-3.14 3.11 1.61 8.6 8.74 11.31 9.09 2.13.28 3.73-6.49 2.09-10.91-2.01-5.44-4.17-3.35-6.96-7.2-4.7-6.44-4-15.62-7.8-22.16-5.45-9.35-16.59-11.47-23.54-18.87-4.41-4.69-5.28-12.11-10.86-16.63-4.06-3.29-10.81-4.2-12.71-2.5-3.07-9.66-4.56-19.63-8.66-28.97-5.29-1.93-9.33 1.38-12.58 2.68-3.69 1.5-4.99 3.92-6.9 7.28-.92 1.59-1.38 4.46-4.35 3.21-2.34-4.93-6.64-16.99-12.78-20.87-2.24-1.42-3.85-1.16-5.87-1.52-1.68-.29-6.57.92-6.8.85-4.18-1.3-3.71-5.04-7.97-8.13-6.24-4.51-10.53-3.48-12.68-10.52 5.68-.07 10.83-.32 15.8-1.06 6.71-1.01 3.43-7.66-2.4-14.93-.58-.16-1.07-.14-1.62-.23-1.36-3.28 14.95-.45 18.16-1.52 7.19-2.39 5.07-8.24.05-16.53 8.5.52 19.06-3.71 18.32-9.69-1.3-10.49-13.13-20.62-22.15-27.01-1.69-1.22-4.28-1.21-5.77-2.76-2.12-2.2-.12-3.78-.69-5.51-1.38-4.14-6.79-10.38-10.45-14.89-3.85-4.73-6.24-8.95-10.2-13.66-1.73-2.04-6.62-8.27-10.43-9.94-4.82-2.12-7.36-.99-11.59-.81-11.57.49-19.06-7.45-27.26-14.28-4 .4-8.98 2.28-13.49 2.11-5.18-.2-.91-.06-6.72-1.55-10.47-2.69-16.59-2.08-27.16-5.1-13.29-3.8-26.7-4.4-21.43 2.53 5.97 7.83 1.85 5.37-13.61 4.9-4.47-.14-8.46.47-12.29.39-7.03-.15-13.87-1.83-20.64-.26-7.72 1.79-9.17 5.78-12.83 8.4-5.86 4.2-11.25 4.45-19.57 7.24-5.58 1.87-3.46 3.16-4.51 4.63-1.18 1.65-1.8 2.22-5.45 4.52-20.03-4.36-41.78-.19-61.31 3.13-14.69 2.5-35.87.42-47.07 12.69 3.99-.31 11.77-2.25 10.09.86z"/></g><g class="uuid-7a4d0756-1f50-49aa-9fb2-2d471c40c928"><path class="uuid-4169ae9d-3a28-4a74-a56a-6e2bf4d1d4ad" d="M504.66 668.03c1.76-1.05 7.26.07 10.06.27 4.83.34 16.45-.7 13.29-3.08-6.77-5.12-19.38.34-28.11-.81-5.78-.78-12.68-5.59-16.31-7.97-5.21-3.44-11.13-5.65-16.96-7.77-8.57-3.12-20.8-8.02-24.77-16.59-.84-1.8-2.72-6.78.35-6.63 3.21.15 8.34 4.05 12.07 5.38 2.76.97 5.18 1.78 6.54.8.81-.59-.76-2.27-.26-2.84.57-.67 1.64-.48 2.94-.76 2.01-.45 3.51.07 3.16-1.63-.47-2.15-8.81-6.79-5.6-7.08 5.48-.49 11.84 4.28 17.5 5.65 1.97.48 6.35.44 7.39-.32 1.38-1.05-1.13-1.91-.63-3.51.75-2.4 7.59-2.74 10.21-4.21 4.65-2.59 2.78-5.42 3.83-9.09.34-1.21 1.42-1.95.56-3.13-.92-1.26-2.93-1.26-3.77-2.5-.91-1.35.2-2.3-1.3-3.92-1.05-1.13-3.32-3.34-4.81-4.25-2.2-1.35-2.16-1.08-4.47-.92-3.38.2-4.17.29-8.18-.97-6.86-2.13-8.22-.38-13.35.18-1.73.2-6.49.79-7.83-.72 2.91-.1 5.48-1.89.82-4.91-1.22-.78-3.25-.51-4.65-1.19-1.74-.83-3.16-2.06-4.11-3.42 1.99-1.35 4.82-.29 2.6-3.71-.84-1.28-3.24-3.51-4.63-4.77-2.26-2.04-2.9-2.01-4.52-4.63-1.76-2.85-3.54-5.72-5.32-8.46 1.03.08 2.09.14 3.09.18-2.17-7.51-11.72-9.29-16.47-14.14-2.79-2.84-3.59-8.79-2.48-10.25.8-1.06 1.75-.59 1.89-2.28.12-1.57-1.38-4.06-1.24-5.73.28-3.51 3.75-3.68 6.24-.48 3.5 4.48 4.18 7.53 5.14 12 .27 1.26.83 4.96 2.32 6.05 1.12.83 2.73-.13 3.73.22 2.59.92 4.24 4.81 7.31 4.88-.13-3.51 1.28-3.26 3.24-3.08.18-1.24.47-2.45 1.11-3.37-1.84-.05-4.11-.62-6.09-.95-2.16-5.47 3.24-3.29 1.47-7.97-.6-.03-1.43-.59-2.08-.54-1.65-4.09.72-3.42 2.08-5.56.71-1.15.21-1.55.19-3.08-.03-2.06-.25-1.57 1.11-3.16 2.26-2.71 1.31-7.23 2.89-10.24 1.57-2.97 4.42-7.89 1.88-11.32-.08-.12-1.31-.46-1.6-.74-.55-.53-.31-1.58-.89-2.06-1.98-1.65-1.63.19-2.03 1.71-.31 1.17-.58 3.27-1.08 4.33-.64 1.36-2.36 1.62-3.34 2.53-1.38 1.3-3.55 3.92-4.96.44-.55-1.33.59-2.61-.42-3.97-.85-1.14-2.74-1.37-3.67-1.15-1.31-2.12-1.11-3.38-3.68-3.73-1.44-.19-2.47.75-3.97-.46-.07-3.46.37-6.3 2.52-8.08-3.1-3.06 6.77-12.87 6.41-15.56-.42-3.11-4.41-2.13-6.32-3.37-.43-.28-1.32-.18-1.57-.54-.71-1.01.23-3.1-.42-3.82-.95-1.03-1.56.04-2.67-.2-2.33-.5-3.39-3.4-5.45-4.11-2.67-.92-5.31 6.52-6.14-1.6-.42-4.14-1.32-7.61-3.02-11.41-1.76-3.95-3.32-2.12-5.71-4.14-1.24-1.05-2.01-3.62-2.95-5.17-1.12-1.82-2.61-3.17-3.71-5.02-.75.41-3.92 5.16-3.59 7.01.14.74 1.48 1.94 1.87 2.42-1.02 5.1-1.96 1.31-4.1 1.47-2.2.17-2.61 3.53-3.64 5.74-1.12-1.16-2.26-3.17-3.45-4.11-1.68-1.32-2.96-1.48-4.47-4.04-1.72-2.89-2.03-6.35-2.84-10.13-.85-3.98-.62-3.84-.11-7.89.53-4.11-.75-2.87-1.16-6.19-.46-3.75 3-8.98 3.12-13.66.04-1.46-.6-2.3-.48-3.59.26-2.95 2.8-6.85 2.69-9.85-.13-3.7-2.53-1.59-3.23-4.25 1.7-2.81 9.03-11.74 5.61-14.09-1.39-.97-5.53 2.5-7.11 4.97-1.79 2.83-1.95 5.43-1.17 8-3.51 5.71-2.83-4.37-5.59-4.03-2.37.28-8.13 9.18-10.15 12.83-3.26 5.93-.44 9.3-3.94 14.72-1.34 2.07-3.48 6.4-4.92 7.52-1.98 1.56-5.48.4-6.87-1.87-1.14-1.84-1.76-7.38-3.08-8.43-1.05-.83-4.06 2.25-4.6 5.1-.68 3.53 1.14 3.1 1.39 6.03.42 4.92-2.88 9.55-2.95 14.23-.11 6.68 5.11 11.37 6.42 17.5.84 3.9-1.08 8.1.43 12.27 1.11 3.05 4.38 5.68 5.94 5.4-1.47 6.1-3.86 11.85-4.68 18.1 2.17 2.71 5.37 2.26 7.51 2.59 2.43.4 3.89-.48 5.97-1.64.99-.55 2.16-1.91 3.33-.31-.34 3.35-1.92 11.12.09 15.13.74 1.46 1.67 1.84 2.64 2.69.79.68 3.76 1.61 3.86 1.71 1.81 2.03.36 3.86 1.63 6.86 1.87 4.39 4.46 5.2 3.35 9.62-3.02-1.79-5.83-3.29-8.7-4.49-3.87-1.61-4.25 2.95-3.49 8.67.26.27.52.41.78.64-.33 2.17-8.06-4.54-10.1-5.01-4.57-1.03-5.32 2.75-5.32 8.73-4.33-2.98-11.27-4.13-12.79-.72-2.66 5.97.37 15.12 3.09 21.37.51 1.2 1.88 2.01 2.18 3.32.41 1.84-1.15 2.04-1.41 3.13-.58 2.63.27 7.67.78 11.23.53 3.73.45 6.74 1.04 10.49.25 1.63.86 6.49 2.34 8.59 1.87 2.66 3.58 2.88 5.87 4.14 6.28 3.43 7.71 10.04 9.86 16.27 2.24 1.07 5.48 1.66 7.82 3.19 2.68 1.77.46.34 3.06 2.97 4.69 4.77 8.11 6.41 12.75 11.38 5.81 6.26 12.72 10.86 12.15 5.51-.65-6.06.74-3.43 8.78 1.76 2.31 1.51 4.62 2.46 6.63 3.73 3.68 2.32 6.75 5.39 10.84 6.74 4.67 1.52 6.71-.13 9.49-.35 4.44-.36 7.37 1.24 12.66 2.41 3.56.81 2.85-.55 3.87-1 1.16-.51 1.65-.59 4.33-.64 9.21 8.69 22.06 13.45 33.46 17.93 8.56 3.36 19.12 11.25 28.98 8.32-2.21-1.1-6.95-2.58-5.07-3.68z"/></g><g class="uuid-3319db6a-d45d-4db5-a10a-57d3e6d2b111"><path class="uuid-4169ae9d-3a28-4a74-a56a-6e2bf4d1d4ad" d="M790.74 448.43c-2.61.01-3.62-3.8-4.58-5.47-1.68-2.89-6.71-9.3-10.62-4.88-6.08 6.86 10.07 11.82 12.05 15.91 1.84 3.83-.95 11.08-2.01 14.93-1.6 5.78-.86 8.37 1.47 14.45 2.89 7.54 5.59 17.88.12 24.83-1.71 2.17-6.06 7.75-9.16 6.72-3.23-1.09-3.32-6.73-5.16-9.36-1.37-1.95-2.51-3.67-5.19-3.21-1.6.28-2.45 2.56-3.74 2.95-1.49.47-2.23-.16-3.85-.39-2.52-.35-3.19-1.52-5.24.32-2.64 2.36-.06 10.2-4.57 9.51-5-.75-5.57-10.42-8.13-13.51-1.16-1.41-4.61-3.63-6.59-3.44-2.67.26-1.96 2.45-4.74 3.74-4.19 1.94-10.19-1.55-14.44-1.73-7.47-.31-10.38 3.47-16.79 6.31-2.1.93-4.08.94-5.23 2.65-1.19 1.82.39 3.16-.78 4.92-1.27 1.91-3.62 2.13-4.79 4.76-.81 1.8-2.06 5.52-2.03 7.42.04 2.8.4 2.52 2.82 3.78 3.52 1.86 4.36 2.23 6.73 5.83 4.05 6.14 8.05 4.9 14.47 6.64 2.17.61 8.32 1.98 7.97 4.2-3.49-1.08-8.87-.19-7.11 5.16.46 1.39 3.24 1.91 4.12 3.21 1.09 1.61 1.38 3.51 1 5.43-4.07.85-6.43-1.47-7.59 3.35-.44 1.81.1 5.29.54 7.26.71 3.17 1.57 3.34 1.02 6.96-.59 3.95-1.05 7.94-1.16 11.75-1.38-.34-2.83-.7-4.22-1.03-5.06 9.58 9.03 14.43 11.88 20.81 1.85 4.17-.89 11.44-3.64 13.27-1.99 1.35-3.21.66-4.55 2.86-1.24 2.05-.41 5.38-1.64 7.6-2.58 4.63-8.41 4.85-10.46.36-2.89-6.32-1.73-10.62.24-16.66.56-1.7 2.69-6.61 1.34-8.34-1-1.3-4.27-.4-5.47-1.11-3.12-1.81-1.99-7.31-6.41-8.4-3.16 4.58-4.95 3.84-7.65 2.91-1.44 1.55-2.99 3.06-4.79 4.06 2.69.72 5.56 2.22 8.25 3.26-1.55 7.89-7.95 3.37-9 10.33.91.21 1.76 1.23 2.8 1.33-.67 6.06-3.8 4.51-7.55 7.17-2.01 1.41-1.52 2.13-2.58 4.33-1.41 2.94-.72 2.3-3.99 4.27-5.52 3.34-6.87 10.37-11.25 14.59-4.35 4.19-11.87 11.4-8.83 17.6.1.22 2.14 1.05 2.53 1.55.75.98-.06 2.66.79 3.54 2.92 3.03 2.95-.07 4.2-2.49.96-1.85 2.3-5.15 3.63-6.76 1.7-2.04 4.77-2.19 6.87-3.47 2.98-1.8 7.82-5.48 8.73-.14.34 2.06-2.12 3.93-.9 6.05 1.03 1.78 4.25 2.14 5.95 1.81 1.53 3.18.84 5.1 5.23 5.44 2.43.18 4.49-1.27 6.79.3-.8 5.05-2.08 9.3-6.13 12.33 5.01 4.08-12.9 21.36-12.02 25.59 1.02 4.88 8.06 2.07 11.65 3.26.8.27 2.36-.21 2.87.25 1.41 1.27.12 4.81 1.41 5.59 1.87 1.16 2.74-.72 4.74-.86 4.21-.29 6.74 3.37 10.52 3.29 4.91-.1 7.5-11.49 11.11-1.14 1.84 5.29 4.61 9.3 9.11 12.92 4.66 3.74 6.54.36 11.49 1.02 2.55.32 5.04 2.72 7.4 3.71 2.78 1.18 5.97 1.47 8.79 2.54 1.03-1.05 3.85-8.55 2.46-10.29-.56-.7-3.35-1-4.21-1.24-.51-6.38 2.75-2.87 6.29-4.61 3.64-1.79 3.02-5.7 4.03-8.81 2.3.49 4.93 1.81 7.28 1.93 3.32.17 5.53-.61 9.09.78 4.04 1.59 6.03 4.66 9.25 7.45 3.38 2.96 2.91 2.99 4.39 6.95 1.51 4 2.84 1.83 5.57 4.2 3.08 2.64 1.17 9.91 4.51 13.43 1.05 1.1 2.68 1.08 3.51 2.1 1.89 2.32 1.3 7.4 4.06 9.17 3.43 2.17 5.11-1.52 8.48-.69 0 3.35-1.8 15.67 5.29 13.21 2.89-.99 5.26-6.93 5.19-9.77-.08-3.25-2.17-4.79-5.58-5.45.12-6.76 7.99-.47 11.75-3.4 3.21-2.5 4.36-12.95 4.68-17.03.53-6.57-6.19-6.16-4.04-12.97.81-2.61 1.72-7.49 3.41-9.53 2.34-2.8 8.62-4.98 12.11-4.66 2.84.25 7.07 3.23 9.81 2.7 2.16-.42 5.1-4.94 4.39-7.23-.87-2.8-3.56-.97-5.46-2.69-3.22-2.91 0-8.81-1.64-12.34-2.77-5.92-12.7-4.03-16.51-8.62-2.31-2.77-.1-7.49-3.31-10.11-2.34-1.9-8.19-2.12-10.8-.83 1.41-6.86 6.02-12.92 7.33-19.68-3.59-1.3-9.02.92-12.64 1.73-4.11.97-6.68 2.62-10.29 4.92-1.72 1.09-3.79 3.12-5.71 2.11.77-3.59 4.36-12.31 1.73-15.56-.95-1.17-2.45-1.17-3.9-1.63-1.19-.37-6-.09-6.14-.17-2.57-1.41.34-4-.87-6.77-1.79-4.05-5.81-4.12-2.21-9.35 4.31.98 8.46 1.61 12.86 1.79 5.93.25 7.99-4.73 9.06-10.46-.31-.21-.69-.26-1.04-.4 1.43-2.42 11.61 1.68 14.85 1.32 7.23-.81 9.68-4.93 12.12-10.92 5.92 1.28 16.17-.34 20.83-4.61 4.73-4.33 5.95-13.59 4.74-19.36-.2-.97-1.95-1.29-1.7-2.46.36-1.65 2.97-2.37 4-3.54 2.45-2.76 4.13-7.36 5.63-10.67 1.6-3.49 3.75-6.43 5.51-9.92.77-1.52 3.39-6.08 2.76-7.77-.8-2.12-3.17-1.92-5.57-2.68-7.84-2.51-2.26-8.73-.41-14.29-2.23-.72-6.24-.89-8.04-2.17-2.06-1.46-.38-.24-1.38-2.66-1.81-4.33-4.76-5.76-5.48-10.65-.92-6.14-4.14-11-9.51-5.56-6.05 6.14-5.12 3.61-8.8-2.23-1.06-1.69-2.68-2.86-3.51-4.36-1.51-2.73-1.21-6.22-4.05-8.2-3.24-2.24-7.53-1-10.8-1.33-5.21-.54-6.19-2.78-9.88-5.34-2.47-1.71-3.61-.18-5.23-.03-1.83.18-2.48.15-5.13-.6 2.93-9.07-.22-20.36-1.68-29.43-.92-5.74 4.36-19.51-4.22-21.06-.7 2.09-.53 5.74-3.32 5.75z"/></g><g class="uuid-3319db6a-d45d-4db5-a10a-57d3e6d2b111"><path class="uuid-4169ae9d-3a28-4a74-a56a-6e2bf4d1d4ad" d="M273.69 584.93c-.42.56-1.43.14-1.95.08-.9-.11-3.13-.1-2.83 1.51.48 2.46 4.25-.23 5.46.02 1.14.23 2.25 2.04 2.92 2.91.98 1.3 1.68 1.57 3.38 2.08 2.12.62 4.82 1.76 5.42 4.1.18.74.67 2.61-.07 3.11-.77.53-2.01-.39-2.88-.43-.65-.04-1.22-.07-1.57.59-.2.4.15.97.02 1.3-.15.4-.4.45-.72.78-.49.49-.86.44-.81 1.2.08.97 2.21 1.71 1.32 2.57-1 .95-3.2-.52-4.3-.48-.5.01-1.55.4-1.84.86-.38.62.21.84.03 1.65-.27 1.22-2.04 1.95-2.77 2.85-1.31 1.57-.97 2.83-1.42 4.69-.15.62-.48 1.05-.29 1.57.19.57.75.45.94 1 .21.59-.14 1.15.23 1.83.26.48.86 1.37 1.28 1.68.61.45.61.32 1.3.01.98-.45 1.2-.58 2.38-.49 2.01.13 2.4-.94 3.84-2.03.5-.39 1.82-1.49 2.25-1.05-.81.58-1.52 1.9-.06 2.41.37.13.95-.38 1.38-.36.53.03 1 .29 1.34.68-.49 1.02-1.39 1.15-.53 2.21.31.4 1.16.86 1.67 1.08.81.38.98.22 1.68.94.76.79 1.54 1.55 2.36 2.2-.31.25-.62.51-.92.75 1.24 2.68 4.63.44 6.49.87 1.22.29 2.34 2.09 2.28 2.99-.04.66-.4.81-.14 1.47.24.62 1.1.98 1.38 1.63.57 1.32-.34 2.63-1.66 2.32-1.84-.41-2.59-1.38-3.58-2.81-.28-.41-1-1.69-1.6-1.68-.45 0-.79.85-1.15 1-.91.37-1.92-.78-2.88 0 .47 1.46 0 1.71-.64 2.15.1.56.17 1.16.08 1.71.6-.46 1.41-.83 2.09-1.25 1.46 1.64-.59 2.28.74 3.67.2-.17.56-.17.76-.39 1.2 1.16.34 1.58.3 2.83-.02.67.21.69.52 1.28.4.8.37.54.26 1.58-.2 1.76 1.11 3.21 1.31 4.86.18 1.64.5 4.48 2.35 4.85.07.01.58-.3.76-.3.34 0 .57.45.9.42 1.14-.13.48-.64.16-1.32-.25-.53-.75-1.37-.87-1.93-.16-.7.32-1.39.39-2.06.11-.96.11-2.62 1.42-1.93.51.27.51 1.11 1.16 1.2.56.07 1.17-.57 1.38-1 .94.2 1.25.67 2.05-.23.45-.5.47-1.19 1.19-1.43.96 1.02 1.67 2 1.66 3.39 1.73-.41 2.5 6.35 3.57 6.87 1.23.59 1.79-1.41 2.64-1.99.2-.12.34-.55.53-.58.5-.1 1.06.78 1.45.62.57-.22.3-.71.6-1.18.63-.97 1.85-.92 2.46-1.74.8-1.08-1.24-3.53 1.6-2.6 1.46.48 2.79.54 4.33.16 1.59-.38 1.16-1.35 2.13-2.33.49-.5 1.43-.64 2.04-1 .72-.4 1.3-1.05 2.01-1.49-.05-.4-1.22-2.26-1.82-2.24-.24.01-.78.56-.97.71-1.47-.94-.17-1.07.04-2.13.22-1.1-.73-1.61-1.25-2.35.49-.41 1.22-.77 1.63-1.26.59-.7.8-1.29 1.69-1.84 1.01-.61 2.01-.53 3.16-.76 1.2-.24 1.13-.14 2.23.19 1.12.35.87-.31 1.84-.51 1.08-.22 2.34 1.39 3.67 1.27.41-.05.67-.4 1.03-.42.82-.04 1.83.94 2.67.64 1.05-.38.52-1.37 1.27-1.95.72.54 3.1 2.99 3.74 1.02.27-.78-.62-2.29-1.26-2.75-.72-.53-1.4-.32-2.12.31-1.44-1.16 1.23-1.82 1.22-3.13 0-1.11-2.09-3.1-2.92-3.84-1.35-1.21-2.37.31-3.49-1.29-.43-.61-1.34-1.61-1.5-2.32-.23-.98.34-2.71 1-3.4.53-.58 1.89-1 2.22-1.69.26-.53-.23-1.92-.83-2.14-.75-.29-.81.61-1.5.73-1.16.2-1.91-1.47-2.96-1.7-1.75-.37-2.99 2.09-4.61 2.15-.98.04-1.65-1.23-2.75-.96-.81.2-1.82 1.43-1.98 2.21-1.25-1.46-1.81-3.46-3.06-4.86-.87.56-1.3 2.1-1.72 3.03-.47 1.05-.54 1.88-.64 3.05-.04.56.05 1.34-.49 1.59-.65-.76-1.95-2.99-3.09-2.96-.42 0-.66.34-1 .57-.29.2-1.01 1.29-1.06 1.32-.73.31-.81-.74-1.61-.94-1.18-.29-1.86.58-2.4-1.07.93-.78 1.76-1.57 2.53-2.5 1.04-1.25.3-2.53-.77-3.7-.1.03-.17.1-.26.16-.29-.72 2.29-2.25 2.75-3.01 1.02-1.71.54-2.93-.35-4.45 1.26-1.08 2.61-3.57 2.45-5.3-.15-1.74-1.96-3.54-3.42-4.25-.24-.1-.6.22-.81-.03-.3-.36-.02-1.04-.11-1.46-.19-1-.92-2.12-1.38-2.99-.5-.93-.78-1.88-1.24-2.85-.21-.43-.76-1.74-1.23-1.9-.59-.18-.94.37-1.51.77-1.85 1.28-2.27-.95-3.17-2.28-.53.34-1.24 1.21-1.81 1.38-.66.2-.12.04-.81-.13-1.24-.33-2.04.07-3.23-.58-1.49-.83-3.08-.94-2.78 1.13.32 2.34-.07 1.71-1.95 1.55-.53-.05-1.07.1-1.52.04-.84-.13-1.56-.79-2.46-.49-1.02.32-1.46 1.47-2.08 2.13-.99 1.04-1.64.87-2.8 1.26-.78.25-.64.75-.89 1.13-.26.43-.37.56-.97 1.01-1.49-2.14-4.46-3.33-6.68-4.53-1.41-.76-3.52-4.19-5.28-2.58.33.49 1.16 1.07.69 1.68z"/></g><g class="uuid-3319db6a-d45d-4db5-a10a-57d3e6d2b111"><path class="uuid-4169ae9d-3a28-4a74-a56a-6e2bf4d1d4ad" d="M158.08 569.57c-.16.2-.53.07-.72.04-.33-.05-1.14-.04-1.02.54.18.91 1.55-.07 1.99.01.41.08.81.75 1.05 1.05.37.48.62.59 1.24.76.78.23 1.76.64 1.98 1.5.07.27.25.95-.02 1.13-.29.19-.73-.15-1.05-.17-.23 0-.44-.01-.57.23-.08.14.06.34.01.46-.06.15-.15.17-.26.29-.19.18-.31.17-.3.44.03.34.81.61.48.94-.37.35-1.17-.19-1.57-.18-.18 0-.57.14-.67.31-.15.23.07.31 0 .61-.1.45-.74.7-1.01 1.03-.48.58-.35 1.04-.51 1.71-.06.23-.18.39-.11.58.07.21.28.17.34.36.07.22-.05.42.09.67.1.17.31.49.47.62.22.15.22.11.47 0 .36-.17.44-.22.87-.18.73.05.87-.35 1.41-.75.18-.15.66-.54.81-.37-.29.2-.55.68-.02.87.14.05.34-.14.5-.14.19.01.37.12.49.26-.18.37-.51.43-.2.81.12.14.43.32.61.4.29.14.35.08.61.34.28.29.57.56.86.81-.11.09-.23.18-.34.27.45.98 1.69.15 2.36.32.45.1.86.76.84 1.08-.01.24-.15.29-.05.54.09.22.4.34.5.59.21.48-.12.95-.6.83-.68-.14-.94-.5-1.3-1.02-.1-.14-.37-.62-.58-.62-.17 0-.29.31-.43.37-.33.14-.69-.29-1.05 0 .16.51 0 .61-.23.78.04.21.06.42.02.63.23-.17.52-.31.76-.45.53.59-.22.83.27 1.33.07-.05.2-.07.28-.13.45.41.13.57.11 1.03 0 .24.08.24.19.45.15.29.14.2.1.58-.07.64.4 1.17.48 1.78.07.61.18 1.64.86 1.76.03 0 .21-.1.28-.1.12 0 .2.15.33.15.41-.04.18-.23.06-.48-.09-.19-.27-.49-.31-.7-.06-.27.12-.51.14-.76.04-.33.04-.95.52-.7.18.1.18.4.43.44.2.03.42-.2.5-.36.34.07.45.23.75-.09.16-.18.17-.43.43-.51.35.37.61.72.6 1.22.64-.14.92 2.32 1.3 2.52.45.21.65-.52.97-.74.07-.05.12-.19.19-.21.19-.04.4.29.53.23.2-.08.11-.27.22-.44.23-.35.67-.32.89-.63.29-.4-.46-1.29.59-.94.53.17 1.02.2 1.58.05.57-.14.42-.49.76-.84.19-.2.53-.25.75-.37.26-.15.48-.37.73-.53-.02-.15-.44-.82-.67-.82-.09 0-.29.2-.35.26-.53-.35-.07-.39.01-.78.08-.4-.27-.59-.45-.85.18-.15.45-.29.59-.47.22-.26.29-.48.62-.67.37-.23.74-.21 1.14-.29.44-.09.42-.05.83.07.41.13.31-.1.67-.18.4-.07.86.52 1.34.47.15-.03.25-.15.38-.15.3-.01.67.34.97.23.38-.14.2-.5.47-.71.26.2 1.14 1.1 1.36.37.1-.28-.23-.83-.45-1-.26-.18-.52-.12-.78.12-.53-.43.45-.66.45-1.14 0-.41-.77-1.14-1.07-1.41-.48-.44-.86.12-1.27-.47-.15-.23-.48-.58-.55-.85-.07-.34.13-.98.37-1.24.19-.21.69-.37.81-.62.1-.2-.09-.7-.31-.79-.27-.09-.29.22-.54.29-.42.07-.7-.54-1.08-.64-.64-.12-1.09.78-1.68.81-.36 0-.61-.45-1-.37-.29.08-.67.53-.72.81-.45-.52-.67-1.27-1.11-1.77-.32.2-.48.76-.63 1.11-.17.39-.2.68-.23 1.11-.01.2.01.49-.18.59-.25-.29-.72-1.1-1.13-1.08-.15 0-.25.12-.37.2-.11.07-.38.48-.39.48-.26.13-.3-.26-.59-.34-.42-.1-.68.2-.87-.39.34-.28.64-.58.92-.92.37-.45.11-.91-.29-1.34-.03.01-.07.03-.09.05-.11-.27.83-.83 1-1.1.37-.61.2-1.07-.12-1.63.45-.38.95-1.3.9-1.92-.06-.64-.72-1.3-1.25-1.56-.09-.04-.22.07-.3-.01-.1-.13 0-.37-.04-.53-.07-.37-.34-.78-.51-1.1-.18-.34-.28-.68-.45-1.03-.09-.15-.28-.64-.45-.7-.22-.07-.34.14-.55.29-.67.46-.82-.35-1.16-.84-.19.13-.45.45-.66.51-.24.07-.04.02-.29-.05-.45-.12-.75.02-1.18-.2-.54-.3-1.12-.34-1.02.41.12.86-.03.63-.7.57-.21-.03-.4.04-.56 0-.31-.04-.56-.28-.89-.17-.37.12-.53.53-.76.78-.36.37-.59.32-1.02.45-.28.09-.24.29-.32.41-.1.15-.14.21-.36.37-.54-.78-1.63-1.22-2.43-1.65-.52-.27-1.29-1.54-1.93-.94.13.18.42.39.26.61z"/></g><g class="uuid-3319db6a-d45d-4db5-a10a-57d3e6d2b111"><path class="uuid-4169ae9d-3a28-4a74-a56a-6e2bf4d1d4ad" d="M274.5 344.3c-.16.21-.52.04-.72.02-.33-.04-1.14-.02-1.03.55.18.9 1.56-.08 2 0 .42.09.81.75 1.06 1.07.36.48.61.57 1.24.75.77.23 1.75.64 1.98 1.5.06.26.24.94-.03 1.13-.29.19-.73-.14-1.05-.15-.23-.01-.44-.02-.56.22-.08.14.05.34 0 .47-.05.15-.14.17-.26.29-.18.18-.31.16-.29.43.04.36.81.62.48.94-.36.35-1.16-.18-1.57-.17-.17 0-.56.14-.66.31-.15.23.07.3 0 .6-.11.45-.75.71-1.02 1.03-.48.58-.35 1.04-.51 1.71-.06.23-.18.39-.11.58.07.21.28.16.34.36.07.22-.05.42.09.67.1.18.31.5.47.61.22.18.22.12.48 0 .36-.15.43-.21.86-.18.74.05.87-.34 1.41-.74.18-.14.66-.54.81-.37-.29.2-.55.68-.01.87.13.04.34-.14.5-.13.2 0 .37.1.49.25-.18.37-.5.42-.2.81.12.15.43.31.61.4.29.14.35.08.61.34.28.29.57.56.86.82-.11.07-.23.17-.34.26.45.98 1.69.16 2.36.32.45.1.86.76.84 1.1-.01.23-.15.29-.04.53.08.21.4.36.49.59.21.48-.12.97-.6.85-.67-.15-.94-.51-1.3-1.03-.1-.15-.37-.6-.59-.6-.16 0-.29.31-.41.36-.34.14-.7-.29-1.05 0 .17.53 0 .62-.23.78.04.2.06.42.03.63.22-.18.51-.31.75-.46.53.61-.21.84.28 1.34.07-.06.2-.06.27-.15.44.42.13.58.11 1.04 0 .24.08.24.19.47.15.29.14.19.1.57-.07.64.4 1.17.48 1.77s.18 1.63.86 1.77c.03 0 .21-.11.28-.11.12 0 .2.17.33.15.41-.05.18-.24.06-.49-.09-.18-.27-.49-.31-.69-.06-.26.12-.51.14-.75.04-.35.04-.96.52-.7.18.1.18.41.42.44.2.02.43-.21.5-.37.35.07.46.24.75-.08.16-.18.17-.44.43-.53.35.37.61.73.6 1.24.64-.15.92 2.31 1.3 2.5.45.21.65-.51.97-.72.07-.05.12-.2.19-.21.19-.04.4.28.53.23.2-.08.11-.26.22-.43.23-.34.67-.33.9-.64.28-.39-.46-1.28.58-.94.53.18 1.02.2 1.57.07.58-.15.43-.5.78-.86.18-.18.53-.23.75-.36.26-.15.48-.38.73-.54-.02-.14-.45-.82-.67-.82-.09 0-.29.2-.35.26-.53-.35-.06-.4.01-.78.07-.4-.27-.59-.45-.85.18-.15.43-.28.59-.46.21-.26.29-.47.61-.67.37-.23.73-.2 1.15-.28.44-.1.42-.05.82.07.41.12.31-.11.67-.18.39-.09.86.5 1.33.45.15-.01.25-.15.38-.15.3 0 .67.34.97.23.38-.14.19-.5.46-.72.27.21 1.13 1.1 1.36.39.1-.29-.23-.83-.45-1.01-.26-.19-.51-.12-.78.11-.53-.41.45-.65.45-1.13 0-.42-.76-1.14-1.06-1.41-.5-.44-.87.12-1.28-.47-.15-.22-.49-.59-.55-.85-.08-.35.14-.99.37-1.24.2-.22.69-.37.81-.62.1-.2-.09-.7-.31-.78-.28-.1-.29.22-.55.27-.43.07-.7-.53-1.08-.63-.64-.13-1.09.77-1.68.79-.36.01-.6-.45-1-.35-.3.07-.67.52-.72.81-.46-.52-.67-1.26-1.11-1.77-.32.2-.48.77-.63 1.11-.18.38-.2.68-.23 1.11-.02.2.01.49-.18.58-.25-.28-.72-1.08-1.13-1.08-.15 0-.25.13-.37.22-.1.07-.37.47-.38.48-.26.12-.3-.26-.59-.35-.43-.1-.68.22-.89-.38.34-.29.64-.57.93-.92.38-.45.11-.91-.29-1.35-.03 0-.06.04-.09.06-.1-.26.83-.82 1-1.1.37-.63.2-1.07-.13-1.63.45-.39.95-1.3.89-1.93-.05-.63-.72-1.29-1.24-1.55-.09-.04-.22.08-.29-.01-.11-.12-.01-.38-.04-.53-.07-.36-.34-.77-.5-1.09-.18-.34-.29-.69-.45-1.04-.08-.15-.28-.64-.45-.69-.21-.07-.34.13-.55.28-.67.48-.83-.34-1.15-.83-.2.13-.45.43-.67.5-.24.07-.04 0-.29-.06-.45-.12-.75.03-1.18-.2-.54-.3-1.12-.34-1.01.41.12.86-.03.63-.72.56-.19-.01-.39.04-.56.02-.31-.05-.56-.29-.89-.18-.37.12-.53.53-.76.78-.35.38-.59.32-1.02.46-.28.1-.23.28-.31.41-.1.15-.15.21-.37.37-.54-.78-1.63-1.22-2.44-1.65-.51-.29-1.27-1.53-1.92-.94.12.18.42.39.26.61z"/></g><g class="uuid-3319db6a-d45d-4db5-a10a-57d3e6d2b111"><path class="uuid-4169ae9d-3a28-4a74-a56a-6e2bf4d1d4ad" d="M354.44 397.14c-.22-.13-.11-.51-.1-.71 0-.32-.08-1.14-.65-.97-.87.26.24 1.54.2 1.98-.05.43-.67.89-.96 1.16-.43.41-.51.67-.63 1.31-.15.79-.46 1.81-1.3 2.11-.25.1-.91.34-1.12.1-.22-.26.07-.75.05-1.07-.01-.23-.02-.44-.28-.54-.15-.06-.34.1-.47.06-.15-.04-.18-.13-.31-.23-.19-.17-.19-.29-.46-.25-.35.06-.54.86-.89.56-.39-.33.07-1.18.01-1.57-.02-.18-.2-.56-.38-.64-.24-.12-.29.1-.59.07-.46-.06-.78-.67-1.13-.91-.62-.42-1.06-.25-1.76-.34-.23-.04-.4-.13-.58-.05-.2.1-.13.29-.33.38-.21.1-.42-.01-.65.15-.17.11-.47.37-.56.52-.15.24-.1.23.04.48.19.34.25.41.26.85.03.72.43.83.89 1.32.15.16.6.6.45.77-.23-.26-.74-.48-.86.07-.04.15.17.33.18.49 0 .19-.07.38-.2.51-.39-.13-.47-.46-.81-.11-.14.13-.27.45-.34.65-.11.3-.04.36-.29.64-.26.31-.5.62-.71.94-.1-.1-.21-.21-.31-.3-.93.54.01 1.68-.08 2.38-.06.45-.67.93-1 .94-.23 0-.31-.11-.54 0-.2.12-.31.44-.53.56-.45.26-.97-.04-.9-.53.08-.68.41-.98.89-1.4.15-.11.58-.42.55-.63-.01-.17-.34-.26-.4-.38-.18-.32.21-.72-.1-1.05-.51.22-.63.07-.81-.15-.2.06-.41.1-.61.1.18.2.35.48.52.71-.55.59-.84-.13-1.3.4.07.07.09.2.17.26-.37.48-.56.18-1.01.21-.25.01-.24.1-.45.23-.27.18-.18.16-.56.16-.64-.01-1.13.51-1.71.64-.59.13-1.61.34-1.68 1.03 0 .02.13.2.13.26.01.12-.15.22-.11.34.08.42.24.15.48.01.18-.11.47-.31.67-.39.25-.08.52.07.76.07.34 0 .95-.06.75.44-.09.19-.39.23-.4.47 0 .21.24.4.4.47-.03.35-.19.48.16.73.2.15.45.13.56.38-.34.39-.67.68-1.16.72.2.62-2.22 1.14-2.37 1.55-.17.47.58.6.83.89.04.07.21.11.23.17.05.19-.24.43-.17.56.1.2.26.08.45.18.37.19.4.64.72.83.42.25 1.24-.59 1 .48-.12.55-.09 1.03.1 1.57.2.57.53.37.92.69.2.16.29.5.43.7.18.25.42.44.61.67.14-.03.78-.51.75-.74-.01-.08-.23-.26-.29-.32.29-.57.38-.1.78-.07.41.04.56-.32.81-.53.17.16.32.42.52.54.27.19.5.24.72.55.26.34.27.71.4 1.11.13.43.09.41 0 .82-.08.42.15.31.26.65.12.38-.42.91-.32 1.38.03.15.17.23.18.36.04.3-.28.7-.13 1 .18.36.51.14.75.38-.18.29-.97 1.24-.24 1.4.29.07.81-.31.96-.56.15-.28.06-.52-.2-.75.37-.56.7.38 1.19.33.39-.04 1.04-.87 1.28-1.2.4-.53-.2-.85.34-1.32.2-.17.53-.54.78-.63.35-.11 1 .04 1.27.24.23.18.43.64.69.75.2.08.69-.16.75-.39.07-.29-.26-.26-.32-.51-.12-.42.46-.75.5-1.14.09-.64-.86-1-.94-1.6-.05-.36.39-.64.24-1.03-.1-.28-.59-.61-.87-.64.48-.51 1.19-.78 1.65-1.29-.24-.3-.81-.39-1.16-.51-.4-.14-.71-.13-1.13-.12-.2 0-.48.07-.59-.12.26-.26 1.02-.81.97-1.23-.02-.15-.15-.23-.24-.34-.08-.1-.51-.32-.52-.34-.15-.25.24-.32.28-.62.07-.43-.27-.65.31-.91.31.31.63.58 1 .83.48.33.92.02 1.32-.41-.01-.04-.04-.06-.07-.1.25-.12.9.75 1.19.89.66.31 1.08.09 1.6-.28.43.41 1.38.82 2.01.69.62-.12 1.22-.84 1.41-1.39.04-.1-.1-.21 0-.3.11-.12.37-.04.52-.09.35-.11.74-.42 1.04-.61.32-.21.65-.34.98-.55.15-.1.61-.34.65-.51.04-.23-.18-.34-.34-.52-.53-.64.26-.86.71-1.24-.15-.18-.48-.4-.56-.61-.1-.23-.02-.04.02-.3.07-.46-.1-.74.09-1.19.25-.57.23-1.15-.51-.97-.84.21-.62.04-.63-.65 0-.2-.08-.38-.07-.56.01-.31.23-.59.09-.91-.15-.35-.59-.47-.85-.67-.41-.31-.38-.56-.55-.97-.12-.28-.3-.2-.45-.28-.17-.07-.23-.11-.41-.31.73-.61 1.05-1.74 1.41-2.58.22-.54 1.39-1.43.75-2.02-.17.15-.35.47-.59.32z"/></g><path class="uuid-5cdf471e-b550-426e-b1df-a21f78a7cf1a" d="M457.15 702.02c-7.24 6.86-15.81 35.9-30.13 25.34-2.62 5.67.81 13.68-3.29 19.03-2.24 2.91-12.36 5.12-15.71 6-6.08 1.63-6.19-4.05-9.39 3.08-1.26 2.79 1.23 10.18.91 13.65-4.71.61-13.56 3.57-7.26 9.4 3.32 3.09 14 .81 17.83-.07l1.05 4.18c-6.47 4.47.11 20.24 9.27 17.61 2.47-8.13-.52-16.73 1.18-24.89 1.6-7.75 2.95-6.76 8.35-10.54-.13.09 9.44-5.25 8.57-5.18 4.58-.35 6.84-1.47 6.05 5.2-.73 6.22-5.45 4.6-9.44 8.92-5.7 6.16-7.45 25.29 1.14 30.7.31-.54.59-1.08.85-1.64.81 11.31 15.65 12.9 17.94-1.19.43-2.69-2.75-3.35-3.2-6.38-.69-4.5-1.56-14.85.75-18.77 1.95-3.31 9.71-8.68 11.76-9.52 1.59-.63 2.52-2.34 5.26-3.18 2.02-.62 5.9 2 8.64 1.1 3.78-1.24 11.11-11.23 5.01-16.34-4.99-4.18-8.59 5.25-15.76.76-5.12-3.21 1.35-10.53-7.31-9.52 5.01-6.22 5.43-12.75 9.94-18.78 3.36-4.5 9.23-4.52 10.88-10.28-12.01-1.74-21.58 7.5-23.87-8.69z"/><g class="uuid-3319db6a-d45d-4db5-a10a-57d3e6d2b111"><path class="uuid-4169ae9d-3a28-4a74-a56a-6e2bf4d1d4ad" d="M523.77 163.53c-.62.5-1.26.96-1.91 1.39.56.18 1.2.34 1.92.46.34-.61.34-1.24 0-1.85z"/><path class="uuid-4169ae9d-3a28-4a74-a56a-6e2bf4d1d4ad" d="M421.59 202.08c5.82-2.88 7.72 2.75 8.35-6.76.51-7.9-3.93-9.3-11.08-7.99 3.76-5.53 8.87-15 15.48-17.96 5.06-2.26 11.98-.62 17.32-2.31 14.8-4.66 12.23-15.72.46-23.27 7.53-.52 15.99-1.75 22.26 2.9 6.27 4.66 7.25 12.94 14.28 16.78 10.34 5.65 22.87 8.31 33.21 1.44-7.84-2.44-2.69-9.28-5.18-14.31-2.54-5.12-9.33-9.34-15.79-9.18-4.14.11-10.84 6.91-15.94 2.5-5.2-4.51-.45-13.71 3.65-17.01-5.69-7.99-15.32-1.93-22.99-2.17-.34-5.67 1.82-14.67 0-20.11-3.84-11.44-15.48-8.47-26.04-7.99-15.88.72-30.99 2.5-46.34 6.19-4.24 1.01-8.61 1.63-13.04 2.06-110.77 32.02-202.83 108.12-255.97 208.06 6.05 1.43 11.93 7.1 19.46 5.94 1.74-2.49 5.8-7.47 9.32-9.22 3.1-1.53 9.11-1.36 11.74-3.15 8.04-5.45 11.9-23.05 22.97-25.17 5.4-1.03 6.63 2.66 12.43.07 7.64-3.43 8.7-10.44 13.7-3.04 1.15 1.71-.7 5.97-.1 7.95 1.16 3.79 4.66 6.08 5.32 7.57 2.11 4.75 1.01 12.2 9.23 12.77-.13 1.48.53 3.48.27 4.95 4.43-.86 22.39-1.84 24.01-6 11.05 1.4 7.69-25.68 11.67-34.53 8.09-.94 10.44 6.46 15.2 9.28.84-12.46-3.15-58.2 22.34-38.85 5.61 4.26 4.39 5.62 4.96 12.86.58 7.24 2.37 12.28 3.66 18.72 2.31 11.53-1.97 24.25-2.72 37.41-4.58 1.21-27.18 14.55-12.52 14.93-.71 2.15.28 4.65-.91 6.96 1.93 0 4.38 1.65 6.49 1.49-.48 2.9-2.83 10.26-1.38 13.39 1.63 3.5 5.64.43 7.41 3.48 3.56 6.2.86 18.41 11.3 19.34 1.47-10.62-7.47-16.35-5.08-24.04.12-.41 5.12.65 5.26.39 1.04-1.95.57-9.56.13-8.91 2.09-3.17 1.59-4.76 7.01-3.99 1.41-8.55-5.75-15.89-4.02-24.17 1.62-7.69 4.68-5.06 9.28-10.01-.59-.13-1.19-.23-1.8-.3-1.83-8.27 6.58-8.39 9.82-13.22 2.11-3.14 3.43-6.65 2.36-11.6-.53-2.5-5.53-4.74-5.14-7.42 2.66-18.21 20.95 7.2 26.03 8.24 2.04-11.22-10.18-11.84-6.96-19.44 1.84-4.36 19.66-12.45 3.32-16.92 2.11-4.18 10.92-9.94 16.19-10.23 6.31-.35 3.89-1.64 8.2 5.07 4.68 7.29 6.79 30.67 13.81 35.04 4.55 2.83 9.2-1.85 11.79-.83 6.3 2.49 5.83 10.62 9.19 16.47 5.57 9.66 10.55 7.92 21.76 7.59.17-9.05-8.16-6.65-12.28-11.67-4.22-5.14-3.95-14.79-5.18-21.06-1.88-9.65.41-26.28-5.63-34.06-5.17-6.65-9.63-1.68-7.39-11.47 1.55-6.71 8.36-9.24 12.84-11.46z"/></g><g class="uuid-3319db6a-d45d-4db5-a10a-57d3e6d2b111"><path class="uuid-4169ae9d-3a28-4a74-a56a-6e2bf4d1d4ad" d="M837.85 445.12c10.95 1.66 29.37 3.62 29.66 19.12.16 8.75-5.73 8.35-8.21 14.28-4.69 11.2-3.67 2.69-2.36 13.4 1.57 12.85 8.45 23.77 5.56 37.56-2.47 11.85-10.35 25.79-15.43 36.43-4.12 8.65-9.23 22.33-20.27 23.96-6.64 1-7.23 1.05-12.36-3.9-7.6-7.36-3.4-9.85.14-15.81 6.88-11.61 22.86-12.09 24.69-27.77.4-3.4-2.56-8.18-2.81-11.16-1.12-13.11 1.52-19.24-11.26-25.06-3.73.7-12.94 5.62-15.71 5.08-10.29-1.95-2.99-6.22-9.63-10.31-11.16-6.87-22.85-1.33-30.86-15.01-.4 6.22-.1 12.59-.39 18.82-7.47-.71-15.5-2.34-23.11-1.21 3.41 6.71 15 6.02 18.82 13.95 1.49 3.08-.34 11.94-.49 15.42-12.61 1.63-40.47-7.15-35.54 17.18 3.06-.71 7.54 1.19 10.56.45.06 5.46.19 11.25.4 16.71 12.72 1.17 18.74 14.75 28.73 21.53 16.61 11.27 21.85 17.42 19.34 42.43-12.53-2.07-7.65 6.49-12.61 9.6-4.47 2.83-17.85 5.37-19.84 9.67-2.39 5.18 9.95 17.27 7.62 27.53-3.23 14.2-6.22 6.13-14.09 13.19-10.99 9.87-3.18 44.04-20.09 44.08-26.11.05 6.41-28.35-8.07-39.45-6.16-4.74-12.72 7.05-19.33-4.61-5.08-8.98 4.91-17.08 6.85-25.16 1.59-6.72.9-18.54-1.65-24.87-3.21-7.93-12.34-9.93-15.41-16.93-6.76-15.38 8.05-27.98-11.13-38.04-5.83-3.06-19.8-6.52-23.32 1.65-2.91 6.71 11.37 12.16 8.52 21.77-21.52 5.15 11.48 32.58 5.09 42.12-6.19 9.26-17.72.75-21.71 9.72-4.23 9.53 5.52 19.4 14.52 17.49-8.83 6.18-15.84 21.9-28.71 21.66-9.78-.2-10.7-9.65-20.08-8.87-1.55 8.6 9.22 30.29-.78 37.53-9.73 7.01-5.29-2.9-11.47-3.71-1.95-.26-10.47-.3-12.61-1.1-9.96-3.78-16.47-8.15-22.36-21.85-3.63-8.43-4.17-28.8-15.01-29.97-3.28 11.43 5.58 21.66 3.84 34.11-7.48-4.14-11.71-14.11-16.73-18.65-.23 6.4-.91 12.83-3.67 18.61-15.45-4.79-21.88-22.67-37.23-26.89-11.66-3.21-27.91-1.44-40.51-.89-.19 9.76 5.42 2.76 11.07 6.03 1.82 1.06 6.77 1.16 9.17 2.27 2.47 1.15 1.93 6.31 4.2 7.28 8.13 3.44 17.09 2.5 23.88 9.52 7.75 7.98 4.69 16.82 9.31 25.21 4.54 8.23 17.71 10.53 15.48 21.22-2.8.67-4.34 1.84-7.32 2.06 2.35 6.71 8.02 4.77 9.29 12.49.42 2.56-7.35 7.42-6.24 13.6 7.04 2.76 17.47 3.01 24.99 1.88 9.09-1.35 17.28-8.16 26.38-7.57.98 23.03 4.35 47.29-23.08 46.94-1.01 3.21-.83 9.1.31 12.16 9.27-2.05 21.72 3.05 11.7 11.22-5.67 4.63-18.93-5.75-15.14 9.06 7.75-1.66 12.86 2.47 12.56 10.62 8.26 1.05 17.56.41 26.15.8.84 19.96 1.96 28.16-13.9 37.45-5.72 3.34-9.29-.37-14.2 6.19-2.88 3.86 1.35 11.62-2.47 16.65-1.68 2.2-5.15 4.44-9 6.71 208.71-25.91 370.25-203.88 370.25-419.6 0-27.42-2.65-54.21-7.63-80.17-2.27-4.29-5.19-8-9.25-10.7-10.75-7.12-31.57-6.64-45.19-6 1.54 18.46-25.57 14.12-20.78 30.85z"/><path class="uuid-4169ae9d-3a28-4a74-a56a-6e2bf4d1d4ad" d="M837.85 445.12c10.95 1.66 29.37 3.62 29.66 19.12.16 8.75-5.73 8.35-8.21 14.28-4.69 11.2-3.67 2.69-2.36 13.4 1.57 12.85 8.45 23.77 5.56 37.56-2.47 11.85-10.35 25.79-15.43 36.43-4.12 8.65-9.23 22.33-20.27 23.96-6.64 1-7.23 1.05-12.36-3.9-7.6-7.36-3.4-9.85.14-15.81 6.88-11.61 22.86-12.09 24.69-27.77.4-3.4-2.56-8.18-2.81-11.16-1.12-13.11 1.52-19.24-11.26-25.06-3.73.7-12.94 5.62-15.71 5.08-10.29-1.95-2.99-6.22-9.63-10.31-11.16-6.87-22.85-1.33-30.86-15.01-.4 6.22-.1 12.59-.39 18.82-7.47-.71-15.5-2.34-23.11-1.21 3.41 6.71 15 6.02 18.82 13.95 1.49 3.08-.34 11.94-.49 15.42-12.61 1.63-40.47-7.15-35.54 17.18 3.06-.71 7.54 1.19 10.56.45.06 5.46.19 11.25.4 16.71 12.72 1.17 18.74 14.75 28.73 21.53 16.61 11.27 21.85 17.42 19.34 42.43-12.53-2.07-7.65 6.49-12.61 9.6-4.47 2.83-17.85 5.37-19.84 9.67-2.39 5.18 9.95 17.27 7.62 27.53-3.23 14.2-6.22 6.13-14.09 13.19-10.99 9.87-3.18 44.04-20.09 44.08-26.11.05 6.41-28.35-8.07-39.45-6.16-4.74-12.72 7.05-19.33-4.61-5.08-8.98 4.91-17.08 6.85-25.16 1.59-6.72.9-18.54-1.65-24.87-3.21-7.93-12.34-9.93-15.41-16.93-6.76-15.38 8.05-27.98-11.13-38.04-5.83-3.06-19.8-6.52-23.32 1.65-2.91 6.71 11.37 12.16 8.52 21.77-21.52 5.15 11.48 32.58 5.09 42.12-6.19 9.26-17.72.75-21.71 9.72-4.23 9.53 5.52 19.4 14.52 17.49-8.83 6.18-15.84 21.9-28.71 21.66-9.78-.2-10.7-9.65-20.08-8.87-1.55 8.6 9.22 30.29-.78 37.53-9.73 7.01-5.29-2.9-11.47-3.71-1.95-.26-10.47-.3-12.61-1.1-9.96-3.78-16.47-8.15-22.36-21.85-3.63-8.43-4.17-28.8-15.01-29.97-3.28 11.43 5.58 21.66 3.84 34.11-7.48-4.14-11.71-14.11-16.73-18.65-.23 6.4-.91 12.83-3.67 18.61-15.45-4.79-21.88-22.67-37.23-26.89-11.66-3.21-27.91-1.44-40.51-.89-.19 9.76 5.42 2.76 11.07 6.03 1.82 1.06 6.77 1.16 9.17 2.27 2.47 1.15 1.93 6.31 4.2 7.28 8.13 3.44 17.09 2.5 23.88 9.52 7.75 7.98 4.69 16.82 9.31 25.21 4.54 8.23 17.71 10.53 15.48 21.22-2.8.67-4.34 1.84-7.32 2.06 2.35 6.71 8.02 4.77 9.29 12.49.42 2.56-7.35 7.42-6.24 13.6 7.04 2.76 17.47 3.01 24.99 1.88 9.09-1.35 17.28-8.16 26.38-7.57.98 23.03 4.35 47.29-23.08 46.94-1.01 3.21-.83 9.1.31 12.16 9.27-2.05 21.72 3.05 11.7 11.22-5.67 4.63-18.93-5.75-15.14 9.06 7.75-1.66 12.86 2.47 12.56 10.62 8.26 1.05 17.56.41 26.15.8.84 19.96 1.96 28.16-13.9 37.45-5.72 3.34-9.29-.37-14.2 6.19-2.88 3.86 1.35 11.62-2.47 16.65-1.68 2.2-5.15 4.44-9 6.71 208.71-25.91 370.25-203.88 370.25-419.6 0-27.42-2.65-54.21-7.63-80.17-2.27-4.29-5.19-8-9.25-10.7-10.75-7.12-31.57-6.64-45.19-6 1.54 18.46-25.57 14.12-20.78 30.85z"/></g><path d="M584.36 255.67c1.08 14.8 1.98 28.38-17.39 25.48-1.56 5.24-.29 8.93 2.9 12.3l12.53 9.39c.48 1.79 4.15 4.6 3.71 8.85 11.13 3.73 12.53-7.88 12.19-16.44 2.58-.56 4.98-.36 7.35.31-.7 2.91 1.16 7.33.48 10.21 5.41.12 11.02.27 16.44.44 1.49 12.4.15 25.98.78 38.67 16.77 3.09 11.26-9.83 13.75-18.64 5.76 8.35 23.01 6.83 24.88-4.96 1.96-12.43-12.86-8.81-21.24-16.29 9.46 4.85 29.44 9.89 30.91-3.6 1.33-12.16-15.97-12.34-23.51-21.98-8.87-11.31-10.89-15.61-26.25-20.63-10.54-3.45-25.94-6.42-37.53-3.12z" opacity=".52" fill="#fff" stroke-width="0"/><g opacity=".52"><path class="uuid-4169ae9d-3a28-4a74-a56a-6e2bf4d1d4ad" d="M712.74 395.33c-1.13-.05-2.07.07-2.92.3.62 1.55 1.48 2.91 2.67 3.92.4-1.59.14-2.68.25-4.22z"/><path class="uuid-4169ae9d-3a28-4a74-a56a-6e2bf4d1d4ad" d="M532.86 89.73c3.96 2.56 6.22 6.41 11.14 8.73 5.7 2.68 14.61 1.79 20.7 3.22 12.2 2.86 36.57 3.35 34.78 20.88 9.88 2.47 21.77-1.48 31.16 2.42 6.12 2.54 8.69 10.22 14.44 12.73 4.1 1.79 9.44.31 13.83.69 10.35.87 16.89 5.92 19.38 16.96 1.8 8.07-2.84 18.39-11.18 11.56 7.4 8.68-1.22 10.88-9.19 10.29 5.83 7.17 3.49 13.3-3.48 15.48-10.19 3.18-17.01-4.39-25.38-7.49 5.42 4.59 10.78 8.99 8.29 16.78-10.88.67-20.68 3.57-30.73 7.15-13.13 4.67-7.61 4.25-9.76 16.8-8.98-.18-28.44-1.29-24.8 12.31 8.57 1.11 16.3-1.33 24.93-1.7 4.09-.18 8.49.63 12.53 0 4.56-.72 7.56-3.32 11.5-4.22 9.91-2.28 10.37 2.8 18.79 5.32 9.12 2.72 13.89-1.43 22.17 5.91 13.65 12.1 11.91 12.78 25.84 1.64 7.44-5.94 20.89-9.1 18.81 5.97-1.52 11.13-19.97 8.79-7.53 18.58 3.48 2.75 7.03-1.9 10.56 3.33 2.64 3.92-.86 12.52-3.76 14.89 17.26 10.29-10.13 21.75-11.79 28.14-2.21 8.46 5.72 11.52 7.29 18 3.1 12.67-7.31 15.92-12.34 23.87-4.58 7.26-3.58 26.54-1.22 35.19 1.68 6.16 3.99 11.68 11.48 10.46 4.76-.78 5.3-6.61 10.49-7.99-2.39-5.98-1.18-15.14-1-21.11 7.91-1.91 12.72 8.26 14.72 14.31 4.31.18 11.41 37.87 17.75 10.78 10.95-3.42 6.74 6.95 8.38 13.44 1.99 7.89 6.26 11.88 6.22 20.62 13.01 8.73 17.61-8.65 18.65-18.51.48-4.55-2.03-11.71 1.79-14.98 3.82-3.26 11.97-.5 14.08 3.62 6.42-10.53-2.4-48.14 17.53-32.53 10.38 8.14 8.66 33.82 19.85 17.47 5.31-7.75 4.8-13.38 13.3-14.09 3.11-.26 14.92 2.16 17.81 3.81 4.62 2.66 5.97 11.74 11.71 7.44 3.75-2.81 1.14-9.67 4.13-12.77 6.48 4.65 5.06 14.1 10.18 19.07 5.55 5.4 13.35.51 19.65 2.85-47.37-166.3-193.97-290.75-371.69-305.34z"/></g><path d="M921.39 511.15c0 233.94-189.64 423.58-423.58 423.58S74.23 745.08 74.23 511.15 263.88 87.56 497.81 87.56 921.39 277.2 921.39 511.15z" style="mix-blend-mode:multiply" fill="url(#uuid-19aedb06-376e-4eba-8d56-78f17d6a32d6)" stroke-width="0"/></g></g></svg>