<svg xmlns="http://www.w3.org/2000/svg" viewBox="0 0 900 900"><defs><radialGradient id="uuid-f8283202-18d6-4082-aa51-d32200dba696" cx="397.42" cy="366.17" fx="397.42" fy="366.17" r="537.28" gradientTransform="rotate(-90 470.21 374.7)" gradientUnits="userSpaceOnUse"><stop offset=".25" stop-color="#fff"/><stop offset=".64" stop-color="#fff" stop-opacity=".72"/><stop offset=".73" stop-color="#fff" stop-opacity=".5"/><stop offset=".82" stop-color="#fff" stop-opacity=".29"/><stop offset=".9" stop-color="#fff" stop-opacity=".13"/><stop offset=".96" stop-color="#fff" stop-opacity=".03"/><stop offset="1" stop-color="#fff" stop-opacity="0"/></radialGradient><radialGradient id="uuid-67c020a3-1514-451f-9230-b052f074bac5" cx="393.03" cy="356.48" fx="393.03" fy="356.48" r="445.22" gradientTransform="rotate(-90 470.21 374.7)" gradientUnits="userSpaceOnUse"><stop offset="0" stop-color="#797a7a"/><stop offset=".81" stop-color="#a6a7a7"/><stop offset=".84" stop-color="#a8a9aa"/><stop offset=".94" stop-color="#d5d6d6"/><stop offset="1" stop-color="#f3f3f3"/></radialGradient><linearGradient id="uuid-f89c6981-4db4-4fa3-8a3e-158619fb10cb" x1="272.83" y1="185.05" x2="1164.78" y2="185.05" gradientTransform="translate(-266.82 266.82)" gradientUnits="userSpaceOnUse"><stop offset="0" stop-color="#fff"/><stop offset=".26" stop-color="#edecee"/><stop offset=".3" stop-color="#bab9bb"/><stop offset=".35" stop-color="#878788"/><stop offset=".4" stop-color="#5d5d5d"/><stop offset=".45" stop-color="#3c3c3c"/><stop offset=".49" stop-color="#252425"/><stop offset=".53" stop-color="#161616"/><stop offset=".56" stop-color="#121212"/></linearGradient><style>.uuid-25dd6c8c-7c8d-4547-a217-97f9fb304fd6,.uuid-7b8132ee-f98b-41b6-8fec-e328b607def9{stroke-width:0;fill:#fff}.uuid-28188b87-7730-47cd-a965-dbdd67e419d2{opacity:.5}.uuid-3ea12c21-bcfe-4b83-bee3-53c84b425c90,.uuid-7b8132ee-f98b-41b6-8fec-e328b607def9{opacity:.52}</style></defs><g style="isolation:isolate"><g id="uuid-edfb1509-8b04-4302-8469-b8c0b587d1a5" data-name="Capa 2"><path d="M466.02-86.28c297.22 0 538.16 240.95 538.15 538.16 0 297.22-240.94 538.15-538.15 538.15S-72.15 749.1-72.14 451.88c0-297.21 240.94-538.16 538.16-538.16z" fill="url(#uuid-f8283202-18d6-4082-aa51-d32200dba696)" opacity=".6" stroke-width="0"/><path d="M451.99 6.66c245.88 0 445.23 199.34 445.23 445.22S697.88 897.1 451.99 897.1 6.77 697.77 6.77 451.88C6.77 205.99 206.09 6.66 451.99 6.66z" fill="#a8a9aa" opacity=".52" stroke-width="0"/><path d="M451.99 6.66c245.88 0 445.23 199.34 445.23 445.22S697.88 897.1 451.99 897.1 6.77 697.77 6.77 451.88C6.77 205.99 206.09 6.66 451.99 6.66z" fill="url(#uuid-67c020a3-1514-451f-9230-b052f074bac5)" stroke-width="0"/><path class="uuid-7b8132ee-f98b-41b6-8fec-e328b607def9" d="M451.99 897.1h.02c8.9-2.48 16.58-8.89 13.2-18.49-3.42-9.72-7.54-4.29-14.31-7.89-12.4-6.6 2.87-12.06.7-22.95-6.56-1.14-12.48.04-17.03 5.03-.68-3.71.03-7.83.8-10.95 3.21-13.02 7.69-24.55 5.64-38.92-3.72-26.16-9.77 5.93-14.01 12.76-2.84-8.61-8.83-15.05-16.56-17.54-11.39-3.7-10.42-.32-15.62-12.06-3.65-8.22-6.29-14.78-17.64-11.06-7.87 2.57-10.58 11.15-19.55 13.13-.5-10.2 3.33-24.57-3.21-32.55-7.85-9.6-21.68-5.18-22.66 8.27-8.03.94-19.35.18-17.34-10.61 0 0-3.05-.02-2.98 0-1.18 21.44-18.55-3.16-22.78-1.19-3.62 1.7-1.04 9.8-2.83 12.13-2.71 3.53-4.31.54-7.69 2.52-7.65 4.49-12.85 6.67-21.64 5.99-.51-1.16-.99-2.71-1.27-3.94 24.61-11.22 9.64-29.94 5.32-46.48-.76-2.96-3.41-1.72-3.25-5.58.23-6.46 6.44-12.23 7.68-18.63 1.94-9.95-.67-13.98-9.72-17.47-5.16-2-11.64-1.41-15.4-4.44-6.44-5.19-2.37-10.77-4.4-17.56-3.75-12.54-12.4-14.66-25.21-14.23-.48 13.74-.16 27.67-.08 41.45-.67-6.11-6.31-7.15-11.94-6.22-.34 6.38.83 13.47-.18 19.76-1.66 10.24-.32 8.5-9 7.28-4.7-.65-14.93-9.02-17.47-.59-1.52 5.05 3.04 8.42 7.63 8.76-.82 7.48 6.53 7.35 9.01 13.25 2.65 6.31-3.53 11.53-3.52 15.05 0 13.89 14.66 29.38-8.45 26.07-2.85-10.43-2.14-18.34-7.64-27.12-5.03-8.02-11.22-15.97-12.34-27.01-1.26-12.52 10.81-23.52 6.6-35.59-1.65-4.74-2.55-8.26-9.64-8.49-8.96-.29-5.3 5.36-5.91 14.7-23.17-.79-4.79 21.14-18.36 22.53-2.24 8.42 7.33 10.59 9.47 17.47 3.14 10.11-6.36 20.09-11.47 30.45 81.24 86.76 196.8 140.99 325.03 140.99z"/><path class="uuid-7b8132ee-f98b-41b6-8fec-e328b607def9" d="M128.01 757.23l15.54-23.55c6.08 6.63.05 21.8-1.93 29.77-2.4-.55-6.55-.49-8.34-.75.02.02.03.02.05.05 1.94.52 3.04 1.67 4.61 2.5-.31.3-.62.76-.93 1.29 1.7 1.7 3.45 3.38 5.18 5.06 1.43.33 2.84.69 4.22 1.06-.12.93-.13 1.9-.08 2.91 6.25 5.9 12.68 11.62 19.26 17.16.49-3.09.96-6.31 2.14-8.92.89-1.97.26-4.69 1.49-6.51 1.35-2 6.16-.44 7.13-2 6.57-10.62-1.74-18.74-3.92-28.74-1.45-6.67.94-15.48.22-22.43-.92-8.96-2.94-11.32 1.66-19.72-4.3-1.6-9.52-2.25-13.81-2.12 1.33-8.66 1.14-13.03-.12-21.24-.42-2.71.05-8.7-1.03-10.62-3.01-5.25-10.4-4.57-11.42-10.94-9.7-3.01-6.65-9.98-10.89-16.9-3.54-5.76-11.36-5.35-13.17-10.44 17.96.1 25.39.66 30.92-20.06 3.87-14.51 1.07-15.42-10.54-19.24-4.22-10.37-16.12-3.42-17.75-17.77-2.57.64-7.28.36-9.71 1.05 1.5-14.24-9.47-27.79-6.05-43.06-6.15-2.37-16.06-4.92-23.21-5.63-3.76 14.48-5.72 19.86-18.54 28.06-.97-4.29-2-8.77-1.46-13.17 12.2 5.74 14.84-16.14 17.53-23.69 5.1-14.35 4.9-13.3 17.66-12.25 2.12-6.5 2.05-24.64 7.1-29.41 4.97-4.71 10.34.46 15.92-4.33 10.51-9.04.07-17.17 15.99-15.84 10.16.84 16.92 9.67 25.42 10.61 2.03-15.35 24.55-1.89 32.61.68 10.51 3.34 25.88 4.79 35.56 2.14 7.13-1.93 14.68-7.88 19.24-12.51 2.91-2.96 3.9-6.23 6.63-8.15.91-.66 6.37.02 8.52-1.19 1.83-1.02 3.36-5.77 5.6-7.64 2.74-2.27 6.02-1.75 8.89-4.1 14.52-11.92 23.6-41.39 27.31-59.16-4.46 10.26-19.99 23.33-27.66 32.91-6.44 8.09-9.64 10.34-22.13 3.45-21.26-11.75-8.56-38.98-24.54-51.67-22.29-17.68-39.16 28.89-57.84 12.53-5.9-5.17-1.6-10.97-2.08-16.18-.95-10.17-7.15-20.59-19.16-20.57-.21.6-.44 1.19-.68 1.8-9.92-7.72 6.2-31.96-4.92-43.95-4.9 18.35-9.77 16.19-25.03 11.95-2.69 4.38-3.53 9.48-4.26 14.55-1.53-10.95-8.7-11.95-15.67-4.88-7.18 7.29-6.52 21.02-10.85 29.7-9.16-2.4-2.91-14.71-12.86-14.97-10.09 20.02-14.28 52.36-15.96 75.08-1.29.76-5.97 2.44-7.47 2.69-13.1-15.77-39.01-19.28-51.44-2.2a449.983 449.983 0 00-2.17 44.13c0 118.2 46.08 225.63 121.24 305.35z"/><g class="uuid-28188b87-7730-47cd-a965-dbdd67e419d2"><path class="uuid-25dd6c8c-7c8d-4547-a217-97f9fb304fd6" d="M314.94 209.87c-1.66 3.05-10.65 6.28-14.91 8.46-7.35 3.74-23.36 15.49-16.66 16.19 14.36 1.52 27.92-17.56 41.69-23.55 9.1-3.96 23.4-3.02 30.79-2.74 10.62.43 21.2-1.57 31.56-3.59 15.23-2.99 37.38-6.61 50.69 2.37 2.81 1.9 9.93 7.49 5.33 9.97-4.8 2.59-15.72 1.43-22.32 2.79-4.88 1-9.13 1.97-10.25 4.59-.66 1.58 3.11 2.62 2.89 3.9-.25 1.49-1.98 2.13-3.61 3.69-2.53 2.42-5.18 3.01-3.18 5.13 2.57 2.73 18.82 2.17 14.38 5.4-7.57 5.53-21.03 4.16-30.48 7.17-3.26 1.04-9.64 4.93-10.48 6.98-1.11 2.73 3.32 1.8 3.99 4.55 1.02 4.15-8.64 10.68-11.18 15.14-4.5 7.85.71 10.34 2.42 16.61.56 2.06-.35 4.1 1.95 5.06 2.44 1.03 5.37-.74 7.7.33 2.49 1.13 1.73 3.5 5.34 4.56 2.52.75 7.76 1.96 10.75 1.97 4.39.02 4.09-.33 7.32-2.57 4.72-3.29 5.8-4.1 12.77-5.81 11.88-2.92 12.33-6.67 19.29-11.99 2.36-1.8 8.76-6.86 12.05-5.84-4.15 2.67-6.32 7.56 3.12 7.86 2.47.08 5.2-2.11 7.83-2.35 3.25-.32 6.4.23 9 1.36-1.72 3.71-6.78 4.66-.52 7.69 2.35 1.13 7.8 2.27 10.96 2.87 5.09.98 5.97.4 10.65 2.78 5.09 2.57 10.18 5.21 15.2 7.65-1.56.79-3.16 1.63-4.67 2.45 9.76 9.03 25.25 3.24 36.45 6.11 6.57 1.69 12.99 9.67 12.65 12.76-.23 2.24-2.05 2.4-.75 4.98 1.21 2.4 5.58 4.71 6.87 7.28 2.67 5.34-2.24 8.64-8.68 6.19-9.04-3.45-12.73-7.3-18.07-12.97-1.49-1.6-5.56-6.5-8.69-6.78-2.36-.22-3.87 2.62-5.63 2.98-4.59.94-10.41-3.28-14.97-.69 3.3 5.02 1.02 5.89-1.99 7.35.82 1.96 1.46 3.99 1.35 5.89 2.71-1.56 6.52-2.73 9.71-3.97 7.98 6.06-1.83 7.65 4.88 12.92.89-.5 2.6-.41 3.49-1.05 6 4.51 1.96 5.61 1.88 9.91-.05 2.31 1.02 2.47 2.41 4.69 1.85 2.95 1.72 2.06 1.18 5.57-.91 5.92 4.45 11.71 4.78 17.48.35 5.72.51 15.38 7.23 18.15.23.1 2.33-.49 3-.33 1.26.29 1.84 2.03 3.08 2.22 4.34.65 2.24-1.72 1.46-4.29-.59-1.97-2.03-5.26-2.24-7.25-.25-2.55 2-4.42 2.62-6.62.88-3.11 1.73-8.84 6.84-5.02 1.98 1.47 1.46 4.33 4.12 5.42 2.24.93 5.18-.41 6.35-1.55 3.78 1.94 4.6 3.95 8.66 2.2 2.25-.97 2.94-3.25 6.2-2.81 3.14 4.99 4.99 9.5 3.43 13.99 7.22 1.71 1.46 24.72 4.35 28.33 3.35 4.17 8.29-.76 12.18-.66.86.03 2.07-.89 2.78-.59 1.93.85 2.4 4.74 3.97 5.2 2.29.68 2.24-1.43 4.06-2.07 3.83-1.32 7.94 2 11.56 1.21 4.72-1.01 2.01-14.18 10.35-3.08 4.26 5.67 8.61 9.93 14.45 14 6.06 4.19 6.71.15 11.98.99 2.71.44 6.11 3.52 8.84 4.93 3.23 1.66 6.59 2.32 9.83 4.05.72-1.27 1.16-10.97-.95-13.37-.84-.96-3.86-1.53-4.85-1.88-3.01-8.33 1.71-3.63 4.68-5.75 3.05-2.18.69-7.43.24-11.57 2.67.72 6.1 2.64 8.65 2.96 3.61.45 5.63-.45 10.08 1.94 5.06 2.71 8.53 7.47 13.04 12.28 4.76 5.04 4.29 5.04 7.12 11.41 2.84 6.45 3.6 3.51 7.13 8 3.97 5.06 3.52 15.74 7.47 22.65 1.23 2.18 2.9 2.82 3.86 4.82 2.2 4.53 1.93 12.46 4.73 16.72 3.45 5.26 5.08.09 8.44 3.35 0 5.6-2.83 25.05 4.22 25.47 2.88.17 5.88-8.52 5.99-13.51.13-5.7-1.94-9.64-5.33-12.7.09-11.42 7.96 3.89 11.7.96 3.2-2.49 3.77-20.55 3.48-27.65-.45-11.5-7.55-13.93-7.21-24.9.14-4.2-.55-12.39.55-15.3 1.52-4 7.64-5.39 11.68-3.31 3.28 1.7 9.06 9.2 11.91 9.57 2.24.29 3.93-6.84 2.2-11.49-2.12-5.73-4.39-3.53-7.33-7.58-4.95-6.78-4.21-16.45-8.22-23.33-5.74-9.84-17.47-12.08-24.78-19.86-4.64-4.93-5.56-12.75-11.43-17.51-4.28-3.47-11.38-4.42-13.38-2.64-3.24-10.17-4.8-20.67-9.12-30.5-5.57-2.03-9.82 1.45-13.24 2.82-3.88 1.58-5.25 4.13-7.26 7.66-.96 1.67-1.46 4.69-4.58 3.38-2.46-5.19-6.99-17.89-13.45-21.98-2.36-1.49-4.05-1.23-6.18-1.6-1.77-.31-6.92.97-7.16.89-4.4-1.37-3.91-5.31-8.39-8.56-6.57-4.75-11.08-3.67-13.35-11.08 5.98-.07 11.4-.34 16.63-1.12 7.07-1.06 3.61-8.06-2.53-15.72-.61-.17-1.12-.15-1.7-.25-1.43-3.45 15.74-.47 19.12-1.6 7.57-2.51 5.33-8.67.05-17.4 8.95.55 20.06-3.91 19.29-10.2-1.37-11.05-13.82-21.71-23.32-28.44-1.78-1.28-4.5-1.27-6.07-2.91-2.24-2.32-.12-3.98-.73-5.8-1.46-4.36-7.15-10.93-11-15.68-4.05-4.98-6.57-9.43-10.74-14.38-1.82-2.15-6.97-8.7-10.98-10.47-5.07-2.23-7.75-1.04-12.2-.86-12.18.52-20.07-7.85-28.7-15.04-4.22.42-9.45 2.4-14.21 2.22-5.45-.21-.96-.06-7.08-1.63-11.02-2.83-17.47-2.19-28.6-5.37-13.99-4-28.11-4.63-22.56 2.67 6.29 8.25 1.95 5.66-14.33 5.16-4.7-.15-8.91.49-12.94.41-7.4-.15-14.6-1.93-21.73-.27-8.13 1.89-9.65 6.09-13.51 8.85-6.17 4.42-11.84 4.69-20.6 7.62-5.87 1.97-3.65 3.33-4.75 4.88-1.24 1.74-1.9 2.34-5.73 4.76-21.09-4.59-43.99-.2-64.55 3.3-15.46 2.63-37.77.44-49.56 13.37 4.2-.33 12.4-2.37 10.62.91z"/></g><g class="uuid-28188b87-7730-47cd-a965-dbdd67e419d2"><path class="uuid-25dd6c8c-7c8d-4547-a217-97f9fb304fd6" d="M314.94 209.87c-1.66 3.05-10.65 6.28-14.91 8.46-7.35 3.74-23.36 15.49-16.66 16.19 14.36 1.52 27.92-17.56 41.69-23.55 9.1-3.96 23.4-3.02 30.79-2.74 10.62.43 21.2-1.57 31.56-3.59 15.23-2.99 37.38-6.61 50.69 2.37 2.81 1.9 9.93 7.49 5.33 9.97-4.8 2.59-15.72 1.43-22.32 2.79-4.88 1-9.13 1.97-10.25 4.59-.66 1.58 3.11 2.62 2.89 3.9-.25 1.49-1.98 2.13-3.61 3.69-2.53 2.42-5.18 3.01-3.18 5.13 2.57 2.73 18.82 2.17 14.38 5.4-7.57 5.53-21.03 4.16-30.48 7.17-3.26 1.04-9.64 4.93-10.48 6.98-1.11 2.73 3.32 1.8 3.99 4.55 1.02 4.15-8.64 10.68-11.18 15.14-4.5 7.85.71 10.34 2.42 16.61.56 2.06-.35 4.1 1.95 5.06 2.44 1.03 5.37-.74 7.7.33 2.49 1.13 1.73 3.5 5.34 4.56 2.52.75 7.76 1.96 10.75 1.97 4.39.02 4.09-.33 7.32-2.57 4.72-3.29 5.8-4.1 12.77-5.81 11.88-2.92 12.33-6.67 19.29-11.99 2.36-1.8 8.76-6.86 12.05-5.84-4.15 2.67-6.32 7.56 3.12 7.86 2.47.08 5.2-2.11 7.83-2.35 3.25-.32 6.4.23 9 1.36-1.72 3.71-6.78 4.66-.52 7.69 2.35 1.13 7.8 2.27 10.96 2.87 5.09.98 5.97.4 10.65 2.78 5.09 2.57 10.18 5.21 15.2 7.65-1.56.79-3.16 1.63-4.67 2.45 9.76 9.03 25.25 3.24 36.45 6.11 6.57 1.69 12.99 9.67 12.65 12.76-.23 2.24-2.05 2.4-.75 4.98 1.21 2.4 5.58 4.71 6.87 7.28 2.67 5.34-2.24 8.64-8.68 6.19-9.04-3.45-12.73-7.3-18.07-12.97-1.49-1.6-5.56-6.5-8.69-6.78-2.36-.22-3.87 2.62-5.63 2.98-4.59.94-10.41-3.28-14.97-.69 3.3 5.02 1.02 5.89-1.99 7.35.82 1.96 1.46 3.99 1.35 5.89 2.71-1.56 6.52-2.73 9.71-3.97 7.98 6.06-1.83 7.65 4.88 12.92.89-.5 2.6-.41 3.49-1.05 6 4.51 1.96 5.61 1.88 9.91-.05 2.31 1.02 2.47 2.41 4.69 1.85 2.95 1.72 2.06 1.18 5.57-.91 5.92 4.45 11.71 4.78 17.48.35 5.72.51 15.38 7.23 18.15.23.1 2.33-.49 3-.33 1.26.29 1.84 2.03 3.08 2.22 4.34.65 2.24-1.72 1.46-4.29-.59-1.97-2.03-5.26-2.24-7.25-.25-2.55 2-4.42 2.62-6.62.88-3.11 1.73-8.84 6.84-5.02 1.98 1.47 1.46 4.33 4.12 5.42 2.24.93 5.18-.41 6.35-1.55 3.78 1.94 4.6 3.95 8.66 2.2 2.25-.97 2.94-3.25 6.2-2.81 3.14 4.99 4.99 9.5 3.43 13.99 7.22 1.71 1.46 24.72 4.35 28.33 3.35 4.17 8.29-.76 12.18-.66.86.03 2.07-.89 2.78-.59 1.93.85 2.4 4.74 3.97 5.2 2.29.68 2.24-1.43 4.06-2.07 3.83-1.32 7.94 2 11.56 1.21 4.72-1.01 2.01-14.18 10.35-3.08 4.26 5.67 8.61 9.93 14.45 14 6.06 4.19 6.71.15 11.98.99 2.71.44 6.11 3.52 8.84 4.93 3.23 1.66 6.59 2.32 9.83 4.05.72-1.27 1.16-10.97-.95-13.37-.84-.96-3.86-1.53-4.85-1.88-3.01-8.33 1.71-3.63 4.68-5.75 3.05-2.18.69-7.43.24-11.57 2.67.72 6.1 2.64 8.65 2.96 3.61.45 5.63-.45 10.08 1.94 5.06 2.71 8.53 7.47 13.04 12.28 4.76 5.04 4.29 5.04 7.12 11.41 2.84 6.45 3.6 3.51 7.13 8 3.97 5.06 3.52 15.74 7.47 22.65 1.23 2.18 2.9 2.82 3.86 4.82 2.2 4.53 1.93 12.46 4.73 16.72 3.45 5.26 5.08.09 8.44 3.35 0 5.6-2.83 25.05 4.22 25.47 2.88.17 5.88-8.52 5.99-13.51.13-5.7-1.94-9.64-5.33-12.7.09-11.42 7.96 3.89 11.7.96 3.2-2.49 3.77-20.55 3.48-27.65-.45-11.5-7.55-13.93-7.21-24.9.14-4.2-.55-12.39.55-15.3 1.52-4 7.64-5.39 11.68-3.31 3.28 1.7 9.06 9.2 11.91 9.57 2.24.29 3.93-6.84 2.2-11.49-2.12-5.73-4.39-3.53-7.33-7.58-4.95-6.78-4.21-16.45-8.22-23.33-5.74-9.84-17.47-12.08-24.78-19.86-4.64-4.93-5.56-12.75-11.43-17.51-4.28-3.47-11.38-4.42-13.38-2.64-3.24-10.17-4.8-20.67-9.12-30.5-5.57-2.03-9.82 1.45-13.24 2.82-3.88 1.58-5.25 4.13-7.26 7.66-.96 1.67-1.46 4.69-4.58 3.38-2.46-5.19-6.99-17.89-13.45-21.98-2.36-1.49-4.05-1.23-6.18-1.6-1.77-.31-6.92.97-7.16.89-4.4-1.37-3.91-5.31-8.39-8.56-6.57-4.75-11.08-3.67-13.35-11.08 5.98-.07 11.4-.34 16.63-1.12 7.07-1.06 3.61-8.06-2.53-15.72-.61-.17-1.12-.15-1.7-.25-1.43-3.45 15.74-.47 19.12-1.6 7.57-2.51 5.33-8.67.05-17.4 8.95.55 20.06-3.91 19.29-10.2-1.37-11.05-13.82-21.71-23.32-28.44-1.78-1.28-4.5-1.27-6.07-2.91-2.24-2.32-.12-3.98-.73-5.8-1.46-4.36-7.15-10.93-11-15.68-4.05-4.98-6.57-9.43-10.74-14.38-1.82-2.15-6.97-8.7-10.98-10.47-5.07-2.23-7.75-1.04-12.2-.86-12.18.52-20.07-7.85-28.7-15.04-4.22.42-9.45 2.4-14.21 2.22-5.45-.21-.96-.06-7.08-1.63-11.02-2.83-17.47-2.19-28.6-5.37-13.99-4-28.11-4.63-22.56 2.67 6.29 8.25 1.95 5.66-14.33 5.16-4.7-.15-8.91.49-12.94.41-7.4-.15-14.6-1.93-21.73-.27-8.13 1.89-9.65 6.09-13.51 8.85-6.17 4.42-11.84 4.69-20.6 7.62-5.87 1.97-3.65 3.33-4.75 4.88-1.24 1.74-1.9 2.34-5.73 4.76-21.09-4.59-43.99-.2-64.55 3.3-15.46 2.63-37.77.44-49.56 13.37 4.2-.33 12.4-2.37 10.62.91z"/></g><g class="uuid-28188b87-7730-47cd-a965-dbdd67e419d2"><path class="uuid-25dd6c8c-7c8d-4547-a217-97f9fb304fd6" d="M459.19 617.06c1.86-1.1 7.65.08 10.59.29 5.09.36 17.32-.73 14-3.25-7.13-5.4-20.4.36-29.6-.86-6.08-.82-13.35-5.88-17.17-8.39-5.48-3.62-11.72-5.94-17.86-8.19-9.02-3.28-21.9-8.45-26.08-17.47-.88-1.9-2.86-7.14.37-6.98 3.38.16 8.78 4.26 12.71 5.66 2.91 1.02 5.45 1.87 6.89.84.86-.62-.8-2.39-.28-2.99.6-.7 1.73-.5 3.09-.8 2.11-.47 3.7.07 3.32-1.71-.49-2.27-9.28-7.15-5.9-7.45 5.77-.52 12.46 4.51 18.42 5.95 2.07.5 6.69.46 7.78-.34 1.46-1.1-1.19-2.01-.66-3.69.79-2.53 7.99-2.88 10.75-4.43 4.9-2.73 2.93-5.7 4.03-9.57.36-1.27 1.49-2.05.59-3.3-.96-1.33-3.08-1.33-3.97-2.63-.96-1.42.21-2.42-1.36-4.13-1.1-1.19-3.49-3.51-5.06-4.47-2.32-1.43-2.27-1.14-4.7-.97-3.55.22-4.39.31-8.62-1.02-7.22-2.24-8.66-.4-14.05.18-1.82.21-6.83.83-8.24-.76 3.06-.1 5.77-1.99.86-5.16-1.28-.82-3.42-.54-4.89-1.25-1.83-.88-3.32-2.17-4.33-3.6 2.1-1.43 5.08-.31 2.74-3.91-.89-1.35-3.41-3.69-4.88-5.03-2.38-2.14-3.05-2.12-4.76-4.87-1.86-3.01-3.72-6.02-5.6-8.91 1.08.09 2.2.15 3.25.19-2.28-7.91-12.34-9.78-17.34-14.88-2.94-2.99-3.78-9.26-2.61-10.79.84-1.12 1.84-.62 1.99-2.4.12-1.65-1.46-4.27-1.31-6.04.29-3.7 3.95-3.88 6.57-.51 3.68 4.72 4.4 7.93 5.41 12.63.28 1.33.87 5.23 2.44 6.37 1.18.87 2.88-.14 3.93.23 2.73.96 4.46 5.06 7.7 5.13-.14-3.69 1.35-3.44 3.41-3.24.19-1.3.49-2.58 1.17-3.55-1.94-.05-4.33-.66-6.41-1-2.27-5.76 3.41-3.47 1.55-8.39-.63-.03-1.51-.62-2.19-.57-1.73-4.31.76-3.6 2.19-5.85.75-1.21.22-1.63.2-3.24-.03-2.17-.26-1.65 1.16-3.33 2.37-2.85 1.38-7.62 3.04-10.78 1.66-3.13 4.66-8.31 1.98-11.92-.09-.12-1.38-.49-1.69-.78-.58-.56-.32-1.66-.93-2.17-2.08-1.73-1.72.2-2.14 1.8-.32 1.23-.61 3.44-1.13 4.56-.68 1.43-2.48 1.7-3.51 2.67-1.46 1.37-3.74 4.13-5.23.46-.58-1.4.62-2.75-.44-4.18-.89-1.19-2.88-1.44-3.87-1.21-1.38-2.24-1.17-3.56-3.87-3.93-1.52-.2-2.6.79-4.18-.49-.08-3.65.39-6.63 2.65-8.51-3.27-3.22 7.13-13.55 6.75-16.38-.44-3.28-4.64-2.24-6.65-3.55-.45-.29-1.39-.18-1.66-.57-.75-1.06.25-3.27-.44-4.02-1-1.09-1.64.05-2.81-.21-2.45-.52-3.57-3.58-5.73-4.33-2.81-.96-5.59 6.86-6.46-1.69-.44-4.36-1.39-8.01-3.18-12.02-1.86-4.16-3.5-2.23-6.01-4.36-1.3-1.1-2.11-3.82-3.11-5.44-1.18-1.91-2.75-3.34-3.91-5.28-.79.43-4.12 5.43-3.78 7.38.15.78 1.56 2.04 1.97 2.54-1.07 5.37-2.06 1.38-4.32 1.55-2.31.18-2.74 3.72-3.83 6.04-1.18-1.23-2.38-3.34-3.63-4.32-1.77-1.39-3.12-1.56-4.71-4.25-1.81-3.05-2.14-6.69-2.99-10.67-.89-4.19-.66-4.04-.12-8.3.55-4.32-.79-3.02-1.22-6.52-.49-3.95 3.16-9.46 3.28-14.38.05-1.54-.63-2.42-.5-3.78.28-3.11 2.95-7.21 2.84-10.37-.14-3.89-2.66-1.67-3.4-4.47 1.79-2.96 9.5-12.36 5.9-14.83-1.46-1.02-5.83 2.63-7.48 5.23-1.89 2.97-2.06 5.72-1.23 8.42-3.7 6.01-2.98-4.6-5.88-4.25-2.5.29-8.56 9.67-10.68 13.51-3.44 6.24-.46 9.79-4.15 15.49-1.41 2.18-3.67 6.74-5.18 7.92-2.09 1.64-5.77.42-7.24-1.97-1.19-1.94-1.86-7.77-3.24-8.87-1.1-.87-4.27 2.37-4.84 5.37-.72 3.72 1.19 3.27 1.46 6.35.44 5.18-3.04 10.06-3.11 14.98-.12 7.04 5.38 11.97 6.76 18.43.88 4.1-1.13 8.53.45 12.92 1.16 3.21 4.61 5.98 6.25 5.68-1.55 6.42-4.06 12.48-4.93 19.05 2.29 2.85 5.66 2.37 7.91 2.73 2.56.42 4.1-.51 6.29-1.73 1.04-.58 2.27-2.01 3.51-.32-.35 3.52-2.02 11.71.09 15.93.78 1.54 1.76 1.94 2.78 2.83.83.72 3.96 1.7 4.06 1.8 1.9 2.14.38 4.06 1.71 7.22 1.97 4.62 4.69 5.48 3.52 10.13-3.18-1.89-6.14-3.46-9.16-4.72-4.07-1.7-4.47 3.11-3.68 9.13.27.28.55.43.82.68-.35 2.28-8.49-4.78-10.63-5.27-4.81-1.09-5.6 2.89-5.6 9.2-4.56-3.14-11.86-4.35-13.47-.76-2.8 6.29.39 15.92 3.25 22.5.54 1.26 1.98 2.12 2.3 3.49.43 1.94-1.21 2.14-1.48 3.3-.61 2.77.28 8.08.82 11.82.55 3.92.47 7.09 1.09 11.05.26 1.72.91 6.83 2.47 9.04 1.97 2.8 3.77 3.04 6.18 4.36 6.61 3.61 8.12 10.57 10.38 17.13 2.36 1.13 5.77 1.75 8.23 3.36 2.82 1.87.49.35 3.22 3.13 4.93 5.02 8.54 6.74 13.43 11.99 6.12 6.59 13.4 11.43 12.79 5.8-.69-6.38.78-3.61 9.24 1.85 2.44 1.59 4.86 2.59 6.98 3.92 3.87 2.44 7.11 5.67 11.41 7.09 4.92 1.6 7.06-.14 9.99-.37 4.67-.38 7.76 1.3 13.33 2.54 3.75.85 3-.58 4.08-1.06 1.22-.53 1.74-.62 4.56-.68 9.7 9.15 23.22 14.16 35.23 18.88 9.02 3.54 20.13 11.84 30.51 8.76-2.33-1.16-7.32-2.71-5.33-3.87z"/></g><g class="uuid-3ea12c21-bcfe-4b83-bee3-53c84b425c90"><path class="uuid-25dd6c8c-7c8d-4547-a217-97f9fb304fd6" d="M760.4 385.85c-2.74.01-3.82-4-4.82-5.76-1.76-3.05-7.07-9.8-11.18-5.14-6.41 7.22 10.61 12.44 12.69 16.75 1.93 4.03-1 11.66-2.12 15.72-1.68 6.09-.9 8.81 1.55 15.22 3.04 7.94 5.89 18.82.13 26.15-1.8 2.29-6.38 8.16-9.64 7.08-3.4-1.15-3.49-7.08-5.43-9.85-1.44-2.05-2.64-3.87-5.47-3.38-1.68.29-2.58 2.7-3.94 3.11-1.57.49-2.34-.17-4.05-.41-2.65-.37-3.36-1.6-5.52.34-2.78 2.49-.06 10.74-4.81 10.01-5.26-.79-5.87-10.97-8.56-14.22-1.22-1.48-4.85-3.82-6.94-3.62-2.81.28-2.06 2.58-4.99 3.94-4.41 2.04-10.73-1.63-15.21-1.83-7.86-.33-10.93 3.65-17.67 6.64-2.21.98-4.3.99-5.5 2.79-1.26 1.92.41 3.32-.82 5.18-1.33 2.01-3.82 2.24-5.04 5.01-.86 1.9-2.17 5.81-2.14 7.82.04 2.95.42 2.65 2.97 3.98 3.71 1.96 4.59 2.35 7.08 6.14 4.26 6.46 8.47 5.16 15.23 6.99 2.29.64 8.76 2.08 8.39 4.42-3.67-1.14-9.34-.2-7.48 5.43.49 1.46 3.41 2.01 4.34 3.38 1.15 1.7 1.46 3.7 1.05 5.71-4.29.89-6.77-1.55-7.99 3.53-.46 1.9.11 5.57.57 7.65.75 3.34 1.65 3.51 1.07 7.33-.62 4.15-1.1 8.36-1.22 12.37-1.46-.36-2.97-.73-4.45-1.09-5.33 10.09 9.5 15.19 12.51 21.91 1.95 4.39-.93 12.04-3.83 13.97-2.1 1.42-3.38.69-4.79 3.01-1.3 2.16-.43 5.67-1.73 8-2.71 4.87-8.86 5.1-11.01.38-3.04-6.65-1.82-11.18.25-17.54.59-1.79 2.83-6.96 1.41-8.78-1.06-1.36-4.49-.42-5.76-1.17-3.28-1.9-2.1-7.7-6.74-8.84-3.32 4.83-5.21 4.05-8.06 3.07-1.52 1.63-3.15 3.22-5.05 4.27 2.83.76 5.85 2.34 8.69 3.43-1.63 8.31-8.37 3.55-9.47 10.88.96.22 1.85 1.3 2.95 1.4-.71 6.38-4 4.75-7.95 7.55-2.11 1.48-1.6 2.24-2.71 4.56-1.49 3.1-.76 2.42-4.2 4.49-5.81 3.51-7.23 10.91-11.84 15.36-4.58 4.41-12.5 12-9.3 18.53.11.23 2.25 1.1 2.67 1.63.79 1.03-.06 2.8.83 3.72 3.08 3.19 3.11-.08 4.42-2.62 1.01-1.95 2.42-5.43 3.82-7.11 1.79-2.14 5.02-2.3 7.23-3.65 3.14-1.9 8.23-5.77 9.2-.15.36 2.17-2.24 4.14-.95 6.37 1.09 1.87 4.47 2.25 6.27 1.9 1.61 3.35.89 5.37 5.5 5.73 2.56.19 4.72-1.34 7.15.32-.84 5.32-2.19 9.79-6.46 12.98 5.28 4.3-13.58 22.48-12.66 26.94 1.07 5.14 8.49 2.18 12.26 3.43.84.28 2.48-.22 3.02.26 1.49 1.34.12 5.06 1.49 5.89 1.97 1.22 2.88-.76 4.99-.91 4.43-.31 7.1 3.55 11.08 3.47 5.16-.11 7.9-12.1 11.69-1.19 1.94 5.57 4.86 9.8 9.59 13.61 4.91 3.94 6.88.38 12.1 1.07 2.68.34 5.31 2.87 7.79 3.91 2.93 1.24 6.28 1.55 9.26 2.67 1.08-1.11 4.05-9 2.59-10.83-.59-.74-3.52-1.05-4.43-1.31-.53-6.72 2.89-3.02 6.62-4.85 3.83-1.88 3.18-6 4.25-9.27 2.42.52 5.2 1.9 7.66 2.03 3.5.18 5.82-.64 9.57.82 4.26 1.67 6.35 4.9 9.74 7.85 3.55 3.11 3.07 3.15 4.62 7.32 1.59 4.21 2.99 1.93 5.87 4.42 3.24 2.78 1.23 10.43 4.75 14.14 1.11 1.16 2.82 1.14 3.7 2.21 1.99 2.44 1.37 7.79 4.28 9.66 3.61 2.29 5.38-1.6 8.93-.72 0 3.52-1.9 16.5 5.57 13.91 3.04-1.04 5.54-7.29 5.46-10.29-.08-3.42-2.29-5.04-5.87-5.74.12-7.11 8.41-.49 12.37-3.58 3.38-2.64 4.59-13.64 4.93-17.93.55-6.92-6.51-6.49-4.25-13.66.86-2.74 1.81-7.89 3.59-10.04 2.46-2.94 9.07-5.24 12.75-4.9 2.99.26 7.45 3.4 10.33 2.84 2.27-.44 5.36-5.2 4.62-7.61-.92-2.94-3.75-1.02-5.75-2.84-3.39-3.07 0-9.27-1.73-13-2.92-6.23-13.37-4.25-17.38-9.07-2.43-2.91-.1-7.89-3.48-10.65-2.47-2-8.63-2.23-11.37-.88 1.49-7.22 6.34-13.6 7.72-20.72-3.78-1.36-9.5.96-13.3 1.83-4.33 1.02-7.03 2.76-10.83 5.18-1.81 1.15-3.99 3.28-6.01 2.22.81-3.78 4.59-12.96 1.83-16.39-1-1.23-2.57-1.23-4.11-1.71-1.26-.39-6.32-.09-6.46-.18-2.7-1.49.36-4.21-.92-7.13-1.88-4.26-6.12-4.34-2.33-9.84 4.54 1.03 8.91 1.7 13.54 1.89 6.24.26 8.42-4.98 9.54-11.01-.33-.22-.73-.27-1.09-.42 1.51-2.54 12.22 1.77 15.63 1.39 7.62-.86 10.19-5.19 12.76-11.49 6.23 1.35 17.03-.36 21.93-4.86 4.98-4.56 6.27-14.31 4.99-20.39-.22-1.02-2.05-1.36-1.79-2.59.38-1.74 3.13-2.5 4.22-3.72 2.58-2.91 4.35-7.75 5.93-11.24 1.68-3.67 3.95-6.77 5.8-10.44.81-1.6 3.57-6.41 2.91-8.18-.84-2.24-3.34-2.02-5.87-2.82-8.26-2.64-2.38-9.2-.43-15.05-2.34-.76-6.57-.93-8.46-2.28-2.17-1.53-.4-.25-1.46-2.8-1.9-4.56-5.01-6.07-5.77-11.22-.97-6.46-4.36-11.59-10.01-5.85-6.37 6.47-5.4 3.8-9.26-2.34-1.12-1.78-2.82-3.01-3.69-4.59-1.59-2.87-1.27-6.54-4.26-8.63-3.41-2.36-7.92-1.05-11.37-1.4-5.49-.57-6.51-2.93-10.41-5.62-2.61-1.8-3.8-.19-5.5-.03-1.93.19-2.61.15-5.4-.63 3.08-9.55-.23-21.44-1.77-30.99-.97-6.04 4.59-20.54-4.44-22.18-.74 2.2-.56 6.04-3.49 6.06z"/></g><g class="uuid-3ea12c21-bcfe-4b83-bee3-53c84b425c90"><path class="uuid-25dd6c8c-7c8d-4547-a217-97f9fb304fd6" d="M216.01 529.56c-.45.59-1.5.15-2.06.08-.95-.12-3.3-.1-2.98 1.59.51 2.59 4.47-.25 5.75.02 1.2.25 2.37 2.15 3.08 3.07 1.03 1.37 1.76 1.66 3.56 2.19 2.24.66 5.07 1.86 5.7 4.32.19.78.71 2.74-.07 3.28-.81.55-2.11-.41-3.04-.45-.69-.05-1.29-.07-1.65.62-.22.42.16 1.02.02 1.36-.15.42-.42.48-.76.82-.52.52-.9.46-.85 1.26.09 1.02 2.33 1.8 1.39 2.7-1.06 1-3.37-.55-4.52-.51-.52.01-1.63.42-1.94.91-.4.66.22.89.03 1.74-.29 1.29-2.14 2.05-2.92 3-1.38 1.66-1.03 2.98-1.5 4.94-.16.66-.5 1.1-.31 1.66.2.6.79.48.99 1.05.22.62-.15 1.21.25 1.93.27.5.91 1.44 1.35 1.76.65.48.65.34 1.36.02 1.03-.48 1.26-.61 2.51-.52 2.11.14 2.53-.99 4.05-2.14.52-.41 1.91-1.57 2.37-1.1-.86.61-1.6 2-.06 2.54.39.14 1-.4 1.46-.38.55.03 1.05.3 1.41.72-.52 1.08-1.46 1.21-.55 2.33.33.42 1.22.91 1.76 1.14.85.4 1.03.23 1.77.99.8.83 1.63 1.63 2.48 2.32-.32.26-.66.53-.97.79 1.3 2.82 4.87.46 6.84.92 1.28.3 2.47 2.2 2.4 3.15-.05.69-.42.86-.15 1.55.25.66 1.16 1.03 1.45 1.71.6 1.39-.36 2.77-1.75 2.44-1.94-.43-2.73-1.45-3.77-2.96-.29-.43-1.05-1.78-1.68-1.76-.47 0-.83.89-1.21 1.06-.96.39-2.02-.82-3.04 0 .49 1.53 0 1.8-.67 2.27.1.59.18 1.22.09 1.8.63-.49 1.48-.88 2.2-1.32 1.53 1.73-.62 2.4.78 3.86.21-.18.59-.18.8-.41 1.26 1.22.36 1.67.32 2.98-.02.71.22.72.55 1.35.42.84.39.57.27 1.66-.21 1.85 1.17 3.38 1.38 5.12.18 1.73.52 4.72 2.47 5.11.07.02.61-.32.8-.32.35 0 .6.48.95.44 1.19-.14.5-.68.17-1.39-.26-.56-.79-1.44-.92-2.03-.17-.74.34-1.46.41-2.17.12-1.01.12-2.76 1.5-2.03.53.28.53 1.17 1.23 1.26.59.07 1.23-.6 1.46-1.05.99.21 1.31.71 2.16-.24.47-.53.49-1.25 1.26-1.51 1.01 1.07 1.76 2.1 1.75 3.57 1.82-.43 2.63 6.68 3.75 7.23 1.3.62 1.88-1.48 2.78-2.1.21-.13.36-.58.56-.61.53-.11 1.12.82 1.53.66.6-.23.32-.75.63-1.24.66-1.02 1.95-.96 2.59-1.83.84-1.14-1.31-3.72 1.69-2.74 1.53.5 2.94.57 4.56.17 1.67-.4 1.23-1.42 2.24-2.45.52-.53 1.5-.67 2.15-1.05.76-.42 1.37-1.1 2.11-1.56-.05-.42-1.28-2.37-1.92-2.36-.25.01-.82.59-1.03.75-1.55-.99-.18-1.13.05-2.24.23-1.16-.77-1.7-1.31-2.47.52-.43 1.28-.81 1.71-1.33.62-.73.84-1.36 1.78-1.94 1.06-.64 2.12-.55 3.33-.8 1.26-.25 1.19-.15 2.35.2 1.18.37.92-.32 1.93-.54 1.14-.23 2.47 1.46 3.87 1.33.43-.05.71-.42 1.09-.44.86-.04 1.93.99 2.81.67 1.1-.4.55-1.44 1.33-2.05.76.57 3.26 3.14 3.94 1.08.29-.82-.66-2.41-1.33-2.89-.76-.55-1.47-.34-2.23.33-1.52-1.23 1.3-1.92 1.28-3.29 0-1.16-2.2-3.26-3.08-4.05-1.42-1.27-2.5.33-3.68-1.36-.46-.64-1.41-1.7-1.58-2.44-.24-1.03.36-2.85 1.05-3.58.56-.61 1.99-1.05 2.34-1.78.28-.55-.24-2.02-.88-2.25-.79-.3-.85.64-1.58.77-1.23.22-2.01-1.55-3.11-1.79-1.84-.39-3.14 2.2-4.86 2.27-1.03.04-1.73-1.29-2.89-1.01-.85.21-1.92 1.51-2.09 2.33-1.32-1.53-1.9-3.64-3.22-5.12-.92.59-1.37 2.21-1.81 3.19-.49 1.11-.57 1.98-.68 3.21-.05.59.05 1.41-.52 1.67-.69-.8-2.05-3.15-3.25-3.11-.44 0-.69.35-1.06.6-.3.22-1.06 1.36-1.12 1.39-.77.32-.85-.78-1.7-.99-1.24-.3-1.96.61-2.53-1.13.98-.82 1.85-1.66 2.66-2.64 1.09-1.32.32-2.66-.81-3.9-.1.03-.18.11-.27.17-.3-.76 2.41-2.37 2.9-3.17 1.08-1.8.57-3.08-.37-4.69 1.33-1.14 2.75-3.76 2.58-5.58-.16-1.83-2.07-3.73-3.6-4.48-.25-.11-.63.23-.86-.03-.32-.38-.02-1.09-.12-1.54-.2-1.05-.96-2.23-1.45-3.15-.52-.98-.82-1.98-1.31-3-.22-.45-.8-1.83-1.3-2-.62-.19-.99.39-1.59.81-1.95 1.35-2.39-1-3.34-2.4-.56.36-1.3 1.27-1.9 1.45-.69.22-.13.04-.86-.14-1.3-.35-2.15.07-3.4-.61-1.56-.87-3.24-.99-2.93 1.19.34 2.46-.08 1.8-2.06 1.63-.56-.05-1.13.11-1.6.04-.89-.14-1.64-.83-2.59-.52-1.08.34-1.54 1.55-2.19 2.24-1.04 1.09-1.73.92-2.95 1.33-.82.26-.68.79-.93 1.19-.28.45-.39.59-1.03 1.06-1.56-2.26-4.69-3.51-7.03-4.77-1.48-.8-3.71-4.41-5.56-2.71.35.52 1.22 1.12.73 1.76z"/></g><g class="uuid-3ea12c21-bcfe-4b83-bee3-53c84b425c90"><path class="uuid-25dd6c8c-7c8d-4547-a217-97f9fb304fd6" d="M94.3 513.39c-.17.22-.55.07-.76.04-.35-.05-1.2-.04-1.08.57.19.96 1.63-.08 2.1.02.43.08.86.79 1.11 1.11.39.51.66.62 1.3.8.82.25 1.85.68 2.08 1.58.07.28.26 1-.02 1.19-.3.2-.77-.15-1.11-.18-.25 0-.46-.02-.6.25-.09.15.06.36.01.49-.06.16-.15.18-.28.3-.2.19-.33.18-.32.46.03.36.85.65.51.99-.39.37-1.23-.2-1.65-.18-.19 0-.6.15-.71.32-.15.24.08.32 0 .64-.11.47-.78.74-1.06 1.09-.5.61-.37 1.09-.54 1.8-.06.25-.18.41-.12.61.07.22.29.18.36.38.08.23-.05.44.09.71.1.18.33.52.49.66.23.16.23.12.49 0 .38-.18.46-.23.92-.19.77.05.92-.37 1.48-.79.18-.15.69-.57.86-.39-.31.22-.58.72-.02.92.15.05.36-.15.53-.15.2.02.39.12.52.27-.19.39-.53.45-.21.85.13.15.45.34.65.42.3.15.37.08.64.35.29.31.6.59.91.86-.12.09-.24.19-.35.28.47 1.03 1.78.16 2.49.34.47.11.9.8.88 1.14-.02.25-.15.31-.05.57.09.23.42.36.52.62.22.5-.12 1-.63.88-.72-.15-.99-.52-1.37-1.07-.11-.15-.39-.65-.61-.65-.18 0-.31.32-.45.39-.35.15-.73-.3-1.1 0 .17.54 0 .65-.25.82.04.22.06.45.02.66.24-.18.55-.32.8-.48.55.62-.23.87.29 1.4.08-.05.22-.07.29-.14.47.43.14.6.12 1.09 0 .25.09.25.2.48.15.31.15.22.1.61-.08.68.42 1.23.5 1.87.07.64.19 1.73.9 1.86.03 0 .22-.11.29-.11.13 0 .22.16.35.15.43-.05.18-.25.06-.51-.09-.2-.28-.52-.33-.73-.06-.28.12-.54.15-.8.04-.35.04-1 .55-.73.18.1.18.42.45.46.21.03.45-.22.52-.38.36.07.48.24.79-.1.17-.19.18-.46.46-.54.37.39.64.76.63 1.29.67-.15.96 2.44 1.37 2.65.47.22.69-.55 1.02-.78.07-.05.13-.2.2-.22.2-.04.42.3.56.25.21-.09.12-.28.23-.46.24-.37.71-.34.94-.66.31-.42-.49-1.36.62-.99.56.18 1.07.21 1.67.05.6-.15.44-.52.8-.88.2-.21.56-.26.79-.39.28-.15.5-.39.77-.56-.02-.16-.46-.86-.7-.86-.09 0-.3.22-.37.27-.56-.37-.07-.41.02-.82.08-.42-.29-.62-.48-.89.19-.16.47-.3.62-.49.23-.27.31-.5.65-.7.39-.25.78-.22 1.2-.3.46-.09.45-.05.87.07.43.14.33-.11.7-.19.42-.08.9.55 1.41.49.16-.03.26-.16.4-.16.32-.02.7.36 1.02.24.4-.15.21-.52.49-.75.28.21 1.19 1.16 1.43.39.1-.29-.24-.88-.48-1.06-.28-.19-.55-.12-.82.12-.55-.45.48-.69.47-1.19 0-.43-.81-1.19-1.13-1.48-.51-.46-.91.12-1.34-.49-.16-.24-.51-.61-.58-.89-.08-.36.14-1.03.39-1.3.2-.22.72-.39.85-.65.1-.21-.09-.74-.33-.83-.29-.09-.3.23-.57.3-.45.07-.73-.57-1.13-.67-.67-.13-1.15.82-1.77.85-.38 0-.64-.48-1.05-.39-.31.08-.71.56-.76.85-.48-.55-.7-1.33-1.17-1.87-.34.22-.5.8-.66 1.17-.18.41-.22.72-.25 1.16-.02.22.01.52-.19.62-.26-.3-.76-1.16-1.19-1.13-.16 0-.26.12-.39.21-.12.08-.4.5-.41.5-.28.14-.32-.27-.62-.35-.45-.11-.72.22-.92-.41.36-.29.67-.61.97-.96.39-.47.12-.96-.3-1.41-.03.02-.07.03-.09.05-.12-.29.88-.87 1.05-1.16.39-.65.21-1.13-.13-1.71.48-.4 1-1.37.95-2.02-.06-.68-.76-1.37-1.32-1.64-.09-.05-.23.08-.32-.01-.11-.14 0-.39-.04-.55-.07-.39-.35-.82-.53-1.16-.18-.35-.29-.72-.47-1.09-.09-.16-.29-.68-.48-.73-.23-.07-.36.15-.58.3-.71.49-.86-.37-1.22-.89-.2.14-.47.48-.69.53-.25.08-.04.02-.31-.05-.48-.12-.79.02-1.24-.22-.57-.32-1.18-.35-1.07.43.13.91-.03.66-.74.6-.22-.03-.42.04-.59 0-.32-.04-.59-.29-.94-.18-.39.12-.56.56-.8.82-.38.39-.62.34-1.07.48-.3.09-.25.3-.34.43-.1.16-.15.22-.38.39-.57-.82-1.71-1.29-2.56-1.73-.55-.28-1.36-1.62-2.03-.99.14.19.45.41.28.64z"/></g><g class="uuid-3ea12c21-bcfe-4b83-bee3-53c84b425c90"><path class="uuid-25dd6c8c-7c8d-4547-a217-97f9fb304fd6" d="M216.87 276.21c-.17.22-.55.05-.76.02-.35-.04-1.2-.02-1.09.58.19.95 1.64-.08 2.1 0 .44.09.86.79 1.12 1.13.38.5.64.6 1.3.79.81.24 1.84.68 2.08 1.58.06.28.25.99-.03 1.19-.3.2-.77-.15-1.11-.16-.25-.01-.46-.02-.59.23-.08.15.05.36 0 .49-.05.16-.15.18-.28.3-.19.19-.32.17-.31.45.04.38.85.66.5.99-.38.37-1.22-.19-1.65-.18-.18 0-.59.15-.69.33-.15.24.07.32 0 .63-.12.48-.79.75-1.07 1.09-.5.61-.37 1.09-.54 1.8-.06.24-.19.41-.12.61.07.22.29.17.36.38.08.23-.05.44.09.7.1.19.33.52.49.64.23.18.23.13.5 0 .38-.16.45-.22.91-.19.78.05.92-.36 1.48-.78.18-.15.69-.57.86-.39-.31.22-.58.72-.02.92.14.05.36-.15.52-.14.21 0 .39.11.52.26-.19.39-.52.44-.21.85.13.15.45.33.65.42.31.15.37.08.64.35.29.31.6.59.91.86-.12.08-.24.18-.35.27.47 1.03 1.78.17 2.49.34.47.11.9.8.88 1.16-.02.25-.15.3-.05.56.08.22.42.38.52.62.22.51-.12 1.02-.63.89-.7-.16-.99-.53-1.37-1.09-.11-.15-.39-.63-.62-.63-.17 0-.3.32-.43.38-.35.15-.74-.3-1.11 0 .18.55 0 .66-.25.82.04.22.06.45.03.66.23-.18.54-.33.79-.49.56.64-.22.88.29 1.41.08-.06.21-.06.29-.15.46.45.14.61.12 1.09 0 .25.09.25.2.49.15.3.15.2.1.6-.07.68.42 1.23.5 1.87s.19 1.72.9 1.87c.03 0 .22-.12.29-.12.13 0 .22.18.35.16.43-.05.18-.25.06-.52-.09-.19-.28-.52-.33-.73-.06-.27.12-.53.15-.79.04-.37.04-1.01.55-.74.19.1.18.43.45.46.21.02.46-.22.52-.39.37.08.49.25.79-.09.17-.19.18-.46.46-.55.37.39.65.77.63 1.3.67-.15.96 2.43 1.37 2.64.47.22.69-.54 1.02-.76.07-.05.13-.21.2-.22.2-.04.42.29.56.24.22-.08.12-.28.23-.45.24-.36.71-.35.95-.67.29-.41-.49-1.35.61-.99.56.18 1.07.21 1.66.07.61-.15.45-.53.82-.9.19-.19.55-.24.79-.38.28-.15.51-.4.77-.57-.02-.15-.47-.86-.7-.86-.09 0-.3.21-.37.28-.56-.37-.06-.42.02-.82.08-.42-.29-.62-.47-.89.18-.16.45-.29.62-.49.22-.27.3-.49.64-.71.39-.24.77-.21 1.21-.29.46-.1.44-.05.86.08.43.13.33-.12.71-.19.41-.09.9.52 1.4.48.15-.02.26-.15.4-.16.32 0 .7.36 1.03.25.4-.15.2-.53.49-.76.28.22 1.19 1.16 1.43.41.11-.31-.24-.88-.48-1.06-.28-.2-.54-.12-.82.12-.55-.43.47-.69.47-1.19 0-.44-.8-1.19-1.12-1.48-.52-.46-.92.12-1.35-.49-.16-.23-.52-.62-.58-.89-.08-.37.15-1.04.39-1.3.21-.23.72-.39.86-.65.1-.21-.09-.74-.32-.82-.29-.11-.31.23-.58.29-.45.08-.73-.56-1.13-.66-.67-.14-1.15.81-1.77.83-.38.01-.63-.47-1.05-.37-.32.08-.71.55-.76.85-.49-.55-.7-1.33-1.17-1.87-.34.22-.5.81-.66 1.17-.18.4-.21.72-.25 1.16-.02.22.01.52-.19.61-.26-.29-.76-1.14-1.19-1.14-.16 0-.26.14-.39.23-.11.07-.39.49-.4.5-.28.12-.32-.28-.62-.37-.45-.1-.72.23-.93-.4.36-.3.68-.6.98-.96.4-.48.12-.96-.3-1.42-.03 0-.06.04-.09.06-.11-.27.88-.86 1.06-1.16.39-.66.21-1.13-.14-1.71.48-.41 1-1.36.94-2.03-.05-.66-.76-1.36-1.31-1.63-.09-.05-.23.09-.31-.01-.12-.13-.01-.4-.05-.56-.07-.38-.35-.81-.52-1.15-.19-.36-.3-.72-.48-1.09-.08-.15-.29-.67-.48-.72-.22-.07-.35.14-.58.29-.71.5-.87-.36-1.21-.87-.21.14-.48.45-.7.53-.25.08-.05 0-.31-.06-.47-.12-.79.03-1.24-.22-.57-.32-1.18-.36-1.06.43.12.9-.03.66-.76.59-.2-.02-.41.05-.59.02-.32-.05-.59-.3-.94-.19-.39.13-.56.56-.8.82-.37.4-.62.34-1.07.49-.3.1-.25.29-.33.43-.11.16-.15.22-.39.39-.57-.82-1.71-1.29-2.57-1.73-.53-.3-1.34-1.61-2.02-.99.13.19.44.41.27.65z"/></g><g class="uuid-3ea12c21-bcfe-4b83-bee3-53c84b425c90"><path class="uuid-25dd6c8c-7c8d-4547-a217-97f9fb304fd6" d="M301.03 331.84c-.23-.14-.12-.54-.11-.75 0-.34-.09-1.2-.69-1.02-.92.28.25 1.62.21 2.09-.05.45-.7.94-1.01 1.22-.45.43-.53.7-.66 1.38-.15.83-.49 1.9-1.36 2.22-.26.11-.96.36-1.18.1-.23-.28.08-.79.05-1.13-.02-.25-.02-.46-.29-.57-.15-.06-.36.1-.49.06-.16-.05-.19-.14-.32-.25-.2-.18-.2-.31-.49-.26-.37.06-.57.91-.93.59-.41-.35.08-1.24.01-1.65-.02-.19-.21-.59-.4-.67-.25-.13-.31.11-.62.07-.49-.06-.82-.7-1.19-.96-.66-.44-1.12-.26-1.85-.36-.24-.04-.42-.14-.61-.05-.21.1-.14.31-.35.4-.22.1-.44-.02-.69.16-.18.12-.49.39-.59.55-.15.25-.1.25.05.5.2.36.26.43.27.89.03.76.45.87.93 1.39.16.17.63.63.47.81-.24-.28-.78-.5-.91.07-.04.15.18.35.19.52 0 .2-.07.4-.22.54-.41-.14-.49-.49-.86-.12-.15.14-.28.48-.35.69-.12.32-.05.38-.3.67-.27.32-.52.66-.75.99-.11-.1-.22-.22-.32-.32-.98.57.02 1.77-.08 2.5-.06.48-.71.98-1.06.99-.25 0-.32-.12-.57 0-.22.12-.33.46-.56.59-.48.27-1.02-.04-.95-.55.09-.72.43-1.03.93-1.47.15-.12.61-.44.58-.66-.01-.18-.35-.27-.42-.4-.18-.34.22-.76-.11-1.11-.54.23-.66.08-.86-.16-.22.06-.43.11-.64.1.19.22.37.51.55.75-.58.62-.89-.14-1.37.42.07.07.09.21.18.28-.39.5-.59.19-1.06.22-.26.02-.25.1-.48.24-.28.19-.19.17-.59.17-.68-.02-1.19.54-1.8.68-.62.14-1.7.36-1.76 1.09 0 .02.14.21.14.28.01.13-.15.23-.12.35.09.44.25.16.51.01.19-.12.49-.33.7-.41.26-.09.55.08.8.08.36 0 1-.06.79.46-.09.2-.41.24-.42.49 0 .22.25.42.42.49-.03.37-.2.5.17.77.21.15.47.14.59.4-.36.41-.7.72-1.23.76.22.65-2.34 1.2-2.5 1.63-.18.49.61.63.87.93.05.07.22.12.24.18.05.2-.25.45-.18.59.1.21.28.09.47.19.39.2.42.67.76.87.45.26 1.31-.62 1.05.51-.12.58-.09 1.09.11 1.66.21.6.56.39.97.72.21.17.3.52.46.74.18.26.45.46.65.71.15-.03.82-.54.79-.78-.02-.08-.25-.28-.31-.34.31-.6.4-.11.82-.07.43.05.59-.34.85-.56.18.17.34.44.55.57.28.2.52.25.76.58.27.36.28.75.42 1.17.14.45.09.43 0 .86-.08.45.16.32.27.69.13.4-.44.96-.34 1.45.03.15.18.25.19.38.05.32-.29.73-.14 1.05.19.38.54.15.79.4-.18.3-1.03 1.3-.25 1.47.31.08.86-.32 1.01-.59.16-.29.06-.55-.21-.79.39-.59.74.4 1.25.35.41-.05 1.09-.92 1.35-1.26.42-.56-.21-.89.36-1.39.22-.18.56-.57.82-.66.37-.12 1.05.04 1.34.25.24.18.45.68.72.79.22.09.72-.17.79-.41.08-.3-.27-.28-.34-.54-.12-.44.49-.79.52-1.19.09-.68-.91-1.06-.99-1.68-.05-.38.41-.67.25-1.09-.11-.3-.62-.64-.92-.67.51-.53 1.26-.82 1.74-1.36-.25-.32-.86-.41-1.23-.53-.42-.15-.75-.14-1.19-.13-.21 0-.51.07-.62-.13.27-.28 1.07-.86 1.02-1.29-.02-.16-.16-.24-.25-.36-.09-.1-.54-.34-.55-.36-.15-.26.25-.34.29-.66.07-.45-.28-.69.32-.96.33.33.66.61 1.05.87.51.35.97.02 1.39-.43-.01-.04-.05-.06-.07-.1.26-.13.95.79 1.26.94.69.33 1.13.09 1.69-.3.45.43 1.46.86 2.11.73.66-.12 1.28-.89 1.49-1.46.04-.1-.1-.22 0-.32.12-.13.39-.05.55-.09.37-.12.78-.44 1.09-.65.34-.22.69-.36 1.03-.58.15-.1.64-.36.69-.54.05-.24-.19-.35-.36-.55-.56-.67.28-.91.75-1.3-.16-.19-.51-.42-.59-.64-.1-.24-.02-.05.02-.32.07-.49-.11-.78.09-1.26.26-.6.24-1.21-.54-1.02-.89.22-.66.04-.66-.69 0-.21-.09-.4-.08-.59.02-.32.24-.62.09-.96-.16-.37-.62-.49-.89-.71-.43-.33-.4-.59-.58-1.03-.13-.29-.32-.21-.47-.29-.18-.08-.24-.12-.43-.33.77-.65 1.11-1.83 1.48-2.72.23-.57 1.46-1.5.79-2.13-.18.16-.37.49-.62.34z"/></g><path class="uuid-7b8132ee-f98b-41b6-8fec-e328b607def9" d="M409.18 652.84c-7.62 7.22-16.64 37.8-31.72 26.68-2.76 5.97.86 14.4-3.46 20.03-2.36 3.07-13.01 5.39-16.54 6.32-6.41 1.71-6.51-4.26-9.89 3.24-1.33 2.94 1.3 10.71.96 14.37-4.96.64-14.28 3.76-7.65 9.9 3.5 3.25 14.74.86 18.77-.08l1.1 4.4c-6.81 4.71.12 21.3 9.76 18.55 2.61-8.56-.55-17.61 1.24-26.21 1.68-8.16 3.11-7.11 8.79-11.09-.14.09 9.94-5.53 9.02-5.46 4.82-.37 7.2-1.55 6.37 5.48-.77 6.55-5.73 4.84-9.94 9.4-6 6.49-7.85 26.63 1.2 32.32.32-.57.62-1.14.89-1.73.86 11.91 16.48 13.58 18.89-1.26.45-2.83-2.9-3.53-3.37-6.72-.72-4.73-1.64-15.63.79-19.76 2.05-3.48 10.22-9.13 12.38-10.02 1.67-.66 2.65-2.47 5.53-3.35 2.13-.65 6.21 2.1 9.1 1.16 3.98-1.3 11.69-11.82 5.27-17.2-5.26-4.4-9.04 5.53-16.59.8-5.4-3.38 1.42-11.09-7.7-10.02 5.27-6.54 5.71-13.43 10.47-19.77 3.54-4.74 9.72-4.76 11.45-10.82-12.64-1.83-22.72 7.9-25.14-9.15z"/><g class="uuid-3ea12c21-bcfe-4b83-bee3-53c84b425c90"><path class="uuid-25dd6c8c-7c8d-4547-a217-97f9fb304fd6" d="M479.32 85.89c-.66.53-1.33 1.01-2.01 1.46.59.19 1.26.35 2.02.49.36-.65.36-1.3 0-1.95zm-107.58 40.59c6.13-3.03 8.12 2.89 8.8-7.11.54-8.32-4.14-9.8-11.67-8.41 3.96-5.82 9.33-15.79 16.29-18.91 5.33-2.38 12.61-.66 18.24-2.43 15.58-4.91 12.87-16.55.49-24.5 7.93-.55 16.83-1.84 23.43 3.05 6.61 4.9 7.63 13.63 15.03 17.67 10.89 5.95 24.08 8.75 34.96 1.52-8.26-2.57-2.83-9.77-5.46-15.07-2.67-5.4-9.83-9.84-16.63-9.67-4.36.12-11.42 7.28-16.78 2.63-5.47-4.75-.48-14.44 3.84-17.91-5.99-8.41-16.13-2.03-24.2-2.29-.35-5.97 1.92-15.45 0-21.17-4.04-12.05-16.29-8.92-27.42-8.42-16.72.76-32.63 2.63-48.79 6.51-4.46 1.06-9.07 1.71-13.73 2.17-116.63 33.7-213.55 113.82-269.5 219.05 6.37 1.51 12.56 7.48 20.49 6.26 1.83-2.62 6.1-7.86 9.81-9.7 3.26-1.61 9.59-1.43 12.36-3.31 8.46-5.73 12.53-24.26 24.19-26.5 5.69-1.09 6.98 2.8 13.09.07 8.04-3.61 9.16-10.99 14.42-3.2 1.21 1.8-.74 6.29-.11 8.37 1.22 3.99 4.91 6.41 5.6 7.97 2.22 5 1.06 12.84 9.72 13.44-.14 1.56.55 3.67.28 5.21 4.66-.91 23.58-1.93 25.28-6.32 11.64 1.47 8.09-27.04 12.29-36.36 8.52-.99 10.99 6.81 16 9.77.88-13.12-3.31-61.28 23.52-40.91 5.9 4.49 4.62 5.91 5.22 13.54.61 7.62 2.5 12.93 3.85 19.71 2.43 12.14-2.07 25.53-2.87 39.39-4.82 1.27-28.61 15.32-13.18 15.72-.75 2.27.29 4.89-.96 7.33 2.03 0 4.62 1.73 6.84 1.56-.51 3.05-2.98 10.81-1.45 14.1 1.72 3.68 5.94.45 7.8 3.67 3.75 6.53.9 19.38 11.9 20.36 1.55-11.18-7.87-17.21-5.35-25.31.13-.43 5.39.69 5.53.41 1.09-2.06.6-10.07.14-9.38 2.2-3.34 1.67-5.01 7.38-4.2 1.49-9-6.05-16.73-4.23-25.44 1.7-8.09 4.93-5.33 9.77-10.54-.62-.14-1.26-.24-1.9-.32-1.93-8.71 6.93-8.83 10.34-13.92 2.22-3.31 3.61-7 2.49-12.21-.56-2.64-5.82-4.99-5.41-7.81 2.8-19.18 22.05 7.58 27.4 8.67 2.15-11.81-10.72-12.46-7.33-20.47 1.94-4.59 20.7-13.11 3.5-17.81 2.22-4.4 11.5-10.47 17.05-10.78 6.64-.37 4.09-1.73 8.63 5.34 4.93 7.68 7.15 32.29 14.54 36.89 4.79 2.98 9.68-1.95 12.42-.87 6.63 2.62 6.14 11.18 9.67 17.34 5.87 10.17 11.11 8.34 22.91 7.99.18-9.53-8.59-7-12.93-12.29-4.45-5.41-4.16-15.57-5.45-22.18-1.98-10.16.43-27.67-5.93-35.86-5.44-7.01-10.14-1.77-7.78-12.08 1.63-7.07 8.8-9.73 13.52-12.06z"/></g><g class="uuid-3ea12c21-bcfe-4b83-bee3-53c84b425c90"><path class="uuid-25dd6c8c-7c8d-4547-a217-97f9fb304fd6" d="M809.99 382.37c11.53 1.75 30.92 3.82 31.23 20.13.17 9.21-6.04 8.8-8.64 15.03-4.94 11.79-3.86 2.83-2.48 14.11 1.65 13.53 8.9 25.03 5.85 39.55-2.61 12.48-10.9 27.15-16.25 38.36-4.34 9.11-9.72 23.51-21.34 25.23-6.99 1.05-7.61 1.1-13.01-4.11-8-7.75-3.58-10.37.15-16.65 7.25-12.23 24.06-12.73 26-29.24.42-3.58-2.69-8.61-2.96-11.75-1.18-13.8 1.6-20.26-11.85-26.38-3.92.73-13.62 5.91-16.54 5.35-10.84-2.05-3.14-6.54-10.14-10.85-11.75-7.24-24.06-1.4-32.49-15.8-.42 6.54-.11 13.26-.41 19.81-7.87-.75-16.32-2.46-24.33-1.27 3.59 7.07 15.79 6.34 19.82 14.68 1.57 3.24-.35 12.57-.52 16.23-13.28 1.71-42.61-7.53-37.42 18.09 3.22-.75 7.94 1.25 11.12.48.06 5.75.2 11.84.42 17.6 13.4 1.23 19.73 15.53 30.25 22.67 17.49 11.87 23.01 18.34 20.36 44.68-13.2-2.18-8.05 6.83-13.27 10.11-4.71 2.97-18.79 5.65-20.89 10.18-2.51 5.46 10.47 18.18 8.02 28.99-3.4 14.95-6.54 6.45-14.84 13.89-11.57 10.39-3.35 46.37-21.15 46.41-27.49.05 6.75-29.85-8.49-41.53-6.48-4.99-13.4 7.42-20.36-4.85-5.35-9.45 5.17-17.98 7.21-26.49 1.67-7.08.95-19.52-1.73-26.18-3.38-8.35-13-10.45-16.23-17.83-7.12-16.19 8.47-29.46-11.72-40.05-6.14-3.22-20.85-6.86-24.56 1.73-3.07 7.06 11.97 12.8 8.97 22.92-22.65 5.43 12.09 34.3 5.36 44.34-6.51 9.75-18.65.79-22.86 10.24-4.46 10.04 5.81 20.43 15.28 18.42-9.3 6.51-16.68 23.05-30.22 22.8-10.3-.21-11.27-10.16-21.14-9.34-1.63 9.06 9.71 31.9-.82 39.51-10.24 7.38-5.57-3.05-12.08-3.91-2.06-.27-11.02-.32-13.27-1.16-10.48-3.98-17.34-8.58-23.54-23-3.82-8.88-4.39-30.32-15.8-31.56-3.45 12.03 5.87 22.81 4.05 35.91-7.88-4.36-12.33-14.85-17.61-19.63-.25 6.74-.96 13.51-3.87 19.59-16.26-5.05-23.04-23.87-39.2-28.31-12.28-3.38-29.38-1.52-42.66-.93-.2 10.28 5.71 2.91 11.65 6.35 1.91 1.12 7.13 1.23 9.65 2.39 2.61 1.21 2.03 6.64 4.42 7.66 8.56 3.62 17.99 2.63 25.14 10.02 8.16 8.4 4.94 17.7 9.8 26.55 4.78 8.66 18.65 11.09 16.3 22.34-2.95.7-4.57 1.94-7.71 2.17 2.47 7.06 8.45 5.03 9.78 13.15.44 2.7-7.74 7.81-6.57 14.32 7.41 2.91 18.39 3.17 26.31 1.98 9.57-1.43 18.19-8.59 27.77-7.97 1.03 24.25 4.58 49.79-24.3 49.42-1.06 3.38-.87 9.58.32 12.8 9.76-2.16 22.87 3.21 12.32 11.82-5.97 4.87-19.93-6.06-15.94 9.54 8.16-1.75 13.54 2.61 13.23 11.18 8.69 1.11 18.49.43 27.53.84.89 21.02 2.07 29.65-14.64 39.43-6.02 3.51-9.78-.39-14.95 6.51-3.04 4.06 1.42 12.23-2.61 17.53-1.76 2.31-5.42 4.67-9.47 7.06C727.16 866.4 897.24 679.02 897.24 451.9c0-28.87-2.79-57.08-8.03-84.41-2.39-4.52-5.46-8.42-9.74-11.26-11.32-7.5-33.24-6.99-47.57-6.32 1.63 19.43-26.92 14.87-21.88 32.48z"/><path class="uuid-25dd6c8c-7c8d-4547-a217-97f9fb304fd6" d="M809.99 382.37c11.53 1.75 30.92 3.82 31.23 20.13.17 9.21-6.04 8.8-8.64 15.03-4.94 11.79-3.86 2.83-2.48 14.11 1.65 13.53 8.9 25.03 5.85 39.55-2.61 12.48-10.9 27.15-16.25 38.36-4.34 9.11-9.72 23.51-21.34 25.23-6.99 1.05-7.61 1.1-13.01-4.11-8-7.75-3.58-10.37.15-16.65 7.25-12.23 24.06-12.73 26-29.24.42-3.58-2.69-8.61-2.96-11.75-1.18-13.8 1.6-20.26-11.85-26.38-3.92.73-13.62 5.91-16.54 5.35-10.84-2.05-3.14-6.54-10.14-10.85-11.75-7.24-24.06-1.4-32.49-15.8-.42 6.54-.11 13.26-.41 19.81-7.87-.75-16.32-2.46-24.33-1.27 3.59 7.07 15.79 6.34 19.82 14.68 1.57 3.24-.35 12.57-.52 16.23-13.28 1.71-42.61-7.53-37.42 18.09 3.22-.75 7.94 1.25 11.12.48.06 5.75.2 11.84.42 17.6 13.4 1.23 19.73 15.53 30.25 22.67 17.49 11.87 23.01 18.34 20.36 44.68-13.2-2.18-8.05 6.83-13.27 10.11-4.71 2.97-18.79 5.65-20.89 10.18-2.51 5.46 10.47 18.18 8.02 28.99-3.4 14.95-6.54 6.45-14.84 13.89-11.57 10.39-3.35 46.37-21.15 46.41-27.49.05 6.75-29.85-8.49-41.53-6.48-4.99-13.4 7.42-20.36-4.85-5.35-9.45 5.17-17.98 7.21-26.49 1.67-7.08.95-19.52-1.73-26.18-3.38-8.35-13-10.45-16.23-17.83-7.12-16.19 8.47-29.46-11.72-40.05-6.14-3.22-20.85-6.86-24.56 1.73-3.07 7.06 11.97 12.8 8.97 22.92-22.65 5.43 12.09 34.3 5.36 44.34-6.51 9.75-18.65.79-22.86 10.24-4.46 10.04 5.81 20.43 15.28 18.42-9.3 6.51-16.68 23.05-30.22 22.8-10.3-.21-11.27-10.16-21.14-9.34-1.63 9.06 9.71 31.9-.82 39.51-10.24 7.38-5.57-3.05-12.08-3.91-2.06-.27-11.02-.32-13.27-1.16-10.48-3.98-17.34-8.58-23.54-23-3.82-8.88-4.39-30.32-15.8-31.56-3.45 12.03 5.87 22.81 4.05 35.91-7.88-4.36-12.33-14.85-17.61-19.63-.25 6.74-.96 13.51-3.87 19.59-16.26-5.05-23.04-23.87-39.2-28.31-12.28-3.38-29.38-1.52-42.66-.93-.2 10.28 5.71 2.91 11.65 6.35 1.91 1.12 7.13 1.23 9.65 2.39 2.61 1.21 2.03 6.64 4.42 7.66 8.56 3.62 17.99 2.63 25.14 10.02 8.16 8.4 4.94 17.7 9.8 26.55 4.78 8.66 18.65 11.09 16.3 22.34-2.95.7-4.57 1.94-7.71 2.17 2.47 7.06 8.45 5.03 9.78 13.15.44 2.7-7.74 7.81-6.57 14.32 7.41 2.91 18.39 3.17 26.31 1.98 9.57-1.43 18.19-8.59 27.77-7.97 1.03 24.25 4.58 49.79-24.3 49.42-1.06 3.38-.87 9.58.32 12.8 9.76-2.16 22.87 3.21 12.32 11.82-5.97 4.87-19.93-6.06-15.94 9.54 8.16-1.75 13.54 2.61 13.23 11.18 8.69 1.11 18.49.43 27.53.84.89 21.02 2.07 29.65-14.64 39.43-6.02 3.51-9.78-.39-14.95 6.51-3.04 4.06 1.42 12.23-2.61 17.53-1.76 2.31-5.42 4.67-9.47 7.06C727.16 866.4 897.24 679.02 897.24 451.9c0-28.87-2.79-57.08-8.03-84.41-2.39-4.52-5.46-8.42-9.74-11.26-11.32-7.5-33.24-6.99-47.57-6.32 1.63 19.43-26.92 14.87-21.88 32.48z"/></g><path d="M543.1 182.9c1.14 15.58 2.09 29.88-18.31 26.82-1.64 5.52-.3 9.4 3.05 12.95l13.2 9.89c.51 1.88 4.37 4.85 3.91 9.32 11.72 3.92 13.19-8.3 12.83-17.31 2.72-.59 5.24-.38 7.74.33-.73 3.07 1.23 7.72.5 10.75 5.7.13 11.6.28 17.31.46 1.57 13.06.16 27.36.82 40.71 17.65 3.25 11.86-10.35 14.48-19.63 6.07 8.8 24.23 7.19 26.2-5.22 2.07-13.09-13.54-9.28-22.36-17.15 9.96 5.11 31 10.41 32.54-3.79 1.4-12.8-16.81-13-24.76-23.14-9.33-11.91-11.46-16.43-27.64-21.72-11.1-3.63-27.31-6.76-39.51-3.28z" opacity=".52" fill="#fff" stroke-width="0"/><g opacity=".52"><path class="uuid-25dd6c8c-7c8d-4547-a217-97f9fb304fd6" d="M678.27 329.94c-1.19-.05-2.18.08-3.08.32.66 1.63 1.56 3.06 2.81 4.12.42-1.67.15-2.82.26-4.44z"/><path class="uuid-25dd6c8c-7c8d-4547-a217-97f9fb304fd6" d="M488.88 8.18c4.17 2.69 6.54 6.75 11.72 9.19 6 2.82 15.38 1.88 21.79 3.39 12.84 3.01 38.5 3.52 36.61 21.98 10.4 2.61 22.92-1.56 32.8 2.55 6.44 2.67 9.15 10.76 15.21 13.4 4.32 1.88 9.94.33 14.56.72 10.9.92 17.78 6.23 20.4 17.86 1.9 8.49-2.99 19.36-11.77 12.17 7.79 9.14-1.29 11.45-9.67 10.84 6.14 7.55 3.68 14.01-3.66 16.29-10.73 3.35-17.91-4.62-26.72-7.89 5.7 4.83 11.35 9.47 8.73 17.67-11.45.71-21.78 3.76-32.36 7.53-13.83 4.92-8.02 4.47-10.27 17.69-9.45-.19-29.95-1.36-26.11 12.96 9.02 1.17 17.16-1.4 26.25-1.79 4.31-.18 8.94.66 13.2 0 4.8-.76 7.95-3.5 12.11-4.45 10.43-2.4 10.91 2.94 19.79 5.6 9.6 2.87 14.62-1.5 23.34 6.22 14.38 12.74 12.54 13.45 27.2 1.73 7.83-6.26 21.99-9.58 19.81 6.29-1.6 11.72-21.03 9.25-7.92 19.56 3.66 2.89 7.4-2 11.12 3.51 2.78 4.12-.9 13.18-3.95 15.68 18.18 10.83-10.66 22.9-12.42 29.63-2.33 8.91 6.02 12.13 7.68 18.95 3.26 13.34-7.69 16.76-13 25.14-4.82 7.65-3.77 27.94-1.29 37.05 1.77 6.49 4.2 12.3 12.09 11.01 5.01-.82 5.58-6.96 11.05-8.42-2.51-6.3-1.24-15.94-1.06-22.22 8.32-2.01 13.4 8.69 15.49 15.07 4.54.19 12.01 39.87 18.69 11.35 11.52-3.6 7.09 7.31 8.83 14.15 2.1 8.31 6.59 12.51 6.54 21.71 13.7 9.19 18.54-9.11 19.63-19.49.51-4.79-2.14-12.33 1.88-15.77 4.02-3.44 12.6-.53 14.82 3.82 6.76-11.08-2.53-50.69 18.45-34.25 10.93 8.57 9.12 35.6 20.9 18.4 5.59-8.16 5.05-14.09 14.01-14.84 3.28-.28 15.71 2.27 18.75 4.02 4.86 2.8 6.29 12.36 12.33 7.83 3.95-2.96 1.2-10.18 4.35-13.44 6.82 4.89 5.33 14.85 10.71 20.08 5.84 5.68 14.05.53 20.69 3C830.35 154.57 676 23.55 488.88 8.18z"/></g><path d="M897.95 451.88c0 246.3-199.66 445.97-445.97 445.97S6.01 698.18 6.01 451.88 205.69 5.9 451.99 5.9s445.97 199.67 445.97 445.98z" style="mix-blend-mode:multiply" fill="url(#uuid-f89c6981-4db4-4fa3-8a3e-158619fb10cb)" stroke-width="0"/></g></g></svg>