<?xml version="1.0" encoding="utf-8"?>
<!-- Generator: Adobe Illustrator 27.8.0, SVG Export Plug-In . SVG Version: 6.00 Build 0)  -->
<svg version="1.1" id="Capa_1" xmlns="http://www.w3.org/2000/svg" xmlns:xlink="http://www.w3.org/1999/xlink" x="0px" y="0px"
	 viewBox="0 0 299 224" style="enable-background:new 0 0 299 224;" xml:space="preserve">
<style type="text/css">
	.st0{fill:url(#Fondo_00000152238215555207817600000002009884056815257252_);}
	.st1{fill:url(#SVGID_1_);}
	.st2{fill:url(#SVGID_00000070106486642263639970000014740553312995864730_);}
	.st3{fill:url(#SVGID_00000068641055551025058680000003170603042584046490_);}
	.st4{fill:url(#SVGID_00000178896144433248092940000016771211704354915774_);}
	.st5{fill:url(#SVGID_00000041288371646474240840000010435869411130561206_);}
	.st6{fill:url(#SVGID_00000045588643442904696430000007950754829307387295_);}
	.st7{fill:url(#SVGID_00000145026815034752173550000016969188266528910996_);}
	.st8{fill:url(#SVGID_00000031924914161524642790000018390173912103788212_);}
</style>
<linearGradient id="Fondo_00000007393021028934846720000005902287049744851328_" gradientUnits="userSpaceOnUse" x1="781.9154" y1="362.5908" x2="484.0854" y2="-624.5106" gradientTransform="matrix(0.2924 0 0 -0.2924 -35.3801 73.9882)">
	<stop  offset="0" style="stop-color:#000020"/>
	<stop  offset="1" style="stop-color:#671FA2"/>
</linearGradient>
<path id="Fondo" style="fill:url(#Fondo_00000007393021028934846720000005902287049744851328_);" d="M0,219.4V0h50.3h249.1v77.5
	v147.1H8.8H0V219.4z"/>
<g id="Nube">
	<linearGradient id="SVGID_1_" gradientUnits="userSpaceOnUse" x1="61.9645" y1="67.406" x2="117.3877" y2="67.406">
		<stop  offset="0" style="stop-color:#F6E6FF"/>
		<stop  offset="1" style="stop-color:#FFFFFF"/>
	</linearGradient>
	<path class="st1" d="M110.1,41.9c1.6,0.3,3.2,0.7,4.8,1.1c0.9,0.3,1.8,0.4,2.5,1.1l-0.2,0.1c-1.3,0.6-2.8,0.9-4.2,1.4
		c-1.9,0.7-3.8,1.5-5.6,2.4c-10,4.8-18.4,11.9-24.9,21c-1.6,2.2-3.1,4.5-4.2,7.1c-0.8,1.9-1.9,4.6-1.6,6.7
		c-3.7,2.7-7.8,6.2-10.1,10.2L62,92.1c1-4.5,2.2-8.7,4.1-12.9c1.7-3.8,4-7.5,6.3-10.9c3.6-5.2,8-10,13-13.9
		c4.6-3.6,9.8-6.3,15.1-8.7L110.1,41.9z"/>
	
		<linearGradient id="SVGID_00000065782028531737948040000003873632715595002262_" gradientUnits="userSpaceOnUse" x1="601.1416" y1="-376.8874" x2="690.152" y2="108.0823" gradientTransform="matrix(0.2924 0 0 -0.2924 -35.3801 73.9882)">
		<stop  offset="0" style="stop-color:#F6E6FF"/>
		<stop  offset="1" style="stop-color:#FFFFFF"/>
	</linearGradient>
	<path style="fill:url(#SVGID_00000065782028531737948040000003873632715595002262_);" d="M110.1,41.9c2-1.3,4.2-2,6.4-2.6
		c4.4-1.2,9-1.6,13.6-1.8c6.1-0.2,12.3,0.2,18.2,1.4c12.3,2.6,24,7.1,34.3,14.3c5.9,4.1,11.3,9.2,15.2,15.2
		c3.7,5.6,6.4,11.8,7.5,18.5c3.2-0.7,6.3-1,9.6-0.9c2.8,0.1,5.5,0.7,8.2,1.3c5.9,1.4,11.6,3.7,16.8,7.1c4.2,2.8,7.8,6.1,10.9,10
		c1.3,1.7,2.6,3.5,3.6,5.4c1.6,3.3,2.6,6.8,3.4,10.3c0.1,0.2,0,0.4,0,0.7c0.5,1.6,1,3.1,1.3,4.7c0.2,0.9,0.3,2,0.6,2.8
		c0.3,1.3,0.6,2.6,0.7,3.9c0.6,7.3-1.7,14.9-5.7,21c-5.9,8.8-15.3,15.3-24.9,19.3c-3.1,1.3-6.4,2.5-9.7,3.2c-4.3,0.8-8.7,1.3-13,0.9
		c-1.2-0.1-2.4-0.3-3.6-0.5c-0.9-0.2-2.7-0.9-3.5-0.7c-0.5,0.1-1.3,0.7-1.8,1l-4.1,2.3c-8.5,4.3-18.3,7.6-27.9,7.2
		c-3.9-0.1-8-1.3-11.7-2.6c-0.8-0.3-1.6-0.6-2.4-1c-0.6-0.3-1.2-0.7-1.9-0.8c-1.6,0.4-3.2,0.8-4.8,1.1c-13.2,1.9-27.3-1.3-38.9-7.6
		l-4.5-2.6c-0.2-0.1-1.1-0.8-1.3-0.8c-0.7,0-1.8,0.4-2.5,0.6l-4.6,0.7c-8.3,1-16.8,0.5-24.7-2.1c-10.7-3.6-20.6-11.5-25.6-21.8
		c-4.6-9.4-5.2-20.4-1.8-30.2c2.6-7.5,7.8-14.3,14.3-18.8c1.7-1.2,3.6-2.1,5.4-3c0.3-0.4,0.2-1.7,0.3-2.3c0.1-0.8,0.3-1.7,0.4-2.5
		l4.6,0.8c2.3-4,6.5-7.5,10.1-10.2c-0.3-2.1,0.8-4.8,1.6-6.7c1-2.6,2.6-4.8,4.2-7.1c6.4-9.1,14.8-16.2,24.9-21
		c1.8-0.9,3.7-1.7,5.6-2.4c1.4-0.5,2.9-0.8,4.2-1.4l0.2-0.1c-0.7-0.6-1.6-0.8-2.5-1.1C113.3,42.6,111.7,42.2,110.1,41.9z"/>
</g>
<linearGradient id="SVGID_00000059279064991029836400000002425593625525776777_" gradientUnits="userSpaceOnUse" x1="383.0679" y1="-303.701" x2="426.218" y2="-250.7489" gradientTransform="matrix(0.2924 0 0 -0.2924 -35.3801 73.9882)">
	<stop  offset="0" style="stop-color:#CD72F9"/>
	<stop  offset="1" style="stop-color:#DCB1FE"/>
</linearGradient>
<path style="fill:url(#SVGID_00000059279064991029836400000002425593625525776777_);" d="M93,124.3L93,124.3c-0.7,1.3-2.1,2-2.8,3.2
	c-0.1,0.1-0.2,0.2-0.3,0.3c-2.1,2.3-4.3,6.3-4.8,9.5c-0.2,1.2-0.5,2.4-0.6,3.7c-0.1,0.7,0,1.5-0.2,2.2c-0.1,0.5,0,1.1,0,1.7l0.2,0
	c0.2,0.1,0.3,0.1,0.5,0.2l0.2,0c0.5,0,0.8,0,1.3,0.2c0.2,0.1,0.4,0.1,0.6,0.1c0-0.8,0.1-1.6,0-2.4l0-0.3c0-0.5,0-0.7,0.2-1.1
	c0-0.3-0.1-0.5,0-0.7c0.2-0.3,0.1-0.6,0.1-0.9c0.1-0.2,0.1-0.2,0.2-0.4c0-0.2,0.1-0.3,0.2-0.5l-0.1-0.4l0.2-0.3l0-0.2l0.2-0.3
	l-0.1-0.2c0.2-0.3,0.2-0.2,0.2-0.5c0.1-0.5,0.3-1,0.5-1.4c0.5-1.2,0.9-2.2,1.7-3.2c0.3-0.4,0.7-0.9,1-1.4c0.2-0.3,0.5-0.8,0.8-1
	c0.2-0.2,0.3-0.4,0.4-0.5l0.8-0.9c0.4-0.4,0.6-0.7,1-1c0.6-0.4,1-1.3,1.6-1.6c0.1-0.1,0.5-0.1,0.7-0.2c-5.4,4.9-9.1,10.1-9.4,17.7
	c-0.1,1.9,0.2,4.3,0.7,6.2c2,7.5,7,14.8,13.5,19.2l-1.2,0.4c-3,0.6-6,0.3-9-0.3c-5.5-1.2-10.6-3.4-15.3-6.5
	c-6.8-4.6-12.3-10.5-13.8-18.8l0.1,0l0.1,0c0.2,0,0.4-0.1,0.7,0c0.3,0.1,0.5,0.2,0.8,0.2c0.9,0,1.7,0.3,2.4,0.8l0.1,0.1
	c0.7,0.5,1.4,1.2,1.9,1.8c0.3,0.3,0.5,0.8,0.9,1l0.1,0.1c0.4,0.8,1.2,1.7,1.8,2.4c0.3,0.3,0.9,0.7,1,1.1l0.1,0.8
	c0.2,0,0.6,0,0.8,0.1c0.3,0.1,0.6,0.7,0.9,0.9c0.2,0.1,0.2,0.3,0.3,0.5c0.8,0.2,3.7,2.8,4.2,3.6l0.1,0.1l0.3,0
	c0.4,0.3,0.6,0.5,0.7,1c0.8,0.3,1.2,1.3,2.1,1.5l0.2,0c0.2,0.2,0.3,0.4,0.6,0.5l0.7,0.3c0.3,0.1,0.6,0.3,0.9,0.5l0.1,0.1l0.2-0.1
	c0.2,0.2,0.5,0.4,0.8,0.4l0.1,0c0.2,0.1,0.3,0.1,0.5,0.1c0.5,0,0.8,0.4,1.3,0.4c0.2,0.2,0.4,0.4,0.7,0.4c0.4,0.1,0.7,0.2,1,0.5
	c0.2,0.2,0.4,0.4,0.6,0.5l0.5-0.1c0.4-0.1,0.6,0.2,1,0.1c-1.7-2.5-3.1-5.1-4.4-7.9c-0.5-1.1-1.1-2.2-1.4-3.4
	c-1-3.4-1.2-7.6-0.8-11.2c0.7-6.2,3.7-12.4,8.7-16.4L93,124.3z"/>
<linearGradient id="SVGID_00000155827182173155084370000012063724576573620900_" gradientUnits="userSpaceOnUse" x1="205.3425" y1="103.3495" x2="257.8288" y2="103.3495">
	<stop  offset="0" style="stop-color:#0300B7"/>
	<stop  offset="1" style="stop-color:#9E26EF"/>
</linearGradient>
<path style="fill:url(#SVGID_00000155827182173155084370000012063724576573620900_);" d="M205.3,86.9c3.2-0.7,6.3-1,9.6-0.9
	c2.8,0.1,5.5,0.7,8.2,1.3c5.9,1.4,11.6,3.7,16.8,7.1c4.2,2.8,7.8,6.1,10.9,10c1.3,1.7,2.6,3.5,3.6,5.4c1.6,3.3,2.6,6.8,3.4,10.3
	c0.1,0.2,0,0.4,0,0.7c-1.1-2-2.1-4-3.6-5.8c-3.7-4.6-8.9-8-14.2-10.4c-8.3-3.8-18-5.4-26.9-3c-2.5,0.7-4.8,1.8-7.2,2.7
	c0.1-1.1,0.3-2.3,0.3-3.4C206.5,96.3,206.2,91.3,205.3,86.9z"/>
<linearGradient id="SVGID_00000181790280068588996740000002155569921632590504_" gradientUnits="userSpaceOnUse" x1="389.2747" y1="-286.8933" x2="491.1927" y2="-102.3052" gradientTransform="matrix(0.2924 0 0 -0.2924 -35.3801 73.9882)">
	<stop  offset="0" style="stop-color:#D17AFD"/>
	<stop  offset="1" style="stop-color:#E1E6FC"/>
</linearGradient>
<path style="fill:url(#SVGID_00000181790280068588996740000002155569921632590504_);" d="M62.3,143.7l-0.4-4.2
	c-0.1-8.6,3.6-16.6,9.5-22.7c1.1-1.2,2.3-2.4,3.6-3.4c6.9-5.6,15.3-8.2,24.2-8.3c6.9-0.1,13.4,1.1,19.5,4.5c1.9,1.1,3.9,2.4,5.4,3.9
	c2.2,2.2,5.2,5.5,5.3,8.8c-1.4-0.7-2.6-1.6-4-2.2c-3.4-1.6-6.9-2.7-10.7-3c-8.1-0.7-15.6,2.2-21.7,7.4l-0.1,0.1
	c-5,3.9-8,10.1-8.7,16.4c-0.4,3.5-0.2,7.7,0.8,11.2c0.3,1.2,0.9,2.3,1.4,3.4c1.3,2.7,2.7,5.4,4.4,7.9c-0.4,0.1-0.7-0.2-1-0.1
	l-0.5,0.1c-0.2-0.2-0.4-0.3-0.6-0.5c-0.3-0.3-0.7-0.4-1-0.5c-0.3-0.1-0.5-0.2-0.7-0.4c-0.6,0-0.8-0.4-1.3-0.4
	c-0.2,0-0.3-0.1-0.5-0.1l-0.1,0c-0.3,0-0.6-0.3-0.8-0.4l-0.2,0.1l-0.1-0.1c-0.3-0.2-0.5-0.4-0.9-0.5l-0.7-0.3
	c-0.2-0.1-0.4-0.3-0.6-0.5l-0.2,0c-0.8-0.2-1.3-1.2-2.1-1.5c-0.1-0.5-0.4-0.6-0.7-1l-0.3,0l-0.1-0.1c-0.5-0.7-3.4-3.4-4.2-3.6
	c-0.1-0.2-0.1-0.4-0.3-0.5c-0.3-0.2-0.6-0.7-0.9-0.9c-0.2-0.1-0.5-0.1-0.8-0.1l-0.1-0.8c-0.1-0.4-0.7-0.8-1-1.1
	c-0.6-0.7-1.4-1.5-1.8-2.4l-0.1-0.1c-0.4-0.2-0.6-0.7-0.9-1c-0.5-0.6-1.2-1.3-1.9-1.8l-0.1-0.1c-0.7-0.5-1.5-0.8-2.4-0.8
	c-0.3,0-0.5-0.1-0.8-0.2c-0.2-0.1-0.4-0.1-0.7,0L62.3,143.7L62.3,143.7z"/>
<linearGradient id="SVGID_00000023274577229957086380000005918443734352042418_" gradientUnits="userSpaceOnUse" x1="562.7352" y1="-176.9798" x2="446.5508" y2="-306.1734" gradientTransform="matrix(0.2924 0 0 -0.2924 -35.3801 73.9882)">
	<stop  offset="0" style="stop-color:#0300B7"/>
	<stop  offset="1" style="stop-color:#9E26EF"/>
</linearGradient>
<path style="fill:url(#SVGID_00000023274577229957086380000005918443734352042418_);" d="M96.7,125.8c5.5-4.3,12.5-6.8,19.6-6
	c5.9,0.7,12,4.2,15.7,8.9c4,5.1,6.4,11.3,5.5,17.9c-1,7.2-5.1,13.2-10.8,17.5c-3,2.3-6.4,4.1-10,5.3l-4.2,1.2
	c-2.4,0.5-5.4,0.9-7.8,0.1c-1.2-0.4-2.2-1.1-3.2-1.7c-6.4-4.4-11.5-11.7-13.5-19.2c-0.5-1.9-0.8-4.3-0.7-6.2
	C87.6,135.8,91.3,130.7,96.7,125.8z"/>
<linearGradient id="SVGID_00000070829487906866423560000015566152131683430813_" gradientUnits="userSpaceOnUse" x1="764.6452" y1="-175.5702" x2="857.4814" y2="-361.6546" gradientTransform="matrix(0.2924 0 0 -0.2924 -35.3801 73.9882)">
	<stop  offset="0" style="stop-color:#A13BBD"/>
	<stop  offset="1" style="stop-color:#FEF8FF"/>
</linearGradient>
<path style="fill:url(#SVGID_00000070829487906866423560000015566152131683430813_);" d="M259.7,128.4c0.3,1.3,0.6,2.6,0.7,3.9
	c0.6,7.3-1.7,14.9-5.7,21c-5.9,8.8-15.3,15.3-24.9,19.3c-3.1,1.3-6.4,2.5-9.7,3.2c-4.3,0.8-8.7,1.3-13,0.9c-1.2-0.1-2.4-0.3-3.6-0.5
	c-0.9-0.2-2.7-0.9-3.5-0.7c-0.5,0.1-1.3,0.7-1.8,1l-4.1,2.3c-8.5,4.3-18.3,7.6-27.9,7.2c-3.9-0.1-8-1.3-11.7-2.6
	c-0.8-0.3-1.6-0.6-2.4-1c-0.6-0.3-1.2-0.7-1.9-0.8l0.4-0.3c-0.3-0.6-0.9-1.1-1.4-1.6c-2.1-1.7-4-3.9-5.6-6c-0.6-0.6-1.1-1.5-1.6-2.3
	c-1.5-2.2-2.6-4.5-3.9-6.8c-0.2-0.3-0.8-1.2-0.8-1.4c0-0.3,0.6-1.4,0.8-1.7c0.5-1.1,0.9-2.1,1.2-3.2c0.9-3.1,0.8-5.9,0.8-9.1
	l4.9,6.5c4.9,5.5,11.5,10.2,18.6,12.4c3.1,1,6.5,1.5,9.7,1.7c3.4,0.3,6.7,0,10-0.4c0-0.1,0,0,0.1,0l3.4-0.7c3.6-0.7,7-2,10.4-3.5
	c7-3.1,13.3-7.3,18.9-12.6c1.4-1.3,2.5-2.8,3.9-4.1c0.4-0.6,1-1.2,1.6-1.7c1.1,0,2.5,0.6,3.6,0.8c0.3-0.1,1.6,0.3,2,0.4
	c1.8,0.3,3.7,0.6,5.5,0.7c2.1,0.1,4.2,0,6.2-0.3c1.4-0.2,2.6-0.6,4-0.9c1.1-0.2,2.2-0.7,3.3-1.1c3.7-1.5,7.6-3.9,10-7.2
	c0.5-0.7,1-1.6,1.4-2.4c0.3-0.5,0.4-1.2,0.8-1.7c0.7-1,1-2.7,1.2-3.9c0.1-0.5-0.1-1.1,0-1.6C259.6,129,259.7,128.8,259.7,128.4z"/>
<linearGradient id="SVGID_00000142143342519679407620000015654452314845905837_" gradientUnits="userSpaceOnUse" x1="602.0547" y1="106.5534" x2="588.3177" y2="-149.033" gradientTransform="matrix(0.2924 0 0 -0.2924 -35.3801 73.9882)">
	<stop  offset="0" style="stop-color:#FF5D0B"/>
	<stop  offset="1" style="stop-color:#FF2351"/>
</linearGradient>
<path style="fill:url(#SVGID_00000142143342519679407620000015654452314845905837_);" d="M117.4,44.1c2.9-1.4,7-1.5,10.1-1.6
	c5.5-0.2,10.9-0.2,16.3,0.5c6.2,0.8,12.2,2.5,18.1,4.5c6.6,2.3,13,6,18.6,10.1c2.7,2,5.3,3.9,7.6,6.4c3.2,3.4,5.9,7.4,8,11.7
	c4.3,8.9,4.9,20.3,1.6,29.6c-1.9,5.3-5.4,10.5-10.6,13c-3.6,1.7-7,1.9-11,1.8c2.2-4.9,1.6-9.8-0.2-14.8c-2.8-7.6-10.2-13.7-17.4-17
	c-5.3-2.4-11.4-3.7-17.1-4c-1,0-2.1-0.1-3.1,0c-0.9,0-1.8,0.2-2.7,0.3c-0.2,0-0.6,0.1-0.8,0c-0.1,0-0.3-0.4-0.4-0.5l-1.6-2.1
	c-1.1-1.3-2.3-2.4-3.6-3.5c-9.9-8.3-25.5-9.3-37.2-4.7c-5.5,2.1-10.6,5.2-15.2,8.8c-0.3-2.1,0.8-4.8,1.6-6.7c1-2.6,2.6-4.8,4.2-7.1
	c6.4-9.1,14.8-16.2,24.9-21c1.8-0.9,3.7-1.7,5.6-2.4c1.4-0.5,2.9-0.8,4.2-1.4L117.4,44.1z"/>
</svg>
