<?xml version="1.0" encoding="UTF-8"?>
<svg xmlns="http://www.w3.org/2000/svg" xmlns:xlink="http://www.w3.org/1999/xlink" viewBox="0 0 684.71 740.42">
  <defs>
    <style>
      .cls-1 {
        fill: url(#linear-gradient-12);
      }

      .cls-1, .cls-2, .cls-3, .cls-4, .cls-5, .cls-6, .cls-7, .cls-8, .cls-9, .cls-10, .cls-11, .cls-12, .cls-13, .cls-14, .cls-15, .cls-16, .cls-17 {
        stroke-width: 0px;
      }

      .cls-2 {
        fill: url(#linear-gradient);
      }

      .cls-18 {
        isolation: isolate;
      }

      .cls-3 {
        fill: url(#linear-gradient-6);
      }

      .cls-3, .cls-4, .cls-8 {
        mix-blend-mode: multiply;
        opacity: .5;
      }

      .cls-4 {
        fill: url(#linear-gradient-4);
      }

      .cls-5 {
        fill: url(#linear-gradient-15);
      }

      .cls-5, .cls-10, .cls-13 {
        mix-blend-mode: screen;
        opacity: .4;
      }

      .cls-6 {
        fill: url(#linear-gradient-11);
      }

      .cls-7 {
        fill: url(#linear-gradient-5);
      }

      .cls-8 {
        fill: url(#linear-gradient-8);
      }

      .cls-9 {
        fill: url(#linear-gradient-13);
      }

      .cls-10 {
        fill: url(#linear-gradient-16);
      }

      .cls-11 {
        fill: #fff;
      }

      .cls-12 {
        fill: url(#linear-gradient-14);
      }

      .cls-13 {
        fill: url(#linear-gradient-2);
      }

      .cls-14 {
        fill: url(#linear-gradient-7);
      }

      .cls-15 {
        fill: url(#linear-gradient-3);
      }

      .cls-16 {
        fill: url(#linear-gradient-9);
      }

      .cls-17 {
        fill: url(#linear-gradient-10);
      }
    </style>
    <linearGradient id="linear-gradient" x1="346.81" y1="431.95" x2="346.81" y2="657.31" gradientUnits="userSpaceOnUse">
      <stop offset="0" stop-color="#f9d10f"/>
      <stop offset="1" stop-color="#f26321"/>
    </linearGradient>
    <linearGradient id="linear-gradient-2" x1="353.01" y1="392.31" x2="353.01" y2="637.34" gradientUnits="userSpaceOnUse">
      <stop offset="0" stop-color="#f9d10f"/>
      <stop offset="1" stop-color="#f26321" stop-opacity="0"/>
    </linearGradient>
    <linearGradient id="linear-gradient-3" x1="199.04" y1="40.33" x2="199.04" y2="371.67" gradientUnits="userSpaceOnUse">
      <stop offset="0" stop-color="#d4de25"/>
      <stop offset=".18" stop-color="#a3cd3a"/>
      <stop offset=".36" stop-color="#78be4d"/>
      <stop offset=".54" stop-color="#56b25c"/>
      <stop offset=".71" stop-color="#3ea967"/>
      <stop offset=".87" stop-color="#30a46d"/>
      <stop offset="1" stop-color="#2ba370"/>
    </linearGradient>
    <linearGradient id="linear-gradient-4" x1="212.78" y1="48.86" x2="212.78" y2="392.88" gradientUnits="userSpaceOnUse">
      <stop offset="0" stop-color="#d4de25" stop-opacity="0"/>
      <stop offset=".27" stop-color="#9ecb3c" stop-opacity=".31"/>
      <stop offset=".61" stop-color="#60b558" stop-opacity=".68"/>
      <stop offset=".87" stop-color="#39a869" stop-opacity=".91"/>
      <stop offset="1" stop-color="#2ba370"/>
    </linearGradient>
    <linearGradient id="linear-gradient-5" x1="507.12" y1="88.83" x2="507.12" y2="495.8" xlink:href="#linear-gradient-3"/>
    <linearGradient id="linear-gradient-6" x1="493.39" y1="77.15" x2="493.39" y2="476.23" xlink:href="#linear-gradient-4"/>
    <linearGradient id="linear-gradient-7" x1="353.05" y1="0" x2="353.05" y2="652.89" xlink:href="#linear-gradient-3"/>
    <linearGradient id="linear-gradient-8" x1="353.05" y1="17.5" x2="353.05" y2="559.02" xlink:href="#linear-gradient-4"/>
    <linearGradient id="linear-gradient-9" x1="80.95" y1="551.27" x2="204.71" y2="758.55" xlink:href="#linear-gradient-3"/>
    <linearGradient id="linear-gradient-10" x1="315.48" y1="744.92" x2="80.44" y2="610.87" xlink:href="#linear-gradient-3"/>
    <linearGradient id="linear-gradient-11" x1="507.66" y1="768.72" x2="301.23" y2="650.99" xlink:href="#linear-gradient-3"/>
    <linearGradient id="linear-gradient-12" x1="354.75" y1="573.96" x2="404.06" y2="765.14" xlink:href="#linear-gradient-3"/>
    <linearGradient id="linear-gradient-13" x1="337.08" y1="698.86" x2="678.76" y2="698.86" xlink:href="#linear-gradient-3"/>
    <linearGradient id="linear-gradient-14" x1="323.72" y1="693.29" x2="914.06" y2="719.22" xlink:href="#linear-gradient-3"/>
    <linearGradient id="linear-gradient-15" x1="353.57" y1="626.25" x2="395.16" y2="724.18" gradientUnits="userSpaceOnUse">
      <stop offset="0" stop-color="#d4de25"/>
      <stop offset=".09" stop-color="#d4de25" stop-opacity=".96"/>
      <stop offset=".24" stop-color="#d4de25" stop-opacity=".86"/>
      <stop offset=".43" stop-color="#d4de25" stop-opacity=".69"/>
      <stop offset=".65" stop-color="#d4de25" stop-opacity=".45"/>
      <stop offset=".88" stop-color="#d4de25" stop-opacity=".16"/>
      <stop offset="1" stop-color="#d4de25" stop-opacity="0"/>
    </linearGradient>
    <linearGradient id="linear-gradient-16" x1="87.1" y1="523.89" x2="147.47" y2="654.7" gradientUnits="userSpaceOnUse">
      <stop offset="0" stop-color="#d4de25"/>
      <stop offset=".18" stop-color="#d4de25" stop-opacity=".99"/>
      <stop offset=".32" stop-color="#d4de25" stop-opacity=".94"/>
      <stop offset=".44" stop-color="#d4de25" stop-opacity=".87"/>
      <stop offset=".56" stop-color="#d4de25" stop-opacity=".76"/>
      <stop offset=".67" stop-color="#d4de25" stop-opacity=".63"/>
      <stop offset=".78" stop-color="#d4de25" stop-opacity=".46"/>
      <stop offset=".88" stop-color="#d4de25" stop-opacity=".26"/>
      <stop offset=".98" stop-color="#d4de25" stop-opacity=".04"/>
      <stop offset="1" stop-color="#d4de25" stop-opacity="0"/>
    </linearGradient>
  </defs>
  <g class="cls-18">
    <g id="Capa_1" data-name="Capa 1">
      <g>
        <path class="cls-2" d="m543.59,564.94c-26.51-2.57-54.17.57-81.39,10.98-18.82,7.27-38.63,15.54-59.3,25.09-9.27,4.28-18.82,8.84-28.51,13.68-10.69,5.27-21.52,10.83-32.78,16.96-3.28,1.57-6.56,3.42-9.98,5.42-1.42.57-2.85,1.43-4.28,2.28-6.7,3.56-13.4,7.41-20.24,11.26-1.28.71-2.71,1.57-3.99,2.28l-151.81,4.42c-.86-7.41-1.28-14.97-1.28-22.52,0-19.67,2.85-38.63,8.12-56.59,19.53-.43,39.63,2.99,59.44,10.55,26.51,10.12,55.02,22.52,85.53,38.06v-15.68c-31.79-16.25-61.29-29.22-88.66-39.77-16.82-6.41-33.78-9.69-50.46-10.4,13.54-34.78,36.49-65,65.86-87.24,1.71-1.43,3.56-2.85,5.42-4.13.14,0,.14-.14.29-.14,3.99-2.85,7.98-5.56,12.12-8.12,4.85-2.85,9.98-5.7,14.97-8.27,3.71-1.85,7.41-3.56,11.26-5.13.86-.43,1.85-.71,2.71-1.14,3.71-1.57,7.27-2.85,11.12-4.13,1.57-.57,3.28-1.14,4.85-1.57,3.14-1,6.41-1.85,9.69-2.71.29-.14.57-.14.86-.14,4.99-1.43,10.26-2.42,15.54-3.42.71-.14,1.42-.29,2.14-.29,2.14-.43,4.56-.71,6.56-1,1.42-.14,2.85-.29,4.28-.57.57,0,1.14,0,1.71-.14,2.99-.14,6.27-.43,9.27-.57,3.42-.14,6.84-.29,10.26-.29,7.27,0,14.4.43,21.52,1.14,9.69,1,19.24,2.71,28.51,5.13,7.56,1.85,14.82,4.13,21.95,6.84,7.55,2.85,14.68,5.99,21.67,9.69,10.41,5.42,20.24,11.69,29.51,18.82l.14.14c30.51,23.09,54.02,54.74,67.42,91.23Z"/>
        <path class="cls-13" d="m476.17,473.72c-23.23,44.33-69.7,74.55-123.16,74.55s-99.92-30.22-123.16-74.55c1.71-1.43,3.56-2.85,5.42-4.13.14,0,.14-.14.29-.14,3.99-2.85,7.98-5.56,12.12-8.12,4.85-2.85,9.98-5.7,14.97-8.27,3.71-1.85,7.41-3.56,11.26-5.13.86-.43,1.85-.71,2.71-1.14,3.71-1.57,7.27-2.85,11.12-4.13,1.57-.57,3.28-1.14,4.85-1.57,3.14-1,6.41-1.85,9.69-2.71.29-.14.57-.14.86-.14,4.99-1.43,10.26-2.42,15.54-3.42.71-.14,1.42-.29,2.14-.29,2.14-.43,4.56-.71,6.56-1,1.42-.14,2.85-.29,4.28-.57.57,0,1.14,0,1.71-.14,2.99-.14,6.27-.43,9.27-.57,3.42-.14,6.84-.29,10.26-.29,7.27,0,14.4.43,21.52,1.14,9.69,1,19.24,2.71,28.51,5.13,7.56,1.85,14.82,4.13,21.95,6.84,7.55,2.85,14.68,5.99,21.67,9.69,10.41,5.42,20.24,11.69,29.51,18.82l.14.14Z"/>
        <g>
          <g>
            <path class="cls-15" d="m283.98,272.52v99.14c-96.53-17.58-169.86-102.16-169.86-203.64v-79.63c0-26.5,21.56-48.06,48.06-48.06s48.06,21.56,48.06,48.06v79.63c0,48.2,30.9,89.26,73.74,104.5Z"/>
            <path class="cls-4" d="m283.98,301.36v42.29c-81.29-17.16-142.4-89.39-142.4-175.63v-3.39l12.63-2.88,4.53-.96-4.53-1.1-12.63-3.16v-68.14c0-11.4,9.34-20.6,20.6-20.6,1.24,0,2.33.14,3.57.41.82.14,1.65.28,2.33.55.14,0,.28.14.41.14,8.24,2.61,14.28,10.3,14.28,19.5v10.74l-17.17,3.84,17.17,4.26-.13,31.22-17.16,3.85,17.16,4.26.13,21.47c0,63.44,42.98,117,101.2,133.34Z"/>
          </g>
          <g>
            <path class="cls-7" d="m591.98,136.89v155.27c0,101.48-73.33,186.07-169.72,203.64v-99.14c42.84-15.38,73.6-56.3,73.6-104.5v-155.27c0-26.5,21.56-48.06,48.06-48.06s48.06,21.56,48.06,48.06Z"/>
            <path class="cls-3" d="m564.52,136.89v54.23l-12.63,3.16-4.53,1.1,4.53.96,12.63,2.88v92.94c0,86.24-61.11,158.46-142.26,175.63v-42.43c58.22-16.34,101.07-69.76,101.07-133.2v-11.53l17.16-4.26-17.16-3.84v-44.18l17.16-4.26-17.16-3.84v-57.4l17.16-4.26-17.16-3.84v-17.85c0-9.2,6.04-16.89,14.28-19.5.14,0,.28-.14.41-.14.69-.28,1.51-.41,2.33-.55,1.24-.27,2.33-.41,3.57-.41,11.26,0,20.6,9.2,20.6,20.6Z"/>
          </g>
        </g>
        <path class="cls-14" d="m401.11,48.06v554.85c-8.92,4.12-18.13,8.51-27.46,13.18-10.3,5.08-20.73,10.44-31.58,16.34-3.16,1.51-6.32,3.3-9.61,5.22-1.37.55-2.75,1.37-4.12,2.2-6.45,3.43-12.91,7.14-19.5,10.85-1.24.69-2.61,1.51-3.84,2.2V48.06c0-26.64,21.56-48.06,48.06-48.06s48.06,21.42,48.06,48.06Z"/>
        <path class="cls-8" d="m373.64,60.42l-17.16,3.84,17.16,4.26v43.94l-17.16,3.85,17.16,4.26v44.08l-17.16,3.85,17.16,4.26v43.94l-17.16,3.84,17.16,4.26v43.94l-17.16,3.85,17.16,4.26v44.08l-17.16,3.85,17.16,4.26v287.08c-10.3,5.08-20.73,10.44-31.58,16.34-3.16,1.51-6.32,3.3-9.61,5.22v-334.73l17.16-4.26-17.16-3.84v-43.94l17.16-4.26-17.16-3.85v-44.08l17.16-4.26-17.16-3.85v-43.94l17.16-4.26-17.16-3.84v-44.08l17.16-4.26-17.16-3.84v-38.31c0-11.4,9.34-20.6,20.6-20.6s20.6,9.2,20.6,20.6v12.36Z"/>
        <g>
          <path class="cls-16" d="m327.42,639.35c-6.7,3.56-13.4,7.41-20.24,11.26-1.28.71-2.71,1.57-3.99,2.28l-7.98,4.42c-22.09,12.26-43.62,23.09-64.29,32.64-14.54,6.7-28.94,12.97-42.76,18.39-13.83,5.56-27.37,10.41-40.48,14.82-21.67,7.27-42.48,12.83-62.29,17.25H0c0-5.84.29-11.55.86-17.25,8.7-82.68,78.54-143.54,157.37-144.97,19.53-.43,39.63,2.99,59.44,10.55,26.51,10.12,55.02,22.52,85.53,38.06,7.98,3.99,15.96,8.12,24.23,12.54Z"/>
          <path class="cls-17" d="m340.93,723.17c-10.98,6.13-21.67,11.83-32.21,17.25H105.45c22.38-3.85,46.04-9.41,71.13-17.25,14.68-4.7,29.79-9.98,45.33-16.25,12.4-4.85,25.23-10.41,38.2-16.39,14.68-6.84,29.79-14.25,45.19-22.52,6.41-3.42,12.97-6.98,19.53-10.69,1.14-.57,2.14-1.28,3.28-1.85,1.14-.71,2.42-1.42,3.56-1.99,3.56-2,7.13-3.99,10.55-5.99,4.7,2.57,9.41,5.27,14.11,7.98,1.14.71,2.28,1.28,3.42,1.85,3.99,2.28,7.98,4.56,11.97,6.7,8.55,4.7,17.11,9.12,25.37,13.4,5.27,2.57,10.41,5.13,15.39,7.55-20.53,9.98-42.05,21.38-64.57,34.35-2.28,1.28-4.7,2.71-6.98,3.85Z"/>
          <path class="cls-6" d="m578.98,740.42h-241.9c3.56-1.85,7.13-3.99,10.55-5.99,6.7-3.85,13.26-7.56,19.67-11.26,21.1-11.69,41.2-21.95,60.44-31.07,11.83,5.42,23.52,10.41,34.78,14.83,15.54,6.27,30.65,11.55,45.33,16.25,25.09,7.84,48.89,13.4,71.13,17.25Z"/>
          <path class="cls-11" d="m683.78,725.16c-26.23-46.75-74.55-78.4-128.15-82.53-22.52-2-46.04,1.14-69.13,9.98-3.99,1.43-7.98,2.99-11.97,4.7-14.54,5.7-29.51,12.26-45.19,19.67-5.56,2.42-11.12,5.13-16.82,7.98-20.53,9.98-42.05,21.38-64.57,34.35-2.28,1.28-4.7,2.71-6.98,3.85-10.98,6.13-21.67,11.83-32.22,17.25H105.48c22.38-3.85,46.04-9.41,71.13-17.25,14.68-4.7,29.79-9.98,45.33-16.25,12.4-4.85,25.23-10.41,38.2-16.39,14.68-6.84,29.79-14.25,45.19-22.52,6.41-3.42,12.97-6.98,19.53-10.69,1.14-.57,2.14-1.28,3.28-1.85,1.14-.71,2.42-1.42,3.56-1.99,3.56-2,7.13-3.99,10.55-5.99.43-.14.71-.43,1.14-.57,4.28-2.42,8.7-4.7,12.97-7.13,6.13-3.28,12.12-6.42,18.1-9.55,9.69-4.99,19.24-9.69,28.51-14.11,10.55-4.99,20.81-9.69,30.79-13.97,11.4-4.85,22.38-9.26,33.07-13.4,27.37-10.41,55.31-12.83,81.54-8.55,69.99,11.26,128.43,69.13,135.42,144.97Z"/>
          <path class="cls-11" d="m678.76,740.42h-341.68c3.56-1.85,7.13-3.99,10.55-5.99,6.7-3.85,13.26-7.56,19.67-11.26,21.1-11.69,41.2-21.95,60.44-31.07,5.99-2.85,11.83-5.56,17.68-8.13,13.4-5.99,26.37-11.4,38.91-16.25,16.39-6.41,32.78-9.69,48.89-10.41h10.55c56.16,1.28,107.76,33.64,134.99,83.1Z"/>
          <path class="cls-1" d="m683.78,725.16c-26.23-46.75-74.55-78.4-128.15-82.53-22.52-2-46.04,1.14-69.13,9.98-3.99,1.43-7.98,2.99-11.97,4.7-14.54,5.7-29.51,12.26-45.19,19.67-5.56,2.42-11.12,5.13-16.82,7.98-20.53,9.98-42.05,21.38-64.57,34.35-2.28,1.28-4.7,2.71-6.98,3.85-10.98,6.13-21.67,11.83-32.22,17.25H105.48c22.38-3.85,46.04-9.41,71.13-17.25,14.68-4.7,29.79-9.98,45.33-16.25,12.4-4.85,25.23-10.41,38.2-16.39,14.68-6.84,29.79-14.25,45.19-22.52,6.41-3.42,12.97-6.98,19.53-10.69,1.14-.57,2.14-1.28,3.28-1.85,1.14-.71,2.42-1.42,3.56-1.99,3.56-2,7.13-3.99,10.55-5.99.43-.14.71-.43,1.14-.57,4.28-2.42,8.7-4.7,12.97-7.13,6.13-3.28,12.12-6.42,18.1-9.55,9.69-4.99,19.24-9.69,28.51-14.11,10.55-4.99,20.81-9.69,30.79-13.97,11.4-4.85,22.38-9.26,33.07-13.4,27.37-10.41,55.31-12.83,81.54-8.55,69.99,11.26,128.43,69.13,135.42,144.97Z"/>
          <path class="cls-9" d="m678.76,740.42h-341.68c3.56-1.85,7.13-3.99,10.55-5.99,6.7-3.85,13.26-7.56,19.67-11.26,21.1-11.69,41.2-21.95,60.44-31.07,5.99-2.85,11.83-5.56,17.68-8.13,13.4-5.99,26.37-11.4,38.91-16.25,16.39-6.41,32.78-9.69,48.89-10.41h10.55c56.16,1.28,107.76,33.64,134.99,83.1Z"/>
          <path class="cls-11" d="m678.76,740.42h-341.68c3.56-1.85,7.13-3.99,10.55-5.99,6.7-3.85,13.26-7.56,19.67-11.26,21.1-11.69,41.2-21.95,60.44-31.07,5.99-2.85,11.83-5.56,17.68-8.13,13.4-5.99,26.37-11.4,38.91-16.25,16.39-6.41,32.78-9.69,48.89-10.41h10.55c56.16,1.28,107.76,33.64,134.99,83.1Z"/>
          <path class="cls-12" d="m684.71,740.42h-347.63c3.56-1.85,7.13-3.99,10.55-5.99,6.7-3.85,13.26-7.56,19.67-11.26,21.1-11.69,41.2-21.95,60.44-31.07,5.99-2.85,11.83-5.56,17.68-8.13,13.4-5.99,26.37-11.4,38.91-16.25,16.39-6.41,32.78-9.69,48.89-10.41l15.01-.66c56.16,1.28,106.08,23.54,136.48,83.76Z"/>
          <path class="cls-5" d="m683.78,725.16c-32.07-112.04-145.11-128-235.63-90.94-5.7,2.28-11.4,4.85-16.96,7.56-10.55,5.27-25.8,13.26-42.9,22.38-2.71,1.43-5.42,2.85-8.12,4.28-53.6,28.79-121.31,66.28-130.29,71.98H105.48c22.38-3.85,46.04-9.41,71.13-17.25,14.68-4.7,29.79-9.98,45.33-16.25,12.4-4.85,25.23-10.41,38.2-16.39,14.68-6.84,29.79-14.25,45.19-22.52,6.41-3.42,12.97-6.98,19.53-10.69,1.14-.57,2.14-1.28,3.28-1.85,1.14-.71,2.42-1.42,3.56-1.99,3.56-2,7.13-3.99,10.55-5.99.43-.14.71-.43,1.14-.57,4.28-2.42,8.7-4.7,12.97-7.13,6.13-3.28,12.12-6.42,18.1-9.55,9.69-4.99,19.24-9.69,28.51-14.11,10.55-4.99,20.81-9.69,30.79-13.97,11.4-4.85,22.38-9.26,33.07-13.4,27.37-10.41,55.31-12.83,81.54-8.55,69.99,11.26,128.43,69.13,135.42,144.97Z"/>
        </g>
        <path class="cls-10" d="m303.19,626.81c7.98,3.99,15.96,8.12,24.23,12.54-253.44-125.3-281.95,101.06-281.95,101.06H0c0-5.84.29-11.55.86-17.25,8.7-82.68,78.54-143.54,157.37-144.97,19.53-.43,39.63,2.99,59.44,10.55,26.51,10.12,55.02,22.52,85.53,38.06Z"/>
      </g>
    </g>
  </g>
</svg>