<svg xmlns="http://www.w3.org/2000/svg" viewBox="0 0 900 900"><defs><radialGradient id="uuid-50ed1e65-1c63-4be2-bc04-ba7f126ce963" cx="454.42" cy="461.21" fx="454.42" fy="461.21" r="539.79" gradientUnits="userSpaceOnUse"><stop offset=".25" stop-color="#fff"/><stop offset=".64" stop-color="#fff" stop-opacity=".72"/><stop offset=".73" stop-color="#fff" stop-opacity=".5"/><stop offset=".82" stop-color="#fff" stop-opacity=".29"/><stop offset=".9" stop-color="#fff" stop-opacity=".13"/><stop offset=".96" stop-color="#fff" stop-opacity=".03"/><stop offset="1" stop-color="#fff" stop-opacity="0"/></radialGradient><radialGradient id="uuid-6715ba7b-3cf7-445c-9c00-7b156bc48c72" cx="450.02" cy="451.48" fx="450.02" fy="451.48" r="447.3" gradientUnits="userSpaceOnUse"><stop offset="0" stop-color="#797a7a"/><stop offset=".81" stop-color="#a6a7a7"/><stop offset=".84" stop-color="#a8a9aa"/><stop offset=".94" stop-color="#d5d6d6"/><stop offset="1" stop-color="#f3f3f3"/></radialGradient><radialGradient id="uuid-8c4bcecf-f52e-47ee-83fb-258a79f08596" cx="445.73" cy="453.49" fx="445.73" fy="453.49" r="448.05" gradientUnits="userSpaceOnUse"><stop offset=".95" stop-color="#121212"/><stop offset=".96" stop-color="#151515"/><stop offset=".97" stop-color="#1f1f1f"/><stop offset=".99" stop-color="#313130"/><stop offset="1" stop-color="#494948"/><stop offset="1" stop-color="#50504f"/></radialGradient><style>.uuid-0c9ed1f7-27d3-49fd-825d-73879fed163c,.uuid-df0ad4fa-5df7-4e2a-ac08-f5888e485a13{fill:#fff;stroke-width:0}.uuid-ff536ed8-d61c-4295-9144-1004fe23a726{opacity:.5}.uuid-0c9ed1f7-27d3-49fd-825d-73879fed163c,.uuid-5fb297a2-0734-400c-8900-321b55c31af0{opacity:.52}</style></defs><g style="isolation:isolate"><g id="uuid-520922fa-cef3-4269-9c1b-57c3897918a0" data-name="Capa 2"><path d="M990.68 465.57c0 298.61-242.07 540.66-540.66 540.66S-90.65 764.18-90.65 465.57 151.41-75.11 450.02-75.11s540.66 242.08 540.66 540.68z" fill="url(#uuid-50ed1e65-1c63-4be2-bc04-ba7f126ce963)" opacity=".6" stroke-width="0"/><path d="M897.31 451.46c0 247.04-200.27 447.32-447.29 447.32S2.72 698.5 2.72 451.46 202.98 4.18 450.02 4.18s447.29 200.26 447.29 447.28z" fill="#a8a9aa" opacity=".52" stroke-width="0"/><path d="M897.31 451.46c0 247.04-200.27 447.32-447.29 447.32S2.72 698.5 2.72 451.46 202.98 4.18 450.02 4.18s447.29 200.26 447.29 447.28z" fill="url(#uuid-6715ba7b-3cf7-445c-9c00-7b156bc48c72)" stroke-width="0"/><path class="uuid-0c9ed1f7-27d3-49fd-825d-73879fed163c" d="M2.72 451.46v.03c2.5 8.94 8.94 16.66 18.59 13.26 9.76-3.44 4.31-7.58 7.92-14.38 6.63-12.45 12.11 2.88 23.07.7 1.14-6.57-.05-12.54-5.06-17.11 3.72-.68 7.88.05 10.99.81 13.1 3.24 24.67 7.74 39.1 5.68 26.29-3.74-5.93-9.8-12.8-14.06 8.65-2.87 15.11-8.88 17.62-16.63 3.71-11.45.32-10.48 12.11-15.7 8.27-3.67 14.85-6.32 11.12-17.73-2.59-7.9-11.21-10.63-13.2-19.65 10.25-.5 24.7 3.35 32.71-3.22 9.63-7.9 5.2-21.78-8.32-22.78-.94-8.06-.19-19.44 10.66-17.4 0-.02.03-3.07 0-2.99-21.54-1.2 3.18-18.64 1.19-22.91-1.7-3.64-9.83-1.04-12.17-2.83-3.56-2.73-.56-4.34-2.56-7.74-4.51-7.67-6.69-12.9-6.01-21.73 1.17-.52 2.73-.99 3.96-1.28 11.26 24.72 30.09 9.67 46.7 5.34 2.97-.77 1.72-3.42 5.59-3.28 6.5.24 12.3 6.47 18.72 7.72 10 1.95 14.05-.68 17.55-9.77 2.01-5.18 1.42-11.68 4.47-15.46 5.2-6.47 10.81-2.38 17.63-4.42 12.61-3.76 14.75-12.47 14.31-25.32-13.81-.47-27.8-.16-41.65-.08 6.14-.67 7.19-6.34 6.26-12-6.41-.34-13.54.84-19.85-.17-10.29-1.66-8.53-.33-7.33-9.04.67-4.72 9.06-14.99.61-17.55-5.08-1.53-8.46 3.06-8.81 7.67-7.51-.81-7.37 6.57-13.32 9.06-6.33 2.65-11.57-3.55-15.11-3.55-13.96 0-29.53 14.73-26.2-8.49 10.49-2.87 18.43-2.15 27.26-7.68 8.07-5.04 16.05-11.28 27.15-12.4 12.57-1.25 23.63 10.86 35.75 6.63 4.75-1.66 8.3-2.56 8.53-9.69.29-9-5.39-5.33-14.78-5.93.8-23.29-21.23-4.82-22.62-18.45-8.46-2.26-10.66 7.36-17.57 9.51-10.14 3.17-20.17-6.38-30.57-11.52C57.21 206.55 2.72 322.65 2.72 451.46z"/><path class="uuid-0c9ed1f7-27d3-49fd-825d-73879fed163c" d="M143.25 125.98l23.64 15.6c-6.64 6.13-21.89.06-29.9-1.94.54-2.42.5-6.59.76-8.38-.02.02-.05.02-.06.05-.52 1.95-1.67 3.06-2.5 4.62-.31-.3-.77-.61-1.29-.91-1.72 1.7-3.4 3.45-5.09 5.2a93.8 93.8 0 01-1.07 4.24c-.93-.11-1.9-.13-2.91-.08a458.04 458.04 0 00-17.25 19.35c3.11.5 6.34.96 8.96 2.14 1.98.9 4.72.26 6.54 1.5 2 1.36.43 6.19 2.01 7.16 10.66 6.6 18.83-1.75 28.86-3.93 6.7-1.46 15.57.95 22.54.22 8.99-.92 11.38-2.96 19.8 1.66 1.61-4.31 2.26-9.56 2.13-13.88 8.7 1.34 13.1 1.15 21.33-.12 2.73-.41 8.75.05 10.66-1.04 5.3-3.03 4.61-10.45 11-11.48 3.01-9.73 10.03-6.66 16.97-10.93 5.78-3.56 5.37-11.41 10.5-13.23-.11 18.04-.67 25.51 20.17 31.06 14.58 3.89 15.47 1.07 19.31-10.59 10.43-4.24 3.45-16.21 17.84-17.83-.64-2.58-.34-7.33-1.05-9.77 14.31 1.5 27.92-9.51 43.26-6.09 2.39-6.16 4.94-16.12 5.67-23.31-14.55-3.78-19.96-5.75-28.2-18.62 4.31-.97 8.81-2.01 13.23-1.46-5.75 12.27 16.22 14.9 23.81 17.6 14.42 5.13 13.36 4.94 12.29 17.77 6.54 2.11 24.76 2.04 29.57 7.12 4.72 4.99-.48 10.39 4.35 16 9.08 10.56 17.24.07 15.91 16.06-.85 10.21-9.72 17-10.67 25.54 15.42 2.04 1.91 24.66-.67 32.76-3.36 10.56-4.82 26-2.16 35.73 1.94 7.16 7.91 14.76 12.57 19.33 2.97 2.92 6.26 3.91 8.2 6.65.65.91-.03 6.4 1.18 8.57 1.02 1.83 5.8 3.37 7.67 5.63 2.28 2.74 1.75 6.05 4.12 8.92 11.98 14.59 41.59 23.71 59.43 27.44-10.3-4.48-23.44-20.08-33.07-27.78-8.12-6.49-10.38-9.69-3.45-22.25 11.8-21.33 39.15-8.58 51.91-24.65 17.77-22.39-29.02-39.34-12.58-58.1 5.2-5.93 11.01-1.61 16.25-2.1 10.22-.95 20.68-7.18 20.66-19.25-.61-.22-1.21-.43-1.81-.68 7.76-9.97 32.11 6.23 44.16-4.95-18.43-4.91-16.25-9.81-12-25.14-4.4-2.7-9.52-3.55-14.62-4.27 11.01-1.54 12.01-8.74 4.9-15.74-7.33-7.22-21.12-6.56-29.84-10.9 2.42-9.19 14.77-2.92 15.05-12.92-20.11-10.12-52.6-14.35-75.43-16.05-.77-1.28-2.46-5.99-2.7-7.5 15.85-13.16 19.36-39.18 2.21-51.68a453.863 453.863 0 00-44.32-2.18c-118.76 0-226.69 46.3-306.77 121.8z"/><g class="uuid-ff536ed8-d61c-4295-9144-1004fe23a726"><path class="uuid-df0ad4fa-5df7-4e2a-ac08-f5888e485a13" d="M693.15 313.77c-3.07-1.66-6.32-10.69-8.5-14.96-3.76-7.4-15.57-23.46-16.27-16.75-1.53 14.44 17.64 28.06 23.65 41.89 3.99 9.14 3.04 23.5 2.75 30.92-.43 10.69 1.58 21.3 3.61 31.72 3 15.3 6.64 37.57-2.38 50.92-1.9 2.83-7.53 9.99-10.02 5.36-2.6-4.82-1.43-15.8-2.8-22.43-1.01-4.89-1.97-9.17-4.62-10.3-1.58-.67-2.62 3.11-3.92 2.9-1.49-.24-2.14-1.99-3.71-3.62-2.43-2.54-3.01-5.21-5.15-3.19-2.75 2.59-2.18 18.9-5.43 14.46-5.57-7.61-4.18-21.13-7.2-30.63-1.05-3.28-4.96-9.69-7.02-10.53-2.73-1.11-1.8 3.33-4.57 4.01-4.17 1.02-10.73-8.67-15.2-11.24-7.9-4.52-10.39.72-16.7 2.44-2.06.56-4.11-.37-5.09 1.95-1.03 2.46.74 5.4-.33 7.74-1.15 2.49-3.52 1.74-4.59 5.37-.75 2.53-1.95 7.8-1.97 10.8-.02 4.41.34 4.1 2.59 7.35 3.31 4.75 4.11 5.83 5.84 12.82 2.93 11.94 6.7 12.39 12.04 19.39 1.81 2.37 6.9 8.81 5.87 12.11-2.69-4.17-7.6-6.36-7.9 3.14-.08 2.47 2.11 5.21 2.36 7.86.31 3.27-.24 6.44-1.38 9.05-3.72-1.72-4.69-6.81-7.72-.52-1.13 2.35-2.27 7.83-2.88 11-.98 5.12-.4 6-2.79 10.71-2.59 5.1-5.24 10.23-7.68 15.26-.8-1.56-1.64-3.15-2.46-4.68-9.08 9.81-3.25 25.38-6.15 36.63-1.69 6.59-9.7 13.04-12.81 12.7-2.26-.24-2.42-2.06-5.01-.74-2.41 1.21-4.72 5.61-7.3 6.9-5.37 2.67-8.68-2.25-6.22-8.72 3.45-9.08 7.33-12.79 13.03-18.14 1.61-1.51 6.53-5.59 6.81-8.74.22-2.37-2.63-3.89-2.99-5.66-.95-4.6 3.3-10.46.68-15.03-5.03 3.3-5.91 1.02-7.39-2.01-1.96.83-4 1.47-5.91 1.36 1.56 2.73 2.73 6.55 3.99 9.75-6.09 8.02-7.69-1.83-12.97 4.9.49.9.39 2.62 1.05 3.51-4.53 6.04-5.64 1.97-9.97 1.9-2.32-.06-2.47 1.03-4.71 2.42-2.96 1.84-2.06 1.72-5.59 1.18-5.95-.91-11.77 4.46-17.56 4.8-5.74.34-15.46.51-18.24 7.26-.09.23.5 2.33.33 3.01-.29 1.25-2.03 1.84-2.22 3.1-.65 4.35 1.72 2.25 4.31 1.47 1.97-.6 5.28-2.04 7.29-2.25 2.56-.26 4.44 2.01 6.64 2.63 3.14.89 8.88 1.73 5.05 6.88-1.49 1.99-4.35 1.47-5.44 4.15-.93 2.24.4 5.2 1.55 6.38-1.94 3.79-3.96 4.62-2.2 8.69.98 2.27 3.27 2.97 2.83 6.23-5.02 3.18-9.56 5-14.06 3.45-1.73 7.26-24.83 1.48-28.47 4.37-4.18 3.37.78 8.33.67 12.24-.03.87.89 2.08.59 2.79-.86 1.94-4.75 2.41-5.23 4-.68 2.3 1.44 2.24 2.08 4.07 1.32 3.85-2.01 7.98-1.22 11.62 1.01 4.72 14.25 2.02 3.09 10.4-5.7 4.28-9.99 8.65-14.05 14.53-4.22 6.07-.16 6.72-1.02 12.02-.43 2.73-3.52 6.13-4.95 8.88-1.67 3.24-2.33 6.63-4.07 9.87 1.28.74 11 1.17 13.43-.95.96-.84 1.53-3.88 1.88-4.87 8.38-3.03 3.65 1.72 5.78 4.7 2.19 3.07 7.47.7 11.62.25-.72 2.67-2.66 6.13-2.97 8.68-.45 3.64.45 5.66-1.94 10.13-2.73 5.1-7.52 8.59-12.34 13.11-5.07 4.76-5.06 4.31-11.45 7.15-6.49 2.87-3.53 3.63-8.05 7.16-5.08 4-15.8 3.55-22.76 7.5-2.18 1.24-2.84 2.92-4.84 3.89-4.55 2.21-12.51 1.94-16.79 4.75-5.31 3.47-.1 5.1-3.37 8.49-5.62 0-25.17-2.85-25.59 4.24-.18 2.88 8.55 5.89 13.58 6.02 5.72.12 9.69-1.95 12.75-5.37 11.47.09-3.92 8.01-.98 11.76 2.5 3.24 20.65 3.79 27.78 3.51 11.56-.45 14.01-7.57 25.02-7.25 4.22.14 12.45-.54 15.37.57 4.02 1.53 5.4 7.69 3.32 11.73-1.7 3.3-9.25 9.1-9.61 11.96-.29 2.26 6.87 3.95 11.54 2.22 5.75-2.13 3.55-4.42 7.6-7.37 6.83-4.97 16.54-4.23 23.46-8.26 9.89-5.75 12.13-17.54 19.96-24.88 4.95-4.67 12.81-5.58 17.59-11.49 3.49-4.29 4.44-11.43 2.65-13.44 10.23-3.25 20.78-4.83 30.64-9.15 2.05-5.6-1.44-9.88-2.83-13.3-1.59-3.9-4.15-5.28-7.7-7.29-1.68-.97-4.71-1.49-3.39-4.62 5.21-2.46 17.98-7.02 22.08-13.49 1.49-2.38 1.23-4.1 1.61-6.22.31-1.79-.98-6.96-.91-7.21 1.39-4.41 5.34-3.91 8.6-8.43 4.78-6.61 3.69-11.14 11.14-13.41.06 6 .34 11.46 1.11 16.71 1.08 7.11 8.11 3.63 15.8-2.54.17-.61.15-1.13.26-1.7 3.46-1.45.47 15.81 1.6 19.21 2.53 7.6 8.72 5.36 17.49.05-.55 8.98 3.93 20.16 10.25 19.38 11.1-1.39 21.81-13.9 28.57-23.44 1.29-1.78 1.27-4.52 2.92-6.09 2.33-2.25 3.99-.12 5.83-.74 4.37-1.47 10.98-7.19 15.75-11.07 5-4.05 9.46-6.6 14.44-10.78 2.16-1.83 8.74-6.99 10.52-11.04 2.24-5.09 1.05-7.79.86-12.26-.52-12.23 7.89-20.15 15.12-28.83-.43-4.23-2.42-9.49-2.24-14.26.22-5.48.06-.97 1.65-7.11 2.84-11.09 2.2-17.56 5.39-28.73 4.03-14.06 4.66-28.25-2.68-22.67-8.29 6.32-5.68 1.95-5.17-14.4.14-4.72-.5-8.94-.41-13 .15-7.43 1.93-14.65.26-21.81-1.9-8.17-6.11-9.71-8.89-13.58-4.43-6.19-4.7-11.89-7.66-20.7-1.98-5.9-3.34-3.65-4.9-4.77-1.74-1.24-2.34-1.9-4.78-5.76 4.61-21.18.2-44.19-3.32-64.85-2.63-15.54-.43-37.94-13.43-49.79.33 4.21 2.38 12.45-.91 10.66z"/></g><g class="uuid-ff536ed8-d61c-4295-9144-1004fe23a726"><path class="uuid-df0ad4fa-5df7-4e2a-ac08-f5888e485a13" d="M693.15 313.77c-3.07-1.66-6.32-10.69-8.5-14.96-3.76-7.4-15.57-23.46-16.27-16.75-1.53 14.44 17.64 28.06 23.65 41.89 3.99 9.14 3.04 23.5 2.75 30.92-.43 10.69 1.58 21.3 3.61 31.72 3 15.3 6.64 37.57-2.38 50.92-1.9 2.83-7.53 9.99-10.02 5.36-2.6-4.82-1.43-15.8-2.8-22.43-1.01-4.89-1.97-9.17-4.62-10.3-1.58-.67-2.62 3.11-3.92 2.9-1.49-.24-2.14-1.99-3.71-3.62-2.43-2.54-3.01-5.21-5.15-3.19-2.75 2.59-2.18 18.9-5.43 14.46-5.57-7.61-4.18-21.13-7.2-30.63-1.05-3.28-4.96-9.69-7.02-10.53-2.73-1.11-1.8 3.33-4.57 4.01-4.17 1.02-10.73-8.67-15.2-11.24-7.9-4.52-10.39.72-16.7 2.44-2.06.56-4.11-.37-5.09 1.95-1.03 2.46.74 5.4-.33 7.74-1.15 2.49-3.52 1.74-4.59 5.37-.75 2.53-1.95 7.8-1.97 10.8-.02 4.41.34 4.1 2.59 7.35 3.31 4.75 4.11 5.83 5.84 12.82 2.93 11.94 6.7 12.39 12.04 19.39 1.81 2.37 6.9 8.81 5.87 12.11-2.69-4.17-7.6-6.36-7.9 3.14-.08 2.47 2.11 5.21 2.36 7.86.31 3.27-.24 6.44-1.38 9.05-3.72-1.72-4.69-6.81-7.72-.52-1.13 2.35-2.27 7.83-2.88 11-.98 5.12-.4 6-2.79 10.71-2.59 5.1-5.24 10.23-7.68 15.26-.8-1.56-1.64-3.15-2.46-4.68-9.08 9.81-3.25 25.38-6.15 36.63-1.69 6.59-9.7 13.04-12.81 12.7-2.26-.24-2.42-2.06-5.01-.74-2.41 1.21-4.72 5.61-7.3 6.9-5.37 2.67-8.68-2.25-6.22-8.72 3.45-9.08 7.33-12.79 13.03-18.14 1.61-1.51 6.53-5.59 6.81-8.74.22-2.37-2.63-3.89-2.99-5.66-.95-4.6 3.3-10.46.68-15.03-5.03 3.3-5.91 1.02-7.39-2.01-1.96.83-4 1.47-5.91 1.36 1.56 2.73 2.73 6.55 3.99 9.75-6.09 8.02-7.69-1.83-12.97 4.9.49.9.39 2.62 1.05 3.51-4.53 6.04-5.64 1.97-9.97 1.9-2.32-.06-2.47 1.03-4.71 2.42-2.96 1.84-2.06 1.72-5.59 1.18-5.95-.91-11.77 4.46-17.56 4.8-5.74.34-15.46.51-18.24 7.26-.09.23.5 2.33.33 3.01-.29 1.25-2.03 1.84-2.22 3.1-.65 4.35 1.72 2.25 4.31 1.47 1.97-.6 5.28-2.04 7.29-2.25 2.56-.26 4.44 2.01 6.64 2.63 3.14.89 8.88 1.73 5.05 6.88-1.49 1.99-4.35 1.47-5.44 4.15-.93 2.24.4 5.2 1.55 6.38-1.94 3.79-3.96 4.62-2.2 8.69.98 2.27 3.27 2.97 2.83 6.23-5.02 3.18-9.56 5-14.06 3.45-1.73 7.26-24.83 1.48-28.47 4.37-4.18 3.37.78 8.33.67 12.24-.03.87.89 2.08.59 2.79-.86 1.94-4.75 2.41-5.23 4-.68 2.3 1.44 2.24 2.08 4.07 1.32 3.85-2.01 7.98-1.22 11.62 1.01 4.72 14.25 2.02 3.09 10.4-5.7 4.28-9.99 8.65-14.05 14.53-4.22 6.07-.16 6.72-1.02 12.02-.43 2.73-3.52 6.13-4.95 8.88-1.67 3.24-2.33 6.63-4.07 9.87 1.28.74 11 1.17 13.43-.95.96-.84 1.53-3.88 1.88-4.87 8.38-3.03 3.65 1.72 5.78 4.7 2.19 3.07 7.47.7 11.62.25-.72 2.67-2.66 6.13-2.97 8.68-.45 3.64.45 5.66-1.94 10.13-2.73 5.1-7.52 8.59-12.34 13.11-5.07 4.76-5.06 4.31-11.45 7.15-6.49 2.87-3.53 3.63-8.05 7.16-5.08 4-15.8 3.55-22.76 7.5-2.18 1.24-2.84 2.92-4.84 3.89-4.55 2.21-12.51 1.94-16.79 4.75-5.31 3.47-.1 5.1-3.37 8.49-5.62 0-25.17-2.85-25.59 4.24-.18 2.88 8.55 5.89 13.58 6.02 5.72.12 9.69-1.95 12.75-5.37 11.47.09-3.92 8.01-.98 11.76 2.5 3.24 20.65 3.79 27.78 3.51 11.56-.45 14.01-7.57 25.02-7.25 4.22.14 12.45-.54 15.37.57 4.02 1.53 5.4 7.69 3.32 11.73-1.7 3.3-9.25 9.1-9.61 11.96-.29 2.26 6.87 3.95 11.54 2.22 5.75-2.13 3.55-4.42 7.6-7.37 6.83-4.97 16.54-4.23 23.46-8.26 9.89-5.75 12.13-17.54 19.96-24.88 4.95-4.67 12.81-5.58 17.59-11.49 3.49-4.29 4.44-11.43 2.65-13.44 10.23-3.25 20.78-4.83 30.64-9.15 2.05-5.6-1.44-9.88-2.83-13.3-1.59-3.9-4.15-5.28-7.7-7.29-1.68-.97-4.71-1.49-3.39-4.62 5.21-2.46 17.98-7.02 22.08-13.49 1.49-2.38 1.23-4.1 1.61-6.22.31-1.79-.98-6.96-.91-7.21 1.39-4.41 5.34-3.91 8.6-8.43 4.78-6.61 3.69-11.14 11.14-13.41.06 6 .34 11.46 1.11 16.71 1.08 7.11 8.11 3.63 15.8-2.54.17-.61.15-1.13.26-1.7 3.46-1.45.47 15.81 1.6 19.21 2.53 7.6 8.72 5.36 17.49.05-.55 8.98 3.93 20.16 10.25 19.38 11.1-1.39 21.81-13.9 28.57-23.44 1.29-1.78 1.27-4.52 2.92-6.09 2.33-2.25 3.99-.12 5.83-.74 4.37-1.47 10.98-7.19 15.75-11.07 5-4.05 9.46-6.6 14.44-10.78 2.16-1.83 8.74-6.99 10.52-11.04 2.24-5.09 1.05-7.79.86-12.26-.52-12.23 7.89-20.15 15.12-28.83-.43-4.23-2.42-9.49-2.24-14.26.22-5.48.06-.97 1.65-7.11 2.84-11.09 2.2-17.56 5.39-28.73 4.03-14.06 4.66-28.25-2.68-22.67-8.29 6.32-5.68 1.95-5.17-14.4.14-4.72-.5-8.94-.41-13 .15-7.43 1.93-14.65.26-21.81-1.9-8.17-6.11-9.71-8.89-13.58-4.43-6.19-4.7-11.89-7.66-20.7-1.98-5.9-3.34-3.65-4.9-4.77-1.74-1.24-2.34-1.9-4.78-5.76 4.61-21.18.2-44.19-3.32-64.85-2.63-15.54-.43-37.94-13.43-49.79.33 4.21 2.38 12.45-.91 10.66z"/></g><g class="uuid-ff536ed8-d61c-4295-9144-1004fe23a726"><path class="uuid-df0ad4fa-5df7-4e2a-ac08-f5888e485a13" d="M284.07 458.71c1.09 1.87-.08 7.68-.29 10.64-.38 5.11.74 17.39 3.26 14.06 5.41-7.16-.37-20.49.86-29.72.81-6.12 5.9-13.43 8.43-17.26 3.64-5.51 5.97-11.79 8.22-17.95 3.31-9.06 8.49-21.99 17.54-26.19 1.91-.89 7.17-2.88 7.01.36-.16 3.4-4.28 8.81-5.68 12.77-1.03 2.92-1.88 5.48-.84 6.93.62.86 2.38-.81 2.99-.29.72.61.5 1.73.8 3.11.48 2.12-.07 3.72 1.71 3.33 2.28-.49 7.2-9.32 7.5-5.92.51 5.81-4.54 12.52-5.98 18.51-.5 2.08-.46 6.71.35 7.82 1.09 1.47 2.02-1.19 3.7-.66 2.53.79 2.9 8.02 4.45 10.8 2.74 4.91 5.73 2.93 9.62 4.06 1.28.35 2.07 1.49 3.31.58 1.33-.97 1.33-3.1 2.64-3.98 1.42-.97 2.43.19 4.15-1.39 1.2-1.11 3.53-3.49 4.5-5.09 1.42-2.32 1.14-2.28.98-4.72-.22-3.56-.32-4.4 1.01-8.67 2.25-7.24.41-8.69-.19-14.11-.2-1.83-.84-6.86.77-8.26.09 3.06 1.99 5.78 5.19.86.83-1.29.54-3.45 1.25-4.92.88-1.83 2.18-3.33 3.62-4.34 1.42 2.1.31 5.09 3.93 2.74 1.35-.89 3.7-3.42 5.05-4.91 2.14-2.4 2.12-3.06 4.89-4.78 3.01-1.88 6.04-3.74 8.95-5.63a74.24 74.24 0 00-.19 3.27c7.94-2.29 9.83-12.4 14.96-17.42 3-2.95 9.29-3.81 10.83-2.63 1.12.84.61 1.85 2.41 1.99 1.66.14 4.29-1.45 6.07-1.31 3.7.3 3.88 3.97.5 6.59-4.73 3.71-7.97 4.45-12.69 5.45-1.33.29-5.24.86-6.4 2.45-.88 1.18.15 2.9-.23 3.96-.97 2.74-5.09 4.47-5.16 7.74 3.72-.16 3.45 1.34 3.27 3.42 1.31.19 2.59.49 3.56 1.17.05-1.95.64-4.34 1.01-6.43 5.78-2.29 3.47 3.42 8.43 1.55.02-.64.63-1.53.57-2.19 4.34-1.75 3.62.75 5.88 2.18 1.22.76 1.63.23 3.27.22 2.16-.04 1.65-.26 3.35 1.16 2.86 2.38 7.66 1.39 10.83 3.07 3.14 1.65 8.34 4.68 11.96 1.99.12-.09.49-1.4.78-1.7.57-.57 1.67-.33 2.18-.94 1.73-2.08-.2-1.73-1.82-2.14-1.22-.32-3.44-.61-4.58-1.15-1.43-.68-1.7-2.49-2.66-3.52-1.38-1.47-4.16-3.75-.47-5.25 1.42-.57 2.76.61 4.2-.43 1.21-.91 1.44-2.9 1.22-3.89 2.25-1.38 3.58-1.18 3.95-3.9.2-1.5-.79-2.61.48-4.19 3.67-.08 6.67.39 8.56 2.66 3.23-3.29 13.61 7.16 16.46 6.78 3.29-.43 2.25-4.65 3.56-6.68.29-.45.19-1.39.57-1.67 1.07-.75 3.28.25 4.03-.43 1.1-1.01-.04-1.66.21-2.84.53-2.45 3.61-3.57 4.36-5.74.97-2.84-6.89-5.64 1.7-6.5 4.38-.45 8.04-1.39 12.07-3.21 4.18-1.87 2.24-3.51 4.37-6.04 1.1-1.3 3.83-2.11 5.46-3.11 1.92-1.18 3.35-2.77 5.31-3.93-.43-.81-5.45-4.15-7.4-3.79-.78.14-2.06 1.56-2.56 1.97-5.4-1.08-1.39-2.07-1.56-4.34-.17-2.33-3.72-2.76-6.06-3.85 1.22-1.18 3.35-2.38 4.34-3.64 1.4-1.79 1.56-3.14 4.27-4.75 3.05-1.81 6.71-2.13 10.72-2.99 4.2-.9 4.05-.67 8.34-.12 4.35.56 3.04-.79 6.55-1.22 3.96-.48 9.49 3.17 14.45 3.3 1.55.05 2.43-.64 3.79-.5 3.12.29 7.25 2.97 10.41 2.85 3.92-.13 1.69-2.67 4.49-3.42 2.97 1.81 12.41 9.56 14.91 5.95 1.02-1.47-2.64-5.86-5.26-7.53-2.99-1.9-5.75-2.06-8.46-1.25-6.05-3.71 4.62-2.97 4.27-5.9-.29-2.5-9.72-8.61-13.58-10.74-6.26-3.44-9.83-.46-15.57-4.16-2.19-1.42-6.76-3.69-7.95-5.2-1.64-2.11-.41-5.8 1.99-7.27 1.95-1.2 7.8-1.87 8.91-3.28.87-1.09-2.39-4.28-5.4-4.86-3.74-.71-3.29 1.2-6.38 1.47-5.2.45-10.11-3.05-15.05-3.12-7.08-.11-12.03 5.4-18.52 6.79-4.11.88-8.56-1.13-12.98.46-3.22 1.16-6 4.62-5.7 6.27-6.45-1.56-12.54-4.07-19.15-4.93-2.87 2.28-2.38 5.67-2.74 7.92-.41 2.58.51 4.14 1.74 6.33.58 1.05 2.02 2.28.33 3.52-3.55-.36-11.76-2.02-16.01.09-1.54.78-1.95 1.76-2.84 2.79-.73.84-1.7 3.98-1.81 4.07-2.14 1.93-4.08.39-7.25 1.74-4.64 1.97-5.51 4.71-10.18 3.55 1.89-3.21 3.48-6.18 4.75-9.22 1.7-4.09-3.14-4.5-9.18-3.69-.28.27-.43.54-.67.83-2.31-.36 4.79-8.53 5.27-10.69 1.1-4.82-2.9-5.61-9.23-5.61 3.16-4.58 4.36-11.93.76-13.53-6.31-2.81-15.97.38-22.6 3.26-1.25.56-2.11 1.99-3.49 2.3-1.95.44-2.15-1.21-3.32-1.47-2.79-.63-8.11.29-11.88.82-3.93.56-7.12.46-11.08 1.09-1.74.27-6.87.91-9.09 2.48-2.82 1.98-3.06 3.78-4.39 6.23-3.62 6.63-10.6 8.14-17.2 10.42-1.12 2.37-1.75 5.79-3.38 8.26-1.85 2.83-.34.49-3.14 3.24-5.05 4.96-6.78 8.58-12.04 13.48-6.62 6.15-11.49 13.47-5.82 12.85 6.4-.68 3.64.78-1.86 9.29-1.59 2.46-2.6 4.89-3.94 7-2.46 3.9-5.71 7.15-7.11 11.47-1.62 4.93.12 7.08.36 10.03.37 4.69-1.31 7.81-2.55 13.41-.84 3.75.6 3 1.07 4.09.53 1.22.63 1.75.69 4.57-9.21 9.74-14.23 23.34-18.96 35.39-3.57 9.07-11.89 20.23-8.8 30.65 1.16-2.33 2.71-7.35 3.89-5.36z"/></g><g class="uuid-5fb297a2-0734-400c-8900-321b55c31af0"><path class="uuid-df0ad4fa-5df7-4e2a-ac08-f5888e485a13" d="M516.35 761.33c-.02-2.77 4.02-3.83 5.78-4.86 3.05-1.76 9.84-7.09 5.16-11.22-7.26-6.43-12.49 10.66-16.83 12.75-4.04 1.94-11.72-1.01-15.79-2.13-6.13-1.7-8.86-.91-15.29 1.56-7.97 3.05-18.92 5.92-26.27.12-2.29-1.8-8.2-6.41-7.1-9.69 1.15-3.42 7.11-3.49 9.89-5.46 2.07-1.45 3.88-2.66 3.39-5.5-.29-1.69-2.71-2.58-3.12-3.96-.5-1.56.17-2.35.4-4.07.39-2.67 1.61-3.37-.34-5.54-2.49-2.8-10.78-.05-10.04-4.84.8-5.28 11.01-5.89 14.27-8.6 1.49-1.22 3.86-4.87 3.65-6.98-.29-2.81-2.59-2.06-3.96-5-2.05-4.42 1.64-10.78 1.83-15.27.33-7.91-3.67-11-6.68-17.76-.98-2.22-.98-4.33-2.8-5.53-1.92-1.27-3.34.41-5.2-.83-2.01-1.34-2.25-3.83-5.02-5.06-1.93-.86-5.85-2.18-7.88-2.14-2.96.04-2.65.42-3.99 2.97-1.97 3.73-2.37 4.61-6.17 7.12-6.5 4.3-5.17 8.52-7.02 15.31-.63 2.29-2.09 8.8-4.45 8.42 1.15-3.67.2-9.38-5.46-7.5-1.48.49-2.01 3.41-3.4 4.35-1.7 1.16-3.72 1.47-5.74 1.05-.9-4.29 1.56-6.79-3.54-8.01-1.9-.46-5.6.09-7.69.57-3.36.74-3.53 1.65-7.36 1.08-4.17-.64-8.39-1.11-12.43-1.23.36-1.46.74-3 1.08-4.46-10.13-5.36-15.26 9.54-21.99 12.57-4.41 1.96-12.11-.94-14.05-3.85-1.39-2.11-.69-3.41-3.03-4.82-2.17-1.32-5.68-.43-8.03-1.75-4.89-2.73-5.13-8.89-.38-11.06 6.68-3.06 11.23-1.83 17.62.26 1.81.59 7.01 2.84 8.83 1.42 1.36-1.06.43-4.51 1.18-5.79 1.92-3.29 7.73-2.09 8.89-6.77-4.86-3.33-4.07-5.23-3.09-8.09-1.64-1.52-3.23-3.16-4.28-5.07-.77 2.84-2.35 5.88-3.46 8.74-8.35-1.64-3.55-8.42-10.92-9.53-.22.95-1.29 1.86-1.39 2.96-6.41-.7-4.79-4.01-7.59-7.98-1.5-2.13-2.25-1.6-4.59-2.73-3.11-1.49-2.42-.75-4.52-4.21-3.52-5.84-10.96-7.26-15.43-11.89-4.43-4.6-12.05-12.55-18.62-9.33-.23.09-1.09 2.25-1.64 2.67-1.04.79-2.81-.05-3.73.84-3.21 3.1.08 3.12 2.63 4.45 1.96 1.02 5.46 2.43 7.14 3.83 2.18 1.8 2.32 5.05 3.67 7.27 1.92 3.15 5.82 8.28.16 9.24-2.18.36-4.17-2.25-6.4-.94-1.87 1.09-2.26 4.49-1.91 6.29-3.36 1.63-5.4.89-5.75 5.53-.19 2.57 1.36 4.75-.3 7.19-5.36-.84-9.84-2.2-13.05-6.48-4.34 5.3-22.6-13.65-27.07-12.72-5.17 1.08-2.2 8.53-3.46 12.33-.28.84.22 2.49-.26 3.03-1.34 1.49-5.09.12-5.92 1.49-1.22 1.99.77 2.9.93 5.03.31 4.45-3.57 7.12-3.48 11.12.1 5.18 12.16 7.94 1.2 11.75-5.6 1.96-9.85 4.88-13.67 9.63-3.96 4.94-.39 6.93-1.08 12.17-.35 2.69-2.88 5.33-3.94 7.83-1.24 2.93-1.55 6.3-2.68 9.29 1.11 1.08 9.04 4.07 10.88 2.6.74-.59 1.06-3.53 1.31-4.46 6.76-.52 3.04 2.92 4.89 6.66 1.89 3.86 6.02 3.19 9.32 4.28-.52 2.42-1.92 5.21-2.04 7.69-.17 3.51.64 5.84-.85 9.6-1.67 4.27-4.91 6.39-7.88 9.79-3.12 3.57-3.17 3.08-7.34 4.63-4.24 1.6-1.94 3-4.44 5.89-2.8 3.25-10.49 1.25-14.21 4.78-1.16 1.11-1.15 2.83-2.23 3.71-2.45 2.01-7.82 1.38-9.69 4.3-2.31 3.63 1.6 5.41.71 8.98-3.53-.02-16.56-1.92-13.97 5.6 1.07 3.05 7.33 5.56 10.35 5.49 3.43-.09 5.06-2.32 5.78-5.9 7.13.12.47 8.44 3.59 12.42 2.65 3.4 13.7 4.62 18 4.96 6.97.56 6.54-6.55 13.72-4.28 2.76.86 7.93 1.81 10.08 3.62 2.97 2.46 5.27 9.11 4.93 12.81-.26 3-3.41 7.47-2.86 10.37.44 2.29 5.23 5.4 7.64 4.64 2.97-.92 1.03-3.76 2.87-5.78 3.07-3.41 9.32.02 13.05-1.73 6.26-2.95 4.27-13.44 9.11-17.46 2.93-2.45 7.94-.11 10.69-3.51 2.01-2.49 2.25-8.67.9-11.41 7.25 1.49 13.68 6.35 20.82 7.74 1.36-3.79-.97-9.53-1.87-13.37-1.02-4.35-2.75-7.06-5.18-10.87-1.16-1.83-3.31-4.01-2.24-6.05 3.81.82 13.03 4.62 16.46 1.84 1.26-1.01 1.25-2.6 1.73-4.12.4-1.28.1-6.37.18-6.51 1.51-2.72 4.22.36 7.16-.91 4.28-1.9 4.38-6.16 9.89-2.35-1.04 4.57-1.69 8.96-1.89 13.6-.26 6.26 4.99 8.46 11.07 9.58.2-.33.26-.74.42-1.09 2.54 1.52-1.79 12.27-1.4 15.7.87 7.65 5.22 10.25 11.54 12.82-1.34 6.26.36 17.11 4.89 22.02 4.59 4.99 14.39 6.3 20.48 5.03 1.02-.23 1.36-2.06 2.6-1.8 1.76.39 2.51 3.15 3.73 4.23 2.92 2.59 7.8 4.37 11.31 5.96 3.68 1.7 6.79 3.97 10.49 5.82 1.6.81 6.43 3.59 8.21 2.92 2.25-.84 2.03-3.35 2.84-5.89 2.66-8.29 9.22-2.4 15.12-.43.76-2.35.94-6.59 2.28-8.51 1.54-2.17.26-.39 2.81-1.45 4.58-1.91 6.11-5.03 11.27-5.81 6.5-.98 11.65-4.38 5.89-10.06-6.5-6.4-3.83-5.41 2.35-9.3 1.79-1.13 3.02-2.84 4.61-3.71 2.89-1.6 6.57-1.29 8.66-4.28 2.38-3.44 1.06-7.97 1.41-11.42.57-5.51 2.94-6.56 5.64-10.46 1.81-2.62.2-3.82.04-5.53-.19-1.94-.15-2.62.64-5.43 9.58 3.1 21.52-.23 31.12-1.77 6.07-.97 20.63 4.6 22.27-4.46-2.2-.74-6.07-.56-6.08-3.5z"/></g><g class="uuid-5fb297a2-0734-400c-8900-321b55c31af0"><path class="uuid-df0ad4fa-5df7-4e2a-ac08-f5888e485a13" d="M371.97 214.4c-.6-.45-.16-1.5-.09-2.06.12-.95.09-3.31-1.59-3-2.6.52.25 4.5-.03 5.78-.24 1.2-2.15 2.39-3.08 3.08-1.39 1.05-1.67 1.77-2.2 3.59-.66 2.24-1.86 5.09-4.34 5.73-.77.19-2.75.7-3.28-.07-.55-.82.42-2.13.46-3.06.03-.69.07-1.29-.63-1.65-.42-.22-1.01.15-1.38.02-.43-.15-.49-.43-.83-.77-.51-.52-.46-.9-1.26-.84-1.02.08-1.8 2.33-2.71 1.38-1.01-1.05.54-3.37.5-4.53-.02-.53-.43-1.65-.91-1.95-.66-.41-.88.22-1.74.03-1.31-.3-2.07-2.15-3.02-2.95-1.67-1.38-2.99-1.02-4.96-1.49-.65-.15-1.11-.51-1.67-.3-.6.2-.47.79-1.05.98-.63.22-1.2-.14-1.94.24-.5.29-1.44.91-1.77 1.37-.48.63-.35.63 0 1.36.47 1.05.6 1.28.51 2.52-.14 2.12.99 2.53 2.16 4.06.4.53 1.56 1.93 1.1 2.38-.62-.86-2.01-1.59-2.55-.05-.14.39.41 1 .38 1.46-.03.57-.29 1.05-.73 1.42-1.07-.52-1.22-1.46-2.32-.57-.43.34-.91 1.24-1.16 1.77-.39.86-.23 1.04-.99 1.78-.83.8-1.63 1.64-2.33 2.5-.26-.33-.53-.66-.78-.98-2.85 1.31-.46 4.89-.94 6.86-.3 1.29-2.21 2.49-3.17 2.43-.68-.05-.85-.43-1.54-.15-.65.25-1.05 1.16-1.72 1.46-1.41.61-2.79-.37-2.46-1.76.44-1.97 1.46-2.75 2.98-3.79.43-.29 1.77-1.05 1.77-1.68 0-.48-.91-.84-1.06-1.22-.4-.97.83-2.03 0-3.05-1.53.49-1.82 0-2.28-.68-.6.11-1.22.18-1.81.08.49.64.88 1.5 1.32 2.21-1.73 1.54-2.42-.63-3.88.79.17.22.19.59.41.81-1.22 1.27-1.67.36-3 .31-.7-.02-.72.23-1.36.55-.84.42-.57.39-1.67.29-1.85-.22-3.39 1.17-5.15 1.36-1.73.2-4.73.53-5.13 2.49 0 .07.32.61.32.81 0 .36-.48.6-.44.95.14 1.21.69.5 1.4.17.55-.26 1.43-.8 2.02-.91.76-.18 1.49.33 2.19.4 1 .12 2.77.12 2.03 1.5-.28.55-1.18.53-1.26 1.25-.08.58.6 1.22 1.05 1.46-.21 1-.7 1.32.25 2.17.53.46 1.26.5 1.51 1.26-1.08 1.02-2.11 1.77-3.58 1.76.43 1.82-6.72 2.65-7.26 3.77-.63 1.31 1.49 1.9 2.1 2.81.14.19.58.36.62.56.11.53-.82 1.11-.67 1.53.23.6.77.32 1.25.63 1.02.68.96 1.97 1.84 2.62 1.15.84 3.75-1.32 2.75 1.7-.5 1.52-.57 2.94-.17 4.57.41 1.68 1.44 1.22 2.46 2.25.53.53.67 1.51 1.05 2.15.43.77 1.11 1.39 1.57 2.13.43-.05 2.39-1.29 2.39-1.93 0-.26-.6-.81-.76-1.04 1.01-1.55 1.14-.17 2.25.05 1.15.23 1.7-.77 2.48-1.31.44.52.82 1.29 1.34 1.72.74.63 1.38.84 1.95 1.79.65 1.06.57 2.11.81 3.33.26 1.29.14 1.2-.22 2.37-.36 1.19.33.93.55 1.94.23 1.15-1.48 2.48-1.33 3.89.05.43.43.72.43 1.1.04.86-1 1.93-.67 2.81.41 1.12 1.45.56 2.07 1.36-.59.76-3.17 3.27-1.11 3.95.84.29 2.44-.65 2.92-1.33.56-.77.34-1.47-.33-2.24 1.22-1.53 1.91 1.31 3.31 1.29 1.18 0 3.28-2.22 4.06-3.1 1.29-1.42-.33-2.51 1.36-3.68.64-.46 1.72-1.43 2.46-1.6 1.03-.23 2.87.36 3.61 1.05.61.57 1.05 2 1.77 2.35.57.29 2.04-.23 2.28-.88.29-.79-.65-.84-.78-1.59-.23-1.22 1.55-2.01 1.79-3.12.4-1.85-2.21-3.17-2.28-4.89-.05-1.03 1.3-1.74 1.02-2.9-.2-.84-1.52-1.92-2.33-2.1 1.53-1.32 3.66-1.91 5.14-3.24-.6-.92-2.23-1.38-3.21-1.81-1.12-.5-2-.57-3.24-.68-.59-.05-1.42.05-1.68-.52.81-.7 3.17-2.06 3.13-3.27 0-.45-.35-.7-.6-1.06-.22-.3-1.36-1.08-1.39-1.12-.33-.77.78-.84 1-1.7.29-1.24-.62-1.96 1.13-2.53.82.98 1.67 1.85 2.65 2.67 1.32 1.09 2.66.31 3.92-.82-.04-.09-.12-.18-.17-.27.76-.3 2.37 2.44 3.18 2.92 1.82 1.08 3.09.56 4.71-.38 1.14 1.33 3.79 2.76 5.6 2.59 1.85-.16 3.76-2.07 4.51-3.6.12-.26-.22-.64.04-.87.37-.32 1.1-.02 1.54-.12 1.05-.2 2.25-.97 3.18-1.46.98-.52 1.99-.82 3-1.31.45-.22 1.86-.8 2.01-1.31.19-.63-.39-1-.81-1.6-1.36-1.95 1.02-2.4 2.42-3.36-.37-.56-1.28-1.29-1.46-1.9-.23-.7-.05-.12.15-.85.35-1.31-.08-2.17.61-3.42.87-1.56.99-3.26-1.21-2.94-2.47.35-1.81-.07-1.63-2.06.05-.57-.12-1.14-.04-1.63.13-.88.81-1.63.51-2.59-.35-1.09-1.56-1.55-2.25-2.19-1.11-1.05-.94-1.73-1.34-2.97-.27-.82-.8-.68-1.19-.93-.46-.29-.6-.41-1.08-1.04 2.26-1.57 3.52-4.72 4.79-7.06.8-1.48 4.44-3.73 2.74-5.58-.53.36-1.13 1.23-1.78.74z"/></g><g class="uuid-5fb297a2-0734-400c-8900-321b55c31af0"><path class="uuid-df0ad4fa-5df7-4e2a-ac08-f5888e485a13" d="M388.22 92.11c-.22-.18-.06-.54-.04-.75.05-.36.04-1.22-.57-1.09-.95.18.09 1.64 0 2.11-.09.43-.79.86-1.13 1.13-.5.38-.6.64-.81 1.29-.24.82-.67 1.86-1.58 2.1-.28.07-1.01.26-1.18-.02-.22-.3.14-.78.16-1.12 0-.26.02-.47-.24-.6-.15-.08-.36.05-.5 0-.16-.05-.17-.15-.29-.27-.19-.19-.18-.34-.46-.32-.37.03-.66.84-1 .5-.36-.38.2-1.22.19-1.65-.02-.19-.16-.6-.33-.7-.25-.15-.33.08-.64 0-.48-.1-.76-.78-1.1-1.07-.61-.5-1.1-.36-1.81-.54-.24-.05-.4-.19-.61-.11-.22.06-.17.29-.38.35-.23.08-.43-.05-.71.1-.17.09-.52.33-.64.49-.17.25-.12.23 0 .5.18.37.22.45.19.91-.05.78.36.93.79 1.49.14.19.56.7.39.86-.22-.31-.73-.58-.93-.02-.05.15.15.36.15.53-.02.2-.12.39-.27.52-.39-.18-.44-.53-.85-.21-.15.12-.33.46-.42.64-.15.31-.08.38-.36.65-.31.3-.6.6-.85.91-.1-.12-.19-.24-.29-.35-1.05.47-.17 1.78-.34 2.49-.12.46-.8.9-1.15.89-.26-.03-.32-.17-.56-.06-.23.1-.38.43-.63.53-.52.22-1.01-.13-.9-.64.15-.7.53-.99 1.08-1.39.15-.1.65-.37.65-.6 0-.18-.33-.31-.39-.45-.15-.34.29-.74 0-1.11-.56.19-.67 0-.83-.25-.22.05-.45.07-.66.04.18.23.32.55.47.81-.63.56-.87-.23-1.41.27.06.08.07.23.14.3-.43.48-.6.14-1.08.12-.26-.02-.26.08-.49.19-.31.16-.21.15-.6.11-.68-.09-1.25.42-1.88.49-.64.08-1.73.21-1.87.91 0 .03.11.22.11.3 0 .12-.17.22-.15.34.05.45.25.19.5.05.21-.08.52-.27.74-.33.28-.07.54.12.81.15.36.04 1.01.04.74.55-.1.19-.43.19-.46.45-.02.22.22.45.39.53-.08.37-.26.48.09.8.19.16.46.18.55.46-.4.37-.77.64-1.31.64.15.67-2.46.97-2.64 1.36-.23.48.53.7.76 1.03.05.06.21.13.22.2.04.2-.3.43-.24.56.08.22.28.12.46.25.37.23.34.71.67.95.42.29 1.36-.5 1.01.61-.19.56-.21 1.08-.07 1.67.16.62.53.44.91.81.19.21.24.57.38.8.16.29.4.5.57.77.15-.02.87-.46.87-.71 0-.09-.22-.29-.28-.36.36-.56.4-.07.81.02.43.09.62-.28.91-.48.17.19.29.48.49.63.26.23.5.3.71.65.23.4.21.78.29 1.22.09.46.05.44-.07.86-.13.44.12.34.19.71.08.42-.53.91-.49 1.42.02.16.16.27.16.39 0 .33-.37.71-.26 1.04.16.39.53.2.76.49-.21.28-1.15 1.19-.4 1.43.31.11.89-.23 1.07-.47.19-.27.12-.55-.12-.82.44-.56.69.48 1.2.48.43-.02 1.2-.82 1.49-1.14.46-.51-.12-.91.5-1.35.23-.16.61-.52.89-.57.37-.08 1.04.14 1.31.38.22.21.39.73.65.86.21.1.74-.09.84-.33.1-.3-.23-.31-.29-.57-.09-.45.57-.74.65-1.15.15-.67-.81-1.16-.83-1.77-.02-.38.47-.64.37-1.06-.08-.32-.55-.71-.85-.77.56-.48 1.34-.7 1.87-1.18-.22-.33-.81-.5-1.17-.66-.39-.19-.72-.22-1.18-.24-.21-.03-.51 0-.61-.19.31-.26 1.16-.77 1.14-1.2 0-.15-.13-.26-.21-.38-.08-.12-.5-.39-.5-.41-.12-.29.28-.32.36-.63.11-.45-.22-.71.41-.93.3.36.61.68.97.98.48.41.98.12 1.42-.3 0-.03-.03-.07-.05-.09.29-.11.87.88 1.16 1.06.66.39 1.13.2 1.72-.14.41.5 1.38 1.01 2.04.94.67-.05 1.36-.75 1.63-1.32.05-.08-.08-.22.02-.3.13-.12.39 0 .56-.05.38-.06.81-.34 1.15-.52.35-.19.73-.29 1.09-.49.17-.07.68-.29.74-.46.07-.23-.15-.36-.29-.59-.5-.72.36-.87.88-1.22-.14-.19-.46-.46-.53-.7-.08-.25-.02-.04.05-.3.12-.49-.03-.79.23-1.25.31-.57.36-1.18-.44-1.08-.91.14-.67-.02-.6-.75.03-.2-.04-.41 0-.59.05-.31.29-.6.19-.94-.13-.41-.57-.57-.83-.8-.39-.38-.34-.64-.48-1.09-.09-.3-.29-.25-.43-.33-.17-.11-.22-.15-.4-.39.83-.57 1.29-1.72 1.75-2.58.29-.54 1.62-1.35.99-2.03-.19.13-.41.45-.64.27z"/></g><g class="uuid-5fb297a2-0734-400c-8900-321b55c31af0"><path class="uuid-df0ad4fa-5df7-4e2a-ac08-f5888e485a13" d="M626.5 215.26c-.22-.16-.05-.56-.03-.75.05-.36.03-1.22-.58-1.09-.95.19.09 1.64 0 2.11-.08.43-.79.87-1.13 1.13-.5.38-.6.64-.8 1.31-.24.8-.68 1.84-1.58 2.08-.28.07-1.01.26-1.19-.02-.21-.3.14-.77.16-1.12 0-.24.02-.47-.23-.6-.15-.08-.37.05-.5.02-.16-.07-.18-.16-.31-.29-.18-.19-.16-.33-.45-.32-.38.03-.67.86-1 .5-.37-.38.2-1.22.19-1.65 0-.19-.15-.6-.33-.7-.24-.15-.32.08-.64 0-.48-.11-.76-.79-1.1-1.08-.6-.5-1.1-.36-1.8-.54-.25-.05-.41-.19-.61-.12-.23.08-.17.3-.39.36-.22.08-.44-.05-.7.1-.18.09-.52.33-.64.49-.19.23-.13.23 0 .5.17.38.22.47.19.92-.05.78.36.93.78 1.49.15.19.57.7.4.86-.23-.31-.73-.58-.94 0-.05.13.15.35.15.52-.02.22-.11.39-.27.52-.39-.18-.44-.52-.84-.21-.15.12-.33.46-.42.64-.15.31-.08.38-.36.65-.3.3-.6.6-.85.91-.09-.12-.19-.24-.28-.35-1.05.47-.17 1.78-.35 2.49-.11.48-.8.91-1.15.89-.25-.02-.31-.15-.57-.05-.23.09-.38.42-.63.53-.5.22-1.02-.13-.9-.64.16-.7.54-.99 1.09-1.37.15-.12.64-.39.64-.62 0-.18-.33-.31-.38-.43-.15-.36.29-.75 0-1.13-.56.19-.67 0-.84-.25-.22.04-.44.07-.66.04.19.23.33.55.48.81-.64.56-.88-.23-1.41.29.06.07.06.22.15.29-.45.48-.61.14-1.09.12-.26-.02-.26.08-.5.19-.3.16-.21.15-.6.11-.68-.09-1.25.42-1.87.49-.64.08-1.73.21-1.87.91 0 .03.11.22.11.3 0 .12-.18.22-.15.34.05.43.26.19.51.07.19-.09.53-.3.74-.34.28-.05.54.12.8.15.36.04 1.01.04.74.55-.11.2-.43.2-.46.45-.02.22.22.45.38.54-.08.36-.26.48.09.78.2.18.46.18.57.46-.4.36-.78.65-1.31.64.15.67-2.46.97-2.65 1.38-.22.48.53.68.76 1.02.05.08.22.13.23.2.04.2-.3.41-.24.57.08.2.28.11.46.22.36.25.34.73.67.96.42.29 1.36-.48 1 .61-.18.56-.21 1.08-.06 1.67.16.62.53.46.9.82.19.19.25.55.39.78.15.29.39.5.57.77.15-.02.87-.46.87-.7 0-.09-.21-.3-.27-.38.36-.57.41-.05.82.02.42.09.62-.29.91-.47.15.18.29.46.49.61.26.23.5.3.71.66.23.39.21.77.29 1.21.11.46.06.44-.07.87s.12.33.19.7c.09.42-.53.91-.48 1.42.02.16.15.26.15.41 0 .31-.36.7-.25 1.02.16.41.53.19.76.49-.21.28-1.16 1.19-.41 1.45.32.1.89-.25 1.08-.49.19-.29.12-.55-.12-.82.44-.56.7.48 1.2.48.43-.02 1.19-.82 1.49-1.13.46-.52-.12-.92.49-1.36.24-.16.63-.52.9-.57.38-.09 1.05.14 1.32.38.22.21.39.73.64.86.22.1.75-.09.84-.33.1-.29-.24-.31-.29-.59-.09-.45.57-.72.65-1.13.16-.67-.8-1.15-.83-1.77 0-.38.47-.64.37-1.06-.07-.32-.55-.7-.85-.77.56-.49 1.34-.7 1.87-1.18-.22-.33-.81-.5-1.17-.66-.4-.19-.73-.2-1.18-.24-.22-.03-.52 0-.61-.19.29-.25 1.15-.75 1.15-1.18 0-.18-.14-.26-.22-.39-.08-.11-.5-.39-.5-.41-.12-.29.28-.32.36-.62.12-.46-.22-.72.41-.92.3.35.61.68.97.97.49.41.97.12 1.42-.29 0-.04-.04-.08-.05-.11.27-.11.86.88 1.16 1.06.67.39 1.13.21 1.71-.14.42.5 1.38 1.01 2.04.94.67-.05 1.37-.75 1.64-1.31.04-.09-.08-.23.02-.32.12-.12.39 0 .56-.04.39-.08.82-.36 1.16-.53.35-.19.72-.29 1.09-.49.16-.07.67-.29.74-.46.06-.23-.15-.36-.29-.59-.5-.7.36-.87.87-1.22-.14-.19-.46-.46-.53-.7-.08-.26-.02-.04.06-.3.12-.49-.04-.79.22-1.25.31-.57.36-1.19-.43-1.06-.91.12-.67-.03-.6-.77.02-.2-.04-.41-.02-.59.05-.31.3-.6.19-.94-.13-.39-.57-.57-.82-.81-.4-.38-.34-.64-.49-1.09-.09-.3-.29-.25-.43-.33-.17-.11-.22-.15-.39-.39.83-.57 1.3-1.72 1.75-2.58.29-.54 1.62-1.35.99-2.03-.19.14-.4.45-.64.27z"/></g><g class="uuid-5fb297a2-0734-400c-8900-321b55c31af0"><path class="uuid-df0ad4fa-5df7-4e2a-ac08-f5888e485a13" d="M570.61 299.82c.14-.24.53-.12.74-.12.35.02 1.2-.08 1.03-.67-.29-.94-1.63.25-2.11.19-.45-.04-.94-.7-1.22-1.01-.43-.46-.7-.54-1.38-.67-.84-.15-1.92-.49-2.24-1.36-.1-.27-.36-.97-.09-1.2.28-.22.79.09 1.13.05.24 0 .46-.02.57-.29.06-.15-.1-.36-.06-.49.04-.17.14-.19.25-.33.17-.2.31-.2.26-.49-.06-.37-.91-.57-.6-.93.35-.42 1.25.07 1.67 0 .19-.02.58-.2.67-.39.12-.25-.11-.3-.07-.63.06-.48.7-.83.95-1.2.44-.66.26-1.13.37-1.86.03-.24.13-.42.05-.61-.1-.2-.31-.14-.39-.36-.1-.2 0-.43-.16-.68-.12-.18-.39-.49-.56-.6-.25-.16-.24-.1-.5.05-.36.2-.43.26-.9.27-.77.03-.88.45-1.39.93-.18.16-.64.64-.82.47.28-.24.5-.77-.07-.91-.15-.04-.35.18-.52.19-.2.02-.39-.07-.54-.2.15-.43.5-.5.12-.87-.15-.14-.49-.29-.69-.36-.32-.12-.38-.04-.68-.3-.32-.26-.66-.53-.99-.75l.33-.33c-.57-.98-1.79.02-2.52-.08-.48-.05-.98-.71-1-1.07 0-.25.12-.33 0-.56-.12-.23-.46-.34-.6-.57-.27-.49.04-1.02.56-.95.73.08 1.04.42 1.48.94.12.15.44.6.67.59.17-.03.27-.37.4-.43.33-.18.77.23 1.11-.11-.22-.55-.07-.66.16-.85-.05-.22-.1-.43-.09-.65-.22.2-.52.38-.75.56-.63-.59.13-.9-.43-1.39-.07.08-.2.1-.27.18-.5-.39-.19-.59-.22-1.06-.02-.26-.1-.25-.25-.48-.19-.29-.16-.19-.16-.6 0-.67-.55-1.18-.69-1.82-.13-.61-.36-1.69-1.09-1.76-.02-.02-.21.14-.27.14-.14 0-.24-.15-.36-.12-.43.09-.15.26-.02.52.12.19.34.49.41.7.09.26-.07.56-.07.81 0 .36.05 1-.46.8-.22-.09-.24-.43-.5-.43-.22-.02-.42.26-.49.43-.37-.03-.5-.19-.77.17-.15.21-.14.48-.41.6-.4-.36-.72-.71-.76-1.24-.65.22-1.21-2.35-1.63-2.5-.5-.18-.64.61-.94.88-.08.04-.12.22-.19.23-.19.05-.44-.25-.59-.18-.2.11-.08.29-.18.46-.21.39-.68.43-.88.77-.27.44.62 1.31-.51 1.05-.58-.12-1.09-.09-1.67.09-.6.22-.39.57-.73.98-.17.22-.53.3-.74.46-.26.18-.47.45-.72.64.03.15.55.82.78.79.09-.02.28-.25.34-.3.61.3.11.39.08.82-.05.43.34.59.57.84-.18.18-.44.34-.58.55-.2.29-.25.53-.58.77-.36.27-.74.27-1.18.41-.45.13-.43.09-.87.02-.44-.09-.32.15-.69.27-.4.12-.95-.45-1.46-.34-.15.02-.24.18-.38.19-.31.05-.74-.28-1.05-.13-.39.19-.15.53-.41.79-.3-.18-1.3-1.02-1.48-.26-.07.31.33.86.59 1.02.29.16.55.05.8-.22.6.39-.41.74-.35 1.25.05.42.91 1.1 1.26 1.35.56.43.91-.2 1.39.37.19.22.57.57.67.83.12.37-.03 1.05-.25 1.34-.19.26-.68.46-.79.74-.09.22.16.74.4.8.3.07.28-.28.54-.34.44-.14.8.47 1.21.53.68.08 1.05-.91 1.68-1.01.38-.04.68.41 1.09.27.3-.11.64-.63.68-.93.53.51.82 1.26 1.36 1.77.31-.26.41-.88.53-1.25.14-.42.14-.75.13-1.2 0-.2-.08-.52.13-.63.27.28.86 1.08 1.3 1.02.15-.02.23-.16.36-.26.09-.09.34-.53.35-.54.27-.15.35.24.66.29.46.07.69-.29.96.32-.33.34-.61.67-.87 1.06-.36.52-.02.97.43 1.39a.55.55 0 01.09-.07c.14.26-.8.95-.94 1.25-.33.7-.1 1.15.3 1.7-.44.46-.87 1.47-.74 2.12.13.66.89 1.29 1.48 1.5.1.03.22-.11.32-.02.13.13.04.41.09.56.12.38.44.79.66 1.11.22.34.36.69.58 1.03.09.16.36.64.54.69.23.05.36-.18.55-.36.67-.56.91.29 1.31.76.19-.16.42-.52.64-.6.25-.11.05-.03.32.02.5.08.78-.11 1.26.11.6.26 1.22.23 1.03-.57-.22-.87-.05-.65.69-.65.21 0 .39-.09.58-.08.33.02.62.25.96.1.38-.16.5-.63.72-.89.33-.45.59-.41 1.03-.6.29-.14.21-.32.29-.46.09-.18.12-.25.34-.43.65.75 1.83 1.11 2.73 1.47.57.23 1.51 1.48 2.13.8-.16-.18-.5-.37-.33-.62z"/></g><path class="uuid-0c9ed1f7-27d3-49fd-825d-73879fed163c" d="M248.12 408.47c-7.26-7.67-37.98-16.73-26.81-31.87-6-2.77-14.47.86-20.12-3.49-3.08-2.36-5.41-13.06-6.36-16.6-1.71-6.43 4.28-6.55-3.26-9.94-2.95-1.34-10.76 1.29-14.43.97-.64-4.99-3.78-14.34-9.94-7.68-3.26 3.52-.86 14.8.09 18.85l-4.42 1.11c-4.74-6.85-21.41.12-18.64 9.81 8.6 2.6 17.69-.55 26.34 1.24 8.19 1.69 7.14 3.12 11.14 8.84-.1-.15 5.55 9.97 5.48 9.05.36 4.83 1.55 7.23-5.52 6.39-6.56-.77-4.85-5.76-9.42-9.97-6.53-6.03-26.76-7.88-32.48 1.2.57.33 1.15.63 1.73.9-11.96.86-13.63 16.55 1.27 18.98 2.84.45 3.55-2.91 6.75-3.38 4.75-.73 15.7-1.65 19.86.79 3.5 2.08 9.18 10.27 10.05 12.45.68 1.68 2.49 2.66 3.38 5.55.67 2.14-2.11 6.25-1.15 9.15 1.31 4 11.88 11.74 17.28 5.29 4.41-5.27-5.54-9.08-.8-16.67 3.38-5.41 11.14 1.43 10.07-7.73 6.57 5.29 13.48 5.74 19.86 10.52 4.75 3.56 4.78 9.76 10.87 11.5 1.84-12.69-7.95-22.81 9.19-25.24z"/><g class="uuid-5fb297a2-0734-400c-8900-321b55c31af0"><path class="uuid-df0ad4fa-5df7-4e2a-ac08-f5888e485a13" d="M817.7 478.94c-.53-.65-1.01-1.35-1.47-2.03-.19.6-.36 1.28-.49 2.03.65.37 1.31.37 1.96 0zm-40.78-108.09c3.05 6.16-2.9 8.15 7.16 8.83 8.36.54 9.83-4.15 8.45-11.73 5.84 4 15.86 9.39 19 16.37 2.39 5.37.65 12.69 2.44 18.33 4.93 15.65 16.62 12.93 24.62.5.55 7.95 1.85 16.91-3.07 23.53-4.93 6.65-13.69 7.67-17.76 15.11-5.97 10.94-8.79 24.19-1.53 35.12 2.59-8.29 9.82-2.84 15.15-5.48 5.42-2.69 9.88-9.87 9.71-16.7-.12-4.38-7.31-11.47-2.64-16.86 4.77-5.5 14.5-.48 17.99 3.85 8.46-6.02 2.04-16.21 2.31-24.31 5.99-.36 15.52 1.92 21.27 0 12.1-4.07 8.96-16.37 8.46-27.54-.76-16.8-2.64-32.78-6.54-49.01-1.08-4.49-1.73-9.11-2.18-13.8C845.89 209.88 765.41 112.51 659.68 56.3c-1.52 6.4-7.51 12.62-6.28 20.58 2.63 1.84 7.89 6.12 9.74 9.87 1.63 3.28 1.45 9.63 3.33 12.43 5.77 8.49 24.39 12.58 26.63 24.29 1.09 5.71-2.81 7.02-.07 13.14 3.62 8.08 11.04 9.21 3.21 14.49-1.81 1.21-6.32-.74-8.41-.12-4.02 1.23-6.43 4.94-8.01 5.64-5.02 2.24-12.9 1.08-13.5 9.78-1.57-.16-3.69.55-5.24.27.92 4.69 1.95 23.7 6.35 25.4-1.48 11.69 27.17 8.13 36.54 12.35.99 8.55-6.84 11.04-9.82 16.07 13.17.88 61.56-3.33 41.09 23.63-4.51 5.93-5.94 4.64-13.59 5.25-7.67.6-13 2.51-19.82 3.87-12.19 2.43-25.65-2.08-39.56-2.89-1.29-4.84-15.39-28.75-15.79-13.23-2.28-.75-4.92.29-7.36-.97 0 2.04-1.74 4.64-1.58 6.86-3.06-.5-10.85-3-14.16-1.45-3.7 1.72-.45 5.96-3.68 7.84-6.56 3.76-19.48.9-20.46 11.95 11.23 1.56 17.29-7.9 25.42-5.37.43.13-.69 5.41-.41 5.57 2.08 1.1 10.12.6 9.43.13 3.35 2.2 5.03 1.68 4.22 7.41 9.05 1.49 16.81-6.09 25.56-4.24 8.14 1.7 5.36 4.95 10.59 9.82.15-.63.25-1.27.33-1.91 8.74-1.94 8.87 6.95 13.98 10.39 3.32 2.22 7.04 3.62 12.27 2.49 2.64-.56 5.02-5.84 7.84-5.43 19.27 2.81-7.61 22.15-8.71 27.53 11.87 2.15 12.52-10.78 20.57-7.38 4.61 1.97 13.18 20.82 17.9 3.53 4.42 2.22 10.52 11.55 10.83 17.12.37 6.68 1.73 4.12-5.37 8.67-7.71 4.94-32.44 7.19-37.05 14.61-3 4.82 1.96 9.73.87 12.47-2.64 6.66-11.24 6.17-17.42 9.73-10.21 5.89-8.38 11.16-8.04 23.02 9.57.18 7.04-8.63 12.35-12.99 5.44-4.48 15.64-4.19 22.27-5.48 10.21-1.99 27.81.43 36.03-5.96 7.03-5.46 1.78-10.19 12.13-7.81 7.11 1.64 9.77 8.84 12.12 13.59z"/></g><g class="uuid-5fb297a2-0734-400c-8900-321b55c31af0"><path class="uuid-df0ad4fa-5df7-4e2a-ac08-f5888e485a13" d="M519.84 811.14c-1.76 11.59-3.83 31.08-20.22 31.38-9.25.18-8.84-6.06-15.1-8.68-11.85-4.96-2.84-3.87-14.17-2.49-13.6 1.67-25.13 8.94-39.72 5.88-12.54-2.62-27.3-10.94-38.56-16.32-9.15-4.38-23.6-9.77-25.35-21.44-1.05-7.02-1.11-7.65 4.15-13.07 7.77-8.05 10.41-3.6 16.72.14 12.27 7.29 12.8 24.18 29.36 26.12 3.6.43 8.66-2.71 11.79-2.97 13.89-1.18 20.36 1.61 26.52-11.92-.73-3.93-5.93-13.68-5.37-16.62 2.07-10.87 6.57-3.15 10.9-10.19 7.28-11.79 1.42-24.16 15.88-32.63-6.57-.42-13.31-.11-19.9-.4.76-7.91 2.47-16.4 1.29-24.45-7.1 3.6-6.37 15.87-14.76 19.9-3.25 1.57-12.63-.36-16.31-.52-1.72-13.34 7.57-42.81-18.17-37.6.75 3.24-1.25 7.98-.47 11.17-5.79.05-11.89.2-17.68.42-1.25 13.47-15.61 19.84-22.79 30.39-11.93 17.57-18.43 23.11-44.88 20.45 2.21-13.25-6.85-8.09-10.14-13.33-2.97-4.73-5.67-18.88-10.23-20.99-5.48-2.53-18.25 10.53-29.13 8.07-15.01-3.41-6.48-6.58-13.96-14.91-10.42-11.62-46.58-3.37-46.62-21.25-.05-27.63 29.98 6.79 41.73-8.54 5-6.5-7.47-13.45 4.86-20.44 9.5-5.39 18.07 5.2 26.63 7.23 7.09 1.69 19.62.95 26.28-1.73 8.39-3.4 10.52-13.06 17.92-16.3 16.29-7.16 29.6 8.5 40.24-11.78 3.24-6.16 6.89-20.95-1.74-24.67-7.1-3.07-12.85 12.03-23.03 9.01-5.45-22.75-34.45 12.14-44.56 5.39-9.79-6.55-.78-18.74-10.28-22.98-10.08-4.47-20.52 5.84-18.5 15.36-6.54-9.35-23.16-16.75-22.9-30.36.2-10.35 10.2-11.32 9.39-21.26-9.11-1.63-32.05 9.78-39.69-.82-7.42-10.28 3.06-5.59 3.92-12.13.27-2.08.31-11.08 1.17-13.34 3.99-10.52 8.62-17.41 23.11-23.64 8.92-3.85 30.46-4.41 31.7-15.87-12.1-3.48-22.93 5.89-36.09 4.07 4.38-7.91 14.93-12.4 19.72-17.7-6.75-.26-13.56-.97-19.68-3.89 5.08-16.36 23.98-23.15 28.44-39.39 3.4-12.34 1.53-29.51.96-42.85-10.33-.2-2.92 5.75-6.4 11.71-1.12 1.92-1.22 7.16-2.41 9.69-1.21 2.63-6.67 2.05-7.69 4.44-3.64 8.6-2.65 18.07-10.05 25.26-8.46 8.2-17.79 4.96-26.67 9.85-8.72 4.8-11.16 18.75-22.46 16.37-.7-2.96-1.94-4.58-2.18-7.74-7.09 2.49-5.05 8.5-13.2 9.84-2.71.43-7.84-7.78-14.4-6.61-2.92 7.45-3.17 18.47-1.98 26.42 1.43 9.62 8.63 18.27 8.01 27.9-24.36 1.04-50.03 4.6-49.64-24.41-3.41-1.08-9.65-.88-12.87.32 2.16 9.8-3.24 22.98-11.89 12.38-4.89-6 6.09-20.03-9.57-16.01 1.76 8.21-2.62 13.61-11.23 13.3-1.12 8.74-.45 18.58-.84 27.65-21.12.88-29.79 2.08-39.61-14.71-3.54-6.05.38-9.83-6.56-15.02-4.07-3.05-12.29 1.42-17.6-2.62-2.32-1.77-4.69-5.44-7.11-9.51 27.41 220.76 215.68 391.63 443.86 391.63 28.99 0 57.34-2.8 84.8-8.07 4.53-2.41 8.46-5.51 11.31-9.79 7.54-11.37 7.03-33.38 6.35-47.8-19.52 1.65-14.94-27.04-32.63-21.98z"/><path class="uuid-df0ad4fa-5df7-4e2a-ac08-f5888e485a13" d="M519.84 811.14c-1.76 11.59-3.83 31.08-20.22 31.38-9.25.18-8.84-6.06-15.1-8.68-11.85-4.96-2.84-3.87-14.17-2.49-13.6 1.67-25.13 8.94-39.72 5.88-12.54-2.62-27.3-10.94-38.56-16.32-9.15-4.38-23.6-9.77-25.35-21.44-1.05-7.02-1.11-7.65 4.15-13.07 7.77-8.05 10.41-3.6 16.72.14 12.27 7.29 12.8 24.18 29.36 26.12 3.6.43 8.66-2.71 11.79-2.97 13.89-1.18 20.36 1.61 26.52-11.92-.73-3.93-5.93-13.68-5.37-16.62 2.07-10.87 6.57-3.15 10.9-10.19 7.28-11.79 1.42-24.16 15.88-32.63-6.57-.42-13.31-.11-19.9-.4.76-7.91 2.47-16.4 1.29-24.45-7.1 3.6-6.37 15.87-14.76 19.9-3.25 1.57-12.63-.36-16.31-.52-1.72-13.34 7.57-42.81-18.17-37.6.75 3.24-1.25 7.98-.47 11.17-5.79.05-11.89.2-17.68.42-1.25 13.47-15.61 19.84-22.79 30.39-11.93 17.57-18.43 23.11-44.88 20.45 2.21-13.25-6.85-8.09-10.14-13.33-2.97-4.73-5.67-18.88-10.23-20.99-5.48-2.53-18.25 10.53-29.13 8.07-15.01-3.41-6.48-6.58-13.96-14.91-10.42-11.62-46.58-3.37-46.62-21.25-.05-27.63 29.98 6.79 41.73-8.54 5-6.5-7.47-13.45 4.86-20.44 9.5-5.39 18.07 5.2 26.63 7.23 7.09 1.69 19.62.95 26.28-1.73 8.39-3.4 10.52-13.06 17.92-16.3 16.29-7.16 29.6 8.5 40.24-11.78 3.24-6.16 6.89-20.95-1.74-24.67-7.1-3.07-12.85 12.03-23.03 9.01-5.45-22.75-34.45 12.14-44.56 5.39-9.79-6.55-.78-18.74-10.28-22.98-10.08-4.47-20.52 5.84-18.5 15.36-6.54-9.35-23.16-16.75-22.9-30.36.2-10.35 10.2-11.32 9.39-21.26-9.11-1.63-32.05 9.78-39.69-.82-7.42-10.28 3.06-5.59 3.92-12.13.27-2.08.31-11.08 1.17-13.34 3.99-10.52 8.62-17.41 23.11-23.64 8.92-3.85 30.46-4.41 31.7-15.87-12.1-3.48-22.93 5.89-36.09 4.07 4.38-7.91 14.93-12.4 19.72-17.7-6.75-.26-13.56-.97-19.68-3.89 5.08-16.36 23.98-23.15 28.44-39.39 3.4-12.34 1.53-29.51.96-42.85-10.33-.2-2.92 5.75-6.4 11.71-1.12 1.92-1.22 7.16-2.41 9.69-1.21 2.63-6.67 2.05-7.69 4.44-3.64 8.6-2.65 18.07-10.05 25.26-8.46 8.2-17.79 4.96-26.67 9.85-8.72 4.8-11.16 18.75-22.46 16.37-.7-2.96-1.94-4.58-2.18-7.74-7.09 2.49-5.05 8.5-13.2 9.84-2.71.43-7.84-7.78-14.4-6.61-2.92 7.45-3.17 18.47-1.98 26.42 1.43 9.62 8.63 18.27 8.01 27.9-24.36 1.04-50.03 4.6-49.64-24.41-3.41-1.08-9.65-.88-12.87.32 2.16 9.8-3.24 22.98-11.89 12.38-4.89-6 6.09-20.03-9.57-16.01 1.76 8.21-2.62 13.61-11.23 13.3-1.12 8.74-.45 18.58-.84 27.65-21.12.88-29.79 2.08-39.61-14.71-3.54-6.05.38-9.83-6.56-15.02-4.07-3.05-12.29 1.42-17.6-2.62-2.32-1.77-4.69-5.44-7.11-9.51 27.41 220.76 215.68 391.63 443.86 391.63 28.99 0 57.34-2.8 84.8-8.07 4.53-2.41 8.46-5.51 11.31-9.79 7.54-11.37 7.03-33.38 6.35-47.8-19.52 1.65-14.94-27.04-32.63-21.98z"/></g><path d="M720.25 543.02c-15.66 1.14-30.03 2.1-26.96-18.39-5.54-1.67-9.45-.32-13 3.05l-9.94 13.26c-1.88.5-4.86 4.39-9.36 3.91-3.93 11.79 8.34 13.26 17.39 12.89.6 2.74.39 5.28-.33 7.79-3.08-.74-7.76 1.22-10.8.5-.13 5.71-.29 11.65-.46 17.38-13.12 1.59-27.49.17-40.9.85-3.27 17.72 10.4 11.89 19.71 14.53-8.83 6.09-7.23 24.35 5.25 26.33 13.15 2.08 9.32-13.61 17.22-22.47-5.13 10.01-10.46 31.15 3.82 32.7 12.86 1.4 13.06-16.89 23.25-24.88 11.96-9.39 16.5-11.52 21.81-27.76 3.65-11.16 6.8-27.44 3.31-39.7z" opacity=".52" stroke-width="0" fill="#fff"/><g opacity=".52"><path class="uuid-df0ad4fa-5df7-4e2a-ac08-f5888e485a13" d="M572.52 678.81c.05-1.18-.09-2.21-.32-3.1-1.65.66-3.07 1.57-4.15 2.83 1.69.43 2.83.15 4.47.27z"/><path class="uuid-df0ad4fa-5df7-4e2a-ac08-f5888e485a13" d="M895.77 488.54c-2.7 4.19-6.78 6.58-9.22 11.78-2.83 6.04-1.9 15.44-3.41 21.89-3.03 12.89-3.54 38.69-22.09 36.79-2.62 10.44 1.56 23.01-2.56 32.94-2.69 6.48-10.82 9.2-13.47 15.28-1.89 4.34-.33 9.99-.72 14.64-.92 10.95-6.26 17.86-17.95 20.49-8.53 1.9-19.45-3-12.23-11.82-9.18 7.83-11.51-1.31-10.88-9.73-7.58 6.16-14.08 3.71-16.38-3.67-3.36-10.79 4.65-18 7.93-26.85-4.86 5.73-9.52 11.41-17.76 8.76-.7-11.5-3.78-21.87-7.57-32.49-4.93-13.9-4.48-8.06-17.77-10.32.19-9.5 1.37-30.1-13.02-26.24-1.17 9.06 1.41 17.25 1.8 26.37.19 4.33-.67 8.98 0 13.26.76 4.82 3.51 8 4.46 12.17 2.42 10.48-2.95 10.97-5.62 19.87-2.88 9.63 1.52 14.68-6.25 23.46-12.8 14.44-13.51 12.59-1.73 27.32 6.28 7.88 9.62 22.1-6.33 19.9-11.76-1.61-9.29-21.12-19.65-7.96-2.9 3.68 2.01 7.43-3.52 11.17-4.14 2.8-13.23-.88-15.75-3.96-10.87 18.25-23.01-10.71-29.77-12.48-8.94-2.33-12.19 6.06-19.03 7.72-13.4 3.28-16.84-7.74-25.25-13.04-7.67-4.87-28.07-3.79-37.22-1.31-6.52 1.78-12.37 4.23-11.07 12.15.82 5.03 6.99 5.61 8.46 11.09 6.33-2.52 16.01-1.24 22.32-1.06 2.02 8.36-8.74 13.47-15.13 15.57-.2 4.57-40.06 12.07-11.4 18.79 3.62 11.57-7.35 7.12-14.22 8.87-8.35 2.1-12.58 6.61-21.82 6.57-9.23 13.75 9.16 18.62 19.59 19.72 4.81.52 12.38-2.15 15.84 1.88 3.45 4.06.53 12.66-3.83 14.9 11.13 6.79 50.92-2.55 34.41 18.54-8.61 10.98-35.77 9.15-18.49 20.98 8.2 5.62 14.15 5.08 14.91 14.08.27 3.29-2.28 15.79-4.03 18.84-2.81 4.89-12.41 6.33-7.87 12.4 2.97 3.96 10.22 1.2 13.5 4.37-4.91 6.84-14.91 5.34-20.17 10.76-5.71 5.87-.53 14.12-3.01 20.79 175.9-50.12 307.55-205.19 322.97-393.17z"/></g><path d="M898.06 451.46c0 247.46-200.59 448.06-448.04 448.06S1.97 698.93 1.97 451.46 202.57 3.43 450.02 3.43s448.04 200.6 448.04 448.03z" style="mix-blend-mode:multiply" fill="url(#uuid-8c4bcecf-f52e-47ee-83fb-258a79f08596)" stroke-width="0"/></g></g></svg>