<svg xmlns="http://www.w3.org/2000/svg" viewBox="0 0 900 900"><defs><radialGradient id="uuid-e2b0a3f5-b08f-4eb9-99a1-080262a5bb21" cx="117.46" cy="133" fx="117.46" fy="133" r="540.09" gradientTransform="scale(-1 1) rotate(-45 225.706 965)" gradientUnits="userSpaceOnUse"><stop offset=".25" stop-color="#fff"/><stop offset=".64" stop-color="#fff" stop-opacity=".72"/><stop offset=".73" stop-color="#fff" stop-opacity=".5"/><stop offset=".82" stop-color="#fff" stop-opacity=".29"/><stop offset=".9" stop-color="#fff" stop-opacity=".13"/><stop offset=".96" stop-color="#fff" stop-opacity=".03"/><stop offset="1" stop-color="#fff" stop-opacity="0"/></radialGradient><radialGradient id="uuid-eaa73d94-0f20-415b-b936-48de8bffdc14" cx="113.05" cy="123.25" fx="113.05" fy="123.25" r="447.55" gradientTransform="scale(-1 1) rotate(-45 225.706 965)" gradientUnits="userSpaceOnUse"><stop offset="0" stop-color="#797a7a"/><stop offset=".81" stop-color="#a6a7a7"/><stop offset=".84" stop-color="#a8a9aa"/><stop offset=".94" stop-color="#d5d6d6"/><stop offset="1" stop-color="#f3f3f3"/></radialGradient><radialGradient id="uuid-715db71c-0ae6-4502-8517-b9fc36034b4e" cx="-28.77" cy="-47.43" fx="-28.77" fy="-47.43" r="525.46" gradientTransform="scale(-1 1) rotate(-45 225.706 965)" gradientUnits="userSpaceOnUse"><stop offset="0" stop-color="#fff"/><stop offset=".39" stop-color="#edecee"/><stop offset=".45" stop-color="#d1d0d2"/><stop offset=".6" stop-color="#8e8d8e"/><stop offset=".73" stop-color="#585859"/><stop offset=".85" stop-color="#323232"/><stop offset=".94" stop-color="#1a1a1a"/><stop offset="1" stop-color="#121212"/></radialGradient><style>.uuid-23708420-1923-41b5-a28e-9cfc4f319f23,.uuid-a7a36a50-3fc4-4559-bc2f-45d9c7515085{fill:#fff;stroke-width:0}.uuid-b0ee4e6d-86b6-4664-a008-90d09b2df69d{opacity:.5}.uuid-9808d3c3-7a66-4737-a0b8-d8319113eb39,.uuid-a7a36a50-3fc4-4559-bc2f-45d9c7515085{opacity:.52}</style></defs><g style="isolation:isolate"><g id="uuid-553115a6-74a6-4dc0-ad91-d25aab7c577c" data-name="Capa 2"><path d="M56.67 76.9c-211.27 211.26-211.26 553.78 0 765.03 211.27 211.27 553.77 211.27 765.03 0 211.27-211.26 211.27-553.77 0-765.04-211.26-211.25-553.77-211.25-765.03 0z" fill="url(#uuid-e2b0a3f5-b08f-4eb9-99a1-080262a5bb21)" opacity=".6" stroke-width="0"/><path d="M132.7 132.99c-174.77 174.77-174.79 458.15 0 632.92 174.77 174.78 458.15 174.77 632.92 0 174.77-174.77 174.77-458.14 0-632.92-174.77-174.77-458.15-174.77-632.91 0z" fill="#a8a9aa" opacity=".52" stroke-width="0"/><path d="M132.7 132.99c-174.77 174.77-174.79 458.15 0 632.92 174.77 174.78 458.15 174.77 632.92 0 174.77-174.77 174.77-458.14 0-632.92-174.77-174.77-458.15-174.77-632.91 0z" fill="url(#uuid-eaa73d94-0f20-415b-b936-48de8bffdc14)" stroke-width="0"/><path class="uuid-a7a36a50-3fc4-4559-bc2f-45d9c7515085" d="M765.62 765.91s-.02 0-.02.02c-8.09 4.55-18.11 5.45-22.52-3.77-4.47-9.34 2.31-8.41 4.56-15.78 4.13-13.51-10.6-6.52-16.82-15.82 3.87-5.47 8.91-8.84 15.69-8.52-2.15-3.12-5.59-5.55-8.35-7.21-11.54-6.98-22.93-11.98-31.67-23.65-15.95-21.24 11.13-2.74 19.01-.9-4.1-8.14-4.41-16.96-.71-24.23 5.48-10.72 7.19-7.64 2.54-19.68-3.25-8.45-6.04-14.98 4.67-20.41 7.43-3.77 15.44.4 23.24-4.56-6.88-7.61-19.84-15.11-20.86-25.42-1.23-12.4 11.74-19.1 22-10.23 6.36-5.04 13.88-13.63 4.77-19.87.02 0 2.15-2.19 2.12-2.12 16.09 14.4 10.93-15.43 15.35-17.04 3.78-1.37 7.69 6.22 10.62 6.6 4.45.59 3.46-2.67 7.28-3.66 8.62-2.25 13.87-4.39 19.63-11.12-.46-1.19-1.23-2.64-1.9-3.71-25.46 9.52-28.13-14.43-36.83-29.26-1.54-2.63 1.21-3.63-1.63-6.27-4.77-4.42-13.28-4.13-18.71-7.79-8.45-5.69-9.46-10.42-5.51-19.33 2.25-5.08 7.27-9.27 7.79-14.1.9-8.27-5.97-9.34-9.34-15.6-6.26-11.59-1.62-19.25 7.79-28.04 10.11 9.43 19.78 19.55 29.51 29.4-3.86-4.82-.58-9.57 4.07-12.91 4.78 4.29 8.98 10.17 14.17 13.92 8.45 6.1 6.25 5.81 11.57-1.22 2.87-3.8 4.21-17.02 11.99-12.85 4.67 2.52 3.82 8.15.81 11.66 5.89 4.73.57 9.86 3.01 15.82 2.6 6.36 10.7 5.67 13.2 8.18 9.87 9.88 10.46 31.32 24.53 12.53-5.38-9.44-11.51-14.56-13.85-24.72-2.13-9.28-3.37-19.33-10.43-27.97-8-9.79-24.39-9.04-29.99-20.61-2.19-4.53-4.05-7.68.82-12.89 6.18-6.57 7.58.05 14.67 6.26 15.91-17.04 18.43 11.61 29.06 2.96 7.57 4.38 2.32 12.74 5.69 19.15 4.94 9.41 18.8 9.75 29.79 13.48 3.92 119.41-39.66 240.1-130.8 331.25z"/><path class="uuid-a7a36a50-3fc4-4559-bc2f-45d9c7515085" d="M896.48 436.2l-27.77-5.69c.38 9.03 15.45 15.53 22.52 19.78 1.32-2.09 4.31-5.01 5.4-6.46v.09c-1.01 1.74-.98 3.34-1.5 5.04.43 0 .98.11 1.56.26 0 2.43-.04 4.86-.08 7.29-.77 1.25-1.53 2.49-2.24 3.76.74.57 1.44 1.25 2.12 2.01-.23 8.64-.74 17.27-1.49 25.89-2.55-1.84-5.16-3.8-7.86-4.83-2.04-.77-3.53-3.15-5.7-3.56-2.37-.46-4.68 4.07-6.49 3.64-12.21-2.87-12.08-14.56-17.63-23.21-3.71-5.77-11.68-10.34-16.1-15.79-5.71-7.02-5.95-10.14-15.18-12.83 1.91-4.21 5.17-8.38 8.31-11.33-7.1-5.21-10.07-8.46-15.01-15.19-1.64-2.22-6.22-6.15-6.8-8.28-1.61-5.89 4.14-10.65.33-15.91 4.76-9.02-2.37-11.82-4.27-19.75-1.57-6.6 4.27-11.87 1.95-16.78-12.7 12.84-17.58 18.51-36.25 7.71-13.07-7.56-11.71-10.2-6.17-21.17-4.38-10.38 9.03-13.9 0-25.24 2.28-1.37 5.42-4.94 7.65-6.17-11.2-9.06-13.03-26.48-26.31-34.91 2.69-6.06 7.91-14.91 12.5-20.51 12.96 7.62 18.18 10.06 33.12 6.78-2.36-3.73-4.82-7.66-8.34-10.4-4.6 12.75-22.01-.93-29.3-4.39-13.83-6.58-12.94-5.97-21.26 3.85-6.12-3.11-18.97-16.05-25.95-15.86-6.88.19-7.02 7.68-14.4 8.24-13.9 1.05-12.25-12.15-22.62.1-6.62 7.83-5.15 18.91-10.51 25.62-12.36-9.46-18.8 16.11-22.7 23.67-5.1 9.84-14.98 21.79-23.74 26.8-6.45 3.69-16.05 4.84-22.58 4.78-4.18-.04-7.21-1.66-10.5-1.09-1.12.19-4.52 4.55-6.91 5.23-2.01.57-6.49-1.73-9.41-1.45-3.55.33-5.52 3.04-9.23 3.4-18.8 1.84-46.2-12.65-61.46-22.64 10.46 4.12 30.79 2.38 43.05 3.74 10.33 1.16 14.21.5 18.18-13.29 6.76-23.45-21.62-33.78-19.27-54.17 3.26-28.42 48.36-7.3 50.01-32.21.52-7.88-6.66-8.93-10.02-12.98-6.55-7.91-9.56-19.72-1-28.24.57.28 1.16.54 1.77.8 1.56-12.54-27.13-18.31-27.75-34.74 16.54 9.56 18.45 4.56 26.29-9.3 5.03 1.2 9.26 4.23 13.37 7.31-6.7-8.88-2.31-14.68 7.67-14.61 10.27.08 19.58 10.31 28.81 13.4 4.81-8.23-8.38-12.52-1.49-19.78 21.4 7.06 47.37 27.06 64.7 42.01 1.46-.37 5.99-2.5 7.22-3.39-1.9-20.52 14.02-41.43 35.01-38.13a457.289 457.289 0 0132.91 29.81c84.01 84.02 127.63 193.14 130.87 303.22z"/><g class="uuid-b0ee4e6d-86b6-4664-a008-90d09b2df69d"><path class="uuid-23708420-1923-41b5-a28e-9cfc4f319f23" d="M374.55 180.02c3.36.99 12.04-3.1 16.6-4.59 7.89-2.57 27.61-5.59 23.36-.33-9.14 11.29-32.34 7.37-46.37 12.89-9.28 3.65-18.79 14.48-23.83 19.94-7.25 7.85-16.19 13.95-25 19.88-12.95 8.7-31.28 21.87-34.35 37.72-.65 3.35-1.74 12.38 3.29 10.88 5.26-1.58 12.2-10.17 17.85-13.88 4.18-2.76 7.89-5.1 10.55-4.02 1.6.64-.34 4.07.72 4.82 1.23.88 2.93.11 5.19.06 3.52-.08 5.82-1.55 5.9 1.39.12 3.78-11.82 14.92-6.38 14.07 9.32-1.44 17.91-11.99 26.75-16.57 3.07-1.58 10.37-3.34 12.41-2.49 2.73 1.15-1.08 3.63.4 6.07 2.23 3.67 13.74 1.44 18.72 2.8 8.78 2.39 6.84 7.86 10.08 13.54 1.05 1.86 3.17 2.66 2.22 4.98-1.01 2.46-4.35 3.29-5.25 5.7-.96 2.59 1.26 3.73-.55 7.05-1.26 2.32-4.13 6.9-6.24 9.04-3.11 3.13-3.15 2.67-7.04 3.37-5.7 1.01-7.04 1.22-13.21 4.95-10.52 6.36-13.5 4.01-22.24 5.18-2.96.4-11.1 1.36-12.71 4.42 4.85-1.06 9.86.88 3.36 7.8-1.7 1.81-5.19 2.19-7.23 3.89-2.54 2.09-4.4 4.72-5.43 7.37 3.86 1.41 8.13-1.5 5.83 5.09-.87 2.47-3.94 7.16-5.76 9.84-2.92 4.31-3.97 4.53-5.59 9.54-1.77 5.45-3.53 10.95-5.37 16.24 1.67-.55 3.4-1.08 5.06-1.57-.51 13.36-15.64 20.25-21.56 30.26-3.47 5.87-2.35 16.09.08 18.05 1.77 1.43 3.16.25 4.07 3.01.84 2.56-.62 7.31.29 10.04 1.9 5.69 7.73 4.56 10.57-1.76 3.97-8.88 3.86-14.24 3.62-22.07-.06-2.19-.67-8.57 1.36-10.99 1.52-1.84 4.6-.89 6.12-1.89 3.92-2.59 5.06-9.73 10.15-11.13 1.22 5.91 3.46 4.91 6.64 3.81.81 1.98 1.78 3.87 3.22 5.14-3.04.82-6.57 2.7-9.73 4.08-1.34 9.97 6.75 4.14 5.72 12.64-.98.28-2.13 1.57-3.21 1.74-1.06 7.48 2.6 5.38 5.71 8.39 1.67 1.6 1.01 2.48 1.61 5.05.78 3.41.24 2.68 3.12 4.8 4.85 3.56 5.15 11.48 9.02 15.82 3.83 4.3 10.59 11.3 7.78 18.03-.1.25-2 1.32-2.37 1.91-.69 1.11.13 2.74-.62 3.77-2.61 3.55-2.81.37-4.09-2.01-.98-1.82-2.29-5.18-3.56-6.75-1.63-1.99-4.57-1.72-6.58-2.84-2.84-1.59-7.5-5.06-8.42 1.29-.36 2.46 2.04 4.11.92 6.78-.92 2.25-3.97 3.39-5.63 3.42-1.31 4.06-.46 6.07-4.59 7.71-2.29.91-4.39-.23-6.4 2.39 1.3 5.79 3.21 10.31 7.5 12.39-3.91 6.35 16.53 18.61 17.05 23.23.58 5.34-6.45 5.35-9.12 8.18-.6.64-2.12.84-2.39 1.55-.76 1.98 1.66 5.07.88 6.52-1.15 2.12-2.61.57-4.36 1.42-3.66 1.79-4.21 7.07-7.35 9.09-4.07 2.63-11.51-8.66-9.55 5.16 1.01 7.07.95 13.19-.32 20.22-1.32 7.29-4.66 4.88-7.79 9.23-1.64 2.24-1.84 6.84-2.79 9.79-1.12 3.48-3.04 6.34-4.11 9.86-1.43-.38-8.62-6.96-8.83-10.18-.08-1.27 1.66-3.83 2.12-4.77-3.78-8.07-3.8-1.37-7.42-.77-3.71.62-5.76-4.79-8.38-8.05-1.39 2.4-2.46 6.21-4.05 8.25-2.25 2.88-4.32 3.68-5.79 8.54-1.66 5.53-.74 11.38-.53 18.01.2 6.96.53 6.63 3.05 13.16 2.56 6.62-.07 5.06.62 10.76.78 6.42 8.67 13.68 10.79 21.41.67 2.43-.05 4.07.67 6.18 1.66 4.78 7.49 10.22 8.53 15.24 1.29 6.2-3.55 3.68-3.63 8.38 3.97 3.97 19.83 15.78 15.1 21.11-1.91 2.17-10.22-1.87-13.86-5.35-4.14-3.96-5.46-8.23-5.22-12.82-8.19-8.06-2.88 8.42-7.62 9-4.06.5-17.29-11.92-22.14-17.18-7.85-8.5-4.54-15.26-12.58-22.82-3.08-2.9-8.41-9.2-11.27-10.49-3.93-1.76-9.27 1.61-10.65 5.95-1.12 3.53.11 12.99-1.67 15.26-1.39 1.81-7.65-2.06-9.73-6.59-2.56-5.58.61-5.63-.16-10.59-1.31-8.35-8.71-14.69-10.75-22.43-2.92-11.06 3.84-21 3.49-31.74-.21-6.79-5.11-13-4.32-20.56.57-5.52 4.95-11.23 7.64-11.39-4.94-9.53-11.27-18.11-15.2-28.16 2.51-5.4 8.01-5.96 11.43-7.4 3.88-1.64 6.66-.8 10.6.28 1.87.5 4.37 2.3 5.66-.85-1.95-5.44-7.75-17.69-6.07-25.18.62-2.73 2.01-3.76 3.26-5.53 1.04-1.48 5.61-4.23 5.72-4.45 2.16-4.11-1-6.55-.11-12.06 1.29-8.05 5.26-10.48 1.6-17.36-4.29 4.21-8.34 7.86-12.61 11.03-5.78 4.27-8.29-3.17-9.38-12.97.32-.55.7-.91 1.04-1.39-1.44-3.47-11.52 10.86-14.72 12.46-7.17 3.58-9.96-2.37-12.41-12.34-5.97 6.75-17.05 11.48-20.97 6.45-6.86-8.83-5.6-25.25-3.64-36.78.36-2.18 2.3-4.11 2.26-6.39-.07-3.23-2.74-2.91-3.61-4.64-2.05-4.13-2.69-12.85-3.32-18.97-.67-6.42-2.02-11.37-2.59-17.85-.24-2.81-1.23-11.13.36-15.25 2.01-5.18 4.77-6.25 8.07-9.28 9.02-8.28 8.69-19.84 9.7-31.09 3.3-2.69 8.43-5.01 11.68-8.52 3.72-4.02.64-.73 3.87-6.19 5.83-9.85 10.86-13.98 16.5-24.14 7.1-12.79 16.69-23.28 17.94-14.14 1.39 10.33 2.63 5.4 13.85-6.52 3.24-3.45 6.69-5.98 9.48-8.91 5.15-5.37 9.01-11.74 15.25-15.63 7.12-4.44 11.2-2.54 15.91-3.32 7.51-1.24 11.73-5.08 20.05-9.22 5.59-2.78 4.96-.22 6.85.09 2.12.36 2.99.32 7.45-.69 11.73-18.25 31.13-31.4 48.22-43.53 12.86-9.13 27.17-26.54 44.73-25.72-3.22 2.74-10.5 7.12-6.9 8.19z"/></g><g class="uuid-b0ee4e6d-86b6-4664-a008-90d09b2df69d"><path class="uuid-23708420-1923-41b5-a28e-9cfc4f319f23" d="M374.55 180.02c3.36.99 12.04-3.1 16.6-4.59 7.89-2.57 27.61-5.59 23.36-.33-9.14 11.29-32.34 7.37-46.37 12.89-9.28 3.65-18.79 14.48-23.83 19.94-7.25 7.85-16.19 13.95-25 19.88-12.95 8.7-31.28 21.87-34.35 37.72-.65 3.35-1.74 12.38 3.29 10.88 5.26-1.58 12.2-10.17 17.85-13.88 4.18-2.76 7.89-5.1 10.55-4.02 1.6.64-.34 4.07.72 4.82 1.23.88 2.93.11 5.19.06 3.52-.08 5.82-1.55 5.9 1.39.12 3.78-11.82 14.92-6.38 14.07 9.32-1.44 17.91-11.99 26.75-16.57 3.07-1.58 10.37-3.34 12.41-2.49 2.73 1.15-1.08 3.63.4 6.07 2.23 3.67 13.74 1.44 18.72 2.8 8.78 2.39 6.84 7.86 10.08 13.54 1.05 1.86 3.17 2.66 2.22 4.98-1.01 2.46-4.35 3.29-5.25 5.7-.96 2.59 1.26 3.73-.55 7.05-1.26 2.32-4.13 6.9-6.24 9.04-3.11 3.13-3.15 2.67-7.04 3.37-5.7 1.01-7.04 1.22-13.21 4.95-10.52 6.36-13.5 4.01-22.24 5.18-2.96.4-11.1 1.36-12.71 4.42 4.85-1.06 9.86.88 3.36 7.8-1.7 1.81-5.19 2.19-7.23 3.89-2.54 2.09-4.4 4.72-5.43 7.37 3.86 1.41 8.13-1.5 5.83 5.09-.87 2.47-3.94 7.16-5.76 9.84-2.92 4.31-3.97 4.53-5.59 9.54-1.77 5.45-3.53 10.95-5.37 16.24 1.67-.55 3.4-1.08 5.06-1.57-.51 13.36-15.64 20.25-21.56 30.26-3.47 5.87-2.35 16.09.08 18.05 1.77 1.43 3.16.25 4.07 3.01.84 2.56-.62 7.31.29 10.04 1.9 5.69 7.73 4.56 10.57-1.76 3.97-8.88 3.86-14.24 3.62-22.07-.06-2.19-.67-8.57 1.36-10.99 1.52-1.84 4.6-.89 6.12-1.89 3.92-2.59 5.06-9.73 10.15-11.13 1.22 5.91 3.46 4.91 6.64 3.81.81 1.98 1.78 3.87 3.22 5.14-3.04.82-6.57 2.7-9.73 4.08-1.34 9.97 6.75 4.14 5.72 12.64-.98.28-2.13 1.57-3.21 1.74-1.06 7.48 2.6 5.38 5.71 8.39 1.67 1.6 1.01 2.48 1.61 5.05.78 3.41.24 2.68 3.12 4.8 4.85 3.56 5.15 11.48 9.02 15.82 3.83 4.3 10.59 11.3 7.78 18.03-.1.25-2 1.32-2.37 1.91-.69 1.11.13 2.74-.62 3.77-2.61 3.55-2.81.37-4.09-2.01-.98-1.82-2.29-5.18-3.56-6.75-1.63-1.99-4.57-1.72-6.58-2.84-2.84-1.59-7.5-5.06-8.42 1.29-.36 2.46 2.04 4.11.92 6.78-.92 2.25-3.97 3.39-5.63 3.42-1.31 4.06-.46 6.07-4.59 7.71-2.29.91-4.39-.23-6.4 2.39 1.3 5.79 3.21 10.31 7.5 12.39-3.91 6.35 16.53 18.61 17.05 23.23.58 5.34-6.45 5.35-9.12 8.18-.6.64-2.12.84-2.39 1.55-.76 1.98 1.66 5.07.88 6.52-1.15 2.12-2.61.57-4.36 1.42-3.66 1.79-4.21 7.07-7.35 9.09-4.07 2.63-11.51-8.66-9.55 5.16 1.01 7.07.95 13.19-.32 20.22-1.32 7.29-4.66 4.88-7.79 9.23-1.64 2.24-1.84 6.84-2.79 9.79-1.12 3.48-3.04 6.34-4.11 9.86-1.43-.38-8.62-6.96-8.83-10.18-.08-1.27 1.66-3.83 2.12-4.77-3.78-8.07-3.8-1.37-7.42-.77-3.71.62-5.76-4.79-8.38-8.05-1.39 2.4-2.46 6.21-4.05 8.25-2.25 2.88-4.32 3.68-5.79 8.54-1.66 5.53-.74 11.38-.53 18.01.2 6.96.53 6.63 3.05 13.16 2.56 6.62-.07 5.06.62 10.76.78 6.42 8.67 13.68 10.79 21.41.67 2.43-.05 4.07.67 6.18 1.66 4.78 7.49 10.22 8.53 15.24 1.29 6.2-3.55 3.68-3.63 8.38 3.97 3.97 19.83 15.78 15.1 21.11-1.91 2.17-10.22-1.87-13.86-5.35-4.14-3.96-5.46-8.23-5.22-12.82-8.19-8.06-2.88 8.42-7.62 9-4.06.5-17.29-11.92-22.14-17.18-7.85-8.5-4.54-15.26-12.58-22.82-3.08-2.9-8.41-9.2-11.27-10.49-3.93-1.76-9.27 1.61-10.65 5.95-1.12 3.53.11 12.99-1.67 15.26-1.39 1.81-7.65-2.06-9.73-6.59-2.56-5.58.61-5.63-.16-10.59-1.31-8.35-8.71-14.69-10.75-22.43-2.92-11.06 3.84-21 3.49-31.74-.21-6.79-5.11-13-4.32-20.56.57-5.52 4.95-11.23 7.64-11.39-4.94-9.53-11.27-18.11-15.2-28.16 2.51-5.4 8.01-5.96 11.43-7.4 3.88-1.64 6.66-.8 10.6.28 1.87.5 4.37 2.3 5.66-.85-1.95-5.44-7.75-17.69-6.07-25.18.62-2.73 2.01-3.76 3.26-5.53 1.04-1.48 5.61-4.23 5.72-4.45 2.16-4.11-1-6.55-.11-12.06 1.29-8.05 5.26-10.48 1.6-17.36-4.29 4.21-8.34 7.86-12.61 11.03-5.78 4.27-8.29-3.17-9.38-12.97.32-.55.7-.91 1.04-1.39-1.44-3.47-11.52 10.86-14.72 12.46-7.17 3.58-9.96-2.37-12.41-12.34-5.97 6.75-17.05 11.48-20.97 6.45-6.86-8.83-5.6-25.25-3.64-36.78.36-2.18 2.3-4.11 2.26-6.39-.07-3.23-2.74-2.91-3.61-4.64-2.05-4.13-2.69-12.85-3.32-18.97-.67-6.42-2.02-11.37-2.59-17.85-.24-2.81-1.23-11.13.36-15.25 2.01-5.18 4.77-6.25 8.07-9.28 9.02-8.28 8.69-19.84 9.7-31.09 3.3-2.69 8.43-5.01 11.68-8.52 3.72-4.02.64-.73 3.87-6.19 5.83-9.85 10.86-13.98 16.5-24.14 7.1-12.79 16.69-23.28 17.94-14.14 1.39 10.33 2.63 5.4 13.85-6.52 3.24-3.45 6.69-5.98 9.48-8.91 5.15-5.37 9.01-11.74 15.25-15.63 7.12-4.44 11.2-2.54 15.91-3.32 7.51-1.24 11.73-5.08 20.05-9.22 5.59-2.78 4.96-.22 6.85.09 2.12.36 2.99.32 7.45-.69 11.73-18.25 31.13-31.4 48.22-43.53 12.86-9.13 27.17-26.54 44.73-25.72-3.22 2.74-10.5 7.12-6.9 8.19z"/></g><g class="uuid-b0ee4e6d-86b6-4664-a008-90d09b2df69d"><path class="uuid-23708420-1923-41b5-a28e-9cfc4f319f23" d="M561.45 571.98c-2.08.54-5.38 5.49-7.32 7.73-3.35 3.87-12.84 11.79-12.26 7.64 1.23-8.89 14.75-14.24 20.42-21.65 3.74-4.9 5.32-13.67 6.24-18.17 1.32-6.47 4.11-12.56 6.87-18.52 4.08-8.74 9.55-21.57 6.12-30.94-.72-1.98-3.03-7.11-5.21-4.7-2.29 2.52-3.21 9.27-5.02 13.06-1.33 2.8-2.53 5.21-4.3 5.5-1.05.16-1.11-2.26-1.91-2.32-.94-.07-1.59.88-2.77 1.63-1.84 1.16-2.6 2.68-3.57 1.15-1.26-1.97 1.49-11.68-1.12-9.49-4.46 3.74-5.63 12.06-8.86 17.32-1.13 1.82-4.43 5.08-5.78 5.28-1.81.26-.58-2.27-2.15-3.09-2.35-1.23-7.72 3.63-10.79 4.5-5.42 1.53-6.14-1.98-9.67-3.94-1.15-.64-2.53-.4-2.76-1.93-.26-1.63 1.25-3.14.95-4.69-.33-1.68-1.86-1.58-1.97-3.91-.06-1.63-.02-4.97.42-6.78.64-2.66.82-2.42 2.66-4.04 2.68-2.36 3.33-2.89 5.4-6.84 3.54-6.72 5.87-6.44 10.11-9.86 1.45-1.15 5.45-4.26 5.32-6.39-2.22 2.1-5.49 2.68-4.27-3.06.32-1.5 2.05-2.82 2.59-4.37.67-1.91.81-3.9.52-5.63-2.5.48-3.83 3.39-4.72-.84-.33-1.58-.2-5.04-.1-7.04.17-3.22.66-3.66-.08-6.84-.81-3.46-1.64-6.92-2.36-10.31-.71.82-1.46 1.66-2.18 2.45-4-7.24 1.81-15.73 1.74-22.91-.04-4.21-3.89-9.27-5.8-9.53-1.39-.19-1.74.88-3.12-.29-1.26-1.08-2-4.06-3.36-5.22-2.83-2.41-5.56.06-5.03 4.31.73 5.97 2.5 8.78 5.14 12.84.74 1.14 3.09 4.32 2.79 6.25-.22 1.46-2.15 1.94-2.63 2.96-1.26 2.62.43 6.77-1.83 9.14-2.53-2.74-3.39-1.5-4.73.1-1.06-.79-2.19-1.49-3.34-1.69 1.33-1.41 2.6-3.53 3.84-5.28-2.47-5.7-4.89-.03-7.07-4.86.43-.47.63-1.52 1.15-1.95-1.83-4.3-3.09-2.02-5.71-2.61-1.39-.32-1.32-.99-2.45-2.16-1.52-1.56-.99-1.36-3.19-1.55-3.72-.33-6.41-4.42-9.83-5.49-3.4-1.05-9.21-2.59-9.88-7.06-.03-.15.64-1.33.64-1.76 0-.81-.94-1.41-.88-2.19.26-2.71 1.37-1.09 2.8-.25 1.1.65 2.87 2.01 4.04 2.43 1.5.54 2.97-.54 4.39-.6 2.01-.06 5.59.28 4.05-3.38-.6-1.42-2.4-1.53-2.66-3.29-.22-1.48 1.01-3.07 1.89-3.61-.61-2.56-1.71-3.36-.05-5.55.93-1.21 2.4-1.28 2.63-3.31-2.54-2.65-4.99-4.44-7.93-4.17.04-4.61-14.7-4.56-16.43-6.84-2.02-2.64 1.7-4.89 2.21-7.25.12-.53.84-1.12.77-1.58-.23-1.29-2.5-2.15-2.54-3.18-.07-1.48 1.19-1.13 1.84-2.14 1.37-2.12-.02-5.09.99-7.16 1.32-2.69 8.86.9 3.39-5.79-2.78-3.42-4.71-6.68-6.28-10.81-1.64-4.28.9-4.07 1.18-7.38.15-1.7-1.22-4.21-1.66-6.07-.52-2.2-.42-4.32-.98-6.53.88-.26 6.79.93 7.93 2.57.46.64.36 2.56.41 3.21 4.59 3.06 2.45-.49 4.17-1.97 1.77-1.53 4.59.69 7.02 1.57-.03-1.71-.68-4.07-.5-5.66.26-2.25 1.11-3.33.33-6.38-.88-3.45-3.24-6.26-5.46-9.7-2.34-3.61-2.4-3.34-5.82-5.99-3.47-2.68-1.59-2.7-3.77-5.5-2.45-3.15-8.96-4.47-12.56-7.89-1.12-1.06-1.26-2.17-2.32-3.05-2.41-2.01-7.24-3.02-9.38-5.35-2.67-2.87.7-3.08-.77-5.59-3.38-.83-15.53-2.02-14.74-6.35.32-1.77 6.02-2.27 9.04-1.6 3.46.77 5.53 2.6 6.87 5.11 6.9 1.65-1.16-5.38 1.16-7.2 1.98-1.57 12.96.78 17.19 2.01 6.88 2 7.29 6.64 13.96 8.07 2.56.54 7.39 2.18 9.31 1.94 2.64-.32 4.39-3.8 3.74-6.55-.54-2.23-4.21-6.84-4.01-8.62.17-1.4 4.72-1.36 7.26.37 3.15 2.14 1.48 3.18 3.47 5.56 3.37 4.01 9.31 5 12.86 8.45 5.08 4.92 4.68 12.34 8.3 17.91 2.29 3.53 6.86 5.25 8.86 9.5 1.46 3.11.98 7.53-.4 8.48 5.66 3.46 11.75 5.98 17.04 10.05.4 3.66-2.32 5.72-3.67 7.56-1.53 2.11-3.29 2.55-5.7 3.24-1.15.33-3.05.19-2.73 2.26 2.77 2.25 9.75 6.89 11.26 11.4.54 1.63.13 2.62.05 3.97-.09 1.11-1.61 4.02-1.61 4.18.17 2.87 2.62 3.15 3.92 6.35 1.89 4.67.57 7.23 4.69 9.71.93-3.6 1.91-6.83 3.16-9.88 1.7-4.1 5.39-.97 9.1 3.87 0 .4-.08.71-.11 1.06 1.88 1.39 2.63-9.43 3.82-11.29 2.64-4.2 6.02-1.93 10.51 2.55 1.01-5.47 5.35-11.52 9.03-10.11 6.46 2.48 11.03 11.58 13.68 18.3.5 1.29.1 2.91.84 4.11 1.07 1.69 2.38.66 3.39 1.29 2.4 1.53 5.54 5.94 7.83 8.99 2.39 3.18 4.71 5.37 7.07 8.62 1.04 1.42 4.22 5.51 4.68 8.19.59 3.39-.51 4.83-1.29 7.49-2.14 7.27 1.74 13.28 4.79 19.55-.88 2.48-2.86 5.35-3.45 8.25-.7 3.32-.11.58-.08 4.51.06 7.07-1.28 10.86-1.02 18.05.33 9.04-1.39 17.66-4.97 13.22-4.05-5.02-3.13-2.01-5.25 7.88-.62 2.86-1.62 5.3-2.18 7.75-1.01 4.49-1.01 9.09-3.08 13.15-2.35 4.63-5.11 4.92-7.34 6.83-3.6 3.06-4.59 6.45-7.67 11.29-2.08 3.26-2.57 1.71-3.67 2.15-1.24.49-1.69.79-3.72 2.75-.38 13.4-6.45 26.58-11.62 38.45-3.9 8.94-5.9 22.72-15.47 27.91.83-2.48 3.29-7.13 1.05-6.54z"/></g><g class="uuid-9808d3c3-7a66-4737-a0b8-d8319113eb39"><path class="uuid-23708420-1923-41b5-a28e-9cfc4f319f23" d="M183.02 621.73c1.96-1.94-.14-5.55-.67-7.52-.91-3.41-1.94-11.99 4.3-11.6 9.68.59 1.29 16.39 2.88 20.93 1.49 4.24 9 7.58 12.68 9.67 5.52 3.14 6.92 5.63 9.72 11.92 3.47 7.8 9.19 17.57 18.49 18.67 2.91.35 10.34 1.27 11.88-1.82 1.6-3.24-2.55-7.52-3.15-10.86-.43-2.49-.86-4.63 1.5-6.28 1.4-.98 3.75.08 5-.59 1.47-.77 1.56-1.78 2.6-3.18 1.63-2.15 1.25-3.53 4.16-3.68 3.74-.21 7.68 7.59 10.54 3.7 3.18-4.31-3.62-11.96-4.02-16.19-.19-1.92.72-6.18 2.36-7.52 2.19-1.8 3.29.37 6.34-.74 4.59-1.68 6.46-8.79 9.51-12.1 5.36-5.83 10.37-5.18 17.29-7.85 2.27-.88 3.76-2.36 5.9-1.92 2.25.46 2.06 2.65 4.26 3.1 2.37.48 4.3-1.12 7.14-.02 1.97.74 5.68 2.6 7.08 4.04 2.06 2.13 1.57 2.19.72 4.94-1.25 4.02-1.59 4.93-.67 9.4 1.57 7.62-2.36 9.69-5.85 15.8-1.19 2.07-4.75 7.7-2.82 9.1 1.79-3.42 6.49-6.78 9.17-1.46.7 1.39-.99 3.85-.67 5.49.37 2.02 1.6 3.67 3.31 4.81 3.68-2.4 3.71-5.91 8.2-3.18 1.67 1.02 3.87 4.04 5.03 5.85 1.84 2.91 1.32 3.66 4.44 5.97 3.4 2.5 6.72 5.15 9.66 7.93.78-1.29 1.6-2.64 2.39-3.93 10.96 3.39 4.04 17.55 6.67 24.45 1.74 4.52 9.23 7.9 12.65 7.21 2.49-.5 2.89-1.91 5.56-1.26 2.47.6 4.32 3.71 6.91 4.45 5.38 1.53 9.92-2.67 8.1-7.56-2.57-6.89-6.65-9.24-12.65-12.28-1.69-.87-6.96-2.95-7.24-5.25-.22-1.72 2.9-3.5 3.27-4.92.97-3.7-3.98-6.97-1.5-11.09 5.79 1.08 6.59-.83 7.91-3.54 2.24.08 4.53.04 6.62-.56-1.47 2.55-2.5 5.83-3.73 8.62 7.06 4.76 8.47-3.43 14.45.99-.52.84-.4 2.24-1.1 3.09 5.04 4.04 6.23.55 11.01-.28 2.57-.44 2.74.46 5.18 1.32 3.25 1.15 2.25 1.19 6.18.21 6.62-1.64 12.9 2.63 19.33 2.5 6.38-.12 17.42-.36 19.78 6.56.08.24-.83 2.38-.74 3.07.17 1.29 2.03 1.94 2.05 3.22.08 4.45-2.26 2.15-5.01 1.29-2.09-.67-5.57-2.14-7.76-2.34-2.81-.26-5.21 1.93-7.75 2.54-3.57.88-9.96 1.74-6.64 6.42 1.29 1.81 4.54 1.36 5.2 3.86.57 2.1-1.57 4.78-3.09 5.81 1.23 3.53 3.18 4.45.15 7.97-1.69 1.97-4.32 2.4-4.87 5.31 4.38 3.18 8.52 5.41 13.81 4.64-.69 6.81 25.65 6.33 28.15 10.14 2.9 4.42-4.49 7.6-6.28 11.17-.4.8-1.92 1.6-1.96 2.33-.11 2 3.51 3.68 3.14 5.25-.55 2.27-2.6 1.5-4.21 2.89-3.37 2.93-2.52 7.57-5.4 10.34-3.75 3.6-14.23-2.99-9.17 7.46 2.59 5.34 3.52 10.42 2.86 16.49-.68 6.29-4.63 5.16-7.85 9.35-1.65 2.16-1.74 5.82-2.75 8.34-1.2 2.95-3.36 5.56-4.68 8.48-1.55-.02-9.28-3.52-9.55-5.86-.1-.94 1.77-3.25 2.23-4.08-4.41-5.16-4.21-.09-8.16 1.25-4.06 1.39-6.52-1.99-9.62-3.56-1.35 2.08-2.32 5.04-4.01 6.89-2.36 2.61-4.58 3.68-6.2 7.4-1.84 4.21-1.05 7.99-1.34 12.49-.32 4.73.05 4.42 1.91 8.48 1.88 4.12-.75 3.5-1.02 7.32-.32 4.27 6.55 8.29 6.68 13.42.04 1.61-1.19 2.81-1.05 4.21.32 3.15 4.56 6.51 3.81 9.89-.92 4.19-4.95 2.69-6.85 5.85 2.5 2.49 13.08 10.37 5.93 13.84-2.92 1.4-9.13-1.25-11.2-3.44-2.37-2.49-1.96-5.21.08-8.27-5.14-4.95-6.31 5.64-11.33 6.26-4.28.53-12.96-6.44-16.25-9.24-5.33-4.53 0-9.24-6.68-12.74-2.56-1.34-6.9-4.32-9.69-4.58-3.84-.35-10.17 2.74-12.55 5.58-1.93 2.32-2.87 7.71-5.32 9.37-1.91 1.29-7.51.11-8.67-2.12-1.45-2.74 1.92-3.39 2.05-6.11.24-4.58-6.59-6.58-8-10.46-2.35-6.51 6.49-12.53 5.91-18.8-.36-3.8-5.54-5.68-5.09-10.04.33-3.17 4.54-7.71 7.44-8.72-6.18-4.06-14.16-5.16-20.21-9.24 1.72-3.65 7.44-6.07 10.77-8.14 3.8-2.36 6.96-3.05 11.37-4.03 2.12-.46 5.18-.5 5.86-2.7-3.26-2.12-12.48-5.95-12.95-10.34-.16-1.6.96-2.72 1.7-4.14.61-1.19 4.43-4.57 4.47-4.73.87-2.98-3.24-2.73-4.41-5.71-1.69-4.37 1.26-7.45-5.34-8.66-2.5 3.97-5.14 7.54-8.29 10.96-4.25 4.62-9.52 2.45-14.6-1.05.09-.39.32-.71.47-1.08-2.88-.72-7.43 9.96-10.12 12.1-6.03 4.8-10.94 3.55-17.24.91-3.48 5.38-12.35 11.85-19.04 12.13-6.79.29-14.63-5.72-18.05-10.94-.56-.88.5-2.42-.57-3.11-1.51-.98-4.01.45-5.64.35-3.9-.23-8.6-2.42-12.22-3.78-3.79-1.41-7.6-2-11.54-3.3-1.71-.57-7.09-2.01-7.88-3.74-.99-2.19.94-3.81 2.16-6.18 3.99-7.74-4.83-8.22-10.38-11 1.12-2.2 4.01-5.33 4.4-7.63.46-2.63.1-.47-.95-3.02-1.89-4.59-.76-7.87-3.87-12.08-3.91-5.28-5.14-11.34 2.94-11.28 9.13.07 6.55-1.12 4.93-8.24-.46-2.06-.14-4.15-.64-5.89-.91-3.18-3.76-5.56-3.1-9.16.74-4.11 4.88-6.38 7.07-9.08 3.5-4.3 2.56-6.72 3.42-11.39.57-3.13 2.56-2.84 3.89-3.94 1.5-1.23 1.95-1.74 3.38-4.28-8.97-4.59-15.06-15.4-20.77-23.28-3.6-4.99-17.85-11.34-12.6-18.92 2.08 1.03 4.7 3.9 6.8 1.82z"/></g><g class="uuid-9808d3c3-7a66-4737-a0b8-d8319113eb39"><path class="uuid-23708420-1923-41b5-a28e-9cfc4f319f23" d="M672.1 336.93c.74.11 1.18-.95 1.52-1.39.6-.76 2.28-2.42 3.25-.99 1.48 2.2-3.35 3.01-4.07 4.11-.67 1.02-.16 3.22 0 4.36.24 1.72-.07 2.43-.98 4.09-1.12 2.05-2.29 4.93-.98 7.12.41.7 1.45 2.46 2.37 2.29.97-.19 1.21-1.81 1.84-2.49.47-.5.86-.95 1.61-.72.45.15.6.83.96 1 .42.19.64.04 1.12.03.74 0 .97-.31 1.49.29.67.78-.37 2.93.94 2.91 1.46-.03 2.01-2.77 2.85-3.57.39-.36 1.47-.86 2.04-.73.75.18.46.78 1.22 1.25 1.12.72 2.98-.05 4.2.05 2.16.2 2.85 1.4 4.59 2.46.57.35 1.13.43 1.39.95.28.58-.22.9.03 1.46.29.59.96.74 1.2 1.54.15.55.38 1.67.29 2.21-.12.81-.21.71-.95.98-1.09.4-1.35.48-2.16 1.43-1.41 1.6-2.49 1.09-4.41 1.35-.64.09-2.46.25-2.45.91 1.05-.18 2.55.28 1.84 1.75-.18.38-1 .43-1.3.76-.37.43-.53.96-.5 1.53 1.13.39 1.91-.18 2.05 1.25.05.53-.23 1.51-.43 2.07-.33.88-.57.9-.55 1.96.02 1.15 0 2.32-.12 3.42.41-.05.84-.09 1.25-.13 1.08 2.94-3.14 3.79-4.21 5.52-.7 1.12-.19 3.32.53 3.94.52.46.9.31 1.19 1 .28.64-.08 1.56.19 2.24.56 1.43 2.23 1.72 2.99.5 1.07-1.7.9-2.98.57-4.79-.1-.51-.52-2-.06-2.45.33-.33 1.24.05 1.61-.11.96-.4.85-2.02 2.15-2.17.73 1.44 1.29 1.29 2.09 1.14.35.49.74.98 1.21 1.34-.79.11-1.67.43-2.49.63.14 2.32 2.16 1.26 2.2 3.3-.29.02-.56.29-.86.28-.04 1.76.91 1.44 1.89 2.35.52.48.35.67.57 1.34.29.89.12.68.98 1.38 1.46 1.17 1.57 3.24 2.67 4.62 1.08 1.36 2.98 3.73 1.86 5.39-.04.05-.65.21-.79.34-.26.26-.09.77-.36.98-.95.76-.84-.13-1.11-.88-.21-.57-.46-1.57-.78-2.08-.41-.65-1.29-.81-1.84-1.26-.78-.64-2.04-1.88-2.5-.37-.19.57.46 1.21.02 1.77-.36.46-1.3.46-1.78.29-.55.85-.43 1.43-1.7 1.36-.71-.04-1.26-.54-1.97-.18.04 1.48.25 2.75 1.29 3.78-1.6.98 2.89 6.62 2.47 7.8-.47 1.36-2.39.29-3.46.49-.24.05-.67-.15-.84-.03-.45.3-.21 1.38-.61 1.56-.58.26-.76-.32-1.32-.43-1.2-.25-2.07.71-3.15.54-1.4-.22-1.72-3.6-3.15-.75-.72 1.45-1.67 2.49-3.11 3.35-1.49.9-1.89-.14-3.33-.14-.74 0-1.56.59-2.27.78-.85.22-1.77.19-2.62.39-.26-.34-.78-2.6-.32-3.05.19-.18 1-.16 1.26-.19.39-1.81-.68-.93-1.63-1.57-.99-.65-.66-1.75-.83-2.69-.68.06-1.49.34-2.16.28-.96-.08-1.57-.38-2.64-.12-1.22.29-1.91 1.1-2.94 1.78-1.09.72-.95.75-1.53 1.83-.58 1.08-.88.42-1.76.99-.99.64-.71 2.8-1.81 3.68-.34.28-.81.21-1.08.47-.63.59-.67 2.08-1.52 2.48-1.06.49-1.41-.64-2.41-.52-.12.95-.08 4.56-2.02 3.59-.8-.4-1.26-2.19-1.12-3.01.15-.93.81-1.29 1.81-1.36.22-1.94-2.29-.43-3.25-1.43-.82-.84-.75-3.88-.69-5.07.1-1.91 2.01-1.53 1.65-3.56-.13-.78-.2-2.22-.62-2.87-.55-.9-2.27-1.76-3.28-1.8-.83-.04-2.16.67-2.92.4-.6-.2-1.27-1.62-.98-2.24.36-.77 1.05-.15 1.67-.57 1.03-.71.33-2.53.95-3.48 1.02-1.59 3.8-.67 5.07-1.84.76-.71.31-2.15 1.32-2.78.75-.45 2.45-.29 3.15.17-.15-2.02-1.24-3.94-1.35-5.93 1.07-.23 2.55.6 3.55.98 1.15.43 1.81 1.01 2.77 1.81.45.38.95 1.04 1.55.82-.08-1.06-.78-3.7.11-4.52.31-.31.74-.25 1.17-.33.36-.06 1.73.2 1.77.19.79-.32.05-1.16.5-1.91.67-1.09 1.83-.96.99-2.6-1.27.12-2.49.14-3.75.02-1.71-.15-2.12-1.67-2.21-3.35.09-.05.21-.05.32-.08-.33-.75-3.4.04-4.31-.19-2.05-.52-2.6-1.79-3.07-3.6-1.75.14-4.63-.71-5.8-2.12-1.19-1.43-1.19-4.13-.62-5.75.09-.26.6-.29.58-.64-.05-.49-.76-.8-1.01-1.17-.6-.89-.9-2.27-1.22-3.28-.31-1.06-.82-1.99-1.19-3.05-.16-.48-.74-1.88-.5-2.35.32-.57 1-.43 1.71-.55 2.34-.43.98-2.42.67-4.08.66-.13 1.83-.02 2.39-.32.64-.33.12-.06.5-.71.68-1.18 1.58-1.48 1.98-2.85.5-1.74 1.6-3.01 2.94-1.24 1.51 2 1.33 1.24 2.61-.3.36-.44.88-.72 1.18-1.12.53-.72.57-1.74 1.47-2.2 1.02-.52 2.21 0 3.15.03 1.53.05 1.88-.55 3.05-1.15.77-.4 1.04.08 1.5.19.52.12.7.14 1.5.03-.5-2.71.84-5.83 1.6-8.38.48-1.62-.51-5.77 2.01-5.89.12.62-.07 1.67.74 1.77z"/></g><g class="uuid-9808d3c3-7a66-4737-a0b8-d8319113eb39"><path class="uuid-23708420-1923-41b5-a28e-9cfc4f319f23" d="M747.12 238.93c.28.03.44-.34.57-.51.21-.28.82-.88 1.17-.36.55.81-1.22 1.1-1.48 1.5-.24.37-.05 1.17 0 1.59.09.63-.02.89-.35 1.5-.41.74-.84 1.79-.36 2.6.15.26.52.9.86.83.36-.06.44-.66.67-.91.17-.19.31-.35.6-.26.15.05.21.3.34.36.15.06.23 0 .41 0 .27 0 .36-.12.54.11.24.29-.14 1.06.34 1.06.54-.02.74-1.01 1.04-1.3.15-.13.54-.32.74-.27.28.07.17.29.45.46.4.26 1.09-.02 1.53.02.79.07 1.05.5 1.68.9.2.12.4.15.51.35.09.2-.09.33 0 .53.12.21.35.27.43.56.05.2.13.61.12.81-.05.29-.08.26-.36.35-.4.15-.49.17-.78.52-.51.59-.91.4-1.61.5-.24.03-.89.09-.89.33.38-.07.93.1.67.63-.07.15-.36.16-.48.29-.13.15-.19.35-.18.55.42.15.7-.06.75.46.02.19-.08.56-.16.75-.12.33-.21.33-.2.72 0 .42 0 .84-.05 1.24.15-.02.31-.03.46-.05.4 1.08-1.14 1.38-1.53 2.01-.26.41-.08 1.21.19 1.43.19.17.33.12.43.36.11.23-.02.57.08.82.2.51.81.63 1.08.18.4-.62.33-1.08.21-1.74-.03-.19-.19-.73-.02-.89.12-.12.45 0 .59-.04.35-.15.31-.74.79-.79.26.52.46.46.76.41.13.19.26.36.44.49-.29.04-.61.15-.91.23.05.84.78.46.8 1.2-.1 0-.2.1-.31.1-.02.64.33.53.68.86.19.18.13.24.21.49.11.33.05.25.36.5.53.43.58 1.18.98 1.68s1.09 1.36.67 1.97c0 .02-.23.08-.28.13-.09.08-.03.27-.14.35-.35.28-.3-.05-.4-.32-.07-.21-.17-.57-.29-.75-.15-.25-.46-.3-.67-.46-.28-.23-.74-.68-.91-.14-.06.21.16.44.02.64-.13.18-.47.16-.65.12-.2.3-.16.51-.63.49-.25-.02-.45-.19-.71-.06 0 .54.08 1 .46 1.37-.58.36 1.05 2.42.91 2.85-.18.5-.88.1-1.27.18-.09.02-.24-.05-.3-.02-.16.12-.08.5-.22.57-.21.09-.28-.12-.49-.15-.43-.1-.74.26-1.14.19-.52-.08-.63-1.31-1.15-.28-.26.53-.62.91-1.14 1.23-.53.32-.68-.06-1.21-.06-.28 0-.57.22-.83.29-.31.09-.64.07-.95.15-.09-.12-.29-.95-.12-1.12.07-.06.36-.05.46-.07.14-.66-.24-.33-.59-.57-.36-.24-.24-.64-.3-.98-.25.02-.53.12-.79.09-.35-.02-.57-.14-.96-.04-.44.11-.7.4-1.07.64-.4.27-.35.28-.57.67-.21.4-.32.15-.64.36-.36.24-.26 1.02-.66 1.35-.12.1-.29.08-.4.17-.23.22-.25.76-.55.91-.4.18-.52-.23-.88-.19-.05.35-.04 1.67-.74 1.31-.3-.15-.46-.8-.42-1.09.06-.34.29-.48.66-.5.09-.7-.82-.15-1.18-.52-.3-.3-.27-1.42-.26-1.84.05-.7.74-.56.6-1.3-.05-.29-.07-.81-.22-1.05-.22-.33-.84-.64-1.2-.65-.31-.02-.79.23-1.07.15-.22-.08-.46-.59-.36-.82.14-.28.4-.06.61-.21.38-.26.12-.91.34-1.26.38-.58 1.4-.25 1.86-.67.28-.26.11-.78.48-1.02.27-.15.89-.11 1.14.06-.05-.74-.45-1.43-.49-2.15.4-.09.94.21 1.29.36.42.15.67.36 1.02.65.15.15.35.38.57.31-.03-.4-.28-1.36.04-1.66.11-.11.27-.08.43-.12.12-.02.64.07.64.07.29-.12.02-.43.18-.7.26-.39.67-.34.37-.94-.46.04-.91.05-1.37 0-.62-.05-.78-.6-.8-1.21.03-.02.07-.02.12-.03-.12-.28-1.26 0-1.58-.07-.74-.19-.94-.65-1.11-1.32-.64.05-1.69-.26-2.12-.77-.44-.53-.43-1.5-.22-2.09.03-.1.22-.11.21-.23-.02-.18-.27-.29-.37-.43-.22-.32-.33-.83-.43-1.19-.12-.38-.31-.73-.43-1.12-.05-.17-.28-.68-.18-.85.11-.22.35-.16.61-.2.86-.15.36-.88.24-1.5.24-.04.67 0 .88-.11.22-.12.05-.02.18-.26.26-.43.57-.54.73-1.04.18-.64.58-1.1 1.07-.46.54.74.48.46.95-.1.13-.16.32-.26.43-.41.19-.26.22-.64.53-.8.38-.19.81 0 1.16 0 .55.02.68-.2 1.11-.43.27-.14.38.03.54.08.19.04.26.05.55 0-.18-.99.31-2.13.58-3.06.19-.59-.19-2.1.74-2.15.04.22-.03.61.26.65z"/></g><g class="uuid-9808d3c3-7a66-4737-a0b8-d8319113eb39"><path class="uuid-23708420-1923-41b5-a28e-9cfc4f319f23" d="M491.42 157.46c.28.04.43-.35.56-.51.21-.27.83-.88 1.18-.36.53.81-1.23 1.09-1.49 1.5-.25.37-.05 1.17 0 1.6.09.62-.02.88-.36 1.49-.41.74-.83 1.79-.36 2.6.15.25.52.89.87.83.35-.07.44-.65.67-.91.16-.19.31-.35.58-.26.16.05.22.3.35.36.16.08.23.02.41.02.26 0 .36-.12.55.11.23.29-.15 1.07.34 1.06.53-.02.73-1.01 1.04-1.3.14-.13.53-.32.74-.27.27.07.16.28.43.46.42.26 1.1-.02 1.54 0 .78.08 1.04.52 1.67.9.21.13.42.16.51.36.1.2-.08.33 0 .52.12.22.36.28.43.56.06.2.15.61.11.81-.03.29-.07.26-.34.36-.4.16-.48.18-.79.52-.5.59-.91.4-1.6.5-.24.02-.9.08-.89.33.38-.06.92.1.67.64-.07.13-.37.16-.48.27-.13.16-.19.35-.18.56.41.15.69-.06.75.46.02.19-.08.55-.16.75-.12.33-.21.33-.21.71.02.43 0 .84-.04 1.25.15-.02.31-.04.46-.05.4 1.08-1.15 1.39-1.53 2.01-.26.41-.08 1.21.19 1.44.19.16.33.11.43.36.1.23-.03.57.07.82.19.51.81.62 1.08.18.39-.62.33-1.08.2-1.74-.02-.19-.18-.73-.02-.89.12-.12.45.02.58-.05.35-.14.32-.74.79-.79.26.53.46.47.76.42.13.18.27.36.45.49-.29.04-.62.15-.91.22.05.85.78.46.8 1.21-.11 0-.21.11-.32.09-.02.65.33.53.69.86.19.18.13.24.21.5.11.33.04.25.36.5.53.43.58 1.19.98 1.69s1.08 1.36.67 1.96c0 .02-.23.09-.28.12-.09.09-.03.29-.13.36-.35.27-.31-.05-.41-.32-.07-.21-.16-.58-.28-.76-.16-.24-.47-.29-.68-.46-.28-.23-.74-.69-.91-.14-.07.22.16.44.02.65-.14.16-.48.16-.65.1-.2.31-.17.52-.63.5-.26-.02-.45-.19-.71-.06.02.54.08 1 .47 1.37-.58.36 1.05 2.42.91 2.85-.18.5-.88.11-1.27.18-.09.02-.25-.05-.3-.02-.16.12-.08.5-.23.56-.2.1-.28-.12-.48-.16-.43-.08-.75.26-1.15.2-.51-.08-.62-1.3-1.15-.27-.26.53-.61.91-1.13 1.22-.54.33-.69-.05-1.22-.05-.28 0-.57.22-.83.29-.3.09-.64.08-.95.14-.09-.12-.29-.94-.12-1.11.07-.06.36-.06.46-.07.13-.66-.26-.34-.6-.57-.36-.24-.23-.64-.3-.98-.23.02-.53.12-.79.09-.35-.03-.56-.14-.96-.04-.44.1-.7.4-1.06.65-.4.26-.35.27-.57.67-.21.4-.32.15-.63.36-.36.23-.26 1.02-.66 1.34-.12.1-.3.08-.4.18-.23.22-.25.76-.56.9-.39.19-.51-.23-.88-.19-.05.35-.02 1.66-.74 1.31-.29-.15-.45-.8-.41-1.1.06-.34.3-.47.67-.5.08-.7-.83-.15-1.19-.51-.3-.31-.27-1.42-.25-1.85.04-.7.74-.56.6-1.3-.05-.29-.08-.81-.22-1.05-.21-.33-.84-.64-1.21-.66-.3-.02-.78.24-1.06.15-.22-.08-.46-.6-.36-.82.13-.28.39-.05.61-.21.38-.26.12-.92.34-1.27.38-.57 1.39-.24 1.86-.67.27-.26.1-.79.48-1.01.27-.17.88-.11 1.14.06-.05-.74-.45-1.44-.49-2.16.39-.08.93.22 1.29.36.42.15.67.36 1.01.65.17.14.36.38.57.3-.02-.39-.28-1.34.03-1.66.12-.11.29-.08.44-.12.12-.02.63.08.64.08.29-.12.02-.42.18-.71.25-.4.68-.34.38-.94-.47.05-.91.06-1.38 0-.62-.05-.78-.6-.8-1.22.03-.02.07-.02.11-.03-.11-.26-1.24.02-1.58-.07-.74-.19-.94-.65-1.1-1.31-.64.05-1.7-.26-2.12-.78-.43-.51-.43-1.5-.22-2.09.03-.09.22-.1.22-.23-.02-.18-.28-.29-.38-.43-.22-.33-.33-.83-.44-1.19-.12-.39-.3-.73-.43-1.12-.05-.17-.26-.68-.19-.85.12-.21.36-.15.62-.2.86-.15.36-.88.25-1.49.25-.05.67 0 .88-.12.23-.12.05-.02.18-.26.25-.43.57-.54.73-1.04.18-.64.58-1.1 1.06-.46.56.73.49.45.96-.11.13-.16.32-.26.43-.4.19-.26.21-.64.53-.81.37-.19.81 0 1.15.02.54.02.69-.21 1.1-.42.29-.15.39.03.56.07.18.04.25.05.53 0-.18-.98.31-2.12.6-3.05.17-.59-.19-2.1.73-2.15.05.23-.02.61.27.65z"/></g><g class="uuid-9808d3c3-7a66-4737-a0b8-d8319113eb39"><path class="uuid-23708420-1923-41b5-a28e-9cfc4f319f23" d="M471.13 256.83c.07-.26-.3-.46-.45-.61-.26-.23-.79-.91-.25-1.2.85-.46.98 1.32 1.34 1.63.36.28 1.17.17 1.59.15.64-.02.88.12 1.45.51.71.48 1.71 1.01 2.55.61.26-.12.95-.43.91-.77-.04-.36-.61-.5-.84-.76-.17-.19-.32-.35-.21-.61.08-.15.33-.19.4-.32.08-.14.03-.23.05-.4.03-.27-.07-.36.15-.53.32-.22 1.06.24 1.09-.24.05-.53-.92-.82-1.19-1.16-.12-.15-.26-.56-.19-.76.09-.27.29-.15.5-.4.3-.39.09-1.09.18-1.53.13-.78.6-.98 1.04-1.57.16-.2.21-.4.4-.47.22-.08.33.12.53.04.22-.08.3-.32.6-.38.21-.04.63-.08.81-.03.29.08.25.11.32.39.12.4.13.5.44.84.53.57.29.94.33 1.64 0 .24 0 .9.23.92-.02-.38.2-.91.7-.6.15.09.12.37.24.5.14.15.33.23.53.23.18-.4 0-.7.53-.7.19 0 .53.14.74.23.3.15.3.25.69.27.42.04.84.08 1.23.17v-.46c1.11-.29 1.26 1.27 1.85 1.72.37.29 1.19.19 1.45-.05.18-.18.14-.32.4-.4.25-.08.57.09.84.02.53-.15.7-.74.28-1.07-.58-.45-1.05-.43-1.72-.38-.19.02-.74.12-.88-.06-.12-.13.06-.45.02-.58-.11-.37-.7-.39-.7-.87.54-.22.52-.41.48-.72.2-.11.4-.23.53-.39.02.29.09.63.13.93.86.03.55-.74 1.29-.67 0 .09.08.21.07.32.64.08.55-.28.91-.6.19-.17.25-.1.51-.16.33-.08.26-.02.54-.31.46-.49 1.23-.45 1.77-.8.53-.34 1.46-.94 2.02-.48.02.02.05.25.1.3.08.1.27.06.34.17.23.37-.07.29-.36.37-.21.05-.59.11-.78.21-.26.12-.34.43-.53.62-.26.26-.75.67-.22.89.2.09.46-.12.64.06.16.15.12.48.05.65.29.23.5.21.43.67-.03.26-.25.43-.14.71.54.03 1.01 0 1.42-.34.3.62 2.52-.81 2.93-.61.46.22.02.88.05 1.28.02.08-.07.24-.05.3.11.18.5.13.54.29.08.22-.13.26-.2.46-.13.43.19.78.08 1.16-.12.5-1.36.5-.39 1.12.5.32.85.7 1.12 1.25.27.57-.12.68-.18 1.21-.03.27.16.58.19.85.06.31.02.64.05.96-.12.08-.97.19-1.1 0-.06-.08-.03-.37-.04-.46-.63-.21-.35.21-.63.53-.27.33-.65.18-1 .2 0 .26.07.56.02.8-.06.35-.19.55-.14.95.07.46.33.74.53 1.13.23.42.24.37.62.62.36.26.12.34.29.67.19.38.99.36 1.26.8.09.13.05.29.13.4.2.25.73.31.84.64.14.4-.28.49-.28.85.34.09 1.66.19 1.24.86-.18.28-.85.38-1.14.31-.33-.09-.43-.35-.42-.71-.7-.15-.25.81-.64 1.12-.33.27-1.44.13-1.86.06-.69-.1-.49-.78-1.24-.73-.29.03-.81 0-1.06.12-.34.17-.72.76-.78 1.13-.04.29.17.81.05 1.07-.09.22-.63.4-.86.28-.26-.16 0-.39-.14-.63-.22-.4-.91-.22-1.22-.47-.54-.43-.11-1.39-.48-1.91-.23-.3-.78-.19-.96-.58-.14-.29-.02-.89.17-1.13-.73-.02-1.47.31-2.2.28-.05-.4.32-.91.5-1.26.19-.4.43-.63.76-.94.15-.15.41-.31.35-.53-.39 0-1.37.15-1.65-.19-.1-.13-.05-.28-.07-.44 0-.13.14-.62.14-.64-.09-.3-.43-.06-.68-.26-.36-.28-.28-.7-.91-.46 0 .47-.04.91-.12 1.36-.12.62-.68.71-1.29.67-.02-.03-.02-.07-.02-.11-.27.09-.11 1.23-.22 1.56-.26.72-.74.88-1.41.98-.02.64-.43 1.66-.98 2.03-.56.38-1.53.29-2.1.02-.09-.05-.08-.23-.22-.24-.17 0-.3.25-.46.33-.34.19-.86.25-1.24.32-.4.08-.74.23-1.15.33-.18.04-.71.2-.86.1-.2-.13-.12-.38-.14-.64-.08-.87-.84-.44-1.47-.39 0-.25.07-.67-.02-.88-.1-.25-.03-.05-.24-.21-.4-.29-.49-.63-.96-.82-.61-.25-1.03-.7-.35-1.12.78-.47.5-.43 0-.95-.15-.15-.22-.35-.37-.47-.23-.22-.6-.27-.74-.61-.14-.39.09-.8.13-1.14.08-.55-.13-.71-.3-1.15-.12-.3.07-.37.12-.54.07-.18.09-.26.07-.53-1 .08-2.09-.52-2.99-.89-.57-.24-2.11-.02-2.06-.95.23 0 .61.09.67-.19z"/></g><path class="uuid-a7a36a50-3fc4-4559-bc2f-45d9c7515085" d="M622.43 561.86c10.55-.28 38.69 15.04 41.51-3.58 6.2 2.29 9.62 10.84 16.7 11.77 3.85.51 13.07-5.42 16.26-7.25 5.76-3.34 1.59-7.66 9.34-4.73 3.03 1.15 6.69 8.53 9.52 10.89 3.99-3.08 12.82-7.48 12.47 1.6-.18 4.8-9.86 11.09-13.4 13.29l2.35 3.91c8.2-1.49 15.07 15.23 6.25 20.12-7.93-4.23-12.13-12.89-19.52-17.75-6.99-4.6-7.25-2.84-14.12-1.63.16-.02-10.99 3.14-10.29 2.53-3.68 3.16-6.21 4.02-.62 8.42 5.19 4.1 7.5-.63 13.74-.39 8.88.36 24.51 13.36 22.12 23.83-.65-.18-1.26-.37-1.87-.59 7.86 9.07-2.06 21.36-14.32 12.53-2.33-1.69-.45-4.56-2.39-7.17-2.85-3.87-9.95-12.28-14.61-13.49-3.94-1.01-13.76.77-15.91 1.69-1.67.7-3.64.12-6.31 1.54-1.98 1.05-2.93 5.91-5.65 7.28-3.77 1.9-16.72-.09-15.97-8.48.6-6.86 10.34-2.51 12.35-11.23 1.43-6.24-8.9-6.87-1.65-12.6-8.41-.91-13.61-5.48-21.49-6.61-5.88-.84-10.3 3.53-15.83.45 7.67-10.28 21.76-10.52 11.36-24.37z"/><g class="uuid-9808d3c3-7a66-4737-a0b8-d8319113eb39"><path class="uuid-23708420-1923-41b5-a28e-9cfc4f319f23" d="M169.59 208.73c.85-.08 1.67-.22 2.47-.39-.29.56-.64 1.15-1.09 1.79-.71-.21-1.18-.67-1.38-1.4z"/><path class="uuid-23708420-1923-41b5-a28e-9cfc4f319f23" d="M274.91 161.12c-6.52 2.2-3.73 7.83-11.31 1.19-6.3-5.52-4.01-9.89 2.32-14.27-6.95-1.31-17.85-4.59-25.02-1.85-5.49 2.1-9.43 8.5-14.69 11.24-14.56 7.58-20.9-2.61-17.77-17.08-6.02 5.25-13.27 10.65-14.48 18.82-1.21 8.19 4.25 15.12 1.87 23.24-3.53 11.98-10.89 23.34-23.78 25.93 4.05-7.69-4.93-8.96-6.83-14.6-1.94-5.73 0-13.97 4.95-18.68 3.18-3.02 13.29-2.94 13.79-10.07.51-7.26-9.93-10.59-15.46-10-1.73-10.24 10.02-12.91 15.57-18.83-3.97-4.49-12.34-9.62-15.05-15.05-5.69-11.43 5.25-17.92 13.51-25.47 12.41-11.34 25.05-21.32 39.31-30.05 3.93-2.41 7.66-5.23 11.29-8.22C340.01-1.56 465.85-13.5 580.41 21.53c-3.45 5.6-3.61 14.23-10.11 19.01-3.17-.57-9.93-1.26-13.88.07-3.46 1.16-7.83 5.8-11.13 6.43-10.1 1.94-26.17-8.34-36.04-1.64-4.81 3.27-2.97 6.95-9.25 9.34-8.28 3.16-14.32-1.29-12.52 7.98.42 2.15 5 3.95 6.02 5.87 1.98 3.71 1.07 8.04 1.69 9.65 1.97 5.13 8.36 9.89 2.64 16.46 1.21 1 2.22 3 3.5 3.91-3.97 2.66-18.14 15.37-22.45 13.47-7.23 9.32-24.98-13.47-34.59-17.11-6.76 5.35-2.98 12.65-4.42 18.32-9.95-8.69-41.2-45.91-45.78-12.36-1.02 7.39.91 7.49 5.9 13.33 5.01 5.85 7.42 10.97 11.28 16.75 6.91 10.35 19.63 16.67 30.03 25.96 4.33-2.52 31.23-9.44 20.55 1.81 2.14 1.08 3.27 3.69 5.89 4.52-1.45 1.44-2.05 4.52-3.74 5.97 2.53 1.81 9.8 5.56 11.05 9 1.4 3.84-3.91 4.54-2.94 8.14 1.97 7.31 13.13 14.42 6.01 22.93-9.03-6.85-6.64-17.83-14.18-21.8-.4-.21-3.35 4.32-3.65 4.23-2.25-.69-7.59-6.74-6.76-6.57-3.94-.82-4.76-2.38-8.23 2.25-7.46-5.35-7.59-16.2-15.08-21.09-6.97-4.55-7.29-.29-14.44-.54.35-.54.72-1.07 1.12-1.57-4.81-7.56-11.2-1.36-17.24-2.54-3.93-.78-7.55-2.41-10.45-6.91-1.46-2.27.59-7.69-1.7-9.39-15.62-11.65-10.3 21.06-13.31 25.64-9.93-6.87-1.24-16.48-9.34-19.77-4.66-1.88-24.04 5.39-15.16-10.17-4.7-1.56-15.61.72-19.78 4.45-4.99 4.46-4.14 1.69-2.34 9.94 1.96 8.96 17.87 28.03 15.89 36.55-1.29 5.53-8.28 5.5-9.45 8.21-2.85 6.58 3.59 12.3 5.44 19.2 3.06 11.39-1.96 13.82-10.6 21.96-6.9-6.64 1.13-11.08.46-17.92-.68-7.01-8.12-14.02-11.89-19.63-5.8-8.62-19.97-19.36-21.27-29.71-1.12-8.84 5.95-8.47-3.06-14.1-6.18-3.87-13.16-.67-18.18 1.03z"/></g><g class="uuid-9808d3c3-7a66-4737-a0b8-d8319113eb39"><path class="uuid-23708420-1923-41b5-a28e-9cfc4f319f23" d="M145.3 654.51c-6.96 9.44-19.28 24.7-7.9 36.51 6.42 6.67 10.54 1.97 16.83 4.55 11.89 4.87 4.75-.74 11.78 8.26 8.45 10.79 11.47 24.1 23.95 32.27 10.72 7.01 27.06 11.56 38.82 15.72 9.56 3.39 23.62 9.79 33.11 2.76 5.71-4.23 6.19-4.63 6.31-12.18.19-11.19-4.84-9.92-11.93-11.72-13.83-3.53-26.16 8.04-39.27-2.3-2.84-2.25-4.2-8.03-6.23-10.45-8.99-10.66-15.55-13.26-10.34-27.19 3.3-2.26 13.88-5.48 15.57-7.95 6.24-9.16-2.43-6.89-.5-14.92 3.19-13.5 16.09-18.1 11.85-34.32 4.96 4.35 9.51 9.34 14.37 13.78 5.06-6.12 9.85-13.34 16.39-18.19 2.47 7.57-6.72 15.72-3.64 24.52 1.19 3.41 9.17 8.68 11.91 11.17 10.65-8.22 24.93-35.65 39.45-13.74-2.83 1.76-4.77 6.53-7.57 8.24 4.05 4.13 8.27 8.55 12.21 12.81-8.64 10.41-2.98 25.07-5.39 37.62-3.99 20.87-3.3 29.39 17.29 46.22 7.82-10.93 10.57-.88 16.61-2.25 5.45-1.25 17.36-9.34 22.07-7.61 5.66 2.09 5.48 20.36 14.91 26.3 13.04 8.22 9.24-.05 20.42-.66 15.6-.84 35.35 30.57 48.02 17.95 19.57-19.5-26.01-16.41-23.48-35.56 1.06-8.14 14.8-4.23 11.03-17.91-2.92-10.53-16.46-9.1-23.96-13.71-6.21-3.84-14.55-13.2-17.36-19.84-3.54-8.34 1.79-16.67-1.15-24.21-6.45-16.58-26.96-14.92-20.14-36.8 2.06-6.64 9.94-19.69 18.69-16.22 7.19 2.85.58 17.62 9.91 22.68 19.96-12.24 15.79 32.97 27.72 35.33 11.55 2.29 13.81-12.71 23.52-8.97 10.3 3.97 10.4 18.64 2.22 23.95 11.23-1.98 28.25 4.52 37.69-5.28 7.17-7.46.79-15.23 8.39-21.67 7.6 5.29 15.77 29.59 28.67 27.51 12.53-2.03 1.78-6.12 5.81-11.37 1.27-1.65 7.61-8.05 8.62-10.26 4.62-10.27 6.21-18.42.38-33.08-3.6-9.03-18.43-24.68-11.21-33.67 11.02 6.1 12.05 20.4 22.65 28.41 2.5-8.7-1.79-19.34-1.44-26.48 4.97 4.61 10.3 8.92 16.69 11.18 7.97-15.16-.59-33.35 7.75-47.99 6.31-11.13 19.8-21.97 29.64-30.99 7.45 7.17-1.99 6.13-3.76 12.8-.57 2.15-4.19 5.93-5.15 8.57-1 2.7 3.27 6.16 2.29 8.58-3.5 8.65-10.91 14.66-10.75 24.99.19 11.78 9.08 16.09 11.9 25.83 2.77 9.57-5.36 21.15 4.3 27.47 2.6-1.6 4.63-1.87 7.04-3.94 3.25 6.77-2.44 9.58 2.37 16.29 1.6 2.23 11.06.05 14.86 5.51-3.21 7.34-10.82 15.33-17.29 20.11-7.82 5.78-19.03 6.81-25.41 14.07 16.5 17.97 32.15 38.65 52.39 17.84 3.17 1.66 7.45 6.2 8.88 9.34-8.46 5.41-13.97 18.55-.35 17.16 7.72-.79 9.86-18.48 18.11-4.56-7.04 4.56-7.77 11.49-1.46 17.36-5.38 6.97-12.82 13.46-18.98 20.17 14.32 15.57 19.61 22.54 38.44 17.62 6.78-1.78 6.68-7.22 15.26-5.99 5.04.72 7.69 9.7 14.3 10.6 2.9.39 7.18-.53 11.76-1.7-175.58 136.78-429.66 124.48-591.09-36.96a449.667 449.667 0 01-54.3-65.7c-1.51-4.91-2.09-9.88-1.08-14.93 2.7-13.37 18.65-28.59 29.33-38.31 12.64 14.98 29.7-8.56 38.64 7.54z"/><path class="uuid-23708420-1923-41b5-a28e-9cfc4f319f23" d="M145.3 654.51c-6.96 9.44-19.28 24.7-7.9 36.51 6.42 6.67 10.54 1.97 16.83 4.55 11.89 4.87 4.75-.74 11.78 8.26 8.45 10.79 11.47 24.1 23.95 32.27 10.72 7.01 27.06 11.56 38.82 15.72 9.56 3.39 23.62 9.79 33.11 2.76 5.71-4.23 6.19-4.63 6.31-12.18.19-11.19-4.84-9.92-11.93-11.72-13.83-3.53-26.16 8.04-39.27-2.3-2.84-2.25-4.2-8.03-6.23-10.45-8.99-10.66-15.55-13.26-10.34-27.19 3.3-2.26 13.88-5.48 15.57-7.95 6.24-9.16-2.43-6.89-.5-14.92 3.19-13.5 16.09-18.1 11.85-34.32 4.96 4.35 9.51 9.34 14.37 13.78 5.06-6.12 9.85-13.34 16.39-18.19 2.47 7.57-6.72 15.72-3.64 24.52 1.19 3.41 9.17 8.68 11.91 11.17 10.65-8.22 24.93-35.65 39.45-13.74-2.83 1.76-4.77 6.53-7.57 8.24 4.05 4.13 8.27 8.55 12.21 12.81-8.64 10.41-2.98 25.07-5.39 37.62-3.99 20.87-3.3 29.39 17.29 46.22 7.82-10.93 10.57-.88 16.61-2.25 5.45-1.25 17.36-9.34 22.07-7.61 5.66 2.09 5.48 20.36 14.91 26.3 13.04 8.22 9.24-.05 20.42-.66 15.6-.84 35.35 30.57 48.02 17.95 19.57-19.5-26.01-16.41-23.48-35.56 1.06-8.14 14.8-4.23 11.03-17.91-2.92-10.53-16.46-9.1-23.96-13.71-6.21-3.84-14.55-13.2-17.36-19.84-3.54-8.34 1.79-16.67-1.15-24.21-6.45-16.58-26.96-14.92-20.14-36.8 2.06-6.64 9.94-19.69 18.69-16.22 7.19 2.85.58 17.62 9.91 22.68 19.96-12.24 15.79 32.97 27.72 35.33 11.55 2.29 13.81-12.71 23.52-8.97 10.3 3.97 10.4 18.64 2.22 23.95 11.23-1.98 28.25 4.52 37.69-5.28 7.17-7.46.79-15.23 8.39-21.67 7.6 5.29 15.77 29.59 28.67 27.51 12.53-2.03 1.78-6.12 5.81-11.37 1.27-1.65 7.61-8.05 8.62-10.26 4.62-10.27 6.21-18.42.38-33.08-3.6-9.03-18.43-24.68-11.21-33.67 11.02 6.1 12.05 20.4 22.65 28.41 2.5-8.7-1.79-19.34-1.44-26.48 4.97 4.61 10.3 8.92 16.69 11.18 7.97-15.16-.59-33.35 7.75-47.99 6.31-11.13 19.8-21.97 29.64-30.99 7.45 7.17-1.99 6.13-3.76 12.8-.57 2.15-4.19 5.93-5.15 8.57-1 2.7 3.27 6.16 2.29 8.58-3.5 8.65-10.91 14.66-10.75 24.99.19 11.78 9.08 16.09 11.9 25.83 2.77 9.57-5.36 21.15 4.3 27.47 2.6-1.6 4.63-1.87 7.04-3.94 3.25 6.77-2.44 9.58 2.37 16.29 1.6 2.23 11.06.05 14.86 5.51-3.21 7.34-10.82 15.33-17.29 20.11-7.82 5.78-19.03 6.81-25.41 14.07 16.5 17.97 32.15 38.65 52.39 17.84 3.17 1.66 7.45 6.2 8.88 9.34-8.46 5.41-13.97 18.55-.35 17.16 7.72-.79 9.86-18.48 18.11-4.56-7.04 4.56-7.77 11.49-1.46 17.36-5.38 6.97-12.82 13.46-18.98 20.17 14.32 15.57 19.61 22.54 38.44 17.62 6.78-1.78 6.68-7.22 15.26-5.99 5.04.72 7.69 9.7 14.3 10.6 2.9.39 7.18-.53 11.76-1.7-175.58 136.78-429.66 124.48-591.09-36.96a449.667 449.667 0 01-54.3-65.7c-1.51-4.91-2.09-9.88-1.08-14.93 2.7-13.37 18.65-28.59 29.33-38.31 12.64 14.98 29.7-8.56 38.64 7.54z"/></g><path d="M193.22 323.03c10.26 11.89 19.75 22.73 32.08 6.06 5.09 2.75 6.9 6.46 7.03 11.36l-2.34 16.42c.98 1.7.33 6.55 3.84 9.4-5.55 11.12-15.28 3.47-21.42-3.18-2.36 1.51-4 3.46-5.27 5.74 2.7 1.65 4.61 6.35 7.28 8-3.94 4.14-8.03 8.44-11.96 12.63 8.17 10.4 19.32 19.56 28.34 29.53-10.23 14.86-15.78 1.07-24.22-3.66 1.93 10.56-12.12 22.34-22.35 14.91-10.78-7.83 3.03-16.22 3.7-28.08-3.45 10.72-14.63 29.44-25.83 20.43-10.09-8.1 2.73-21.18 1.16-34.04-1.84-15.11-3.53-19.84 4.2-35.09 5.32-10.47 14.61-24.21 25.76-30.42z" opacity=".52" stroke-width="0" fill="#fff"/><g opacity=".52"><path class="uuid-23708420-1923-41b5-a28e-9cfc4f319f23" d="M201.64 523.62c.81-.88 1.61-1.5 2.42-1.96.7 1.63 1.07 3.28.94 4.93-1.49-.89-2.12-1.91-3.35-2.97z"/><path class="uuid-23708420-1923-41b5-a28e-9cfc4f319f23" d="M107.57 160.3c-1.05 4.88.14 9.45-1.81 14.86-2.26 6.28-9.59 12.27-13.08 17.91-6.98 11.27-24.86 29.86-10.41 41.65-5.52 9.24-17.39 15.19-21.5 25.14-2.67 6.49 1.16 14.15-1.27 20.34-1.74 4.41-6.83 7.29-9.84 10.85-7.1 8.41-8.21 17.07-1.81 27.2 4.69 7.39 15.88 11.65 17.01.29.97 12.04 9.07 7.23 14.58.82 1.01 9.73 7.35 12.58 14.19 8.99 10.02-5.25 9.45-16.02 13.39-24.6-.62 7.49-1.33 14.79 6.35 18.76 8.64-7.64 18.15-12.8 28.36-17.64 13.32-6.34 8.87-2.53 19.87 5.27 6.58-6.85 20.32-22.25 27.76-9.35-5.58 7.24-13.19 11.21-19.93 17.39-3.18 2.94-5.88 6.83-9.37 9.38-3.96 2.88-8.14 3.18-11.78 5.45-9.12 5.7-5.67 9.85-10.09 18.04-4.78 8.86-11.45 9.32-12.16 21.01-1.17 19.28.65 18.47-18.12 20.56-10 1.12-22.43 8.82-9.6 18.55 9.46 7.19 21.52-8.36 19.54 8.28-.56 4.66-6.69 3.84-5.42 10.4.96 4.9 10.02 8.72 13.97 8.33-5.23 20.61 23.85 8.7 29.88 12.23 7.98 4.68 4.35 12.9 8 18.93 7.17 11.79 17.38 6.45 27.09 8.63 8.87 2 22.55 17.18 27.25 25.41 3.36 5.87 5.77 11.73-.75 16.42-4.15 2.98-8.92-.98-13.84 1.88-2.69-6.27-10.44-12.21-15.05-16.54-7.35 4.49-3.34 15.7-.3 21.71-3.1 3.37 19.8 36.88-5.21 21.35-10.75 5.63.15 10.24 3.78 16.33 4.42 7.4 4.22 13.58 10.79 20.09-3.21 16.26-19.66 6.7-27.81.1-3.77-3.04-7.25-10.29-12.54-9.88-5.31.42-9.34 8.58-7.83 13.25-12.68-3.07-34.22-37.83-37.45-11.22-1.68 13.85 18.82 31.78-1.77 27.92-9.78-1.84-13.6-6.43-20.5-.6-2.53 2.13-9.55 12.78-10.48 16.19-1.46 5.45 4.31 13.26-3.2 14.33-4.91.7-8.09-6.38-12.65-6.46-1.37 8.33 6.76 14.33 6.66 21.89-.13 8.19-9.62 10.37-12.58 16.84-88.99-159.92-72.41-362.76 49.68-506.68z"/></g><path d="M132.17 132.45c-175.07 175.07-175.08 458.92 0 633.99 175.07 175.08 458.93 175.07 633.99 0 175.07-175.07 175.07-458.91 0-633.99-175.07-175.07-458.92-175.07-633.98 0z" style="mix-blend-mode:multiply" fill="url(#uuid-715db71c-0ae6-4502-8517-b9fc36034b4e)" stroke-width="0"/></g></g></svg>