<svg xmlns="http://www.w3.org/2000/svg" viewBox="0 0 900 900"><defs><radialGradient id="uuid-7bd1d11a-8477-42ae-98c0-6109201d0e8a" cx="406.66" cy="425.03" fx="406.66" fy="425.03" r="540.92" gradientTransform="rotate(-45 470.166 374.82)" gradientUnits="userSpaceOnUse"><stop offset=".25" stop-color="#fff"/><stop offset=".64" stop-color="#fff" stop-opacity=".72"/><stop offset=".73" stop-color="#fff" stop-opacity=".5"/><stop offset=".82" stop-color="#fff" stop-opacity=".29"/><stop offset=".9" stop-color="#fff" stop-opacity=".13"/><stop offset=".96" stop-color="#fff" stop-opacity=".03"/><stop offset="1" stop-color="#fff" stop-opacity="0"/></radialGradient><radialGradient id="uuid-b1396a91-602c-4072-af5e-6f5aeb73b974" cx="402.25" cy="415.27" fx="402.25" fy="415.27" r="448.24" gradientTransform="rotate(-45 470.166 374.82)" gradientUnits="userSpaceOnUse"><stop offset="0" stop-color="#797a7a"/><stop offset=".81" stop-color="#a6a7a7"/><stop offset=".84" stop-color="#a8a9aa"/><stop offset=".94" stop-color="#d5d6d6"/><stop offset="1" stop-color="#f3f3f3"/></radialGradient><radialGradient id="uuid-62cb33df-bafe-4c00-8079-302ce661b497" cx="303.1" cy="307.02" fx="303.1" fy="307.02" r="509.87" gradientTransform="rotate(-45 470.166 374.82)" gradientUnits="userSpaceOnUse"><stop offset=".12" stop-color="#fff"/><stop offset=".38" stop-color="#edecee"/><stop offset=".44" stop-color="#cdcdce"/><stop offset=".59" stop-color="#8b8b8c"/><stop offset=".73" stop-color="#575757"/><stop offset=".85" stop-color="#313131"/><stop offset=".94" stop-color="#1a1a1a"/><stop offset="1" stop-color="#121212"/></radialGradient><style>.uuid-8b62705b-01ff-4579-b080-3737c7ff6ce5,.uuid-c50ed6bb-2d24-4bb7-afbc-6192a6a20909{fill:#fff;stroke-width:0}.uuid-91f92b33-f612-49fe-999f-2a5cb02e187c{opacity:.5}.uuid-7e620c8b-7c6b-44a5-bdc7-89f7aaf9c5f6,.uuid-c50ed6bb-2d24-4bb7-afbc-6192a6a20909{opacity:.52}</style></defs><g style="isolation:isolate"><g id="uuid-a3c4cd00-40dc-4da2-b9cc-214e92b09c62" data-name="Capa 2"><path d="M843.83 78.33c211.58 211.59 211.58 554.63 0 766.21-211.59 211.59-554.63 211.59-766.21 0-211.58-211.58-211.58-554.62 0-766.22 211.58-211.58 554.62-211.58 766.21 0z" fill="url(#uuid-7bd1d11a-8477-42ae-98c0-6109201d0e8a)" opacity=".6" stroke-width="0"/><path d="M767.68 134.5c175.04 175.04 175.04 458.85 0 633.89-175.04 175.05-458.86 175.04-633.9 0-175.04-175.04-175.04-458.84 0-633.89 175.04-175.04 458.85-175.04 633.89 0z" fill="#a8a9aa" opacity=".52" stroke-width="0"/><path d="M767.68 134.5c175.04 175.04 175.04 458.85 0 633.89-175.04 175.05-458.86 175.04-633.9 0-175.04-175.04-175.04-458.84 0-633.89 175.04-175.04 458.85-175.04 633.89 0z" fill="url(#uuid-b1396a91-602c-4072-af5e-6f5aeb73b974)" stroke-width="0"/><path class="uuid-c50ed6bb-2d24-4bb7-afbc-6192a6a20909" d="M133.78 768.39l.02.02c8.11 4.55 18.14 5.46 22.57-3.77 4.48-9.35-2.33-8.43-4.58-15.81-4.13-13.53 10.62-6.53 16.85-15.85-3.86-5.48-8.92-8.85-15.71-8.53 2.15-3.13 5.6-5.56 8.36-7.22 11.56-6.99 22.96-12 31.73-23.68 15.97-21.27-11.17-2.74-19.05-.9 4.1-8.15 4.42-16.99.71-24.27-5.49-10.74-7.19-7.65-2.55-19.71 3.26-8.46 6.04-15-4.69-20.44-7.44-3.77-15.47.4-23.27-4.57 6.91-7.62 19.87-15.13 20.9-25.46 1.23-12.42-11.75-19.13-22.02-10.24-6.39-5.04-13.91-13.65-4.79-19.9-.02 0-2.16-2.19-2.13-2.12-16.11 14.43-10.95-15.45-15.37-17.06-3.79-1.37-7.71 6.23-10.64 6.61-4.45.59-3.45-2.68-7.28-3.67-8.64-2.25-13.89-4.4-19.66-11.14.47-1.2 1.23-2.65 1.9-3.72 25.5 9.54 28.18-14.46 36.88-29.31 1.56-2.64-1.2-3.64 1.65-6.28 4.78-4.43 13.29-4.14 18.73-7.8 8.47-5.7 9.48-10.44 5.53-19.36-2.26-5.09-7.28-9.29-7.8-14.12-.89-8.28 5.98-9.35 9.36-15.62 6.27-11.61 1.61-19.28-7.81-28.08-10.13 9.44-19.81 19.58-29.56 29.45 3.87-4.83.58-9.58-4.07-12.93-4.78 4.3-9 10.19-14.2 13.94-8.46 6.11-6.26 5.82-11.58-1.22-2.89-3.81-4.21-17.05-12-12.87-4.69 2.52-3.83 8.16-.81 11.68-5.91 4.74-.57 9.87-3.03 15.85-2.6 6.37-10.71 5.68-13.21 8.19-9.89 9.89-10.48 31.37-24.58 12.55 5.4-9.46 11.53-14.58 13.87-24.75 2.14-9.3 3.38-19.36 10.45-28.01 8.01-9.81 24.43-9.06 30.02-20.64 2.2-4.54 4.07-7.69-.81-12.9-6.18-6.58-7.6.05-14.68 6.27-15.93-17.06-18.46 11.63-29.11 2.96-7.58 4.38-2.33 12.76-5.7 19.18-4.95 9.43-18.83 9.77-29.84 13.5-3.93 119.6 39.72 240.47 131 331.76z"/><path class="uuid-c50ed6bb-2d24-4bb7-afbc-6192a6a20909" d="M2.72 438.18l27.82-5.7c-.38 9.05-15.48 15.56-22.57 19.81-1.32-2.1-4.31-5.02-5.39-6.47v.09c1.01 1.75.98 3.34 1.5 5.05-.43 0-.98.11-1.57.26 0 2.44.05 4.87.08 7.3.78 1.25 1.54 2.5 2.25 3.76-.74.57-1.45 1.25-2.13 2.01.25 8.65.75 17.3 1.5 25.93 2.56-1.85 5.18-3.81 7.87-4.83 2.03-.77 3.53-3.15 5.7-3.56 2.38-.46 4.7 4.07 6.5 3.65 12.24-2.88 12.1-14.58 17.67-23.24 3.71-5.78 11.69-10.36 16.13-15.81 5.71-7.03 5.96-10.16 15.21-12.85-1.92-4.21-5.18-8.39-8.33-11.35 7.11-5.22 10.09-8.47 15.03-15.21 1.64-2.23 6.24-6.16 6.81-8.29 1.61-5.9-4.14-10.67-.33-15.93-4.76-9.03 2.37-11.83 4.27-19.78 1.58-6.61-4.27-11.89-1.93-16.81 12.7 12.86 17.61 18.54 36.29 7.72 13.09-7.57 11.73-10.21 6.17-21.2 4.39-10.39-9.03-13.92.02-25.27-2.28-1.37-5.43-4.94-7.66-6.18 11.2-9.07 13.04-26.52 26.34-34.96-2.69-6.07-7.92-14.93-12.51-20.54-12.97 7.64-18.2 10.07-33.17 6.79 2.36-3.74 4.82-7.67 8.33-10.41 4.61 12.77 22.05-.93 29.35-4.39 13.85-6.59 12.96-5.98 21.29 3.86 6.14-3.12 19-16.08 26-15.88 6.89.19 7.03 7.69 14.43 8.25 13.91 1.05 12.27-12.17 22.65.1 6.63 7.84 5.16 18.93 10.54 25.65 12.37-9.48 18.83 16.13 22.73 23.71 5.1 9.85 15.02 21.82 23.78 26.84 6.45 3.69 16.06 4.84 22.6 4.79 4.18-.04 7.22-1.66 10.52-1.09 1.11.19 4.52 4.55 6.91 5.24 2.03.57 6.51-1.73 9.44-1.45 3.55.33 5.53 3.04 9.24 3.41 18.83 1.85 46.27-12.67 61.55-22.68-10.48 4.13-30.85 2.38-43.11 3.75-10.34 1.16-14.23.5-18.21-13.31-6.77-23.49 21.66-33.83 19.31-54.25-3.28-28.46-48.44-7.31-50.09-32.26-.52-7.89 6.67-8.95 10.03-13 6.57-7.92 9.58-19.75 1-28.29-.58.28-1.17.54-1.77.8-1.57-12.56 27.17-18.34 27.79-34.79-16.55 9.58-18.47 4.56-26.33-9.31-5.03 1.2-9.26 4.24-13.39 7.32 6.71-8.89 2.31-14.7-7.68-14.63-10.3.08-19.6 10.32-28.85 13.43-4.81-8.24 8.4-12.54 1.5-19.81-21.43 7.07-47.44 27.11-64.81 42.07-1.45-.37-5.98-2.51-7.23-3.4 1.9-20.56-14.05-41.49-35.04-38.19a454.294 454.294 0 00-32.96 29.86C49.64 218.65 5.97 327.93 2.72 438.18z"/><g class="uuid-91f92b33-f612-49fe-999f-2a5cb02e187c"><path class="uuid-8b62705b-01ff-4579-b080-3737c7ff6ce5" d="M525.45 181.6c-3.36.99-12.06-3.1-16.63-4.59-7.9-2.57-27.66-5.59-23.4-.33 9.16 11.31 32.38 7.38 46.44 12.91 9.3 3.66 18.81 14.5 23.86 19.97 7.26 7.86 16.2 13.97 25.03 19.91 12.97 8.71 31.32 21.91 34.4 37.78.65 3.35 1.74 12.4-3.31 10.9-5.27-1.58-12.21-10.18-17.88-13.91-4.18-2.76-7.88-5.11-10.57-4.03-1.59.64.34 4.07-.71 4.83-1.23.88-2.93.11-5.2.06-3.52-.08-5.83-1.55-5.91 1.39-.11 3.79 11.85 14.94 6.39 14.09-9.33-1.44-17.93-12-26.8-16.6-3.06-1.58-10.37-3.34-12.42-2.49-2.73 1.15 1.08 3.64-.4 6.08-2.23 3.68-13.75 1.44-18.73 2.8-8.8 2.4-6.86 7.88-10.1 13.56-1.06 1.86-3.17 2.66-2.21 4.99.99 2.47 4.35 3.3 5.24 5.71.96 2.59-1.26 3.74.56 7.06 1.27 2.33 4.14 6.91 6.25 9.06 3.1 3.13 3.15 2.67 7.05 3.38 5.7 1.02 7.05 1.22 13.22 4.96 10.53 6.37 13.52 4.02 22.27 5.19 2.96.4 11.12 1.36 12.73 4.43-4.87-1.06-9.89.88-3.38 7.81 1.71 1.82 5.2 2.2 7.25 3.9 2.54 2.1 4.38 4.73 5.42 7.38-3.85 1.41-8.14-1.51-5.84 5.1.87 2.48 3.94 7.17 5.76 9.86 2.93 4.31 3.97 4.54 5.61 9.55 1.78 5.46 3.54 10.96 5.37 16.27-1.67-.55-3.4-1.09-5.07-1.58.52 13.38 15.67 20.28 21.6 30.3 3.47 5.87 2.36 16.12-.08 18.08-1.77 1.43-3.17.25-4.08 3.02-.85 2.57.62 7.32-.29 10.06-1.89 5.7-7.74 4.56-10.58-1.76-3.99-8.89-3.87-14.26-3.63-22.1.08-2.2.68-8.58-1.36-11.01-1.52-1.84-4.62-.89-6.12-1.89-3.94-2.59-5.09-9.75-10.18-11.14-1.22 5.92-3.46 4.92-6.64 3.82-.81 1.99-1.79 3.88-3.24 5.15 3.04.82 6.59 2.7 9.75 4.09 1.36 9.99-6.75 4.14-5.73 12.66.99.28 2.14 1.57 3.23 1.74 1.07 7.49-2.6 5.39-5.72 8.4-1.68 1.61-1.02 2.48-1.61 5.06-.78 3.41-.24 2.69-3.13 4.8-4.87 3.57-5.16 11.5-9.03 15.85-3.83 4.31-10.61 11.31-7.79 18.06.09.25 2.01 1.32 2.37 1.91.69 1.11-.13 2.75.62 3.77 2.62 3.55 2.82.37 4.09-2.01.99-1.82 2.3-5.19 3.58-6.76 1.64-1.99 4.58-1.72 6.58-2.84 2.85-1.59 7.53-5.07 8.45 1.3.35 2.46-2.05 4.12-.93 6.79.93 2.25 3.98 3.4 5.63 3.43 1.31 4.07.47 6.08 4.6 7.72 2.3.91 4.41-.23 6.42 2.4-1.31 5.8-3.22 10.32-7.52 12.41 3.92 6.36-16.56 18.64-17.07 23.26-.58 5.35 6.45 5.35 9.13 8.19.6.64 2.12.84 2.4 1.55.76 1.98-1.67 5.08-.88 6.53 1.15 2.12 2.61.57 4.36 1.42 3.66 1.79 4.23 7.08 7.36 9.1 4.07 2.63 11.53-8.68 9.57 5.17-1.01 7.08-.95 13.21.32 20.25 1.33 7.3 4.67 4.89 7.81 9.24 1.62 2.24 1.85 6.85 2.79 9.8 1.11 3.48 3.03 6.35 4.1 9.88 1.44-.38 8.64-6.97 8.85-10.2.09-1.27-1.66-3.83-2.12-4.78 3.79-8.09 3.8-1.37 7.43-.77 3.73.62 5.78-4.8 8.4-8.06 1.39 2.41 2.46 6.22 4.04 8.26 2.26 2.89 4.33 3.69 5.8 8.55 1.66 5.54.75 11.4.54 18.03-.22 6.97-.54 6.64-3.07 13.18-2.56 6.63.08 5.07-.61 10.78-.78 6.43-8.7 13.7-10.82 21.44-.66 2.43.05 4.07-.67 6.18-1.66 4.79-7.49 10.24-8.53 15.26-1.3 6.21 3.55 3.69 3.62 8.4-3.99 3.98-19.85 15.81-15.12 21.14 1.92 2.17 10.24-1.88 13.88-5.35 4.14-3.97 5.47-8.24 5.22-12.83 8.2-8.07 2.89 8.43 7.65 9.02 4.05.5 17.31-11.94 22.16-17.2 7.86-8.51 4.55-15.29 12.6-22.85 3.09-2.9 8.43-9.22 11.28-10.51 3.93-1.76 9.28 1.61 10.67 5.96 1.12 3.54-.11 13.01 1.66 15.29 1.4 1.81 7.67-2.06 9.75-6.6 2.57-5.59-.61-5.64.17-10.61 1.31-8.36 8.71-14.71 10.76-22.47 2.93-11.08-3.83-21.03-3.49-31.79.21-6.81 5.12-13.02 4.33-20.6-.57-5.53-4.96-11.24-7.65-11.41 4.94-9.55 11.29-18.13 15.23-28.2-2.52-5.41-8.02-5.97-11.44-7.41-3.89-1.64-6.68-.8-10.62.28-1.88.5-4.38 2.3-5.67-.85 1.95-5.45 7.76-17.72 6.08-25.22-.61-2.74-2.02-3.76-3.27-5.54-1.05-1.48-5.61-4.24-5.73-4.45-2.16-4.12 1-6.56.12-12.08-1.3-8.06-5.28-10.5-1.62-17.39 4.3 4.21 8.37 7.88 12.64 11.05 5.79 4.28 8.3-3.17 9.4-12.99-.32-.55-.7-.91-1.04-1.39 1.44-3.48 11.54 10.87 14.74 12.48 7.19 3.59 9.97-2.37 12.43-12.35 5.98 6.76 17.07 11.5 21 6.46 6.88-8.85 5.6-25.29 3.64-36.84-.36-2.19-2.3-4.11-2.25-6.4.06-3.24 2.74-2.91 3.61-4.65 2.06-4.14 2.7-12.87 3.33-19 .66-6.43 2.03-11.39 2.59-17.88.24-2.82 1.23-11.15-.36-15.27-2.03-5.19-4.77-6.26-8.08-9.3-9.04-8.3-8.7-19.87-9.72-31.13-3.29-2.69-8.44-5.01-11.69-8.53-3.73-4.03-.64-.73-3.87-6.2-5.84-9.86-10.87-14-16.53-24.18-7.12-12.81-16.71-23.32-17.96-14.16-1.4 10.34-2.64 5.41-13.87-6.53-3.24-3.45-6.69-5.99-9.5-8.92-5.16-5.38-9.03-11.76-15.28-15.65-7.12-4.45-11.2-2.55-15.92-3.33-7.54-1.24-11.76-5.09-20.1-9.24-5.59-2.79-4.97-.22-6.85.09-2.13.36-3 .32-7.47-.69-11.74-18.27-31.17-31.45-48.29-43.6-12.88-9.14-27.2-26.58-44.8-25.76 3.22 2.75 10.51 7.13 6.91 8.2z"/></g><g class="uuid-91f92b33-f612-49fe-999f-2a5cb02e187c"><path class="uuid-8b62705b-01ff-4579-b080-3737c7ff6ce5" d="M525.45 181.6c-3.36.99-12.06-3.1-16.63-4.59-7.9-2.57-27.66-5.59-23.4-.33 9.16 11.31 32.38 7.38 46.44 12.91 9.3 3.66 18.81 14.5 23.86 19.97 7.26 7.86 16.2 13.97 25.03 19.91 12.97 8.71 31.32 21.91 34.4 37.78.65 3.35 1.74 12.4-3.31 10.9-5.27-1.58-12.21-10.18-17.88-13.91-4.18-2.76-7.88-5.11-10.57-4.03-1.59.64.34 4.07-.71 4.83-1.23.88-2.93.11-5.2.06-3.52-.08-5.83-1.55-5.91 1.39-.11 3.79 11.85 14.94 6.39 14.09-9.33-1.44-17.93-12-26.8-16.6-3.06-1.58-10.37-3.34-12.42-2.49-2.73 1.15 1.08 3.64-.4 6.08-2.23 3.68-13.75 1.44-18.73 2.8-8.8 2.4-6.86 7.88-10.1 13.56-1.06 1.86-3.17 2.66-2.21 4.99.99 2.47 4.35 3.3 5.24 5.71.96 2.59-1.26 3.74.56 7.06 1.27 2.33 4.14 6.91 6.25 9.06 3.1 3.13 3.15 2.67 7.05 3.38 5.7 1.02 7.05 1.22 13.22 4.96 10.53 6.37 13.52 4.02 22.27 5.19 2.96.4 11.12 1.36 12.73 4.43-4.87-1.06-9.89.88-3.38 7.81 1.71 1.82 5.2 2.2 7.25 3.9 2.54 2.1 4.38 4.73 5.42 7.38-3.85 1.41-8.14-1.51-5.84 5.1.87 2.48 3.94 7.17 5.76 9.86 2.93 4.31 3.97 4.54 5.61 9.55 1.78 5.46 3.54 10.96 5.37 16.27-1.67-.55-3.4-1.09-5.07-1.58.52 13.38 15.67 20.28 21.6 30.3 3.47 5.87 2.36 16.12-.08 18.08-1.77 1.43-3.17.25-4.08 3.02-.85 2.57.62 7.32-.29 10.06-1.89 5.7-7.74 4.56-10.58-1.76-3.99-8.89-3.87-14.26-3.63-22.1.08-2.2.68-8.58-1.36-11.01-1.52-1.84-4.62-.89-6.12-1.89-3.94-2.59-5.09-9.75-10.18-11.14-1.22 5.92-3.46 4.92-6.64 3.82-.81 1.99-1.79 3.88-3.24 5.15 3.04.82 6.59 2.7 9.75 4.09 1.36 9.99-6.75 4.14-5.73 12.66.99.28 2.14 1.57 3.23 1.74 1.07 7.49-2.6 5.39-5.72 8.4-1.68 1.61-1.02 2.48-1.61 5.06-.78 3.41-.24 2.69-3.13 4.8-4.87 3.57-5.16 11.5-9.03 15.85-3.83 4.31-10.61 11.31-7.79 18.06.09.25 2.01 1.32 2.37 1.91.69 1.11-.13 2.75.62 3.77 2.62 3.55 2.82.37 4.09-2.01.99-1.82 2.3-5.19 3.58-6.76 1.64-1.99 4.58-1.72 6.58-2.84 2.85-1.59 7.53-5.07 8.45 1.3.35 2.46-2.05 4.12-.93 6.79.93 2.25 3.98 3.4 5.63 3.43 1.31 4.07.47 6.08 4.6 7.72 2.3.91 4.41-.23 6.42 2.4-1.31 5.8-3.22 10.32-7.52 12.41 3.92 6.36-16.56 18.64-17.07 23.26-.58 5.35 6.45 5.35 9.13 8.19.6.64 2.12.84 2.4 1.55.76 1.98-1.67 5.08-.88 6.53 1.15 2.12 2.61.57 4.36 1.42 3.66 1.79 4.23 7.08 7.36 9.1 4.07 2.63 11.53-8.68 9.57 5.17-1.01 7.08-.95 13.21.32 20.25 1.33 7.3 4.67 4.89 7.81 9.24 1.62 2.24 1.85 6.85 2.79 9.8 1.11 3.48 3.03 6.35 4.1 9.88 1.44-.38 8.64-6.97 8.85-10.2.09-1.27-1.66-3.83-2.12-4.78 3.79-8.09 3.8-1.37 7.43-.77 3.73.62 5.78-4.8 8.4-8.06 1.39 2.41 2.46 6.22 4.04 8.26 2.26 2.89 4.33 3.69 5.8 8.55 1.66 5.54.75 11.4.54 18.03-.22 6.97-.54 6.64-3.07 13.18-2.56 6.63.08 5.07-.61 10.78-.78 6.43-8.7 13.7-10.82 21.44-.66 2.43.05 4.07-.67 6.18-1.66 4.79-7.49 10.24-8.53 15.26-1.3 6.21 3.55 3.69 3.62 8.4-3.99 3.98-19.85 15.81-15.12 21.14 1.92 2.17 10.24-1.88 13.88-5.35 4.14-3.97 5.47-8.24 5.22-12.83 8.2-8.07 2.89 8.43 7.65 9.02 4.05.5 17.31-11.94 22.16-17.2 7.86-8.51 4.55-15.29 12.6-22.85 3.09-2.9 8.43-9.22 11.28-10.51 3.93-1.76 9.28 1.61 10.67 5.96 1.12 3.54-.11 13.01 1.66 15.29 1.4 1.81 7.67-2.06 9.75-6.6 2.57-5.59-.61-5.64.17-10.61 1.31-8.36 8.71-14.71 10.76-22.47 2.93-11.08-3.83-21.03-3.49-31.79.21-6.81 5.12-13.02 4.33-20.6-.57-5.53-4.96-11.24-7.65-11.41 4.94-9.55 11.29-18.13 15.23-28.2-2.52-5.41-8.02-5.97-11.44-7.41-3.89-1.64-6.68-.8-10.62.28-1.88.5-4.38 2.3-5.67-.85 1.95-5.45 7.76-17.72 6.08-25.22-.61-2.74-2.02-3.76-3.27-5.54-1.05-1.48-5.61-4.24-5.73-4.45-2.16-4.12 1-6.56.12-12.08-1.3-8.06-5.28-10.5-1.62-17.39 4.3 4.21 8.37 7.88 12.64 11.05 5.79 4.28 8.3-3.17 9.4-12.99-.32-.55-.7-.91-1.04-1.39 1.44-3.48 11.54 10.87 14.74 12.48 7.19 3.59 9.97-2.37 12.43-12.35 5.98 6.76 17.07 11.5 21 6.46 6.88-8.85 5.6-25.29 3.64-36.84-.36-2.19-2.3-4.11-2.25-6.4.06-3.24 2.74-2.91 3.61-4.65 2.06-4.14 2.7-12.87 3.33-19 .66-6.43 2.03-11.39 2.59-17.88.24-2.82 1.23-11.15-.36-15.27-2.03-5.19-4.77-6.26-8.08-9.3-9.04-8.3-8.7-19.87-9.72-31.13-3.29-2.69-8.44-5.01-11.69-8.53-3.73-4.03-.64-.73-3.87-6.2-5.84-9.86-10.87-14-16.53-24.18-7.12-12.81-16.71-23.32-17.96-14.16-1.4 10.34-2.64 5.41-13.87-6.53-3.24-3.45-6.69-5.99-9.5-8.92-5.16-5.38-9.03-11.76-15.28-15.65-7.12-4.45-11.2-2.55-15.92-3.33-7.54-1.24-11.76-5.09-20.1-9.24-5.59-2.79-4.97-.22-6.85.09-2.13.36-3 .32-7.47-.69-11.74-18.27-31.17-31.45-48.29-43.6-12.88-9.14-27.2-26.58-44.8-25.76 3.22 2.75 10.51 7.13 6.91 8.2z"/></g><g class="uuid-91f92b33-f612-49fe-999f-2a5cb02e187c"><path class="uuid-8b62705b-01ff-4579-b080-3737c7ff6ce5" d="M338.27 574.17c2.1.54 5.39 5.49 7.34 7.74 3.36 3.88 12.85 11.8 12.28 7.65-1.23-8.91-14.78-14.26-20.46-21.68-3.75-4.9-5.32-13.69-6.25-18.2-1.33-6.48-4.11-12.58-6.89-18.55-4.07-8.75-9.57-21.6-6.13-30.99.73-1.99 3.04-7.12 5.23-4.71 2.28 2.52 3.21 9.29 5.02 13.08 1.33 2.8 2.55 5.22 4.31 5.51 1.06.16 1.12-2.27 1.92-2.33.94-.07 1.58.88 2.77 1.63 1.84 1.16 2.59 2.69 3.58 1.16 1.26-1.97-1.51-11.7 1.12-9.51 4.48 3.75 5.66 12.08 8.89 17.35 1.11 1.82 4.42 5.09 5.78 5.29 1.81.26.59-2.27 2.15-3.1 2.36-1.23 7.74 3.63 10.82 4.51 5.42 1.54 6.15-1.98 9.68-3.95 1.16-.64 2.54-.4 2.77-1.93.26-1.63-1.25-3.14-.95-4.69.33-1.68 1.87-1.58 1.97-3.92.07-1.64.02-4.98-.43-6.79-.64-2.66-.81-2.42-2.65-4.04-2.69-2.37-3.34-2.89-5.42-6.85-3.55-6.74-5.88-6.45-10.13-9.87-1.45-1.15-5.46-4.27-5.33-6.4 2.24 2.1 5.51 2.68 4.29-3.07-.33-1.51-2.06-2.82-2.59-4.38-.68-1.92-.82-3.9-.53-5.64 2.5.48 3.83 3.4 4.73-.84.33-1.58.2-5.05.1-7.05-.17-3.22-.66-3.67.09-6.85.8-3.46 1.63-6.93 2.35-10.32.71.82 1.46 1.66 2.18 2.45 4-7.25-1.82-15.75-1.75-22.95.04-4.21 3.9-9.28 5.82-9.54 1.4-.19 1.75.88 3.13-.29 1.26-1.09 2-4.07 3.37-5.23 2.83-2.41 5.56.06 5.03 4.31-.72 5.98-2.51 8.79-5.14 12.86-.74 1.14-3.1 4.33-2.79 6.26.22 1.46 2.15 1.95 2.64 2.96 1.26 2.62-.43 6.78 1.82 9.15 2.54-2.75 3.41-1.5 4.73.1 1.07-.79 2.2-1.49 3.36-1.69-1.35-1.41-2.62-3.54-3.85-5.28 2.48-5.71 4.9-.03 7.08-4.87-.43-.47-.63-1.52-1.16-1.96 1.84-4.31 3.1-2.03 5.72-2.62 1.4-.32 1.33-.99 2.46-2.17 1.52-1.56.99-1.36 3.2-1.55 3.72-.33 6.42-4.43 9.86-5.5 3.4-1.05 9.23-2.59 9.89-7.07.03-.15-.64-1.33-.65-1.76 0-.81.95-1.41.88-2.2-.25-2.72-1.37-1.09-2.8-.25-1.1.65-2.88 2.02-4.05 2.44-1.51.54-2.97-.54-4.4-.6-2.01-.06-5.6.28-4.05-3.38.6-1.42 2.4-1.53 2.67-3.3.22-1.48-1.03-3.07-1.89-3.62.61-2.57 1.7-3.37.04-5.56-.93-1.21-2.41-1.28-2.63-3.31 2.54-2.65 5.01-4.45 7.94-4.17-.03-4.62 14.72-4.57 16.47-6.85 2.02-2.65-1.7-4.9-2.22-7.26-.11-.53-.85-1.12-.77-1.58.23-1.29 2.5-2.16 2.55-3.18.06-1.48-1.2-1.13-1.85-2.14-1.37-2.12.02-5.1-1-7.17-1.31-2.69-8.86.9-3.39-5.8 2.79-3.42 4.71-6.69 6.29-10.83 1.63-4.29-.91-4.07-1.19-7.39-.15-1.7 1.21-4.21 1.66-6.08.52-2.2.42-4.33.98-6.54-.88-.26-6.8.93-7.94 2.57-.45.64-.35 2.56-.41 3.21-4.59 3.06-2.44-.49-4.17-1.97-1.77-1.53-4.59.69-7.03 1.58.04-1.72.68-4.07.5-5.66-.26-2.25-1.11-3.34-.33-6.39.88-3.45 3.24-6.27 5.47-9.72 2.34-3.62 2.41-3.34 5.83-6 3.48-2.69 1.59-2.71 3.78-5.51 2.46-3.15 8.98-4.48 12.57-7.9 1.13-1.06 1.27-2.17 2.33-3.05 2.42-2.01 7.24-3.03 9.41-5.35 2.66-2.87-.71-3.09.76-5.6 3.38-.83 15.56-2.03 14.76-6.36-.32-1.77-6.02-2.27-9.06-1.6-3.47.77-5.53 2.61-6.88 5.11-6.91 1.65 1.17-5.39-1.16-7.21-1.98-1.57-12.97.78-17.22 2.01-6.88 2-7.3 6.65-13.98 8.09-2.56.54-7.41 2.18-9.33 1.95-2.65-.32-4.39-3.81-3.75-6.56.54-2.23 4.21-6.85 4-8.63-.16-1.4-4.72-1.36-7.27.37-3.14 2.14-1.47 3.19-3.47 5.56-3.38 4.01-9.33 5.01-12.88 8.46-5.1 4.93-4.69 12.35-8.31 17.94-2.29 3.54-6.88 5.26-8.87 9.51-1.46 3.11-.97 7.54.41 8.49-5.67 3.47-11.78 5.99-17.07 10.06-.4 3.66 2.33 5.73 3.68 7.57 1.54 2.11 3.29 2.55 5.72 3.24 1.15.33 3.05.19 2.72 2.27-2.77 2.26-9.77 6.9-11.28 11.41-.55 1.64-.14 2.62-.05 3.98.09 1.11 1.61 4.03 1.61 4.18-.17 2.87-2.63 3.16-3.93 6.36-1.89 4.68-.56 7.24-4.69 9.72-.93-3.61-1.92-6.84-3.16-9.89-1.7-4.11-5.42-.97-9.13 3.88-.02.4.08.71.11 1.06-1.88 1.39-2.64-9.44-3.83-11.31-2.65-4.21-6.04-1.93-10.53 2.55-1-5.48-5.35-11.54-9.05-10.13-6.46 2.48-11.04 11.59-13.7 18.33-.5 1.29-.09 2.92-.85 4.12-1.07 1.69-2.38.66-3.4 1.3-2.41 1.54-5.54 5.95-7.84 9-2.4 3.18-4.72 5.38-7.08 8.63-1.03 1.42-4.21 5.52-4.68 8.2-.6 3.4.51 4.84 1.3 7.5 2.13 7.28-1.74 13.3-4.8 19.58.89 2.48 2.87 5.36 3.47 8.26.69 3.32.1.58.07 4.52-.06 7.08 1.28 10.88 1.02 18.08-.33 9.06 1.4 17.69 4.98 13.24 4.05-5.03 3.13-2.02 5.25 7.89.61 2.86 1.63 5.31 2.18 7.76 1.01 4.49 1.01 9.1 3.08 13.17 2.35 4.64 5.11 4.93 7.36 6.84 3.59 3.07 4.6 6.46 7.68 11.31 2.07 3.27 2.55 1.71 3.66 2.15 1.25.49 1.7.79 3.73 2.75.38 13.42 6.46 26.62 11.64 38.51 3.9 8.95 5.91 22.76 15.48 27.95-.83-2.48-3.28-7.14-1.05-6.55z"/></g><g class="uuid-7e620c8b-7c6b-44a5-bdc7-89f7aaf9c5f6"><path class="uuid-8b62705b-01ff-4579-b080-3737c7ff6ce5" d="M717.28 623.99c-1.96-1.94.13-5.56.67-7.53.91-3.41 1.95-12-4.3-11.62-9.7.59-1.3 16.41-2.89 20.96-1.49 4.24-9.02 7.59-12.7 9.68-5.53 3.14-6.92 5.63-9.73 11.94-3.48 7.81-9.21 17.6-18.52 18.7-2.92.35-10.36 1.27-11.9-1.82-1.6-3.24 2.56-7.53 3.14-10.88.44-2.49.87-4.63-1.49-6.29-1.4-.99-3.75.09-5.01-.59-1.47-.78-1.55-1.78-2.61-3.18-1.62-2.16-1.24-3.53-4.17-3.69-3.74-.21-7.68 7.6-10.55 3.7-3.18-4.31 3.62-11.98 4.03-16.21.19-1.92-.73-6.18-2.36-7.53-2.2-1.8-3.31.37-6.36-.74-4.59-1.68-6.48-8.81-9.52-12.12-5.37-5.84-10.38-5.18-17.31-7.86-2.28-.88-3.76-2.36-5.91-1.92-2.27.47-2.07 2.65-4.28 3.1-2.38.48-4.31-1.13-7.14-.02-1.98.75-5.7 2.6-7.11 4.04-2.06 2.13-1.57 2.19-.71 4.95 1.24 4.03 1.58 4.93.67 9.41-1.57 7.64 2.37 9.7 5.86 15.82 1.18 2.07 4.76 7.71 2.83 9.12-1.8-3.42-6.5-6.79-9.2-1.46-.7 1.4 1 3.86.68 5.49-.37 2.03-1.6 3.68-3.31 4.82-3.69-2.41-3.72-5.92-8.2-3.18-1.69 1.02-3.89 4.04-5.04 5.86-1.84 2.91-1.33 3.67-4.45 5.97-3.41 2.51-6.74 5.16-9.68 7.94-.78-1.3-1.6-2.65-2.39-3.93-10.97 3.39-4.04 17.58-6.68 24.49-1.74 4.52-9.24 7.92-12.67 7.22-2.5-.5-2.9-1.92-5.56-1.26-2.47.6-4.34 3.72-6.92 4.46-5.39 1.53-9.93-2.67-8.11-7.57 2.57-6.9 6.66-9.25 12.67-12.3 1.68-.87 6.96-2.96 7.26-5.25.21-1.72-2.9-3.51-3.27-4.93-.98-3.7 4-6.98 1.51-11.1-5.8 1.08-6.6-.83-7.93-3.55-2.24.09-4.54.04-6.62-.56 1.46 2.55 2.49 5.84 3.73 8.63-7.08 4.76-8.48-3.44-14.49.99.53.85.4 2.24 1.12 3.1-5.05 4.04-6.24.55-11.04-.28-2.56-.44-2.72.46-5.18 1.32-3.26 1.15-2.26 1.19-6.19.21-6.64-1.64-12.91 2.63-19.37 2.51-6.39-.12-17.44-.36-19.8 6.57-.09.24.82 2.38.74 3.07-.17 1.29-2.04 1.94-2.05 3.23-.09 4.45 2.26 2.16 5.01 1.29 2.11-.68 5.59-2.14 7.79-2.34 2.81-.26 5.21 1.93 7.74 2.55 3.59.88 9.98 1.75 6.65 6.43-1.28 1.81-4.53 1.36-5.21 3.86-.55 2.1 1.58 4.79 3.1 5.82-1.23 3.53-3.19 4.45-.16 7.99 1.68 1.97 4.32 2.41 4.87 5.32-4.39 3.19-8.52 5.42-13.84 4.65.69 6.82-25.68 6.34-28.18 10.16-2.9 4.43 4.49 7.61 6.28 11.19.4.8 1.93 1.61 1.97 2.34.11 2-3.52 3.69-3.14 5.25.54 2.27 2.59 1.51 4.21 2.89 3.38 2.93 2.52 7.58 5.42 10.36 3.75 3.6 14.24-2.99 9.18 7.47-2.58 5.35-3.52 10.44-2.86 16.51.68 6.3 4.62 5.17 7.85 9.37 1.65 2.17 1.73 5.83 2.75 8.35 1.2 2.96 3.37 5.56 4.69 8.49 1.56-.02 9.29-3.52 9.54-5.87.11-.94-1.75-3.26-2.23-4.08 4.42-5.17 4.22-.09 8.18 1.25 4.07 1.4 6.53-1.99 9.63-3.57 1.35 2.09 2.34 5.05 4.01 6.9 2.36 2.62 4.59 3.69 6.21 7.41 1.84 4.21 1.04 8 1.34 12.51.32 4.74-.05 4.42-1.92 8.49-1.87 4.13.75 3.51 1.03 7.33.32 4.28-6.56 8.3-6.69 13.44-.04 1.61 1.2 2.82 1.06 4.21-.32 3.15-4.57 6.52-3.83 9.91.94 4.2 4.97 2.69 6.87 5.86-2.51 2.49-13.1 10.38-5.93 13.86 2.91 1.4 9.13-1.25 11.21-3.45 2.37-2.5 1.96-5.21-.09-8.28 5.15-4.96 6.33 5.65 11.35 6.27 4.27.53 12.98-6.45 16.27-9.26 5.33-4.54 0-9.26 6.69-12.76 2.57-1.34 6.91-4.32 9.7-4.59 3.85-.35 10.2 2.74 12.57 5.59 1.94 2.33 2.88 7.72 5.32 9.38 1.94 1.3 7.53.11 8.71-2.13 1.44-2.75-1.94-3.4-2.06-6.12-.24-4.59 6.6-6.59 8.02-10.48 2.36-6.52-6.5-12.55-5.91-18.83.35-3.8 5.54-5.69 5.09-10.06-.33-3.17-4.55-7.72-7.47-8.73 6.2-4.07 14.21-5.17 20.25-9.25-1.72-3.65-7.44-6.08-10.78-8.16-3.8-2.37-6.96-3.05-11.38-4.04-2.11-.47-5.19-.5-5.87-2.7 3.27-2.12 12.5-5.96 12.97-10.35.17-1.61-.96-2.72-1.7-4.14-.62-1.19-4.44-4.58-4.49-4.73-.85-2.99 3.25-2.73 4.42-5.72 1.7-4.38-1.26-7.46 5.35-8.68 2.5 3.97 5.15 7.55 8.3 10.98 4.25 4.62 9.53 2.45 14.63-1.05-.09-.39-.33-.71-.48-1.08 2.89-.72 7.44 9.97 10.13 12.12 6.04 4.8 10.95 3.55 17.27.91 3.48 5.39 12.36 11.86 19.07 12.14 6.79.29 14.64-5.73 18.07-10.96.57-.88-.5-2.42.57-3.11 1.51-.98 4.01.45 5.65.35 3.9-.23 8.62-2.43 12.24-3.79 3.79-1.41 7.61-2 11.55-3.31 1.71-.57 7.1-2.02 7.9-3.75.99-2.2-.95-3.82-2.17-6.19-3.99-7.75 4.84-8.23 10.41-11.02-1.13-2.2-4.01-5.34-4.41-7.64-.46-2.63-.1-.47.95-3.03 1.89-4.6.76-7.88 3.87-12.1 3.91-5.29 5.15-11.35-2.95-11.3-9.14.07-6.56-1.13-4.94-8.26.47-2.06.14-4.15.64-5.9.92-3.18 3.76-5.56 3.11-9.17-.75-4.11-4.9-6.39-7.09-9.09-3.5-4.31-2.57-6.73-3.42-11.41-.57-3.13-2.55-2.85-3.89-3.94-1.51-1.23-1.97-1.75-3.39-4.29 8.98-4.6 15.09-15.43 20.8-23.31 3.61-5 17.89-11.36 12.63-18.95-2.09 1.03-4.71 3.9-6.81 1.82z"/></g><g class="uuid-7e620c8b-7c6b-44a5-bdc7-89f7aaf9c5f6"><path class="uuid-8b62705b-01ff-4579-b080-3737c7ff6ce5" d="M227.45 338.76c-.75.11-1.19-.95-1.53-1.4-.59-.76-2.29-2.42-3.25-.99-1.47 2.2 3.36 3.01 4.08 4.11.67 1.02.15 3.22 0 4.37-.24 1.72.08 2.44.97 4.1 1.13 2.06 2.3 4.94.99 7.13-.41.7-1.45 2.47-2.38 2.29-.97-.19-1.21-1.81-1.84-2.5-.47-.5-.86-.95-1.61-.72-.45.15-.61.83-.96 1-.41.19-.64.04-1.13.03-.73 0-.97-.31-1.5.29-.67.78.38 2.93-.94 2.91-1.47-.03-2-2.78-2.86-3.58-.39-.36-1.46-.86-2.03-.73-.76.18-.47.78-1.22 1.25-1.13.72-2.99-.05-4.21.05-2.17.2-2.86 1.4-4.59 2.46-.57.35-1.15.43-1.4.95-.27.58.23.9-.03 1.46-.29.59-.97.74-1.2 1.54-.16.55-.38 1.67-.29 2.21.12.81.22.71.95.98 1.09.4 1.34.48 2.15 1.43 1.41 1.61 2.51 1.09 4.42 1.35.66.09 2.47.25 2.46.91-1.04-.18-2.56.28-1.85 1.75.19.38 1 .43 1.31.76.37.43.54.96.49 1.53-1.13.39-1.9-.18-2.06 1.25-.05.54.23 1.51.44 2.07.33.88.58.9.56 1.96-.02 1.16 0 2.32.12 3.42-.42-.05-.84-.09-1.25-.13-1.09 2.94 3.14 3.79 4.21 5.53.7 1.13.19 3.32-.54 3.95-.52.46-.91.31-1.19 1-.29.64.08 1.56-.19 2.24-.57 1.43-2.23 1.72-2.99.5-1.06-1.7-.9-2.98-.57-4.8.09-.51.52-2 .07-2.45-.34-.33-1.25.05-1.62-.11-.96-.4-.85-2.03-2.16-2.17-.74 1.44-1.28 1.3-2.1 1.14-.35.49-.74.99-1.22 1.34.79.11 1.68.43 2.49.63-.14 2.32-2.16 1.26-2.19 3.31.27.02.55.29.85.28.04 1.76-.92 1.44-1.89 2.35-.53.48-.36.67-.57 1.34-.29.89-.12.68-.99 1.38-1.46 1.17-1.57 3.24-2.68 4.62-1.09 1.37-2.97 3.73-1.86 5.4.04.05.66.21.8.34.24.26.08.77.35.99.96.76.85-.13 1.12-.88.2-.57.47-1.57.78-2.08.42-.65 1.3-.81 1.85-1.26.78-.64 2.04-1.88 2.5-.37.18.57-.46 1.21-.02 1.77.36.47 1.3.46 1.78.29.56.85.43 1.44 1.71 1.36.71-.04 1.24-.54 1.96-.18-.04 1.48-.24 2.75-1.3 3.79 1.6.99-2.88 6.63-2.47 7.81.47 1.37 2.4.29 3.47.49.24.05.67-.15.84-.03.45.3.22 1.38.62 1.56.58.26.75-.32 1.33-.43 1.2-.25 2.06.71 3.15.54 1.41-.22 1.71-3.6 3.15-.75.74 1.45 1.68 2.5 3.12 3.36 1.47.9 1.89-.14 3.34-.14.75 0 1.56.59 2.27.78.85.23 1.76.19 2.62.39.26-.34.78-2.6.32-3.05-.19-.18-1.01-.16-1.27-.19-.39-1.82.68-.93 1.64-1.57.98-.65.65-1.75.81-2.69.68.06 1.5.34 2.17.28.97-.08 1.57-.38 2.65-.12 1.23.29 1.91 1.1 2.94 1.78 1.08.72.95.75 1.53 1.83.58 1.09.89.42 1.76.99.98.64.71 2.8 1.81 3.69.35.28.81.21 1.09.47.63.59.65 2.08 1.51 2.48 1.08.49 1.42-.64 2.41-.52.13.95.09 4.57 2.03 3.59.79-.4 1.25-2.2 1.12-3.01-.15-.93-.81-1.3-1.82-1.36-.22-1.95 2.28-.43 3.25-1.43.82-.84.75-3.89.68-5.08-.09-1.91-2.01-1.54-1.65-3.57.13-.78.21-2.23.62-2.88.56-.9 2.29-1.76 3.3-1.8.83-.04 2.16.67 2.93.4.61-.2 1.27-1.62.99-2.24-.36-.78-1.06-.15-1.68-.57-1.02-.71-.33-2.53-.94-3.48-1.03-1.59-3.81-.67-5.08-1.84-.77-.71-.31-2.16-1.33-2.79-.75-.45-2.44-.29-3.13.17.15-2.03 1.23-3.94 1.35-5.94-1.09-.23-2.56.61-3.56.99-1.15.43-1.82 1.01-2.78 1.81-.45.38-.96 1.04-1.56.82.09-1.06.79-3.7-.09-4.53-.33-.31-.75-.25-1.18-.33-.36-.06-1.73.2-1.78.19-.78-.32-.05-1.16-.5-1.92-.66-1.09-1.82-.96-.99-2.61 1.28.12 2.5.14 3.77.02 1.71-.16 2.12-1.67 2.2-3.35-.1-.05-.22-.05-.32-.08.32-.75 3.41.04 4.31-.19 2.06-.52 2.6-1.79 3.07-3.61 1.75.14 4.64-.71 5.8-2.12 1.2-1.43 1.2-4.14.63-5.76-.09-.26-.61-.29-.58-.64.04-.49.77-.8 1.02-1.17.6-.89.9-2.27 1.21-3.28.33-1.06.83-1.99 1.2-3.06.17-.48.75-1.89.5-2.35-.31-.57-.99-.43-1.71-.55-2.35-.43-.98-2.42-.67-4.09-.66-.13-1.82-.02-2.39-.32-.65-.33-.12-.06-.5-.71-.69-1.18-1.59-1.48-1.99-2.86-.49-1.74-1.61-3.01-2.94-1.24-1.51 2-1.33 1.24-2.62-.3-.36-.44-.88-.72-1.17-1.12-.54-.72-.59-1.75-1.48-2.2-1.02-.52-2.21 0-3.15.03-1.53.05-1.89-.55-3.05-1.15-.78-.4-1.05.08-1.51.19-.53.12-.71.14-1.5.03.49-2.72-.85-5.84-1.61-8.4-.48-1.62.5-5.78-2.02-5.9-.12.62.07 1.67-.73 1.78z"/></g><g class="uuid-7e620c8b-7c6b-44a5-bdc7-89f7aaf9c5f6"><path class="uuid-8b62705b-01ff-4579-b080-3737c7ff6ce5" d="M152.31 240.6c-.27.03-.43-.34-.56-.51-.21-.28-.82-.88-1.17-.36-.55.82 1.21 1.1 1.48 1.51.24.37.05 1.17 0 1.59-.09.63.02.89.35 1.5.41.74.84 1.79.36 2.6-.15.26-.52.9-.86.83-.35-.06-.44-.66-.68-.91-.17-.19-.3-.35-.59-.26-.16.05-.22.3-.34.36-.15.06-.23 0-.41 0-.28 0-.36-.12-.55.11-.24.29.15 1.06-.34 1.06-.53-.02-.74-1.01-1.04-1.3-.15-.13-.54-.32-.75-.27-.28.07-.17.29-.44.46-.41.26-1.09-.02-1.53.02-.79.07-1.05.5-1.68.9-.21.12-.42.15-.52.35-.09.2.09.33 0 .53-.11.21-.35.27-.43.56-.05.2-.14.61-.11.82.05.29.07.26.35.35.4.15.49.17.78.52.51.59.92.4 1.61.5.23.03.89.09.89.33-.38-.07-.94.1-.68.63.07.15.36.16.48.29.13.15.19.35.18.55-.41.15-.7-.06-.75.46-.02.19.09.56.16.75.12.33.21.33.2.72-.02.42 0 .84.04 1.24-.15-.02-.3-.03-.46-.05-.4 1.08 1.15 1.38 1.54 2.02.25.41.06 1.21-.2 1.44-.19.17-.33.12-.43.36-.1.23.03.57-.07.82-.21.51-.81.63-1.09.18-.4-.62-.33-1.09-.21-1.75.03-.19.19-.73.02-.89-.12-.12-.45 0-.59-.04-.35-.15-.31-.75-.79-.79-.26.52-.47.47-.76.41-.12.19-.27.36-.44.49.29.04.61.15.91.23-.05.84-.78.46-.81 1.2.11 0 .22.1.32.1.02.64-.33.53-.69.86-.19.18-.12.24-.21.49-.1.33-.04.25-.35.5-.54.43-.58 1.18-.98 1.68s-1.09 1.36-.68 1.97c.02.02.23.08.29.13.09.09.04.27.13.35.35.28.31-.05.4-.32.08-.21.17-.57.29-.75.15-.25.47-.3.67-.47.29-.23.75-.68.92-.14.06.21-.17.44 0 .64.12.18.47.16.64.12.22.3.17.51.64.49.25-.02.46-.19.71-.06-.02.54-.09 1-.47 1.37.58.36-1.06 2.43-.9 2.86.17.5.88.1 1.27.18.09.02.25-.05.3-.02.16.12.08.5.23.57.2.09.27-.12.48-.15.43-.1.75.26 1.14.19.52-.08.62-1.31 1.16-.28.26.53.61.92 1.13 1.23.54.32.68-.06 1.21-.06.28 0 .57.22.84.29.3.09.64.07.95.15.09-.12.29-.95.12-1.12-.07-.06-.37-.05-.46-.07-.15-.66.25-.33.59-.57.36-.24.24-.64.29-.98.26.02.55.12.8.09.35-.02.57-.14.96-.04.44.11.71.4 1.07.64.39.27.35.28.56.68.22.4.33.15.64.36.36.24.26 1.02.66 1.35.12.1.29.08.4.17.23.22.24.76.55.91.39.18.52-.23.89-.19.04.35.02 1.67.74 1.31.29-.15.46-.8.41-1.09-.05-.34-.29-.48-.67-.5-.07-.71.83-.15 1.19-.52.29-.3.27-1.42.25-1.85-.03-.7-.73-.56-.6-1.3.05-.29.07-.81.22-1.05.2-.33.83-.64 1.2-.65.3-.02.78.23 1.06.15.22-.08.46-.59.36-.82-.15-.28-.39-.06-.61-.21-.38-.26-.12-.92-.34-1.27-.39-.58-1.4-.25-1.85-.67-.28-.26-.12-.78-.49-1.02-.28-.15-.89-.11-1.14.06.05-.74.45-1.44.49-2.16-.4-.09-.93.21-1.3.36-.41.15-.66.36-1.01.65-.16.15-.35.38-.57.31.03-.4.29-1.36-.03-1.66-.12-.11-.29-.09-.43-.12-.14-.02-.64.07-.65.07-.29-.12-.02-.43-.18-.71-.24-.39-.67-.34-.36-.94.47.04.91.05 1.37 0 .62-.05.78-.61.8-1.21-.03-.02-.08-.02-.11-.03.12-.28 1.24 0 1.57-.07.75-.19.94-.65 1.12-1.32.64.05 1.69-.26 2.12-.77.43-.53.43-1.51.22-2.1-.03-.1-.22-.11-.21-.23.02-.18.28-.29.36-.43.22-.32.33-.83.44-1.2.12-.38.3-.73.43-1.12.06-.17.28-.68.19-.85-.12-.22-.36-.16-.62-.2-.85-.15-.36-.88-.24-1.5-.25-.04-.67 0-.88-.11-.24-.12-.04-.02-.18-.26-.26-.43-.58-.54-.72-1.04-.19-.64-.59-1.1-1.08-.46-.55.74-.49.46-.95-.1-.13-.16-.32-.26-.43-.41-.19-.26-.22-.64-.54-.8-.36-.19-.8 0-1.15 0-.55.02-.69-.2-1.1-.43-.29-.14-.4.03-.56.08-.19.04-.25.05-.54 0 .18-.99-.31-2.13-.59-3.06-.19-.59.19-2.1-.75-2.15-.04.22.02.61-.26.65z"/></g><g class="uuid-7e620c8b-7c6b-44a5-bdc7-89f7aaf9c5f6"><path class="uuid-8b62705b-01ff-4579-b080-3737c7ff6ce5" d="M408.41 159.01c-.27.04-.43-.35-.55-.51-.22-.27-.84-.88-1.18-.36-.54.81 1.22 1.09 1.48 1.5.24.37.05 1.17 0 1.6-.09.62.02.88.35 1.49.41.74.84 1.79.36 2.6-.15.25-.53.89-.87.83-.36-.07-.44-.65-.68-.91-.17-.19-.31-.35-.58-.26-.17.05-.22.3-.36.36-.15.08-.23.02-.4.02-.26 0-.35-.12-.54.11-.25.29.14 1.07-.35 1.06-.54-.02-.73-1.02-1.05-1.3-.13-.13-.53-.32-.73-.27-.28.07-.17.28-.44.46-.42.26-1.09-.02-1.54 0-.8.08-1.05.52-1.68.9-.22.13-.42.16-.51.36-.1.2.08.33-.02.52-.11.22-.35.28-.43.57-.05.2-.13.61-.11.81.04.29.08.26.35.36.4.16.49.18.79.52.51.59.91.4 1.61.5.23.02.9.09.89.33-.38-.06-.93.1-.68.64.07.13.36.16.47.27.14.16.2.35.18.56-.41.15-.69-.06-.74.46-.02.19.09.55.16.75.12.33.21.33.21.71-.02.43 0 .85.03 1.25-.14-.02-.3-.04-.45-.05-.4 1.08 1.14 1.4 1.53 2.02.26.41.08 1.21-.19 1.44-.19.16-.32.11-.43.36-.1.23.03.57-.07.82-.2.51-.81.62-1.09.18-.4-.62-.33-1.09-.21-1.75.04-.19.19-.73.02-.89-.12-.12-.45.02-.58-.05-.36-.14-.31-.74-.79-.79-.26.53-.47.47-.77.42-.12.18-.26.36-.44.49.29.04.61.15.91.22-.05.85-.78.47-.8 1.21.1 0 .2.11.32.09 0 .65-.34.53-.69.86-.19.18-.12.24-.22.5-.1.33-.04.25-.35.5-.54.43-.57 1.19-.98 1.69-.4.5-1.09 1.36-.68 1.96.02.02.24.09.29.12.09.09.03.29.13.36.35.27.31-.05.41-.32.07-.21.16-.58.29-.76.15-.24.47-.29.67-.46.29-.23.74-.69.91-.14.07.22-.16.44 0 .65.12.16.47.16.64.1.2.31.16.52.62.5.26-.02.45-.19.72-.06-.02.54-.09 1-.47 1.37.58.36-1.06 2.42-.9 2.86.17.5.87.11 1.26.18.09.02.24-.05.3-.02.17.12.09.5.23.57.22.1.29-.12.49-.16.43-.09.75.26 1.15.2.51-.08.62-1.3 1.15-.27.26.53.61.91 1.13 1.23.54.33.7-.05 1.22-.05.27 0 .57.22.83.29.3.09.64.08.95.14.09-.12.29-.94.12-1.11-.07-.06-.36-.06-.46-.07-.15-.66.24-.34.59-.57.36-.24.24-.64.3-.98.25.02.54.12.79.09.35-.03.57-.14.96-.04.45.1.7.4 1.07.65.4.26.35.27.56.67.21.4.33.15.64.36.36.23.26 1.02.66 1.34.12.1.29.08.4.18.23.22.24.76.56.9.39.19.51-.23.88-.19.05.35.03 1.66.74 1.31.29-.15.45-.8.41-1.1-.06-.34-.29-.47-.67-.5-.08-.71.84-.15 1.18-.51.31-.31.29-1.42.26-1.85-.04-.7-.74-.56-.61-1.3.05-.29.07-.81.23-1.05.2-.33.84-.64 1.2-.66.3-.02.78.24 1.06.15.22-.08.47-.6.36-.82-.13-.28-.39-.05-.62-.21-.37-.26-.12-.92-.34-1.27-.37-.57-1.38-.24-1.85-.67-.28-.26-.11-.79-.49-1.02-.27-.17-.88-.11-1.14.06.05-.74.44-1.44.49-2.17-.4-.09-.93.22-1.3.36-.41.15-.66.36-1 .65-.17.14-.36.38-.57.3.02-.39.28-1.34-.04-1.66-.12-.11-.28-.08-.43-.12-.13-.02-.63.09-.65.08-.28-.12-.02-.42-.18-.71-.25-.4-.67-.34-.36-.95.47.05.91.06 1.37 0 .63-.05.77-.6.81-1.22-.05-.02-.09-.02-.12-.03.12-.26 1.24.02 1.58-.07.74-.19.95-.65 1.12-1.31.64.05 1.68-.26 2.12-.78.43-.51.43-1.51.23-2.1-.03-.09-.22-.1-.21-.23 0-.18.27-.29.37-.43.22-.33.32-.83.43-1.2.12-.39.3-.73.44-1.12.06-.17.26-.68.19-.85-.12-.21-.36-.15-.63-.2-.86-.15-.36-.88-.24-1.49-.25-.05-.68 0-.88-.12-.23-.12-.04-.02-.18-.26-.25-.43-.57-.54-.73-1.04-.18-.64-.58-1.1-1.07-.46-.54.73-.48.45-.95-.11-.13-.16-.32-.26-.43-.4-.19-.26-.21-.64-.54-.81-.37-.19-.81 0-1.16.02-.54.02-.68-.21-1.11-.42-.29-.15-.38.03-.55.07-.19.04-.26.05-.54 0 .18-.99-.3-2.13-.58-3.06-.18-.59.18-2.1-.74-2.15-.05.23.02.61-.27.65z"/></g><g class="uuid-7e620c8b-7c6b-44a5-bdc7-89f7aaf9c5f6"><path class="uuid-8b62705b-01ff-4579-b080-3737c7ff6ce5" d="M428.72 258.54c-.06-.26.31-.47.46-.61.26-.23.79-.91.24-1.2-.85-.46-.97 1.33-1.35 1.63-.34.28-1.16.17-1.58.15-.63-.02-.88.12-1.46.51-.69.48-1.7 1.01-2.55.61-.27-.12-.95-.43-.92-.78.04-.36.61-.5.84-.76.16-.19.32-.35.21-.61-.07-.15-.33-.19-.4-.32-.09-.14-.04-.23-.05-.4-.02-.27.08-.36-.16-.54-.31-.22-1.05.24-1.09-.24-.04-.53.94-.82 1.19-1.16.12-.15.27-.57.19-.76-.09-.27-.29-.15-.49-.4-.3-.39-.09-1.09-.18-1.53-.15-.78-.61-.99-1.06-1.58-.14-.2-.19-.4-.4-.47-.22-.08-.31.12-.53.04-.23-.09-.3-.32-.6-.38-.21-.04-.63-.08-.81-.03-.29.08-.26.11-.32.39-.11.4-.12.5-.45.84-.52.57-.29.94-.33 1.64 0 .24 0 .9-.24.92.02-.38-.19-.92-.7-.61-.13.09-.12.37-.23.5-.13.15-.33.23-.53.23-.19-.4 0-.7-.53-.7-.2 0-.54.14-.74.23-.31.15-.3.25-.69.27-.43.04-.84.09-1.23.17v-.46c-1.1-.29-1.26 1.27-1.85 1.72-.39.29-1.2.19-1.46-.05-.19-.18-.15-.32-.4-.4-.25-.08-.56.09-.82.02-.54-.15-.7-.75-.28-1.07.57-.45 1.04-.43 1.71-.38.18.02.74.12.88-.06.11-.13-.07-.45-.02-.58.12-.37.71-.39.71-.87-.54-.22-.52-.41-.48-.72-.2-.11-.4-.23-.54-.39-.02.29-.1.63-.14.93-.85.03-.54-.74-1.28-.68 0 .09-.09.21-.06.32-.64.08-.57-.28-.92-.6-.2-.17-.26-.1-.51-.16-.33-.08-.26-.02-.54-.31-.47-.49-1.23-.45-1.77-.8-.54-.34-1.46-.95-2.03-.48 0 .02-.05.25-.09.3-.09.1-.27.06-.34.17-.24.37.08.29.36.37.22.05.59.11.78.21.26.12.34.43.53.62.26.26.75.67.23.89-.2.09-.46-.12-.64.06-.16.15-.12.48-.04.65-.29.23-.5.21-.43.67.04.26.24.43.13.71-.54.03-1 0-1.41-.34-.3.62-2.51-.81-2.93-.61-.48.22-.03.88-.05 1.28-.02.09.08.24.05.3-.1.18-.5.13-.54.29-.08.22.13.26.2.46.13.43-.19.78-.09 1.16.13.5 1.37.5.39 1.12-.5.32-.85.7-1.1 1.25-.28.57.12.68.17 1.21.03.27-.16.58-.2.85-.05.31 0 .64-.05.96.13.08.96.19 1.12 0 .05-.08.02-.37.02-.47.65-.21.36.21.63.53.28.33.66.18 1.01.2 0 .26-.07.56-.02.8.06.35.19.55.14.95-.07.46-.33.74-.54 1.13-.23.42-.24.37-.61.62-.38.26-.12.34-.3.68-.19.38-.99.36-1.27.8-.08.13-.05.29-.13.4-.19.25-.73.31-.85.64-.12.4.28.49.28.85-.34.09-1.65.19-1.23.86.17.28.84.38 1.13.31.33-.09.43-.35.43-.71.7-.15.23.81.64 1.13.33.27 1.44.13 1.86.06.69-.1.49-.78 1.23-.73.29.03.81 0 1.07.12.34.17.71.76.77 1.13.05.29-.16.81-.04 1.07.09.22.64.4.85.28.27-.16 0-.39.14-.63.23-.4.92-.22 1.23-.47.54-.43.1-1.4.49-1.91.23-.3.76-.19.95-.58.14-.29.02-.89-.17-1.13.73-.02 1.47.31 2.2.28.05-.4-.32-.91-.5-1.26-.19-.4-.43-.63-.75-.95-.16-.15-.41-.31-.35-.54.38 0 1.37.15 1.65-.19.09-.13.05-.28.07-.44 0-.13-.14-.62-.14-.64.09-.3.43-.06.68-.26.38-.28.28-.7.91-.46 0 .47.05.91.13 1.37.12.62.68.71 1.3.67v-.11c.28.09.11 1.23.23 1.56.26.72.74.88 1.42.98 0 .64.43 1.66.98 2.03.57.38 1.55.29 2.11.02.09-.05.08-.23.21-.24.19 0 .32.25.47.33.34.19.86.25 1.23.32.4.09.74.23 1.15.33.18.04.71.2.87.1.21-.13.12-.38.14-.64.08-.87.85-.44 1.46-.39.02-.25-.06-.67.03-.88.1-.25.02-.05.24-.21.4-.29.48-.63.96-.82.61-.25 1.04-.7.34-1.12-.78-.47-.5-.43.02-.95.14-.15.23-.35.36-.47.24-.22.61-.27.74-.61.16-.39-.09-.8-.12-1.14-.08-.55.13-.71.3-1.15.12-.3-.07-.37-.12-.54-.06-.18-.07-.26-.06-.53 1.01.08 2.1-.52 2.99-.89.57-.24 2.11-.02 2.06-.96-.23 0-.61.09-.68-.19z"/></g><path class="uuid-c50ed6bb-2d24-4bb7-afbc-6192a6a20909" d="M277.2 564.03c-10.57-.28-38.76 15.06-41.57-3.58-6.22 2.29-9.64 10.86-16.73 11.79-3.86.51-13.09-5.42-16.27-7.26-5.77-3.34-1.6-7.67-9.35-4.73-3.03 1.15-6.7 8.54-9.55 10.91-3.99-3.08-12.84-7.49-12.49 1.6.19 4.8 9.89 11.1 13.42 13.31l-2.35 3.91c-8.21-1.49-15.09 15.26-6.25 20.15 7.95-4.24 12.14-12.91 19.55-17.78 6.99-4.61 7.26-2.85 14.15-1.64-.16-.02 11 3.14 10.3 2.54 3.69 3.17 6.23 4.03.62 8.43-5.19 4.11-7.51-.64-13.75-.39-8.89.36-24.55 13.38-22.15 23.87.64-.18 1.27-.37 1.87-.59-7.88 9.09 2.06 21.39 14.34 12.55 2.34-1.69.46-4.57 2.38-7.18 2.86-3.88 9.96-12.3 14.64-13.51 3.93-1.02 13.78.78 15.94 1.69 1.67.71 3.65.12 6.33 1.54 1.98 1.05 2.93 5.92 5.65 7.29 3.76 1.9 16.75-.09 16-8.49-.61-6.87-10.37-2.51-12.38-11.24-1.44-6.25 8.91-6.88 1.65-12.62 8.41-.91 13.63-5.49 21.53-6.62 5.89-.84 10.31 3.53 15.85.45-7.69-10.3-21.8-10.54-11.38-24.41z"/><g class="uuid-7e620c8b-7c6b-44a5-bdc7-89f7aaf9c5f6"><path class="uuid-8b62705b-01ff-4579-b080-3737c7ff6ce5" d="M730.73 210.36c-.84-.09-1.67-.22-2.48-.39.29.56.65 1.16 1.09 1.79.72-.21 1.19-.68 1.38-1.4z"/><path class="uuid-8b62705b-01ff-4579-b080-3737c7ff6ce5" d="M625.25 162.68c6.53 2.2 3.73 7.84 11.32 1.19 6.31-5.53 4.04-9.91-2.31-14.29 6.96-1.31 17.89-4.59 25.06-1.85 5.49 2.1 9.44 8.51 14.71 11.26 14.58 7.59 20.94-2.62 17.79-17.1 6.03 5.25 13.29 10.67 14.5 18.85 1.22 8.2-4.27 15.14-1.87 23.28 3.51 12 10.9 23.37 23.8 25.97-4.04-7.71 4.94-8.97 6.84-14.62 1.93-5.74 0-13.99-4.95-18.71-3.19-3.03-13.31-2.95-13.82-10.08-.51-7.27 9.94-10.61 15.48-10.02 1.72-10.25-10.03-12.93-15.6-18.86 3.99-4.49 12.37-9.63 15.08-15.08 5.69-11.45-5.26-17.95-13.53-25.51-12.45-11.36-25.1-21.36-39.37-30.09-3.94-2.41-7.68-5.24-11.33-8.23-107-59.04-233.02-71-347.76-35.92 3.45 5.61 3.61 14.25 10.13 19.04 3.17-.57 9.93-1.26 13.89.07 3.46 1.16 7.85 5.8 11.16 6.44 10.1 1.95 26.2-8.35 36.09-1.64 4.82 3.27 2.97 6.96 9.25 9.36 8.3 3.17 14.35-1.3 12.54 7.99-.4 2.15-4.99 3.96-6.02 5.88-1.98 3.72-1.07 8.06-1.69 9.67-1.98 5.14-8.38 9.9-2.65 16.49-1.22 1-2.22 3-3.52 3.92 3.97 2.66 18.17 15.4 22.5 13.49 7.25 9.34 25.02-13.49 34.64-17.13 6.76 5.36 2.97 12.67 4.43 18.34 9.97-8.71 41.27-45.98 45.85-12.38 1.02 7.4-.92 7.5-5.91 13.35-5 5.86-7.43 10.99-11.29 16.78-6.92 10.37-19.66 16.7-30.08 26-4.35-2.52-31.27-9.46-20.57 1.81-2.14 1.09-3.27 3.69-5.91 4.53 1.45 1.44 2.06 4.52 3.75 5.98-2.53 1.81-9.82 5.56-11.07 9.01-1.4 3.84 3.92 4.55 2.95 8.16-1.97 7.32-13.15 14.44-6.02 22.97 9.06-6.86 6.65-17.86 14.2-21.83.41-.21 3.36 4.32 3.65 4.24 2.24-.69 7.6-6.75 6.77-6.58 3.94-.82 4.76-2.38 8.24 2.26 7.47-5.35 7.6-16.23 15.1-21.12 6.98-4.56 7.3-.29 14.46-.54-.35-.54-.72-1.07-1.13-1.57 4.82-7.57 11.22-1.36 17.27-2.55 3.93-.78 7.56-2.41 10.47-6.92 1.47-2.27-.58-7.7 1.7-9.41 15.64-11.66 10.3 21.09 13.34 25.68 9.92-6.88 1.23-16.51 9.35-19.8 4.64-1.89 24.08 5.4 15.18-10.18 4.71-1.56 15.63.72 19.8 4.45 5 4.47 4.14 1.69 2.34 9.96-1.96 8.97-17.89 28.08-15.91 36.6 1.28 5.54 8.28 5.51 9.45 8.23 2.85 6.59-3.59 12.32-5.45 19.23-3.07 11.41 1.97 13.84 10.62 21.99 6.91-6.65-1.13-11.1-.46-17.95.68-7.02 8.12-14.05 11.9-19.66 5.82-8.64 20.01-19.39 21.31-29.75 1.11-8.85-5.96-8.48 3.06-14.12 6.19-3.88 13.19-.67 18.21 1.03z"/></g><g class="uuid-7e620c8b-7c6b-44a5-bdc7-89f7aaf9c5f6"><path class="uuid-8b62705b-01ff-4579-b080-3737c7ff6ce5" d="M755.07 656.82c6.96 9.46 19.29 24.74 7.9 36.57-6.44 6.68-10.55 1.97-16.85 4.55-11.91 4.87-4.76-.74-11.81 8.27-8.47 10.8-11.48 24.14-23.99 32.32-10.74 7.02-27.09 11.58-38.89 15.74-9.58 3.39-23.64 9.8-33.15 2.76-5.72-4.24-6.2-4.63-6.32-12.2-.18-11.21 4.83-9.93 11.95-11.74 13.85-3.54 26.2 8.06 39.32-2.3 2.86-2.25 4.21-8.05 6.25-10.47 8.99-10.68 15.57-13.28 10.34-27.23-3.31-2.27-13.9-5.49-15.59-7.96-6.25-9.17 2.43-6.9.51-14.95-3.2-13.52-16.13-18.13-11.87-34.38-4.96 4.35-9.52 9.35-14.4 13.81-5.06-6.13-9.86-13.36-16.41-18.22-2.48 7.58 6.73 15.74 3.66 24.56-1.2 3.41-9.2 8.69-11.93 11.19-10.67-8.23-24.97-35.7-39.52-13.77 2.83 1.76 4.77 6.54 7.59 8.26-4.07 4.14-8.29 8.57-12.23 12.83 8.64 10.42 2.98 25.11 5.39 37.68 4 20.9 3.31 29.43-17.31 46.29-7.84-10.94-10.59-.88-16.65-2.25-5.46-1.25-17.39-9.36-22.12-7.62-5.67 2.1-5.48 20.39-14.92 26.34-13.06 8.23-9.26-.05-20.45-.66-15.63-.85-35.4 30.62-48.1 17.97-19.61-19.53 26.05-16.44 23.53-35.62-1.07-8.16-14.83-4.24-11.04-17.93 2.93-10.55 16.47-9.12 23.99-13.74 6.23-3.84 14.58-13.22 17.41-19.87 3.54-8.35-1.81-16.69 1.14-24.24 6.46-16.61 27-14.95 20.17-36.86-2.07-6.65-9.96-19.72-18.71-16.25-7.21 2.86-.59 17.65-9.93 22.71-20-12.26-15.82 33.02-27.76 35.39-11.57 2.3-13.84-12.73-23.56-8.99-10.31 3.97-10.41 18.67-2.23 23.99-11.25-1.99-28.29 4.53-37.74-5.29-7.19-7.47-.8-15.26-8.41-21.7-7.61 5.3-15.78 29.64-28.7 27.55-12.55-2.03-1.79-6.13-5.84-11.38-1.26-1.65-7.62-8.06-8.61-10.27-4.63-10.28-6.23-18.45-.39-33.13 3.6-9.05 18.46-24.72 11.23-33.72-11.03 6.11-12.07 20.43-22.7 28.46-2.5-8.71 1.8-19.37 1.44-26.52-4.97 4.62-10.31 8.93-16.7 11.2-7.99-15.18.58-33.4-7.76-48.07-6.34-11.14-19.83-22-29.69-31.04-7.46 7.18 1.99 6.14 3.76 12.82.57 2.16 4.21 5.94 5.16 8.58 1 2.71-3.27 6.17-2.31 8.6 3.52 8.67 10.93 14.68 10.77 25.03-.18 11.8-9.09 16.12-11.91 25.87-2.77 9.58 5.37 21.18-4.31 27.51-2.59-1.6-4.62-1.88-7.03-3.94-3.26 6.78 2.44 9.59-2.38 16.31-1.61 2.24-11.07.05-14.88 5.52 3.21 7.36 10.84 15.35 17.31 20.14 7.84 5.79 19.07 6.82 25.44 14.09-16.52 18-32.19 38.71-52.47 17.87-3.17 1.66-7.45 6.21-8.88 9.35 8.48 5.42 13.99 18.58.34 17.19-7.71-.79-9.86-18.51-18.13-4.57 7.06 4.57 7.79 11.51 1.46 17.38 5.4 6.98 12.85 13.48 19.01 20.2-14.34 15.59-19.65 22.57-38.5 17.65-6.8-1.78-6.69-7.23-15.29-6-5.05.72-7.69 9.72-14.33 10.62-2.89.39-7.18-.53-11.77-1.7 175.84 137 430.32 124.67 592-37.02a450.298 450.298 0 0054.37-65.8c1.51-4.92 2.1-9.89 1.08-14.95-2.71-13.39-18.68-28.63-29.36-38.37-12.67 15-29.75-8.57-38.7 7.55z"/><path class="uuid-8b62705b-01ff-4579-b080-3737c7ff6ce5" d="M755.07 656.82c6.96 9.46 19.29 24.74 7.9 36.57-6.44 6.68-10.55 1.97-16.85 4.55-11.91 4.87-4.76-.74-11.81 8.27-8.47 10.8-11.48 24.14-23.99 32.32-10.74 7.02-27.09 11.58-38.89 15.74-9.58 3.39-23.64 9.8-33.15 2.76-5.72-4.24-6.2-4.63-6.32-12.2-.18-11.21 4.83-9.93 11.95-11.74 13.85-3.54 26.2 8.06 39.32-2.3 2.86-2.25 4.21-8.05 6.25-10.47 8.99-10.68 15.57-13.28 10.34-27.23-3.31-2.27-13.9-5.49-15.59-7.96-6.25-9.17 2.43-6.9.51-14.95-3.2-13.52-16.13-18.13-11.87-34.38-4.96 4.35-9.52 9.35-14.4 13.81-5.06-6.13-9.86-13.36-16.41-18.22-2.48 7.58 6.73 15.74 3.66 24.56-1.2 3.41-9.2 8.69-11.93 11.19-10.67-8.23-24.97-35.7-39.52-13.77 2.83 1.76 4.77 6.54 7.59 8.26-4.07 4.14-8.29 8.57-12.23 12.83 8.64 10.42 2.98 25.11 5.39 37.68 4 20.9 3.31 29.43-17.31 46.29-7.84-10.94-10.59-.88-16.65-2.25-5.46-1.25-17.39-9.36-22.12-7.62-5.67 2.1-5.48 20.39-14.92 26.34-13.06 8.23-9.26-.05-20.45-.66-15.63-.85-35.4 30.62-48.1 17.97-19.61-19.53 26.05-16.44 23.53-35.62-1.07-8.16-14.83-4.24-11.04-17.93 2.93-10.55 16.47-9.12 23.99-13.74 6.23-3.84 14.58-13.22 17.41-19.87 3.54-8.35-1.81-16.69 1.14-24.24 6.46-16.61 27-14.95 20.17-36.86-2.07-6.65-9.96-19.72-18.71-16.25-7.21 2.86-.59 17.65-9.93 22.71-20-12.26-15.82 33.02-27.76 35.39-11.57 2.3-13.84-12.73-23.56-8.99-10.31 3.97-10.41 18.67-2.23 23.99-11.25-1.99-28.29 4.53-37.74-5.29-7.19-7.47-.8-15.26-8.41-21.7-7.61 5.3-15.78 29.64-28.7 27.55-12.55-2.03-1.79-6.13-5.84-11.38-1.26-1.65-7.62-8.06-8.61-10.27-4.63-10.28-6.23-18.45-.39-33.13 3.6-9.05 18.46-24.72 11.23-33.72-11.03 6.11-12.07 20.43-22.7 28.46-2.5-8.71 1.8-19.37 1.44-26.52-4.97 4.62-10.31 8.93-16.7 11.2-7.99-15.18.58-33.4-7.76-48.07-6.34-11.14-19.83-22-29.69-31.04-7.46 7.18 1.99 6.14 3.76 12.82.57 2.16 4.21 5.94 5.16 8.58 1 2.71-3.27 6.17-2.31 8.6 3.52 8.67 10.93 14.68 10.77 25.03-.18 11.8-9.09 16.12-11.91 25.87-2.77 9.58 5.37 21.18-4.31 27.51-2.59-1.6-4.62-1.88-7.03-3.94-3.26 6.78 2.44 9.59-2.38 16.31-1.61 2.24-11.07.05-14.88 5.52 3.21 7.36 10.84 15.35 17.31 20.14 7.84 5.79 19.07 6.82 25.44 14.09-16.52 18-32.19 38.71-52.47 17.87-3.17 1.66-7.45 6.21-8.88 9.35 8.48 5.42 13.99 18.58.34 17.19-7.71-.79-9.86-18.51-18.13-4.57 7.06 4.57 7.79 11.51 1.46 17.38 5.4 6.98 12.85 13.48 19.01 20.2-14.34 15.59-19.65 22.57-38.5 17.65-6.8-1.78-6.69-7.23-15.29-6-5.05.72-7.69 9.72-14.33 10.62-2.89.39-7.18-.53-11.77-1.7 175.84 137 430.32 124.67 592-37.02a450.298 450.298 0 0054.37-65.8c1.51-4.92 2.1-9.89 1.08-14.95-2.71-13.39-18.68-28.63-29.36-38.37-12.67 15-29.75-8.57-38.7 7.55z"/></g><path d="M707.08 324.83c-10.28 11.9-19.79 22.77-32.13 6.07-5.1 2.75-6.91 6.47-7.04 11.38l2.34 16.44c-.97 1.7-.33 6.56-3.86 9.41 5.56 11.14 15.3 3.48 21.46-3.19 2.37 1.51 4 3.46 5.28 5.75-2.7 1.65-4.62 6.36-7.29 8.01 3.96 4.14 8.06 8.45 12 12.65-8.18 10.41-19.36 19.59-28.4 29.57 10.25 14.88 15.81 1.07 24.27-3.66-1.94 10.58 12.13 22.37 22.37 14.93 10.79-7.84-3.03-16.24-3.71-28.12 3.45 10.73 14.65 29.48 25.86 20.46 10.11-8.12-2.72-21.22-1.16-34.09 1.84-15.13 3.54-19.87-4.21-35.15-5.32-10.48-14.64-24.25-25.79-30.47z" opacity=".52" stroke-width="0" fill="#fff"/><g opacity=".52"><path class="uuid-8b62705b-01ff-4579-b080-3737c7ff6ce5" d="M698.63 525.73c-.81-.88-1.61-1.51-2.41-1.96-.7 1.63-1.07 3.28-.93 4.93 1.49-.89 2.11-1.91 3.34-2.97z"/><path class="uuid-8b62705b-01ff-4579-b080-3737c7ff6ce5" d="M792.85 161.85c1.06 4.89-.14 9.47 1.81 14.88 2.28 6.29 9.61 12.29 13.11 17.93 6.98 11.28 24.9 29.91 10.41 41.71 5.54 9.26 17.42 15.21 21.54 25.17 2.68 6.5-1.16 14.17 1.27 20.37 1.73 4.41 6.84 7.3 9.85 10.87 7.11 8.42 8.23 17.1 1.8 27.24-4.69 7.4-15.9 11.66-17.04.29-.95 12.06-9.06 7.24-14.59.82-1.02 9.75-7.36 12.59-14.21 9-10.03-5.26-9.47-16.05-13.41-24.64.62 7.5 1.33 14.81-6.37 18.79-8.65-7.65-18.17-12.82-28.39-17.67-13.35-6.35-8.88-2.53-19.91 5.28-6.59-6.86-20.35-22.29-27.8-9.37 5.58 7.26 13.2 11.23 19.96 17.41 3.19 2.94 5.89 6.84 9.39 9.39 3.95 2.89 8.15 3.18 11.78 5.46 9.14 5.71 5.68 9.86 10.1 18.07 4.8 8.87 11.48 9.34 12.19 21.05 1.16 19.31-.64 18.5 18.13 20.6 10.03 1.12 22.47 8.83 9.63 18.58-9.48 7.2-21.56-8.37-19.58 8.29.55 4.66 6.7 3.84 5.42 10.41-.95 4.91-10.02 8.74-13.98 8.34 5.23 20.64-23.89 8.71-29.94 12.25-7.99 4.69-4.35 12.92-8.02 18.96-7.17 11.81-17.41 6.46-27.14 8.64-8.89 2-22.57 17.2-27.29 25.45-3.35 5.88-5.77 11.75.77 16.44 4.14 2.99 8.92-.98 13.85 1.88 2.69-6.28 10.46-12.23 15.07-16.57 7.35 4.49 3.34 15.72.3 21.74 3.1 3.38-19.83 36.94 5.22 21.39 10.76 5.64-.16 10.26-3.79 16.36-4.42 7.41-4.21 13.6-10.8 20.12 3.21 16.29 19.69 6.71 27.86.1 3.77-3.04 7.25-10.3 12.56-9.89 5.31.42 9.35 8.59 7.84 13.27 12.69-3.07 34.27-37.89 37.51-11.24 1.68 13.87-18.85 31.83 1.78 27.97 9.79-1.84 13.62-6.44 20.54-.6 2.52 2.13 9.56 12.8 10.48 16.21 1.47 5.46-4.31 13.28 3.2 14.36 4.91.7 8.1-6.39 12.66-6.47 1.37 8.34-6.78 14.36-6.67 21.92.12 8.2 9.63 10.38 12.6 16.86 89.13-160.15 72.54-363.3-49.74-507.44z"/></g><path d="M768.22 133.97c175.33 175.34 175.34 459.63 0 634.96-175.35 175.35-459.63 175.34-634.96 0-175.35-175.34-175.35-459.62 0-634.96 175.33-175.34 459.61-175.34 634.96 0z" style="mix-blend-mode:multiply" fill="url(#uuid-62cb33df-bafe-4c00-8079-302ce661b497)" stroke-width="0"/></g></g></svg>